<?xml version="1.0" encoding="UTF-8"?>
<svg width="275px" height="280px" viewBox="0 0 275 280" version="1.1" xmlns="http://www.w3.org/2000/svg" xmlns:xlink="http://www.w3.org/1999/xlink">
    <!-- Generator: Sketch 54.1 (76490) - https://sketchapp.com -->
    <title>trojan-logo-yellow-globe</title>
    <desc>Created with Sketch.</desc>
    <g id="Page-1" stroke="none" stroke-width="1" fill="none" fill-rule="evenodd">
        <g id="Large-Web" transform="translate(-401.000000, -512.000000)" fill="#FFCA00">
            <path d="M495.052261,622.465197 C495.398723,619.533605 497.84731,605.599918 513,607.114734 C513,607.114734 511.142648,608.899076 510.454627,609.592243 C510.454627,609.592243 498.629469,608.395863 495.116978,622.510749 C496.137332,623.190197 497.319154,622.179074 497.634567,621.877907 C499.224762,625.448107 502.602809,624.200241 502.602809,624.200241 C503.605993,624.200241 506.989006,622.301881 506.989006,622.301881 C511.24906,622.301881 515.259808,620.659108 516.134863,621.167275 C517.01389,621.669428 519.02125,621.795718 522.404264,621.669428 C525.78529,621.54414 530.983967,620.487714 531.609715,620.487714 C532.23745,620.487714 534.421609,620.35541 542.830473,625.33585 C551.217485,630.305264 553.429456,647.13091 553.794972,650.571813 C553.688694,650.578829 553.631086,650.579832 553.631086,650.579832 C552.576253,650.678057 550.275883,650.194948 550.178545,652.419056 C550.120803,653.767112 550.661497,654.262813 551.097019,654.444127 C552.295498,654.21499 554.381885,653.922121 556.883033,654.019065 C560.8459,654.1735 570.919616,654.484114 571.95626,654.537337 C572.995932,654.588816 582.15514,654.432636 583,654.069671 C583,654.069671 582.289389,656.193364 566.369284,655.985707 C556.893628,655.863643 552.990277,655.391856 551.328332,655.051348 C549.842835,657.956934 552.766957,658.997165 552.766957,658.997165 C552.525597,659.853131 552.772917,660.45351 553.360921,660.868464 C553.406611,660.900537 553.468192,660.921586 553.516862,660.950652 C552.149155,664.304355 550.278863,669.357963 549.776278,673.014361 C548.952873,678.958013 547.794742,679.767873 547.047817,680.597779 C546.299899,681.424679 539.527913,691.757412 537.374545,705.002835 C536.201515,712.220413 534.877511,714.943667 534.521927,716.21158 C534.172303,717.480494 532.284133,721.574899 532.354653,722.535104 C532.426167,723.496312 533.72832,724.500619 534.979816,723.90926 C534.979816,723.90926 539.089889,714.984762 539.710671,711.807464 C539.710671,711.807464 539.695772,718.315412 538.999503,720.529497 C538.999503,720.529497 539.042213,722.342662 540.475475,722.497017 L539.534866,728.972891 C539.534866,728.972891 539.882504,730.798083 541.73293,730.864235 L541.901783,734.918547 C541.901783,734.918547 544.204139,736.708659 545.798307,735.165114 L545.896639,732.286502 C545.896639,732.286502 549.132651,733.89219 550.322566,732.225361 C550.322566,732.225361 550.23218,722.838802 552.168027,717.251969 C552.168027,717.251969 553.564538,718.471771 555.235186,717.786196 C555.235186,717.786196 556.106267,725.281412 555.826171,727.40529 C555.826171,727.40529 556.888949,729.470033 559.509146,728.06681 L560.092184,713.901273 C560.092184,713.901273 561.340701,715.617215 562.971619,715.38869 C562.971619,715.38869 563.979769,714.711133 564.912432,712.183327 C564.912432,712.183327 564.947196,712.215401 564.997851,712.249479 C565.621613,711.120887 572.070793,699.500196 572.762095,696.885189 C572.762095,696.885189 569.416826,709.268633 566.876089,713.442219 C567.742204,713.89125 568.703671,714.211987 569.347298,713.905282 C569.347298,713.905282 570.267049,713.403129 571.21759,710.237859 C572.206868,706.946299 572.367775,706.650619 572.485972,706.227648 C572.602182,705.805679 574.617489,700.970573 574.736679,697.561743 C574.851896,694.148905 576.792708,691.446698 576.792708,691.446698 C576.792708,691.446698 577.65485,690.301067 577.593269,689.129375 C577.530694,687.95167 577.717425,691.475765 579.411912,696.017196 C581.107391,700.55562 579.746637,705.563122 579.626454,706.298811 C579.359269,707.998716 581.793728,708.931859 582.279428,707.030492 C583.98782,700.373201 581.314981,691.99195 581.314981,691.99195 C579.91847,687.036568 581.477874,670.693029 582.279428,663.334127 C582.291347,662.703679 582.297306,662.152413 582.305252,661.701377 C584.211301,660.821355 583.454444,657.742283 583.454444,657.742283 C585.563116,656.193726 584.70296,653.581727 584.70296,653.581727 C587.163243,650.750223 584.961206,649.063349 584.429816,648.713545 C585.241303,647.371463 584.22322,644.227241 584.22322,644.227241 C586.333879,639.000235 582.557538,635.392949 582.557538,635.392949 C583.495167,631.69245 578.710676,628.1443 578.710676,628.1443 C578.710676,628.1443 579.866821,626.147714 579.187437,623.794309 C578.757359,622.29286 577.111542,620.958796 577.111542,620.889637 C577.160211,617.937857 574.505251,617.616118 574.505251,617.584045 C574.184431,613.92063 569.960134,614.904891 569.960134,614.904891 C570.617666,612.345011 568.07991,611.110175 568.07991,611.110175 C567.893178,605.893192 561.409235,606.842372 561.409235,606.842372 C561.0318,606.269055 559.527024,605.705762 559.527024,605.705762 C556.614812,598.970291 544.96199,596.121748 542.233529,595.557452 C539.511028,594.98614 520.333335,591.66852 505.671955,598.020109 C491.010576,604.376709 490.635127,616.230937 490.635127,616.230937 C490.493397,620.405166 492.678215,621.247164 493.739522,621.410565 C492.899207,619.238 490.901738,611.567807 501,607 C501,607 496.202985,609.79011 494.775457,614.668772 C493.7662,618.1325 493.817111,620.438272 493.918756,621.433329 C494.153517,621.456757 494.300223,621.445915 494.300223,621.445915 C494.524856,621.939961 494.782038,622.264535 495.052261,622.465197 Z M549.419533,641.041542 C549.085508,638.422569 548.36231,636.190023 547.333874,634.291419 C547.13721,633.930591 546.928627,633.582792 546.711105,633.244014 C545.809233,631.852818 544.731556,630.660079 543.51085,629.643744 C543.013231,629.234805 542.495747,628.848919 541.957405,628.493101 C530.607525,621.026953 510.169396,625.699685 505.266709,626.978623 C505.077991,626.984637 504.896226,626.991653 504.695589,627.014706 C500.190202,627.497815 496.659195,624.21728 497.651452,621.956087 C497.651452,621.956087 488.762848,633.722112 488.314892,641.982084 C487.81628,651.142123 491.000643,654.755423 492.021705,656.175685 C493.045747,657.593942 493.685401,658.238423 492.661359,660.820353 C491.63831,663.399276 488.628759,668.905925 488.445008,670.368283 C488.265229,671.767497 488.187756,673.205801 492.149835,674.753355 L490.807952,677.462578 C490.807952,677.462578 490.870527,679.785915 492.149835,680.560694 C492.149835,680.560694 491.390991,685.712527 493.365574,685.915995 C496.509214,686.236731 496.241036,688.238329 496.241036,690.172772 C496.241036,692.106213 498.023922,695.683429 503.848346,695.915963 C508.720243,696.108405 522.274148,699.205519 533.124423,672.75276 C533.124423,672.75276 533.415446,670.430426 533.989545,671.59009 C534.068012,671.752463 534.154424,671.949916 534.249777,672.168418 C534.807984,673.467402 535.666153,675.482029 537.561276,674.847572 C537.615905,674.827526 537.66954,674.806477 537.732115,674.784427 C541.006864,673.464395 543.308227,670.75417 544.840813,668.042942 C545.580785,666.732933 548.689661,660.47957 546.522387,656.181699 C546.319764,655.785789 546.077411,655.400905 545.779436,655.041079 C545.305655,654.468764 544.712684,653.995678 544.045219,653.644872 C542.191812,652.667627 539.766293,652.66462 537.601999,654.19714 C535.785343,654.354502 533.999477,654.565988 532.19772,654.788499 C531.423977,654.88071 530.82604,655.001989 530.01952,655.039074 C529.268622,655.073152 528.431311,655.005998 527.678427,655.096205 C527.372506,655.135295 524.26363,655.584326 524.165298,655.356804 C523.923938,654.791505 523.730254,654.231219 523.61901,653.725056 C523.561401,653.46546 523.507766,653.223905 523.45413,652.988364 C523.491874,653.145725 530.174467,652.541337 530.715789,652.481199 C532.258308,652.318826 533.802814,652.056223 535.351292,651.921914 C536.275016,651.839726 537.202712,651.839726 538.122463,651.770567 C538.819725,651.716442 539.466331,651.452837 540.148695,651.420763 C541.880925,651.346593 543.558526,651.254381 545.280823,651.111052 C545.52417,651.089001 548.657877,650.865488 548.66781,650.75323 L549.010481,647.952798 C548.992603,648.113166 544.454439,648.359733 544.167389,648.383788 C541.053547,648.660423 537.944671,648.939063 534.831822,649.216701 C532.870151,649.390099 530.9055,649.566504 528.940849,649.741907 C526.87886,649.924326 524.816871,650.109752 522.748922,650.291169 C522.489683,649.511378 522.199654,648.847854 521.819239,648.261507 C521.917571,648.406841 523.649801,648.089111 523.829579,648.084099 C525.035386,648.061046 526.254105,647.929745 527.463885,647.929745 C528.665719,647.929745 529.848681,647.730287 531.029656,647.546865 C532.176861,647.371463 533.305195,647.400529 534.471272,647.247177 C536.132981,647.01765 537.854285,647.108859 539.538839,646.936463 C542.509653,646.621741 545.458615,646.222824 548.446315,645.966235 C548.793953,645.934161 549.140597,645.905095 549.489228,645.879035 L549.600473,645.867007 C549.622324,645.37187 549.628284,644.887758 549.628284,644.410662 C549.627587,644.048937 549.620486,643.693382 549.607136,643.343901 C546.138817,643.667942 542.64973,644.2704 539.180145,644.299701 C537.111791,644.315918 535.013431,644.6058 532.954078,644.785203 C530.732697,644.974741 528.508316,645.168334 526.289935,645.359899 C524.644653,645.502813 523.000371,645.644714 521.352089,645.787628 C520.984026,645.819049 519.869835,646.123121 519.524776,645.943718 C518.671629,645.492678 517.633451,645.060895 516.356232,644.6058 C515.879151,644.434506 515.430074,644.264225 515,644.088877 C515.210036,644.173004 515.725124,644.026035 515.944162,644.007791 C516.847317,643.928732 517.750472,643.854741 518.657627,643.773655 C523.033377,643.371266 527.395125,643.016515 531.774876,642.638452 C534.228296,642.428642 536.679717,642.213765 539.131137,642.000914 C541.103475,641.831647 543.085815,641.806308 545.054152,641.561023 C545.447285,641.512047 548.857044,640.826805 549.419533,641.041542 Z M565.863087,559.59118 C566.092402,559.703386 566.317045,559.820332 566.535404,559.943652 C565.136907,559.54674 563.055052,558.878205 561.700258,559.039575 C562.018098,559.38136 563.013336,559.040578 562.953741,559.762235 C561.43208,559.73818 557.276317,559.438492 558.299366,560.847728 C557.425305,561.004088 557.109451,560.601162 556.505554,560.485897 C556.508534,560.246347 556.821408,560.320517 556.865111,560.123064 C556.475757,559.965702 555.513296,559.453526 555.07428,559.943652 C555.543094,560.259377 556.693279,560.831692 556.505554,561.207555 C555.641426,560.90085 554.907413,561.104318 554.537924,561.750803 C554.684925,561.923199 555.696055,562.120652 555.253065,562.293048 C554.355166,562.357195 553.69366,562.18079 553.105656,561.930215 C552.490833,562.345168 554.040305,562.512552 553.463226,562.835294 C551.700205,562.745086 551.301912,561.281725 549.881563,560.847728 C551.632664,560.710413 553.607248,562.058509 554.537924,560.665309 C552.427265,559.095704 547.447104,559.629931 546.120121,558.317918 C538.886273,557.271514 535.768457,562.885409 529.826829,564.279611 C529.731477,565.267881 529.397745,566.015598 529.467272,567.171253 C530.82902,568.264764 532.55231,567.054986 533.766063,566.449595 C534.485177,567.649351 535.286731,568.76792 535.736673,570.243309 C537.466917,570.483861 536.867986,568.929291 538.60121,569.520649 C539.107768,568.948334 539.107768,567.865848 539.31635,566.990838 C540.445677,567.226379 540.463556,566.342349 540.928397,565.906347 C540.37019,565.567569 539.594461,565.445288 539.495136,564.641442 C539.825888,563.410615 541.175717,563.204141 542.182873,562.653877 C541.595862,561.447105 544.654082,560.733466 545.046416,562.112634 C543.393646,562.55064 542.05673,563.340454 542.899007,565.364102 C544.527939,567.118131 547.625889,564.558251 549.345207,566.087764 C548.068879,566.916668 546.099262,565.936416 544.867631,566.809422 C545.0782,567.318591 545.700969,567.414812 546.120121,567.713498 C546.022782,567.975099 546.329697,568.646642 545.942329,568.616572 C544.908354,568.816031 544.972916,567.908947 543.971718,568.073325 C543.932982,568.215652 543.823724,568.28481 543.615141,568.254741 C543.324119,568.895212 543.377754,569.980706 543.793927,570.424726 C542.927812,570.393654 542.58812,570.894805 542.004088,571.146383 C540.182465,570.296431 538.505858,571.36288 536.809385,571.689631 C535.707869,571.044148 534.967897,571.286705 533.586285,571.507212 C534.16535,570.901821 532.716197,571.324793 532.691366,570.784552 C532.585088,569.894508 532.864191,569.393357 533.766063,569.520649 C533.425378,568.989429 533.396574,568.82906 533.586285,568.073325 C532.844326,568.409096 531.881866,568.522356 531.259097,568.979406 C531.124015,570.078931 531.54416,570.617168 531.437883,571.689631 C529.731477,572.061485 526.679216,572.028409 526.067374,574.037023 C526.263044,574.159303 526.99507,574.639406 526.603729,574.760685 C524.57849,572.714986 522.206607,577.660345 519.441396,576.02559 C519.334124,576.400451 519.661897,577.212316 519.261617,577.290495 C518.182946,577.054954 516.261999,576.576856 516.037524,578.013155 C519.116602,578.172521 519.493045,581.976258 517.291007,583.434608 C514.008312,583.800448 510.461412,582.32105 508.51762,583.975851 C508.966569,586.395408 507.06946,587.907882 506.369218,589.759134 C507.35055,590.138004 506.62349,591.26359 506.369218,591.927114 C507.574031,592.106526 508.478883,591.47708 509.414526,591.927114 C509.296329,592.585626 509.532722,592.889324 509.770109,593.191017 C511.317595,592.766041 512.449901,591.920098 514.785034,592.287943 C515.862712,591.327737 517.17579,590.60608 518.185926,589.577718 C518.317035,589.024447 517.878018,589.046497 518.008134,588.493227 C518.911993,586.091711 522.902876,586.807354 523.200851,583.795436 C524.726485,583.06576 525.742581,584.007924 527.31887,583.795436 C529.01435,583.568916 530.236049,581.273644 531.975231,582.893364 C532.114287,584.313627 533.085686,585.156563 534.301426,585.724868 C534.884464,585.998497 535.490347,586.214994 536.076365,586.485615 C536.354476,586.614912 536.600802,586.763253 536.852094,586.928633 C537.155036,587.127089 537.577168,587.234335 537.846339,587.47589 C538.096638,587.700406 538.409512,588.170485 538.570419,588.485208 C538.881306,589.090599 538.678683,589.803236 538.774035,590.460746 C539.283573,590.558971 539.450439,589.981645 539.644123,589.632844 C539.848733,589.262995 539.991761,589.104631 540.01262,588.634551 C540.021559,588.411038 540.007653,588.208573 539.956997,587.993078 C539.937132,587.913896 539.720604,587.534023 539.72557,587.506961 C539.801057,587.102031 540.426805,587.432791 540.689024,587.507964 C540.947269,587.581132 541.715052,587.912894 541.840202,587.517987 C541.97727,587.080983 541.237298,586.477597 540.927404,586.353312 C540.440711,586.160869 539.941105,586.00451 539.461365,585.796032 C538.525723,585.387092 537.696358,584.80275 536.715026,584.502059 C535.991939,584.280551 535.446644,583.841542 535.224156,583.107857 C535.126817,582.782109 533.84155,581.392918 534.481204,581.086214 C534.967897,580.851675 535.474455,580.643196 536.273029,580.72338 C536.253164,581.172412 535.93731,581.283667 536.273029,581.628459 C536.836202,581.713655 536.677282,581.072181 537.347727,581.265626 C537.948644,582.248884 538.738278,583.925736 540.212263,583.434608 C540.258946,584.501057 542.815574,584.520101 543.435363,585.601585 C543.118516,585.945375 543.304254,586.796329 543.255584,587.409738 C545.813206,588.382973 545.372203,592.381157 548.627086,592.649774 C548.921089,592.459336 548.137414,591.832897 548.090731,591.384868 C549.123712,591.711619 548.584377,590.733372 548.807858,590.662209 C549.119739,590.610089 549.769325,591.239535 549.702777,590.481794 C548.517829,589.489515 548.089738,588.849044 547.554375,587.229324 C548.189063,587.431789 548.454261,588.008112 549.522999,587.769564 C550.094118,587.584139 548.595302,587.053921 549.165429,586.868495 C550.267937,586.330259 551.844227,586.61391 552.390515,587.58915 C552.793775,586.553772 554.397875,586.725166 555.253065,586.14383 C552.622936,585.767967 554.054211,583.44864 554.001568,581.807871 C555.566932,581.702629 555.010711,579.455468 556.686326,579.459477 C556.979335,580.367563 558.685741,579.850375 559.193292,580.542966 C558.926107,580.815592 558.173223,580.598092 558.299366,581.265626 C559.588606,581.168402 559.164488,581.992295 559.909426,582.169702 C560.394132,582.062456 562.034983,581.700625 562.595177,581.086214 C562.175032,581.056145 560.616621,581.182435 560.627547,580.182137 C561.371492,579.364259 563.425535,578.914225 564.565787,579.097646 C564.41382,579.486539 563.642064,579.250998 563.490096,579.638889 C563.754301,579.797253 564.058236,579.910513 564.027445,580.363554 C563.959904,580.957919 563.28052,580.932861 563.131533,581.44604 C565.553079,582.799148 568.938079,583.178018 570.117068,585.784004 C566.803582,588.375957 561.488695,583.127903 558.119587,586.325247 L555.612622,586.325247 C555.301734,586.4355 555.624541,587.182215 555.253065,587.229324 C553.695647,586.981755 552.871249,587.473885 552.390515,588.312812 C552.925877,589.096613 553.21094,589.187822 552.747092,590.30138 C553.688694,590.674236 554.135657,591.550248 554.716709,592.287943 C556.576075,591.803831 557.746125,593.959783 558.655943,592.287943 C560.728858,592.304982 562.652786,593.885612 564.027445,592.108531 C564.568767,592.321019 565.096183,592.546537 565.639492,592.287943 C566.447998,594.27651 565.723918,597.237311 565.102143,600.057789 C565.086251,600.077835 565.070359,600.090865 565.054467,600.107904 C565.167697,601.159319 565.862973,601.869951 566.310929,602.830157 C566.317882,602.844189 566.321855,602.856217 566.327815,602.871251 C566.383437,602.763003 566.450978,602.667784 566.535404,602.588602 L566.535404,603.460605 C566.633736,603.848496 566.654594,604.234382 566.608905,604.622273 C568.857625,605.988411 570.150838,608.316759 571.550329,610.53786 C574.522136,611.323665 573.896388,614.931953 575.847133,616.682975 C577.111542,617.818583 578.471303,618.534227 578.890455,620.476689 C580.346561,621.334659 581.615936,623.340266 581.03985,625.175481 C582.08773,626.105618 582.092696,628.089174 582.829689,629.332028 C584.403992,629.474355 585.265141,628.899034 585.874003,628.068125 C589.668223,627.79149 590.763779,625.425054 594.111035,624.451819 C593.836898,623.879504 594.04846,623.658998 594.111035,623.007502 C595.375444,622.841119 595.880015,621.767654 597.15535,622.103425 C597.71157,621.720546 597.194086,621.298576 597.513913,620.83852 C597.752294,620.537829 598.528023,620.778382 598.767396,620.476689 C598.667078,619.472382 598.938235,618.841934 599.842094,618.850955 C599.743762,618.167384 599.408043,617.722362 599.48353,616.863389 C600.453937,616.216904 600.617823,614.75655 600.915798,613.430504 C599.134899,611.213412 595.103293,610.641098 595.006948,607.286392 C594.547072,608.568337 593.928277,609.69292 593.216116,610.719277 L590.529371,610.719277 C589.57883,610.113887 590.399256,607.722394 588.918318,607.647221 C588.662059,608.425007 589.10207,609.041423 588.918318,609.455374 C588.518038,608.595399 587.661855,608.192473 587.664835,606.925563 C585.895855,605.638607 584.217261,604.261444 583.546816,601.86494 C584.267916,602.113511 584.18051,601.541196 584.441735,601.323697 C584.839036,601.584295 585.304871,601.776737 586.053782,601.684525 C587.586368,604.353656 590.108233,606.023491 593.216116,607.103973 C593.578652,606.508606 594.217313,606.188871 595.006948,606.021487 C595.629716,606.596808 596.163092,607.265344 596.439216,608.189466 C599.749722,609.02238 602.500034,609.381204 606.286307,608.731712 C607.371931,610.651121 609.278973,611.736614 610.763883,613.25009 C610.366583,614.589166 611.89321,615.459164 612.912285,615.960315 C613.346336,615.903184 613.706886,614.84776 613.986983,615.236653 C615.923823,620.832506 618.33047,626.270997 620.613955,631.500008 C621.438353,633.388345 621.546617,635.552315 622.942135,637.102877 C624.510479,633.225972 623.362281,628.594334 622.404786,624.09099 C622.672964,623.579816 623.192435,623.32022 623.298712,622.644668 C622.929223,620.340376 624.398241,617.016742 623.478491,614.69541 C624.496573,614.68238 623.632445,613.778303 624.553189,614.154167 C624.705156,613.399433 624.204557,613.299203 624.194625,612.70584 C626.553596,615.870108 627.96302,619.985561 629.56712,623.910576 C629.674391,623.478584 629.341652,622.599565 629.743919,622.466258 C630.046861,623.801325 630.530574,625.313799 630.993429,626.595743 C632.956093,634.291419 634,642.355943 634,650.662021 C634,691.722331 608.494304,726.881086 572.632973,740.865206 C568.991714,741.325263 565.185576,743.386998 561.700258,743.534337 C563.436461,742.755548 565.649424,742.458866 566.892975,741.18494 C565.717959,740.955413 565.089231,741.119791 564.027445,741.365355 C564.311515,740.657729 563.56459,740.991496 563.490096,740.642695 C563.269594,740.05735 564.070155,740.504377 563.850646,739.919033 C558.735403,739.841856 553.630092,743.166492 549.165429,741.546771 C545.477487,744.124693 539.474277,741.523719 535.555902,742.992091 C532.309957,742.13813 527.716171,744.069566 524.453341,743.170501 C524.202048,743.521307 524.356995,744.278045 523.558421,744.07558 C523.386589,744.850359 524.439435,744.391305 524.453341,744.978654 C524.055047,745.600081 522.973397,745.533929 522.305932,745.881728 C522.321824,745.929839 522.359567,745.956901 522.382412,746 C499.136363,742.082001 478.696248,729.693546 464.302053,712.089111 C464.794705,712.050021 465.049971,711.771381 465.004281,711.189044 C464.435149,709.412964 462.993941,708.517908 461.959967,707.212911 C462.547971,707.565721 463.758745,709.075188 463.749805,708.838645 C463.009833,707.720076 461.415665,706.500274 461.064054,705.586174 C461.784161,706.177533 462.305618,706.448154 463.21345,706.491253 C462.573796,703.97347 461.955,701.482749 461.422618,698.720405 C460.675693,694.850516 458.160781,692.164346 461.064054,689.323822 C461.625241,689.10532 461.952021,688.654284 462.854886,688.782579 C463.294896,687.402409 462.885677,686.453229 462.854886,685.348692 C462.837007,684.73829 463.234308,684.075768 463.21345,683.360124 C463.187625,682.429988 462.903555,681.136016 462.854886,680.288068 C462.709871,677.736207 461.462348,674.596996 461.601403,673.241884 C461.64312,672.840963 462.136765,672.065181 462.317537,671.434733 C462.533073,670.685011 462.485397,669.856107 462.676101,669.266753 C463.089293,667.988818 464.064666,667.074718 464.288147,665.832866 C464.578177,664.216153 463.471695,661.395674 463.21345,661.495905 C463.608764,661.107011 463.955408,660.559754 463.572013,659.869168 C460.770052,659.440183 460.43334,656.381157 458.199518,655.533209 C457.981003,655.45102 457.342342,655.646469 456.76725,655.533209 C455.709437,655.32473 455.284326,654.348488 454.259291,655.171378 C454.54932,652.892143 452.778353,652.693687 451.753318,651.738493 C451.143462,651.604185 451.457329,652.405024 451.036191,652.460151 C450.760067,652.200554 450.879257,651.53703 450.858399,651.015833 C450.237617,650.917608 449.516517,650.922619 449.425138,650.292171 C450.358794,648.919017 449.696295,647.845552 449.425138,646.318043 C448.87885,643.246989 448.777538,639.753966 446.201044,640.716176 C445.381612,638.436941 444.713154,634.399668 444.76977,632.404084 C444.329759,632.465225 444.191697,632.83307 444,633.144786 C448.242176,609.856295 460.79687,589.477487 478.416151,575.224751 C480.571506,573.905721 482.714942,572.953534 484.343874,570.965969 C484.429294,570.860727 484.498821,570.750474 484.570335,570.640221 C489.26146,567.427842 494.247581,564.624403 499.481021,562.280018 C498.131193,563.122954 496.899561,564.084162 495.804005,565.182685 C496.429754,565.021315 496.109927,565.772039 495.983784,565.906347 C498.93374,565.092478 501.427793,562.750098 504.577393,561.750803 C505.411723,561.485193 506.356305,561.594443 507.264137,561.388972 C508.691439,561.063223 510.00551,560.222292 511.382156,559.943652 C513.411368,559.534713 515.504148,559.575807 517.469792,558.678746 C517.155925,558.574507 516.418932,558.897248 516.396088,558.496328 C517.516475,557.937043 518.82558,559.074656 519.261617,557.412839 C520.829961,557.205362 523.33196,556.490721 524.633119,555.426276 C525.551876,555.203765 526.821251,554.863984 527.987328,554.568305 C531.34849,554.207477 534.755341,554 538.209869,554 C543.951853,554 549.575641,554.519193 555.041502,555.502451 C554.523025,555.525504 554.101887,555.714939 554.001568,556.328348 C554.977934,556.54685 555.251078,557.477989 555.969199,557.955084 C556.849219,557.956087 558.834728,558.617606 558.835721,558.317918 C557.60111,557.932031 554.891521,557.013923 556.069517,555.700907 C558.784072,556.220099 561.463864,556.842529 564.094986,557.588242 C563.239797,557.523092 563.658949,557.872896 564.027445,558.136501 C562.485919,557.543138 563.257675,557.076065 560.98313,557.412839 C562.223765,558.122948 563.674028,558.620993 565.033901,559.210866 C566.279004,559.506121 568.181601,560.006309 567.986036,559.99994 C567.193741,559.915311 566.506342,559.76663 565.863087,559.59118 Z M562,647 C562,647 563.467503,648.117567 564.494869,649.376324 C564.823261,649.777084 564.964652,650.339669 565,650.919631 C564.244014,650.947869 563.496009,650.976106 562.758267,651 C562.029647,649.121097 562,647 562,647 Z M545,619.491391 C545,619.491391 559.116365,618.382792 561.030701,618.247309 C562.943055,618.107524 568.490963,617 569,617 C569,617 567.344145,620.11182 563.421391,620.220422 C556.409755,620.405367 545.637782,622.261276 545,619.491391 Z M571.184265,629 C574.353958,632.943455 572.410149,638 572.410149,638 C572.101557,634.056545 567.801422,629.809424 568.007149,629.913089 C568.210756,630.010471 571.184265,629 571.184265,629 Z M569.06327,650 C568.893217,649.198234 568.729062,647.990186 568.59243,646.170756 C568.085219,639.475957 565.04982,633.917566 561,630.631992 L565.299493,630 C565.299493,630 573.192711,639.39843 570.403053,649.96369 C569.957769,649.976447 569.51052,649.988224 569.06327,650 Z M542,615.652547 C542,615.652547 548.739708,615.038246 553.267053,614.177858 C558.060002,613.25962 561.134573,613.199935 563.274498,613.022715 C565.477806,612.839986 567,613.819745 567,613.819745 C567,613.819745 566.964787,615.041001 563.563242,615.325654 C559.677774,615.652547 556.573021,615.417478 553.17047,615.947301 C549.640146,616.500998 544.265685,618.16209 542,615.652547 Z M552,627.862892 C552,627.862892 571.087104,628.067521 575,623 C575,623 570.19462,632.133323 552,627.862892 Z M555.946348,609 C554.201859,605.509083 550,603.042466 550,603.042466 C554.304914,602.427674 558,608.69154 558,608.69154 L555.946348,609 Z M525.96244,602.514773 C525.96244,602.514773 524.003195,601.030417 519.007019,602.321205 C518.715834,602.399435 527.508423,598.254271 541,604.2619 L539.392978,606 C539.392978,606 538.038117,604.2619 535.58856,604.965966 C535.58856,604.965966 533.593291,602.321205 530.793512,604.547739 C530.793512,604.547739 530.086062,601.543924 525.96244,602.514773 Z M517,604.710041 C510.69332,603.592585 506,605 506,605 C511.040025,598.423511 517,604.710041 517,604.710041 Z M541,611.818397 C541,611.818397 544.713058,604.617055 548.181157,606.237542 C552.009256,608.025826 553,609.666709 553,609.666709 C553,609.666709 547.89157,610.979415 544.639669,611.696026 C542.278347,612.217957 541.509752,611.934279 541,611.818397 Z M543.212727,603 C543.212727,603 538.545286,598.10111 520,598.616941 C520,598.616941 534.2552,595.908579 547,601.841134 C547,601.841134 544.094856,602.227756 543.212727,603 Z M559.472221,650 C557.454402,646.35502 556,641 556,641 C556,641 557.898802,642.915125 559.794329,644.827279 C560.920071,645.961691 561.05765,648.256275 560.983401,649.942536 C560.461476,649.964333 559.960297,649.983157 559.472221,650 Z M523.314013,635.880007 C521.320702,635.981073 519.440125,636.335722 517.459784,636.335722 C516.730499,636.335722 507.006374,636.898015 507.01635,637 C506.946515,636.219956 507.104144,635.461963 507.417407,634.761852 C507.516175,634.547777 510.22181,634.549614 510.461247,634.54502 C512.38572,634.505513 514.299219,634.332782 516.21571,634.19129 C517.224338,634.119625 518.23097,634.054392 519.240595,634.019478 C520.070642,633.990077 520.715126,633.75487 521.524223,633.651966 C522.63062,633.515987 523.763954,633.476479 524.876338,633.390114 C527.077161,633.215546 529.278981,633.044653 531.481799,632.872841 C534.717189,632.615583 537.955571,632.36108 541.189962,632.106578 C541.641899,632.071665 542.092839,632.034914 542.539787,632 C543.472593,632.625689 544.288673,633.30283 545,634.013965 C544.877289,633.887174 543.626232,634.119625 543.451642,634.136163 C542.086853,634.241823 540.718073,634.348401 539.35029,634.456817 C535.515311,634.759096 531.709264,635.069644 527.899227,635.477582 C527.190893,635.555678 526.454625,635.53914 525.749284,635.594267 C524.92622,635.657663 524.1271,635.839581 523.314013,635.880007 Z M525.459053,640.534092 C522.068801,640.842744 518.69647,641.147153 515.311196,641.455805 C514.403146,641.539597 513.497088,641.622328 512.587046,641.705059 C512.165878,641.742182 510.485189,642.169628 510.168567,641.924616 C509.474586,641.387922 508.28974,640.510758 508,639.617683 C508.428138,639.469191 508.988699,639.537073 509.441728,639.490404 C509.967442,639.440553 510.488176,639.367368 511.010903,639.318577 C518.939414,638.600511 526.869916,637.879263 534.803405,637.159076 C537.651018,636.898154 540.498631,636.638293 543.348235,636.381613 C543.626027,636.354036 546.65983,635.818404 546.803206,636.064476 C547.266192,636.869516 547.666451,637.67986 548,638.48596 C547.937273,638.335347 545.265893,638.734154 545.070742,638.752186 C542.838453,638.956893 540.533479,639.373732 538.299198,639.373732 C536.183402,639.373732 533.977996,639.760872 531.857221,639.952851 C529.725494,640.146952 527.592771,640.341052 525.459053,640.534092 Z M510.110612,631.908268 C509.908326,631.915248 509.165954,631.859411 509,632 C509.792453,631.324975 510.660518,630.827431 511.46279,630.55423 C523.385916,627.155175 531.486217,627.487204 537,629.576092 C530.251876,630.158388 523.508662,630.93013 516.759557,631.428672 C515.251245,631.538351 513.754717,631.732782 512.245423,631.841464 C511.53251,631.893312 510.822543,631.884338 510.110612,631.908268 Z M562.219,595.5685 C562.398,595.5665 562.595,595.5125 562.781,595.4315 C562.581,595.4685 562.391,595.5125 562.219,595.5685 Z M558.968451,631 C558.968451,631 564.75239,640.050407 565,644 C565,644 562.046845,642.216249 561.92065,641.836138 C561.799235,641.452067 559.829828,633.680576 557,631.385061 C557,631.385061 558.106119,631.258357 558.968451,631 Z M574.012102,634 C574.061912,633.497326 574.274641,630.339329 572,629.126884 C572,629.126884 576.143541,628.504618 576.810782,626 C576.810782,626 577.7416,629.632474 575.474223,632.008751 C574.262188,633.243559 574.04946,633.81332 574.012102,634 Z M574.791306,649.988265 C574.532477,649.994133 574.270684,650 574,650 C574.036552,641.480442 578,633 578,633 C578,633 577.240306,639.858088 576.225735,645.648297 C575.738701,648.39916 575.214127,649.546249 574.791306,649.988265 Z M580.509556,637 C582.668557,637.756294 577,647 577,647 L580.509556,637 Z M579.959051,650 C579.661093,649.9881 579.340789,649.982149 579,649.973224 C579.820314,647.611973 581.482359,642.486837 581.771936,639 C581.771936,639 582.947937,646.306888 579.959051,650 Z M534.100101,658.083756 C534.291141,658.06744 534.839124,658.125091 535,658 C533.63155,659.060551 530.795107,661 528.254273,661 C527.68618,661 526.816445,660.083031 526,658.831037 C526.08446,658.962654 527.401631,658.696157 527.550441,658.68963 C529.042565,658.602611 530.467322,658.422045 531.943358,658.282814 C532.664283,658.217549 533.379176,658.149021 534.100101,658.083756 Z M552,714 C553.287849,701.661825 563,685 563,685 C563,685 561.192231,688.11099 557.927291,699.462495 C555.822709,706.774042 553.97012,710.697639 552.921315,712.563271 C552.338645,713.600909 552,714 552,714 Z M571.425743,687.585442 C571.547315,683.486212 574.864339,663 574.864339,663 C575.488999,664.767457 573.758335,678.959773 573.678275,679.239943 C573.595251,679.522101 572.953788,683.97502 572.998266,688.839254 C573.041755,693.703487 568.088952,698.342194 564.120582,704.321148 C560.64937,709.556955 560,712 560,712 C560.077094,709.217174 561.078329,704.548662 561.523103,703.927717 C562.439337,702.641119 565.990608,698.959165 567.889298,696.697932 C569.791941,694.436699 571.324928,691.002129 571.425743,687.585442 Z M545.048494,731 C544.321933,709.71912 552,702 552,702 C546.853858,710.482582 545.048494,731 545.048494,731 Z M570.425795,662 C570.953178,662.004981 571.480562,662.009961 572,662.019922 C571.361379,673.779062 565,682 565,682 C566.10244,678.593286 569.471339,665.682638 570.425795,662 Z M567,663 C567,663 565.564689,677.165351 553,698 C553,698 566.06302,668.736058 567,663 Z M565.171062,686.135188 C568.508503,681.658123 569.012565,680.744615 568.999767,681.054955 C568.920022,683.402447 568.273208,689.8437 565.781449,692.70875 C565.197643,693.380018 562,697 562,697 C562.823039,693.301216 565.171062,686.135188 565.171062,686.135188 Z M499.038202,620.851607 C501.939563,613.522424 509,613 509,613 C506.984132,614.44124 506.607013,617.447719 506.607013,617.447719 C505.417867,617.121459 502.752571,618.539322 500.922813,619.642104 C500.084337,620.19502 499.471153,620.616821 499,621 C499.02155,620.914623 499.038202,620.851607 499.038202,620.851607 Z M579.124206,662.039597 C579.184073,662.041628 579.242009,662.050766 579.301875,662.054827 C579.542308,662.078179 579.767292,662.102546 580,662.127929 C579.731565,667.349673 577.655537,687 577.655537,687 C576.027546,681.883848 577.869899,666.595297 578.479189,662 C578.690654,662.013199 578.915638,662.023352 579.124206,662.039597 Z M529.109702,586.686076 C529.424563,587.55407 529.068979,588.010117 529.109702,589.036474 C529.843715,589.486508 529.826829,588.710726 530.721749,588.854055 C531.289888,587.288459 530.850871,585.805052 529.109702,586.686076 Z M530.364178,584.157267 C531.320679,584.312624 530.70685,585.428187 530.542963,585.965421 C529.382846,585.918312 529.565604,584.430896 530.364178,584.157267 Z M538.063861,590.118961 C537.015981,590.801529 535.010607,589.998684 534.302419,590.662209 C535.018553,591.684557 536.78356,591.652483 537.885076,592.287943 C537.742047,591.460041 538.542608,590.381564 538.063861,590.118961 Z M549.283625,593.705198 C549.124705,593.803423 549.041272,593.988849 549.074049,594.174275 C549.10484,594.358699 549.244889,594.506037 549.42566,594.546129 C549.605439,594.585219 549.824947,594.653376 550.065314,594.727546 C550.660272,594.910967 551.378392,595.132476 552.044864,595.132476 C552.570293,595.132476 553.063939,594.994158 553.438395,594.590231 C553.559572,594.458929 553.594335,594.269494 553.527788,594.103112 C553.46124,593.93673 553.304306,593.824472 553.127507,593.816453 C552.69743,593.796407 552.219676,593.720232 551.757814,593.647064 C550.739732,593.484691 549.861698,593.344369 549.283625,593.705198 Z M561.026833,594.306579 C560.871886,594.456924 560.842089,594.698479 560.957306,594.882903 C561.178801,595.241727 561.510547,595.472257 561.913807,595.548432 C562.015118,595.566473 562.118416,595.575494 562.219728,595.575494 C562.79482,595.575494 563.375872,595.298858 563.76324,595.007188 C563.871505,594.925 563.933086,594.793698 563.939046,594.657385 C563.945005,594.554148 563.913221,594.449908 563.855613,594.365715 C563.895343,594.329632 563.947985,594.291545 563.991688,594.268492 L563.991688,594.266487 C564.131736,594.185301 564.279731,594.047985 564.244967,593.792398 C564.219143,593.591938 564.064195,593.432572 563.866538,593.400498 C563.770193,593.385463 563.670868,593.408516 563.57055,593.455625 L563.569556,593.45362 L563.330183,593.500728 C562.477973,593.626016 561.595966,593.755313 561.026833,594.306579 Z M586.576232,680.484519 C586.317987,681.614114 586.913937,682.63145 586.754024,683.737992 C586.692442,684.162968 585.739915,686.113448 585.501534,686.448217 C585.349567,686.661707 584.832083,686.503344 584.605622,686.809046 C583.593499,688.16917 584.871813,689.919189 584.248051,691.867665 C584.457627,691.898736 584.441735,692.154323 584.426837,692.410913 C585.163829,692.51014 585.474717,693.040358 586.038883,693.313987 C586.72224,692.800808 587.665829,692.547226 588.545849,692.229496 C590.824367,687.367328 593.77333,682.402925 595.170834,677.232049 C595.599918,677.160885 595.071509,678.055941 595.708183,677.774294 C596.163092,676.124505 596.079659,672.661551 594.991056,671.449767 C594.283861,672.209512 594.316638,674.586973 593.021439,674.160995 C592.332122,676.716865 590.167828,677.785319 587.471151,678.315537 C587.500949,679.376975 586.757997,679.684682 586.576232,680.484519 Z M478.43403,576.206004 C478.895892,575.465303 480.281477,574.700547 480.403647,574.218439 C478.605862,575.656743 476.392899,576.675082 475.031151,578.555401 C476.085984,578.042222 475.740333,578.82502 475.748279,579.097646 C475.859523,578.774905 476.711732,578.28077 476.822977,578.555401 C476.449514,578.731806 475.465202,579.219927 475.927064,579.638889 C476.965011,578.553396 478.937608,577.352638 478.43403,576.206004 Z M512.09829,562.293048 C512.991223,562.369223 512.027769,562.679937 511.918512,562.835294 C514.007319,563.545926 516.099106,562.603762 518.008134,562.112634 C518.148183,561.693671 517.947546,561.299767 518.54449,561.02714 C516.784449,561.216576 515.900455,561.189513 514.427464,561.569386 C514.459248,561.175481 514.280463,560.995067 513.890115,561.02714 C513.617964,561.294755 513.104453,561.31881 512.634646,561.388972 C512.358522,562.031447 513.242515,561.498222 513.171001,561.930215 C513.047838,562.288037 512.172784,561.886113 512.09829,562.293048 Z M521.947368,567.171253 C519.912197,566.887601 518.199832,568.646642 518.54449,570.243309 C518.490854,570.023805 519.062967,569.618875 519.081839,570.061892 C519.079852,570.421719 518.594152,570.292422 518.722282,570.784552 C519.938021,570.537986 520.614425,571.755783 519.620181,572.231876 C519.055021,572.319077 518.98748,571.905126 518.365705,572.05046 C518.106466,572.501496 517.931654,572.759087 518.185926,573.314363 C517.765781,573.490768 517.049647,573.373499 517.113215,574.037023 C517.587989,574.041032 518.167054,573.936792 518.185926,574.399856 C517.146985,574.555213 516.495413,575.101467 515.858739,575.663759 C517.460853,574.801779 522.094369,575.801074 523.558421,574.218439 C523.479955,574.303635 523.994459,572.891391 524.09577,572.77312 C522.438034,572.639813 522.514515,570.755485 521.768583,569.701063 L521.053442,569.701063 C521.4865,568.939314 520.543904,568.869153 520.336315,568.254741 C520.945178,569.166836 522.123174,569.415407 522.484717,568.073325 C521.998024,567.963071 521.064368,568.303854 520.87267,567.893913 C521.360357,567.782657 521.710974,567.535088 521.947368,567.171253 Z M512.45586,573.858613 C515.566723,574.224453 516.651353,572.548604 517.829349,570.965969 C516.669232,569.664981 515.042286,571.317777 513.890115,571.689631 C513.889122,572.891391 513.077636,573.27828 512.45586,573.858613 Z M541.107182,554.342787 C539.480237,554.282649 537.634776,554.258594 536.452808,554.703616 C537.162982,554.889042 537.374545,555.578626 538.421431,555.426276 C538.849522,554.593363 540.0891,554.578328 541.107182,554.342787 Z M535.377117,569.520649 C535.567821,570.994033 533.977626,570.992029 533.944848,569.701063 C534.609333,569.829358 534.713625,569.392354 535.377117,569.520649 Z M560.839563,660.935578 C560.839563,660.935578 556.277765,661.33782 553.818958,660.132083 C553.507618,659.978518 553.229153,659.803156 553,659.597081 C553,659.597081 553.303604,659.591137 553.83056,659.581229 C556.866602,659.518812 567.451172,659.312737 571.856333,659.148274 C574.436969,659.054153 576.749775,658.881763 578.530791,658.672716 C580.316641,658.466641 581.564898,658.226881 582,658 C582,658 581.798886,659.458377 578.407995,660.009231 C577.974827,660.076602 577.499116,660.135056 576.960557,660.168741 C572.163805,660.490733 560.839563,660.935578 560.839563,660.935578 Z M554.313718,679.641372 C553.144886,682.242846 546,695 546,695 C546.843141,689.425696 550.890422,682.79988 553.549716,677.924598 C555.654018,674.05416 558.78612,665.437521 559.991477,662.044682 C560.325284,662.032767 560.664164,662.017873 561,662 C560.691558,668.131337 555.399351,677.229547 554.313718,679.641372 Z M540.970321,615.708486 C540.970321,615.708486 540.468558,618.796506 543,618.918224 C543,618.918224 534.671723,619.322676 531,618.332632 C531,618.332632 535.413544,616.252867 539.069525,613 C539.069525,613 538.942609,615.341413 540.970321,615.708486 Z M537,609.628155 C537,609.628155 534.779032,612.166169 531.470104,614.609097 C527.224021,617.739888 524.162846,620.12819 520,619.994664 C520,619.994664 528.984735,613.84132 530.839459,612.115591 C535.20697,608.064277 536.874654,608.848239 537,609.628155 Z M528.175284,606.59103 C530.06753,605.362247 529.999696,606.430711 529.999696,606.430711 C529.999696,606.430711 523.028052,613.195369 517,617 C517,617 519.444024,612.253009 528.175284,606.59103 Z M510,619 C510,619 515.4095,605.766879 526,605 C526,605 517.969299,609.836093 516.476502,612.3339 C514.532746,615.586695 513.823089,617.882378 510,619 Z M559,638 C559,638 551.811167,631.598343 551,630 C551,630 553.574664,630.532436 555.338162,630.264146 C555.338162,630.264146 558.456413,635.332643 559,638 Z M555.848474,662 C556.246024,662.049178 556.631694,662.075272 557,662.087316 C556.00658,665.248745 553.835131,671.81649 552,675 C552,675 553.005301,668.808616 554.794736,664.499035 C555.245293,663.406084 555.587096,662.604184 555.848474,662 Z M545.639626,688.360724 C544.594176,691.00376 542.393338,697.628412 541.108306,702.56546 C539.824311,707.506407 538.004108,709 538.004108,709 C537.892096,705.98844 540.093971,700.149582 541.744081,694.286351 C543.393153,688.427019 549,681 549,681 C549,681 546.735896,685.598747 545.639626,688.360724 Z M572.945095,621 C572.945095,621 575.435497,625.057729 546.871351,626 C546.871351,626 545.531673,624.233633 540,622.078226 C540,622.078226 559.434337,625.982221 572.945095,621 Z M559.11051,677.179324 C558.037882,679.919623 549.345725,695.768757 546.535686,701.655177 C543.727686,707.548628 540,721 540,721 C540.596471,713.213051 545.289725,700.119283 551.298275,689.739698 C556.351451,681.000474 562.793333,665.639532 564.702039,661.007743 C565.112941,661.001716 565.508549,660.996694 565.874588,661.002721 C565.915373,661.002721 565.954118,661.002721 566,661.003725 C564.458353,665.189512 560.059765,674.757455 559.11051,677.179324 Z M401,620.33374 L416.140658,579.695652 L423.779374,582.491782 L418.292674,597.217944 L444.060402,606.64408 L439.705549,618.336593 L413.935939,608.909835 L408.642481,623.130492 L401,620.33374 Z M460.041185,580.481836 L450.964687,589.095091 L426.482596,563.489599 L446.249136,544.73035 C451.142927,540.085398 454.972906,537.471016 457.959213,536.736422 C461.159408,535.952606 464.227644,537.067893 467.081991,540.052375 C469.644899,542.733425 470.866314,545.052474 470.814406,547.142235 C470.791266,548.074341 470.503579,549.114237 469.944468,550.276254 C473.52616,548.915479 476.057798,550.276254 477.696358,551.990306 L483.577664,558.142453 L474.503668,566.7582 L469.486046,561.510744 C468.760577,560.753097 466.835581,558.739973 461.915523,563.407355 L452.374349,572.463609 L460.041185,580.481836 Z M440.925066,560.488294 L447.008377,566.851037 L456.522658,557.821574 C459.522099,554.976035 460.185653,553.544231 460.314487,552.944219 C460.55214,551.837655 459.555871,550.510526 458.677803,549.591505 C456.94981,547.784616 455.994191,547.628849 455.57517,547.678071 C455.166156,547.738509 453.894708,548.179639 450.942798,550.980318 L440.925066,560.488294 Z M490.41759,551.902703 C486.738959,550.637258 484.022827,546.70447 482.114092,539.880036 C479.869515,531.853085 479.948316,526.477278 482.353622,523.445442 C484.661991,520.535104 491.010473,517.669627 501.764306,514.686391 C511.357389,512.022163 517.713376,511.348007 521.192502,512.626537 C524.8211,513.957404 527.551617,518.060289 529.539778,525.17071 C531.703678,532.907935 531.569842,538.123614 529.130138,541.114328 C526.794252,543.974821 520.496427,546.797929 509.87643,549.744405 C503.306554,551.568117 498.250158,552.473431 494.588413,552.473431 C492.907951,552.473431 491.521429,552.282773 490.41759,551.902703 Z M492.934218,526.600022 C492.717203,526.962646 492.180605,528.779504 494.438316,536.835115 C496.003079,542.436472 497.367086,543.485091 497.881169,543.675749 C498.462795,543.893199 500.684858,544.149279 508.808865,541.895029 C516.505094,539.759161 518.101127,538.362249 518.43009,537.861304 C518.673372,537.489334 519.321917,535.739767 517.405677,528.886672 C515.48631,522.022361 514.127931,520.92452 513.757066,520.751931 C513.622604,520.689002 513.308651,520.599903 512.624458,520.599903 C511.302353,520.599903 508.598729,520.934489 503.132692,522.452899 L503.132066,522.452899 C494.554016,524.831763 493.158113,526.228675 492.934218,526.600022 Z M554.748464,547.067841 C547.221719,545.791804 542.53181,544.27277 540.409812,542.424136 C538.143345,540.445903 537.415374,536.976053 538.247162,532.109913 L539.03955,528.508596 L550.737119,530.489943 L550.687712,531.594015 C550.631425,532.881268 550.550123,533.82895 550.439426,534.490022 C550.347492,535.026482 550.271192,535.688177 550.213655,536.460778 C550.107336,537.62591 552.340031,538.698828 556.184393,539.349932 C559.796731,539.962405 560.861169,539.544951 561.100699,539.401023 C561.316464,539.272672 562.061946,538.625307 562.556642,535.717461 L566.455414,512.885856 L578.815912,514.979979 L574.785179,538.5711 C574.002172,543.168699 572.1516,546.086514 569.285996,547.241053 C568.008294,547.756952 566.265917,548.014278 564.028844,548.014278 C561.553492,548.014278 558.473374,547.699006 554.748464,547.067841 Z M586.17967,556.244961 L575.113798,548.584843 L610.927964,530.2698 L624.53965,539.692743 L620.0477,579.695652 L609.138946,572.142826 L609.987133,565.03975 L592.498197,552.932023 L586.17967,556.244961 Z M599.587917,549.183056 L611.050028,557.118888 L612.8259,542.28084 L599.587917,549.183056 Z M626.183569,592.051313 L620.773694,580.748559 L652.891305,565.481407 L661.017402,582.469902 L651.564224,602.586804 C650.745534,604.318143 649.711201,606.391877 648.487553,608.751772 L647.003128,611.580272 L647.52531,611.29661 L651.380552,609.377204 L669.721472,600.658026 L675.128214,611.963279 L643.014364,627.227307 L634.887013,610.244435 L644.997149,588.317468 C645.502405,587.227805 646.420768,585.495216 647.804893,583.017857 L648.823555,581.172803 L648.380986,581.413979 L644.457415,583.364625 L626.183569,592.051313 Z M653.140611,678.827907 L676,683.32964 L673.558347,695.660825 L649.936058,691.008515 C645.329201,690.101295 642.444352,688.170018 641.36175,685.267166 C640.343089,682.542383 640.530522,677.776983 641.935962,670.700422 C643.422267,663.193369 645.078454,658.531061 646.997925,656.44858 C649.044024,654.226143 652.553862,653.585091 657.435287,654.546669 L661.039155,655.435768 L658.724756,667.105284 L657.615198,667.029057 C656.318834,666.939085 655.367875,666.832243 654.707782,666.703533 C654.171183,666.597316 653.507956,666.504844 652.733773,666.427368 C651.559021,666.278664 650.423762,668.502976 649.660863,672.341789 C648.94874,675.947548 649.34116,677.02659 649.478444,677.271514 C649.601938,677.490821 650.232567,678.25496 653.140611,678.827907 Z M632.587379,701.043179 L640.594587,690.154943 L657.864657,726.561796 L648.017364,739.955234 L608.064366,734.388048 L615.96293,723.650751 L623.051657,724.69041 L635.715585,707.468397 L632.587379,701.043179 Z M639.26026,714.682127 L630.960836,725.968689 L645.777668,728.143205 L639.26026,714.682127 Z M597.038773,740.039296 L608.767282,735.466738 L621.679156,768.540385 L604.570126,775.21378 L589.616307,764.013484 C588.600028,763.239195 587.257088,762.137803 585.501754,760.641137 L583.19385,758.594712 L582.890969,761.612438 C582.696349,763.750801 582.466685,765.518907 582.211364,766.855462 L578.969784,785.198231 L561.527209,792.002342 L548.612207,758.928069 L560.339464,754.353635 L567.338272,772.275485 C567.815122,773.494459 568.301985,774.887303 568.787596,776.420871 C569.040414,774.21496 569.266949,772.539419 569.462195,771.420515 L573.692518,749.145635 L583.533653,745.306087 L601.781616,758.632864 C602.762226,759.347736 604.070121,760.417231 605.775392,761.898262 C605.050105,760.387835 604.478761,759.09506 604.036955,757.961146 L597.038773,740.039296 Z M530.487368,760.514304 L534.882374,754.924289 L548.154242,757.367162 L523.049474,788.63221 L506.72472,785.62617 L494.235131,747.443999 L507.323301,749.853307 L509.493936,756.650461 L530.487368,760.514304 Z M525.566261,766.820398 L511.808906,764.287393 L516.342622,778.496461 L525.566261,766.820398 Z M483.275568,737.708604 L494.235131,743.900273 L476.736133,774.777994 L465.777822,768.586325 L483.275568,737.708604 Z M462.400603,718.716592 C469.695763,726.817209 473.250138,732.4829 473.266512,736.037367 C473.285405,739.651708 469.744254,744.543388 462.442167,750.992446 C459.190707,753.863961 456.044417,755.307203 453.051159,755.307203 C451.945298,755.307203 450.860848,755.110114 449.7997,754.715936 C446.089773,753.338182 440.804812,748.800141 433.641902,740.840481 C428.379613,734.995787 425.482079,730.664191 424.784933,727.597457 C424.038035,724.305569 425.435477,721.068565 428.938211,717.977508 L430.374698,716.564827 L438.879631,726.011388 L437.29452,727.407853 C435.467581,729.021365 435.767348,729.99496 435.864961,730.314919 C436.072782,730.987891 437.00483,732.766683 440.920059,737.113249 C446.327823,743.121352 448.251745,744.031954 448.827977,744.144843 C449.232284,744.221559 450.894225,744.171663 455.360496,740.228631 C461.609622,734.708885 462.200968,732.82344 462.233716,732.376871 C462.265204,731.934668 461.948434,730.025522 456.529963,724.004321 C452.52216,719.552974 450.599497,718.121583 449.69264,717.705575 C449.062878,717.413683 448.032588,717.19913 446.376315,718.662331 L444.419015,720.584574 L435.91975,711.140508 L437.713942,709.55132 C441.537225,706.175856 445.139463,705.120555 448.431857,706.419722 C451.460381,707.615979 456.030562,711.638221 462.400603,718.716592 Z M443.316724,690.920919 L446.68147,704.00916 L407.757938,694.506652 L403.621068,678.407772 L433.014059,650.838924 L436.33214,663.745063 L431.074726,668.605515 L436.396847,689.307026 L443.316724,690.920919 Z M425.121093,673.952201 L414.135275,684.107399 L428.607785,687.519791 L425.121093,673.952201 Z" id="trojan-logo-yellow-globe"></path>
        </g>
    </g>
</svg>