<?xml version="1.0" encoding="UTF-8"?>
<svg width="275px" height="280px" viewBox="0 0 275 280" version="1.1" xmlns="http://www.w3.org/2000/svg" xmlns:xlink="http://www.w3.org/1999/xlink">
    <!-- Generator: Sketch 54.1 (76490) - https://sketchapp.com -->
    <title>trojan-logo-orange-globe</title>
    <desc>Created with Sketch.</desc>
    <g id="Page-1" stroke="none" stroke-width="1" fill="none" fill-rule="evenodd">
        <g id="Large-Web" transform="translate(-1412.000000, -512.000000)" fill="#ED7924">
            <path d="M1506.05226,622.465197 C1506.39872,619.533605 1508.84731,605.599918 1524,607.114734 C1524,607.114734 1522.14265,608.899076 1521.45463,609.592243 C1521.45463,609.592243 1509.62947,608.395863 1506.11698,622.510749 C1507.13733,623.190197 1508.31915,622.179074 1508.63457,621.877907 C1510.22476,625.448107 1513.60281,624.200241 1513.60281,624.200241 C1514.60599,624.200241 1517.98901,622.301881 1517.98901,622.301881 C1522.24906,622.301881 1526.25981,620.659108 1527.13486,621.167275 C1528.01389,621.669428 1530.02125,621.795718 1533.40426,621.669428 C1536.78529,621.54414 1541.98397,620.487714 1542.60972,620.487714 C1543.23745,620.487714 1545.42161,620.35541 1553.83047,625.33585 C1562.21749,630.305264 1564.42946,647.13091 1564.79497,650.571813 C1564.68869,650.578829 1564.63109,650.579832 1564.63109,650.579832 C1563.57625,650.678057 1561.27588,650.194948 1561.17854,652.419056 C1561.1208,653.767112 1561.6615,654.262813 1562.09702,654.444127 C1563.2955,654.21499 1565.38188,653.922121 1567.88303,654.019065 C1571.8459,654.1735 1581.91962,654.484114 1582.95626,654.537337 C1583.99593,654.588816 1593.15514,654.432636 1594,654.069671 C1594,654.069671 1593.28939,656.193364 1577.36928,655.985707 C1567.89363,655.863643 1563.99028,655.391856 1562.32833,655.051348 C1560.84284,657.956934 1563.76696,658.997165 1563.76696,658.997165 C1563.5256,659.853131 1563.77292,660.45351 1564.36092,660.868464 C1564.40661,660.900537 1564.46819,660.921586 1564.51686,660.950652 C1563.14915,664.304355 1561.27886,669.357963 1560.77628,673.014361 C1559.95287,678.958013 1558.79474,679.767873 1558.04782,680.597779 C1557.2999,681.424679 1550.52791,691.757412 1548.37454,705.002835 C1547.20151,712.220413 1545.87751,714.943667 1545.52193,716.21158 C1545.1723,717.480494 1543.28413,721.574899 1543.35465,722.535104 C1543.42617,723.496312 1544.72832,724.500619 1545.97982,723.90926 C1545.97982,723.90926 1550.08989,714.984762 1550.71067,711.807464 C1550.71067,711.807464 1550.69577,718.315412 1549.9995,720.529497 C1549.9995,720.529497 1550.04221,722.342662 1551.47547,722.497017 L1550.53487,728.972891 C1550.53487,728.972891 1550.8825,730.798083 1552.73293,730.864235 L1552.90178,734.918547 C1552.90178,734.918547 1555.20414,736.708659 1556.79831,735.165114 L1556.89664,732.286502 C1556.89664,732.286502 1560.13265,733.89219 1561.32257,732.225361 C1561.32257,732.225361 1561.23218,722.838802 1563.16803,717.251969 C1563.16803,717.251969 1564.56454,718.471771 1566.23519,717.786196 C1566.23519,717.786196 1567.10627,725.281412 1566.82617,727.40529 C1566.82617,727.40529 1567.88895,729.470033 1570.50915,728.06681 L1571.09218,713.901273 C1571.09218,713.901273 1572.3407,715.617215 1573.97162,715.38869 C1573.97162,715.38869 1574.97977,714.711133 1575.91243,712.183327 C1575.91243,712.183327 1575.9472,712.215401 1575.99785,712.249479 C1576.62161,711.120887 1583.07079,699.500196 1583.7621,696.885189 C1583.7621,696.885189 1580.41683,709.268633 1577.87609,713.442219 C1578.7422,713.89125 1579.70367,714.211987 1580.3473,713.905282 C1580.3473,713.905282 1581.26705,713.403129 1582.21759,710.237859 C1583.20687,706.946299 1583.36777,706.650619 1583.48597,706.227648 C1583.60218,705.805679 1585.61749,700.970573 1585.73668,697.561743 C1585.8519,694.148905 1587.79271,691.446698 1587.79271,691.446698 C1587.79271,691.446698 1588.65485,690.301067 1588.59327,689.129375 C1588.53069,687.95167 1588.71743,691.475765 1590.41191,696.017196 C1592.10739,700.55562 1590.74664,705.563122 1590.62645,706.298811 C1590.35927,707.998716 1592.79373,708.931859 1593.27943,707.030492 C1594.98782,700.373201 1592.31498,691.99195 1592.31498,691.99195 C1590.91847,687.036568 1592.47787,670.693029 1593.27943,663.334127 C1593.29135,662.703679 1593.29731,662.152413 1593.30525,661.701377 C1595.2113,660.821355 1594.45444,657.742283 1594.45444,657.742283 C1596.56312,656.193726 1595.70296,653.581727 1595.70296,653.581727 C1598.16324,650.750223 1595.96121,649.063349 1595.42982,648.713545 C1596.2413,647.371463 1595.22322,644.227241 1595.22322,644.227241 C1597.33388,639.000235 1593.55754,635.392949 1593.55754,635.392949 C1594.49517,631.69245 1589.71068,628.1443 1589.71068,628.1443 C1589.71068,628.1443 1590.86682,626.147714 1590.18744,623.794309 C1589.75736,622.29286 1588.11154,620.958796 1588.11154,620.889637 C1588.16021,617.937857 1585.50525,617.616118 1585.50525,617.584045 C1585.18443,613.92063 1580.96013,614.904891 1580.96013,614.904891 C1581.61767,612.345011 1579.07991,611.110175 1579.07991,611.110175 C1578.89318,605.893192 1572.40924,606.842372 1572.40924,606.842372 C1572.0318,606.269055 1570.52702,605.705762 1570.52702,605.705762 C1567.61481,598.970291 1555.96199,596.121748 1553.23353,595.557452 C1550.51103,594.98614 1531.33334,591.66852 1516.67196,598.020109 C1502.01058,604.376709 1501.63513,616.230937 1501.63513,616.230937 C1501.4934,620.405166 1503.67821,621.247164 1504.73952,621.410565 C1503.89921,619.238 1501.90174,611.567807 1512,607 C1512,607 1507.20298,609.79011 1505.77546,614.668772 C1504.7662,618.1325 1504.81711,620.438272 1504.91876,621.433329 C1505.15352,621.456757 1505.30022,621.445915 1505.30022,621.445915 C1505.52486,621.939961 1505.78204,622.264535 1506.05226,622.465197 Z M1560.41953,641.041542 C1560.08551,638.422569 1559.36231,636.190023 1558.33387,634.291419 C1558.13721,633.930591 1557.92863,633.582792 1557.71111,633.244014 C1556.80923,631.852818 1555.73156,630.660079 1554.51085,629.643744 C1554.01323,629.234805 1553.49575,628.848919 1552.95741,628.493101 C1541.60752,621.026953 1521.1694,625.699685 1516.26671,626.978623 C1516.07799,626.984637 1515.89623,626.991653 1515.69559,627.014706 C1511.1902,627.497815 1507.65919,624.21728 1508.65145,621.956087 C1508.65145,621.956087 1499.76285,633.722112 1499.31489,641.982084 C1498.81628,651.142123 1502.00064,654.755423 1503.02171,656.175685 C1504.04575,657.593942 1504.6854,658.238423 1503.66136,660.820353 C1502.63831,663.399276 1499.62876,668.905925 1499.44501,670.368283 C1499.26523,671.767497 1499.18776,673.205801 1503.14983,674.753355 L1501.80795,677.462578 C1501.80795,677.462578 1501.87053,679.785915 1503.14983,680.560694 C1503.14983,680.560694 1502.39099,685.712527 1504.36557,685.915995 C1507.50921,686.236731 1507.24104,688.238329 1507.24104,690.172772 C1507.24104,692.106213 1509.02392,695.683429 1514.84835,695.915963 C1519.72024,696.108405 1533.27415,699.205519 1544.12442,672.75276 C1544.12442,672.75276 1544.41545,670.430426 1544.98954,671.59009 C1545.06801,671.752463 1545.15442,671.949916 1545.24978,672.168418 C1545.80798,673.467402 1546.66615,675.482029 1548.56128,674.847572 C1548.6159,674.827526 1548.66954,674.806477 1548.73211,674.784427 C1552.00686,673.464395 1554.30823,670.75417 1555.84081,668.042942 C1556.58079,666.732933 1559.68966,660.47957 1557.52239,656.181699 C1557.31976,655.785789 1557.07741,655.400905 1556.77944,655.041079 C1556.30565,654.468764 1555.71268,653.995678 1555.04522,653.644872 C1553.19181,652.667627 1550.76629,652.66462 1548.602,654.19714 C1546.78534,654.354502 1544.99948,654.565988 1543.19772,654.788499 C1542.42398,654.88071 1541.82604,655.001989 1541.01952,655.039074 C1540.26862,655.073152 1539.43131,655.005998 1538.67843,655.096205 C1538.37251,655.135295 1535.26363,655.584326 1535.1653,655.356804 C1534.92394,654.791505 1534.73025,654.231219 1534.61901,653.725056 C1534.5614,653.46546 1534.50777,653.223905 1534.45413,652.988364 C1534.49187,653.145725 1541.17447,652.541337 1541.71579,652.481199 C1543.25831,652.318826 1544.80281,652.056223 1546.35129,651.921914 C1547.27502,651.839726 1548.20271,651.839726 1549.12246,651.770567 C1549.81972,651.716442 1550.46633,651.452837 1551.14869,651.420763 C1552.88092,651.346593 1554.55853,651.254381 1556.28082,651.111052 C1556.52417,651.089001 1559.65788,650.865488 1559.66781,650.75323 L1560.01048,647.952798 C1559.9926,648.113166 1555.45444,648.359733 1555.16739,648.383788 C1552.05355,648.660423 1548.94467,648.939063 1545.83182,649.216701 C1543.87015,649.390099 1541.9055,649.566504 1539.94085,649.741907 C1537.87886,649.924326 1535.81687,650.109752 1533.74892,650.291169 C1533.48968,649.511378 1533.19965,648.847854 1532.81924,648.261507 C1532.91757,648.406841 1534.6498,648.089111 1534.82958,648.084099 C1536.03539,648.061046 1537.25411,647.929745 1538.46388,647.929745 C1539.66572,647.929745 1540.84868,647.730287 1542.02966,647.546865 C1543.17686,647.371463 1544.30519,647.400529 1545.47127,647.247177 C1547.13298,647.01765 1548.85428,647.108859 1550.53884,646.936463 C1553.50965,646.621741 1556.45862,646.222824 1559.44631,645.966235 C1559.79395,645.934161 1560.1406,645.905095 1560.48923,645.879035 L1560.60047,645.867007 C1560.62232,645.37187 1560.62828,644.887758 1560.62828,644.410662 C1560.62759,644.048937 1560.62049,643.693382 1560.60714,643.343901 C1557.13882,643.667942 1553.64973,644.2704 1550.18015,644.299701 C1548.11179,644.315918 1546.01343,644.6058 1543.95408,644.785203 C1541.7327,644.974741 1539.50832,645.168334 1537.28994,645.359899 C1535.64465,645.502813 1534.00037,645.644714 1532.35209,645.787628 C1531.98403,645.819049 1530.86983,646.123121 1530.52478,645.943718 C1529.67163,645.492678 1528.63345,645.060895 1527.35623,644.6058 C1526.87915,644.434506 1526.43007,644.264225 1526,644.088877 C1526.21004,644.173004 1526.72512,644.026035 1526.94416,644.007791 C1527.84732,643.928732 1528.75047,643.854741 1529.65763,643.773655 C1534.03338,643.371266 1538.39512,643.016515 1542.77488,642.638452 C1545.2283,642.428642 1547.67972,642.213765 1550.13114,642.000914 C1552.10347,641.831647 1554.08581,641.806308 1556.05415,641.561023 C1556.44728,641.512047 1559.85704,640.826805 1560.41953,641.041542 Z M1576.86309,559.59118 C1577.0924,559.703386 1577.31704,559.820332 1577.5354,559.943652 C1576.13691,559.54674 1574.05505,558.878205 1572.70026,559.039575 C1573.0181,559.38136 1574.01334,559.040578 1573.95374,559.762235 C1572.43208,559.73818 1568.27632,559.438492 1569.29937,560.847728 C1568.4253,561.004088 1568.10945,560.601162 1567.50555,560.485897 C1567.50853,560.246347 1567.82141,560.320517 1567.86511,560.123064 C1567.47576,559.965702 1566.5133,559.453526 1566.07428,559.943652 C1566.54309,560.259377 1567.69328,560.831692 1567.50555,561.207555 C1566.64143,560.90085 1565.90741,561.104318 1565.53792,561.750803 C1565.68493,561.923199 1566.69605,562.120652 1566.25306,562.293048 C1565.35517,562.357195 1564.69366,562.18079 1564.10566,561.930215 C1563.49083,562.345168 1565.04031,562.512552 1564.46323,562.835294 C1562.70021,562.745086 1562.30191,561.281725 1560.88156,560.847728 C1562.63266,560.710413 1564.60725,562.058509 1565.53792,560.665309 C1563.42727,559.095704 1558.4471,559.629931 1557.12012,558.317918 C1549.88627,557.271514 1546.76846,562.885409 1540.82683,564.279611 C1540.73148,565.267881 1540.39774,566.015598 1540.46727,567.171253 C1541.82902,568.264764 1543.55231,567.054986 1544.76606,566.449595 C1545.48518,567.649351 1546.28673,568.76792 1546.73667,570.243309 C1548.46692,570.483861 1547.86799,568.929291 1549.60121,569.520649 C1550.10777,568.948334 1550.10777,567.865848 1550.31635,566.990838 C1551.44568,567.226379 1551.46356,566.342349 1551.9284,565.906347 C1551.37019,565.567569 1550.59446,565.445288 1550.49514,564.641442 C1550.82589,563.410615 1552.17572,563.204141 1553.18287,562.653877 C1552.59586,561.447105 1555.65408,560.733466 1556.04642,562.112634 C1554.39365,562.55064 1553.05673,563.340454 1553.89901,565.364102 C1555.52794,567.118131 1558.62589,564.558251 1560.34521,566.087764 C1559.06888,566.916668 1557.09926,565.936416 1555.86763,566.809422 C1556.0782,567.318591 1556.70097,567.414812 1557.12012,567.713498 C1557.02278,567.975099 1557.3297,568.646642 1556.94233,568.616572 C1555.90835,568.816031 1555.97292,567.908947 1554.97172,568.073325 C1554.93298,568.215652 1554.82372,568.28481 1554.61514,568.254741 C1554.32412,568.895212 1554.37775,569.980706 1554.79393,570.424726 C1553.92781,570.393654 1553.58812,570.894805 1553.00409,571.146383 C1551.18247,570.296431 1549.50586,571.36288 1547.80938,571.689631 C1546.70787,571.044148 1545.9679,571.286705 1544.58628,571.507212 C1545.16535,570.901821 1543.7162,571.324793 1543.69137,570.784552 C1543.58509,569.894508 1543.86419,569.393357 1544.76606,569.520649 C1544.42538,568.989429 1544.39657,568.82906 1544.58628,568.073325 C1543.84433,568.409096 1542.88187,568.522356 1542.2591,568.979406 C1542.12402,570.078931 1542.54416,570.617168 1542.43788,571.689631 C1540.73148,572.061485 1537.67922,572.028409 1537.06737,574.037023 C1537.26304,574.159303 1537.99507,574.639406 1537.60373,574.760685 C1535.57849,572.714986 1533.20661,577.660345 1530.4414,576.02559 C1530.33412,576.400451 1530.6619,577.212316 1530.26162,577.290495 C1529.18295,577.054954 1527.262,576.576856 1527.03752,578.013155 C1530.1166,578.172521 1530.49304,581.976258 1528.29101,583.434608 C1525.00831,583.800448 1521.46141,582.32105 1519.51762,583.975851 C1519.96657,586.395408 1518.06946,587.907882 1517.36922,589.759134 C1518.35055,590.138004 1517.62349,591.26359 1517.36922,591.927114 C1518.57403,592.106526 1519.47888,591.47708 1520.41453,591.927114 C1520.29633,592.585626 1520.53272,592.889324 1520.77011,593.191017 C1522.31759,592.766041 1523.4499,591.920098 1525.78503,592.287943 C1526.86271,591.327737 1528.17579,590.60608 1529.18593,589.577718 C1529.31704,589.024447 1528.87802,589.046497 1529.00813,588.493227 C1529.91199,586.091711 1533.90288,586.807354 1534.20085,583.795436 C1535.72648,583.06576 1536.74258,584.007924 1538.31887,583.795436 C1540.01435,583.568916 1541.23605,581.273644 1542.97523,582.893364 C1543.11429,584.313627 1544.08569,585.156563 1545.30143,585.724868 C1545.88446,585.998497 1546.49035,586.214994 1547.07637,586.485615 C1547.35448,586.614912 1547.6008,586.763253 1547.85209,586.928633 C1548.15504,587.127089 1548.57717,587.234335 1548.84634,587.47589 C1549.09664,587.700406 1549.40951,588.170485 1549.57042,588.485208 C1549.88131,589.090599 1549.67868,589.803236 1549.77404,590.460746 C1550.28357,590.558971 1550.45044,589.981645 1550.64412,589.632844 C1550.84873,589.262995 1550.99176,589.104631 1551.01262,588.634551 C1551.02156,588.411038 1551.00765,588.208573 1550.957,587.993078 C1550.93713,587.913896 1550.7206,587.534023 1550.72557,587.506961 C1550.80106,587.102031 1551.42681,587.432791 1551.68902,587.507964 C1551.94727,587.581132 1552.71505,587.912894 1552.8402,587.517987 C1552.97727,587.080983 1552.2373,586.477597 1551.9274,586.353312 C1551.44071,586.160869 1550.94111,586.00451 1550.46137,585.796032 C1549.52572,585.387092 1548.69636,584.80275 1547.71503,584.502059 C1546.99194,584.280551 1546.44664,583.841542 1546.22416,583.107857 C1546.12682,582.782109 1544.84155,581.392918 1545.4812,581.086214 C1545.9679,580.851675 1546.47446,580.643196 1547.27303,580.72338 C1547.25316,581.172412 1546.93731,581.283667 1547.27303,581.628459 C1547.8362,581.713655 1547.67728,581.072181 1548.34773,581.265626 C1548.94864,582.248884 1549.73828,583.925736 1551.21226,583.434608 C1551.25895,584.501057 1553.81557,584.520101 1554.43536,585.601585 C1554.11852,585.945375 1554.30425,586.796329 1554.25558,587.409738 C1556.81321,588.382973 1556.3722,592.381157 1559.62709,592.649774 C1559.92109,592.459336 1559.13741,591.832897 1559.09073,591.384868 C1560.12371,591.711619 1559.58438,590.733372 1559.80786,590.662209 C1560.11974,590.610089 1560.76933,591.239535 1560.70278,590.481794 C1559.51783,589.489515 1559.08974,588.849044 1558.55438,587.229324 C1559.18906,587.431789 1559.45426,588.008112 1560.523,587.769564 C1561.09412,587.584139 1559.5953,587.053921 1560.16543,586.868495 C1561.26794,586.330259 1562.84423,586.61391 1563.39051,587.58915 C1563.79377,586.553772 1565.39788,586.725166 1566.25306,586.14383 C1563.62294,585.767967 1565.05421,583.44864 1565.00157,581.807871 C1566.56693,581.702629 1566.01071,579.455468 1567.68633,579.459477 C1567.97934,580.367563 1569.68574,579.850375 1570.19329,580.542966 C1569.92611,580.815592 1569.17322,580.598092 1569.29937,581.265626 C1570.58861,581.168402 1570.16449,581.992295 1570.90943,582.169702 C1571.39413,582.062456 1573.03498,581.700625 1573.59518,581.086214 C1573.17503,581.056145 1571.61662,581.182435 1571.62755,580.182137 C1572.37149,579.364259 1574.42553,578.914225 1575.56579,579.097646 C1575.41382,579.486539 1574.64206,579.250998 1574.4901,579.638889 C1574.7543,579.797253 1575.05824,579.910513 1575.02745,580.363554 C1574.9599,580.957919 1574.28052,580.932861 1574.13153,581.44604 C1576.55308,582.799148 1579.93808,583.178018 1581.11707,585.784004 C1577.80358,588.375957 1572.4887,583.127903 1569.11959,586.325247 L1566.61262,586.325247 C1566.30173,586.4355 1566.62454,587.182215 1566.25306,587.229324 C1564.69565,586.981755 1563.87125,587.473885 1563.39051,588.312812 C1563.92588,589.096613 1564.21094,589.187822 1563.74709,590.30138 C1564.68869,590.674236 1565.13566,591.550248 1565.71671,592.287943 C1567.57608,591.803831 1568.74613,593.959783 1569.65594,592.287943 C1571.72886,592.304982 1573.65279,593.885612 1575.02745,592.108531 C1575.56877,592.321019 1576.09618,592.546537 1576.63949,592.287943 C1577.448,594.27651 1576.72392,597.237311 1576.10214,600.057789 C1576.08625,600.077835 1576.07036,600.090865 1576.05447,600.107904 C1576.1677,601.159319 1576.86297,601.869951 1577.31093,602.830157 C1577.31788,602.844189 1577.32186,602.856217 1577.32781,602.871251 C1577.38344,602.763003 1577.45098,602.667784 1577.5354,602.588602 L1577.5354,603.460605 C1577.63374,603.848496 1577.65459,604.234382 1577.6089,604.622273 C1579.85763,605.988411 1581.15084,608.316759 1582.55033,610.53786 C1585.52214,611.323665 1584.89639,614.931953 1586.84713,616.682975 C1588.11154,617.818583 1589.4713,618.534227 1589.89045,620.476689 C1591.34656,621.334659 1592.61594,623.340266 1592.03985,625.175481 C1593.08773,626.105618 1593.0927,628.089174 1593.82969,629.332028 C1595.40399,629.474355 1596.26514,628.899034 1596.874,628.068125 C1600.66822,627.79149 1601.76378,625.425054 1605.11104,624.451819 C1604.8369,623.879504 1605.04846,623.658998 1605.11104,623.007502 C1606.37544,622.841119 1606.88002,621.767654 1608.15535,622.103425 C1608.71157,621.720546 1608.19409,621.298576 1608.51391,620.83852 C1608.75229,620.537829 1609.52802,620.778382 1609.7674,620.476689 C1609.66708,619.472382 1609.93824,618.841934 1610.84209,618.850955 C1610.74376,618.167384 1610.40804,617.722362 1610.48353,616.863389 C1611.45394,616.216904 1611.61782,614.75655 1611.9158,613.430504 C1610.1349,611.213412 1606.10329,610.641098 1606.00695,607.286392 C1605.54707,608.568337 1604.92828,609.69292 1604.21612,610.719277 L1601.52937,610.719277 C1600.57883,610.113887 1601.39926,607.722394 1599.91832,607.647221 C1599.66206,608.425007 1600.10207,609.041423 1599.91832,609.455374 C1599.51804,608.595399 1598.66186,608.192473 1598.66484,606.925563 C1596.89586,605.638607 1595.21726,604.261444 1594.54682,601.86494 C1595.26792,602.113511 1595.18051,601.541196 1595.44174,601.323697 C1595.83904,601.584295 1596.30487,601.776737 1597.05378,601.684525 C1598.58637,604.353656 1601.10823,606.023491 1604.21612,607.103973 C1604.57865,606.508606 1605.21731,606.188871 1606.00695,606.021487 C1606.62972,606.596808 1607.16309,607.265344 1607.43922,608.189466 C1610.74972,609.02238 1613.50003,609.381204 1617.28631,608.731712 C1618.37193,610.651121 1620.27897,611.736614 1621.76388,613.25009 C1621.36658,614.589166 1622.89321,615.459164 1623.91229,615.960315 C1624.34634,615.903184 1624.70689,614.84776 1624.98698,615.236653 C1626.92382,620.832506 1629.33047,626.270997 1631.61395,631.500008 C1632.43835,633.388345 1632.54662,635.552315 1633.94214,637.102877 C1635.51048,633.225972 1634.36228,628.594334 1633.40479,624.09099 C1633.67296,623.579816 1634.19243,623.32022 1634.29871,622.644668 C1633.92922,620.340376 1635.39824,617.016742 1634.47849,614.69541 C1635.49657,614.68238 1634.63244,613.778303 1635.55319,614.154167 C1635.70516,613.399433 1635.20456,613.299203 1635.19462,612.70584 C1637.5536,615.870108 1638.96302,619.985561 1640.56712,623.910576 C1640.67439,623.478584 1640.34165,622.599565 1640.74392,622.466258 C1641.04686,623.801325 1641.53057,625.313799 1641.99343,626.595743 C1643.95609,634.291419 1645,642.355943 1645,650.662021 C1645,691.722331 1619.4943,726.881086 1583.63297,740.865206 C1579.99171,741.325263 1576.18558,743.386998 1572.70026,743.534337 C1574.43646,742.755548 1576.64942,742.458866 1577.89297,741.18494 C1576.71796,740.955413 1576.08923,741.119791 1575.02745,741.365355 C1575.31151,740.657729 1574.56459,740.991496 1574.4901,740.642695 C1574.26959,740.05735 1575.07015,740.504377 1574.85065,739.919033 C1569.7354,739.841856 1564.63009,743.166492 1560.16543,741.546771 C1556.47749,744.124693 1550.47428,741.523719 1546.5559,742.992091 C1543.30996,742.13813 1538.71617,744.069566 1535.45334,743.170501 C1535.20205,743.521307 1535.357,744.278045 1534.55842,744.07558 C1534.38659,744.850359 1535.43944,744.391305 1535.45334,744.978654 C1535.05505,745.600081 1533.9734,745.533929 1533.30593,745.881728 C1533.32182,745.929839 1533.35957,745.956901 1533.38241,746 C1510.13636,742.082001 1489.69625,729.693546 1475.30205,712.089111 C1475.79471,712.050021 1476.04997,711.771381 1476.00428,711.189044 C1475.43515,709.412964 1473.99394,708.517908 1472.95997,707.212911 C1473.54797,707.565721 1474.75874,709.075188 1474.74981,708.838645 C1474.00983,707.720076 1472.41567,706.500274 1472.06405,705.586174 C1472.78416,706.177533 1473.30562,706.448154 1474.21345,706.491253 C1473.5738,703.97347 1472.955,701.482749 1472.42262,698.720405 C1471.67569,694.850516 1469.16078,692.164346 1472.06405,689.323822 C1472.62524,689.10532 1472.95202,688.654284 1473.85489,688.782579 C1474.2949,687.402409 1473.88568,686.453229 1473.85489,685.348692 C1473.83701,684.73829 1474.23431,684.075768 1474.21345,683.360124 C1474.18763,682.429988 1473.90356,681.136016 1473.85489,680.288068 C1473.70987,677.736207 1472.46235,674.596996 1472.6014,673.241884 C1472.64312,672.840963 1473.13677,672.065181 1473.31754,671.434733 C1473.53307,670.685011 1473.4854,669.856107 1473.6761,669.266753 C1474.08929,667.988818 1475.06467,667.074718 1475.28815,665.832866 C1475.57818,664.216153 1474.47169,661.395674 1474.21345,661.495905 C1474.60876,661.107011 1474.95541,660.559754 1474.57201,659.869168 C1471.77005,659.440183 1471.43334,656.381157 1469.19952,655.533209 C1468.981,655.45102 1468.34234,655.646469 1467.76725,655.533209 C1466.70944,655.32473 1466.28433,654.348488 1465.25929,655.171378 C1465.54932,652.892143 1463.77835,652.693687 1462.75332,651.738493 C1462.14346,651.604185 1462.45733,652.405024 1462.03619,652.460151 C1461.76007,652.200554 1461.87926,651.53703 1461.8584,651.015833 C1461.23762,650.917608 1460.51652,650.922619 1460.42514,650.292171 C1461.35879,648.919017 1460.6963,647.845552 1460.42514,646.318043 C1459.87885,643.246989 1459.77754,639.753966 1457.20104,640.716176 C1456.38161,638.436941 1455.71315,634.399668 1455.76977,632.404084 C1455.32976,632.465225 1455.1917,632.83307 1455,633.144786 C1459.24218,609.856295 1471.79687,589.477487 1489.41615,575.224751 C1491.57151,573.905721 1493.71494,572.953534 1495.34387,570.965969 C1495.42929,570.860727 1495.49882,570.750474 1495.57034,570.640221 C1500.26146,567.427842 1505.24758,564.624403 1510.48102,562.280018 C1509.13119,563.122954 1507.89956,564.084162 1506.80401,565.182685 C1507.42975,565.021315 1507.10993,565.772039 1506.98378,565.906347 C1509.93374,565.092478 1512.42779,562.750098 1515.57739,561.750803 C1516.41172,561.485193 1517.35631,561.594443 1518.26414,561.388972 C1519.69144,561.063223 1521.00551,560.222292 1522.38216,559.943652 C1524.41137,559.534713 1526.50415,559.575807 1528.46979,558.678746 C1528.15592,558.574507 1527.41893,558.897248 1527.39609,558.496328 C1528.51647,557.937043 1529.82558,559.074656 1530.26162,557.412839 C1531.82996,557.205362 1534.33196,556.490721 1535.63312,555.426276 C1536.55188,555.203765 1537.82125,554.863984 1538.98733,554.568305 C1542.34849,554.207477 1545.75534,554 1549.20987,554 C1554.95185,554 1560.57564,554.519193 1566.0415,555.502451 C1565.52303,555.525504 1565.10189,555.714939 1565.00157,556.328348 C1565.97793,556.54685 1566.25108,557.477989 1566.9692,557.955084 C1567.84922,557.956087 1569.83473,558.617606 1569.83572,558.317918 C1568.60111,557.932031 1565.89152,557.013923 1567.06952,555.700907 C1569.78407,556.220099 1572.46386,556.842529 1575.09499,557.588242 C1574.2398,557.523092 1574.65895,557.872896 1575.02745,558.136501 C1573.48592,557.543138 1574.25768,557.076065 1571.98313,557.412839 C1573.22376,558.122948 1574.67403,558.620993 1576.0339,559.210866 C1577.279,559.506121 1579.1816,560.006309 1578.98604,559.99994 C1578.19374,559.915311 1577.50634,559.76663 1576.86309,559.59118 Z M1573,647 C1573,647 1574.4675,648.117567 1575.49487,649.376324 C1575.82326,649.777084 1575.96465,650.339669 1576,650.919631 C1575.24401,650.947869 1574.49601,650.976106 1573.75827,651 C1573.02965,649.121097 1573,647 1573,647 Z M1556,619.491391 C1556,619.491391 1570.11637,618.382792 1572.0307,618.247309 C1573.94306,618.107524 1579.49096,617 1580,617 C1580,617 1578.34414,620.11182 1574.42139,620.220422 C1567.40975,620.405367 1556.63778,622.261276 1556,619.491391 Z M1582.18427,629 C1585.35396,632.943455 1583.41015,638 1583.41015,638 C1583.10156,634.056545 1578.80142,629.809424 1579.00715,629.913089 C1579.21076,630.010471 1582.18427,629 1582.18427,629 Z M1580.06327,650 C1579.89322,649.198234 1579.72906,647.990186 1579.59243,646.170756 C1579.08522,639.475957 1576.04982,633.917566 1572,630.631992 L1576.29949,630 C1576.29949,630 1584.19271,639.39843 1581.40305,649.96369 C1580.95777,649.976447 1580.51052,649.988224 1580.06327,650 Z M1553,615.652547 C1553,615.652547 1559.73971,615.038246 1564.26705,614.177858 C1569.06,613.25962 1572.13457,613.199935 1574.2745,613.022715 C1576.47781,612.839986 1578,613.819745 1578,613.819745 C1578,613.819745 1577.96479,615.041001 1574.56324,615.325654 C1570.67777,615.652547 1567.57302,615.417478 1564.17047,615.947301 C1560.64015,616.500998 1555.26568,618.16209 1553,615.652547 Z M1563,627.862892 C1563,627.862892 1582.0871,628.067521 1586,623 C1586,623 1581.19462,632.133323 1563,627.862892 Z M1566.94635,609 C1565.20186,605.509083 1561,603.042466 1561,603.042466 C1565.30491,602.427674 1569,608.69154 1569,608.69154 L1566.94635,609 Z M1536.96244,602.514773 C1536.96244,602.514773 1535.00319,601.030417 1530.00702,602.321205 C1529.71583,602.399435 1538.50842,598.254271 1552,604.2619 L1550.39298,606 C1550.39298,606 1549.03812,604.2619 1546.58856,604.965966 C1546.58856,604.965966 1544.59329,602.321205 1541.79351,604.547739 C1541.79351,604.547739 1541.08606,601.543924 1536.96244,602.514773 Z M1528,604.710041 C1521.69332,603.592585 1517,605 1517,605 C1522.04003,598.423511 1528,604.710041 1528,604.710041 Z M1552,611.818397 C1552,611.818397 1555.71306,604.617055 1559.18116,606.237542 C1563.00926,608.025826 1564,609.666709 1564,609.666709 C1564,609.666709 1558.89157,610.979415 1555.63967,611.696026 C1553.27835,612.217957 1552.50975,611.934279 1552,611.818397 Z M1554.21273,603 C1554.21273,603 1549.54529,598.10111 1531,598.616941 C1531,598.616941 1545.2552,595.908579 1558,601.841134 C1558,601.841134 1555.09486,602.227756 1554.21273,603 Z M1570.47222,650 C1568.4544,646.35502 1567,641 1567,641 C1567,641 1568.8988,642.915125 1570.79433,644.827279 C1571.92007,645.961691 1572.05765,648.256275 1571.9834,649.942536 C1571.46148,649.964333 1570.9603,649.983157 1570.47222,650 Z M1534.31401,635.880007 C1532.3207,635.981073 1530.44013,636.335722 1528.45978,636.335722 C1527.7305,636.335722 1518.00637,636.898015 1518.01635,637 C1517.94651,636.219956 1518.10414,635.461963 1518.41741,634.761852 C1518.51617,634.547777 1521.22181,634.549614 1521.46125,634.54502 C1523.38572,634.505513 1525.29922,634.332782 1527.21571,634.19129 C1528.22434,634.119625 1529.23097,634.054392 1530.24059,634.019478 C1531.07064,633.990077 1531.71513,633.75487 1532.52422,633.651966 C1533.63062,633.515987 1534.76395,633.476479 1535.87634,633.390114 C1538.07716,633.215546 1540.27898,633.044653 1542.4818,632.872841 C1545.71719,632.615583 1548.95557,632.36108 1552.18996,632.106578 C1552.6419,632.071665 1553.09284,632.034914 1553.53979,632 C1554.47259,632.625689 1555.28867,633.30283 1556,634.013965 C1555.87729,633.887174 1554.62623,634.119625 1554.45164,634.136163 C1553.08685,634.241823 1551.71807,634.348401 1550.35029,634.456817 C1546.51531,634.759096 1542.70926,635.069644 1538.89923,635.477582 C1538.19089,635.555678 1537.45462,635.53914 1536.74928,635.594267 C1535.92622,635.657663 1535.1271,635.839581 1534.31401,635.880007 Z M1536.45905,640.534092 C1533.0688,640.842744 1529.69647,641.147153 1526.3112,641.455805 C1525.40315,641.539597 1524.49709,641.622328 1523.58705,641.705059 C1523.16588,641.742182 1521.48519,642.169628 1521.16857,641.924616 C1520.47459,641.387922 1519.28974,640.510758 1519,639.617683 C1519.42814,639.469191 1519.9887,639.537073 1520.44173,639.490404 C1520.96744,639.440553 1521.48818,639.367368 1522.0109,639.318577 C1529.93941,638.600511 1537.86992,637.879263 1545.80341,637.159076 C1548.65102,636.898154 1551.49863,636.638293 1554.34824,636.381613 C1554.62603,636.354036 1557.65983,635.818404 1557.80321,636.064476 C1558.26619,636.869516 1558.66645,637.67986 1559,638.48596 C1558.93727,638.335347 1556.26589,638.734154 1556.07074,638.752186 C1553.83845,638.956893 1551.53348,639.373732 1549.2992,639.373732 C1547.1834,639.373732 1544.978,639.760872 1542.85722,639.952851 C1540.72549,640.146952 1538.59277,640.341052 1536.45905,640.534092 Z M1521.11061,631.908268 C1520.90833,631.915248 1520.16595,631.859411 1520,632 C1520.79245,631.324975 1521.66052,630.827431 1522.46279,630.55423 C1534.38592,627.155175 1542.48622,627.487204 1548,629.576092 C1541.25188,630.158388 1534.50866,630.93013 1527.75956,631.428672 C1526.25125,631.538351 1524.75472,631.732782 1523.24542,631.841464 C1522.53251,631.893312 1521.82254,631.884338 1521.11061,631.908268 Z M1573.219,595.5685 C1573.398,595.5665 1573.595,595.5125 1573.781,595.4315 C1573.581,595.4685 1573.391,595.5125 1573.219,595.5685 Z M1569.96845,631 C1569.96845,631 1575.75239,640.050407 1576,644 C1576,644 1573.04685,642.216249 1572.92065,641.836138 C1572.79924,641.452067 1570.82983,633.680576 1568,631.385061 C1568,631.385061 1569.10612,631.258357 1569.96845,631 Z M1585.0121,634 C1585.06191,633.497326 1585.27464,630.339329 1583,629.126884 C1583,629.126884 1587.14354,628.504618 1587.81078,626 C1587.81078,626 1588.7416,629.632474 1586.47422,632.008751 C1585.26219,633.243559 1585.04946,633.81332 1585.0121,634 Z M1585.79131,649.988265 C1585.53248,649.994133 1585.27068,650 1585,650 C1585.03655,641.480442 1589,633 1589,633 C1589,633 1588.24031,639.858088 1587.22573,645.648297 C1586.7387,648.39916 1586.21413,649.546249 1585.79131,649.988265 Z M1591.50956,637 C1593.66856,637.756294 1588,647 1588,647 L1591.50956,637 Z M1590.95905,650 C1590.66109,649.9881 1590.34079,649.982149 1590,649.973224 C1590.82031,647.611973 1592.48236,642.486837 1592.77194,639 C1592.77194,639 1593.94794,646.306888 1590.95905,650 Z M1545.1001,658.083756 C1545.29114,658.06744 1545.83912,658.125091 1546,658 C1544.63155,659.060551 1541.79511,661 1539.25427,661 C1538.68618,661 1537.81645,660.083031 1537,658.831037 C1537.08446,658.962654 1538.40163,658.696157 1538.55044,658.68963 C1540.04257,658.602611 1541.46732,658.422045 1542.94336,658.282814 C1543.66428,658.217549 1544.37918,658.149021 1545.1001,658.083756 Z M1563,714 C1564.28785,701.661825 1574,685 1574,685 C1574,685 1572.19223,688.11099 1568.92729,699.462495 C1566.82271,706.774042 1564.97012,710.697639 1563.92131,712.563271 C1563.33865,713.600909 1563,714 1563,714 Z M1582.42574,687.585442 C1582.54731,683.486212 1585.86434,663 1585.86434,663 C1586.489,664.767457 1584.75833,678.959773 1584.67828,679.239943 C1584.59525,679.522101 1583.95379,683.97502 1583.99827,688.839254 C1584.04175,693.703487 1579.08895,698.342194 1575.12058,704.321148 C1571.64937,709.556955 1571,712 1571,712 C1571.07709,709.217174 1572.07833,704.548662 1572.5231,703.927717 C1573.43934,702.641119 1576.99061,698.959165 1578.8893,696.697932 C1580.79194,694.436699 1582.32493,691.002129 1582.42574,687.585442 Z M1556.04849,731 C1555.32193,709.71912 1563,702 1563,702 C1557.85386,710.482582 1556.04849,731 1556.04849,731 Z M1581.42579,662 C1581.95318,662.004981 1582.48056,662.009961 1583,662.019922 C1582.36138,673.779062 1576,682 1576,682 C1577.10244,678.593286 1580.47134,665.682638 1581.42579,662 Z M1578,663 C1578,663 1576.56469,677.165351 1564,698 C1564,698 1577.06302,668.736058 1578,663 Z M1576.17106,686.135188 C1579.5085,681.658123 1580.01256,680.744615 1579.99977,681.054955 C1579.92002,683.402447 1579.27321,689.8437 1576.78145,692.70875 C1576.19764,693.380018 1573,697 1573,697 C1573.82304,693.301216 1576.17106,686.135188 1576.17106,686.135188 Z M1510.0382,620.851607 C1512.93956,613.522424 1520,613 1520,613 C1517.98413,614.44124 1517.60701,617.447719 1517.60701,617.447719 C1516.41787,617.121459 1513.75257,618.539322 1511.92281,619.642104 C1511.08434,620.19502 1510.47115,620.616821 1510,621 C1510.02155,620.914623 1510.0382,620.851607 1510.0382,620.851607 Z M1590.12421,662.039597 C1590.18407,662.041628 1590.24201,662.050766 1590.30188,662.054827 C1590.54231,662.078179 1590.76729,662.102546 1591,662.127929 C1590.73156,667.349673 1588.65554,687 1588.65554,687 C1587.02755,681.883848 1588.8699,666.595297 1589.47919,662 C1589.69065,662.013199 1589.91564,662.023352 1590.12421,662.039597 Z M1540.1097,586.686076 C1540.42456,587.55407 1540.06898,588.010117 1540.1097,589.036474 C1540.84371,589.486508 1540.82683,588.710726 1541.72175,588.854055 C1542.28989,587.288459 1541.85087,585.805052 1540.1097,586.686076 Z M1541.36418,584.157267 C1542.32068,584.312624 1541.70685,585.428187 1541.54296,585.965421 C1540.38285,585.918312 1540.5656,584.430896 1541.36418,584.157267 Z M1549.06386,590.118961 C1548.01598,590.801529 1546.01061,589.998684 1545.30242,590.662209 C1546.01855,591.684557 1547.78356,591.652483 1548.88508,592.287943 C1548.74205,591.460041 1549.54261,590.381564 1549.06386,590.118961 Z M1560.28363,593.705198 C1560.12471,593.803423 1560.04127,593.988849 1560.07405,594.174275 C1560.10484,594.358699 1560.24489,594.506037 1560.42566,594.546129 C1560.60544,594.585219 1560.82495,594.653376 1561.06531,594.727546 C1561.66027,594.910967 1562.37839,595.132476 1563.04486,595.132476 C1563.57029,595.132476 1564.06394,594.994158 1564.43839,594.590231 C1564.55957,594.458929 1564.59434,594.269494 1564.52779,594.103112 C1564.46124,593.93673 1564.30431,593.824472 1564.12751,593.816453 C1563.69743,593.796407 1563.21968,593.720232 1562.75781,593.647064 C1561.73973,593.484691 1560.8617,593.344369 1560.28363,593.705198 Z M1572.02683,594.306579 C1571.87189,594.456924 1571.84209,594.698479 1571.95731,594.882903 C1572.1788,595.241727 1572.51055,595.472257 1572.91381,595.548432 C1573.01512,595.566473 1573.11842,595.575494 1573.21973,595.575494 C1573.79482,595.575494 1574.37587,595.298858 1574.76324,595.007188 C1574.8715,594.925 1574.93309,594.793698 1574.93905,594.657385 C1574.94501,594.554148 1574.91322,594.449908 1574.85561,594.365715 C1574.89534,594.329632 1574.94799,594.291545 1574.99169,594.268492 L1574.99169,594.266487 C1575.13174,594.185301 1575.27973,594.047985 1575.24497,593.792398 C1575.21914,593.591938 1575.0642,593.432572 1574.86654,593.400498 C1574.77019,593.385463 1574.67087,593.408516 1574.57055,593.455625 L1574.56956,593.45362 L1574.33018,593.500728 C1573.47797,593.626016 1572.59597,593.755313 1572.02683,594.306579 Z M1597.57623,680.484519 C1597.31799,681.614114 1597.91394,682.63145 1597.75402,683.737992 C1597.69244,684.162968 1596.73991,686.113448 1596.50153,686.448217 C1596.34957,686.661707 1595.83208,686.503344 1595.60562,686.809046 C1594.5935,688.16917 1595.87181,689.919189 1595.24805,691.867665 C1595.45763,691.898736 1595.44174,692.154323 1595.42684,692.410913 C1596.16383,692.51014 1596.47472,693.040358 1597.03888,693.313987 C1597.72224,692.800808 1598.66583,692.547226 1599.54585,692.229496 C1601.82437,687.367328 1604.77333,682.402925 1606.17083,677.232049 C1606.59992,677.160885 1606.07151,678.055941 1606.70818,677.774294 C1607.16309,676.124505 1607.07966,672.661551 1605.99106,671.449767 C1605.28386,672.209512 1605.31664,674.586973 1604.02144,674.160995 C1603.33212,676.716865 1601.16783,677.785319 1598.47115,678.315537 C1598.50095,679.376975 1597.758,679.684682 1597.57623,680.484519 Z M1489.43403,576.206004 C1489.89589,575.465303 1491.28148,574.700547 1491.40365,574.218439 C1489.60586,575.656743 1487.3929,576.675082 1486.03115,578.555401 C1487.08598,578.042222 1486.74033,578.82502 1486.74828,579.097646 C1486.85952,578.774905 1487.71173,578.28077 1487.82298,578.555401 C1487.44951,578.731806 1486.4652,579.219927 1486.92706,579.638889 C1487.96501,578.553396 1489.93761,577.352638 1489.43403,576.206004 Z M1523.09829,562.293048 C1523.99122,562.369223 1523.02777,562.679937 1522.91851,562.835294 C1525.00732,563.545926 1527.09911,562.603762 1529.00813,562.112634 C1529.14818,561.693671 1528.94755,561.299767 1529.54449,561.02714 C1527.78445,561.216576 1526.90046,561.189513 1525.42746,561.569386 C1525.45925,561.175481 1525.28046,560.995067 1524.89012,561.02714 C1524.61796,561.294755 1524.10445,561.31881 1523.63465,561.388972 C1523.35852,562.031447 1524.24252,561.498222 1524.171,561.930215 C1524.04784,562.288037 1523.17278,561.886113 1523.09829,562.293048 Z M1532.94737,567.171253 C1530.9122,566.887601 1529.19983,568.646642 1529.54449,570.243309 C1529.49085,570.023805 1530.06297,569.618875 1530.08184,570.061892 C1530.07985,570.421719 1529.59415,570.292422 1529.72228,570.784552 C1530.93802,570.537986 1531.61443,571.755783 1530.62018,572.231876 C1530.05502,572.319077 1529.98748,571.905126 1529.3657,572.05046 C1529.10647,572.501496 1528.93165,572.759087 1529.18593,573.314363 C1528.76578,573.490768 1528.04965,573.373499 1528.11321,574.037023 C1528.58799,574.041032 1529.16705,573.936792 1529.18593,574.399856 C1528.14699,574.555213 1527.49541,575.101467 1526.85874,575.663759 C1528.46085,574.801779 1533.09437,575.801074 1534.55842,574.218439 C1534.47995,574.303635 1534.99446,572.891391 1535.09577,572.77312 C1533.43803,572.639813 1533.51451,570.755485 1532.76858,569.701063 L1532.05344,569.701063 C1532.4865,568.939314 1531.5439,568.869153 1531.33631,568.254741 C1531.94518,569.166836 1533.12317,569.415407 1533.48472,568.073325 C1532.99802,567.963071 1532.06437,568.303854 1531.87267,567.893913 C1532.36036,567.782657 1532.71097,567.535088 1532.94737,567.171253 Z M1523.45586,573.858613 C1526.56672,574.224453 1527.65135,572.548604 1528.82935,570.965969 C1527.66923,569.664981 1526.04229,571.317777 1524.89012,571.689631 C1524.88912,572.891391 1524.07764,573.27828 1523.45586,573.858613 Z M1552.10718,554.342787 C1550.48024,554.282649 1548.63478,554.258594 1547.45281,554.703616 C1548.16298,554.889042 1548.37454,555.578626 1549.42143,555.426276 C1549.84952,554.593363 1551.0891,554.578328 1552.10718,554.342787 Z M1546.37712,569.520649 C1546.56782,570.994033 1544.97763,570.992029 1544.94485,569.701063 C1545.60933,569.829358 1545.71362,569.392354 1546.37712,569.520649 Z M1571.83956,660.935578 C1571.83956,660.935578 1567.27776,661.33782 1564.81896,660.132083 C1564.50762,659.978518 1564.22915,659.803156 1564,659.597081 C1564,659.597081 1564.3036,659.591137 1564.83056,659.581229 C1567.8666,659.518812 1578.45117,659.312737 1582.85633,659.148274 C1585.43697,659.054153 1587.74977,658.881763 1589.53079,658.672716 C1591.31664,658.466641 1592.5649,658.226881 1593,658 C1593,658 1592.79889,659.458377 1589.408,660.009231 C1588.97483,660.076602 1588.49912,660.135056 1587.96056,660.168741 C1583.1638,660.490733 1571.83956,660.935578 1571.83956,660.935578 Z M1565.31372,679.641372 C1564.14489,682.242846 1557,695 1557,695 C1557.84314,689.425696 1561.89042,682.79988 1564.54972,677.924598 C1566.65402,674.05416 1569.78612,665.437521 1570.99148,662.044682 C1571.32528,662.032767 1571.66416,662.017873 1572,662 C1571.69156,668.131337 1566.39935,677.229547 1565.31372,679.641372 Z M1551.97032,615.708486 C1551.97032,615.708486 1551.46856,618.796506 1554,618.918224 C1554,618.918224 1545.67172,619.322676 1542,618.332632 C1542,618.332632 1546.41354,616.252867 1550.06953,613 C1550.06953,613 1549.94261,615.341413 1551.97032,615.708486 Z M1548,609.628155 C1548,609.628155 1545.77903,612.166169 1542.4701,614.609097 C1538.22402,617.739888 1535.16285,620.12819 1531,619.994664 C1531,619.994664 1539.98474,613.84132 1541.83946,612.115591 C1546.20697,608.064277 1547.87465,608.848239 1548,609.628155 Z M1539.17528,606.59103 C1541.06753,605.362247 1540.9997,606.430711 1540.9997,606.430711 C1540.9997,606.430711 1534.02805,613.195369 1528,617 C1528,617 1530.44402,612.253009 1539.17528,606.59103 Z M1521,619 C1521,619 1526.4095,605.766879 1537,605 C1537,605 1528.9693,609.836093 1527.4765,612.3339 C1525.53275,615.586695 1524.82309,617.882378 1521,619 Z M1570,638 C1570,638 1562.81117,631.598343 1562,630 C1562,630 1564.57466,630.532436 1566.33816,630.264146 C1566.33816,630.264146 1569.45641,635.332643 1570,638 Z M1566.84847,662 C1567.24602,662.049178 1567.63169,662.075272 1568,662.087316 C1567.00658,665.248745 1564.83513,671.81649 1563,675 C1563,675 1564.0053,668.808616 1565.79474,664.499035 C1566.24529,663.406084 1566.5871,662.604184 1566.84847,662 Z M1556.63963,688.360724 C1555.59418,691.00376 1553.39334,697.628412 1552.10831,702.56546 C1550.82431,707.506407 1549.00411,709 1549.00411,709 C1548.8921,705.98844 1551.09397,700.149582 1552.74408,694.286351 C1554.39315,688.427019 1560,681 1560,681 C1560,681 1557.7359,685.598747 1556.63963,688.360724 Z M1583.94509,621 C1583.94509,621 1586.4355,625.057729 1557.87135,626 C1557.87135,626 1556.53167,624.233633 1551,622.078226 C1551,622.078226 1570.43434,625.982221 1583.94509,621 Z M1570.11051,677.179324 C1569.03788,679.919623 1560.34573,695.768757 1557.53569,701.655177 C1554.72769,707.548628 1551,721 1551,721 C1551.59647,713.213051 1556.28973,700.119283 1562.29827,689.739698 C1567.35145,681.000474 1573.79333,665.639532 1575.70204,661.007743 C1576.11294,661.001716 1576.50855,660.996694 1576.87459,661.002721 C1576.91537,661.002721 1576.95412,661.002721 1577,661.003725 C1575.45835,665.189512 1571.05976,674.757455 1570.11051,677.179324 Z M1412,620.33374 L1427.14066,579.695652 L1434.77937,582.491782 L1429.29267,597.217944 L1455.0604,606.64408 L1450.70555,618.336593 L1424.93594,608.909835 L1419.64248,623.130492 L1412,620.33374 Z M1471.04118,580.481836 L1461.96469,589.095091 L1437.4826,563.489599 L1457.24914,544.73035 C1462.14293,540.085398 1465.97291,537.471016 1468.95921,536.736422 C1472.15941,535.952606 1475.22764,537.067893 1478.08199,540.052375 C1480.6449,542.733425 1481.86631,545.052474 1481.81441,547.142235 C1481.79127,548.074341 1481.50358,549.114237 1480.94447,550.276254 C1484.52616,548.915479 1487.0578,550.276254 1488.69636,551.990306 L1494.57766,558.142453 L1485.50367,566.7582 L1480.48605,561.510744 C1479.76058,560.753097 1477.83558,558.739973 1472.91552,563.407355 L1463.37435,572.463609 L1471.04118,580.481836 Z M1451.92507,560.488294 L1458.00838,566.851037 L1467.52266,557.821574 C1470.5221,554.976035 1471.18565,553.544231 1471.31449,552.944219 C1471.55214,551.837655 1470.55587,550.510526 1469.6778,549.591505 C1467.94981,547.784616 1466.99419,547.628849 1466.57517,547.678071 C1466.16616,547.738509 1464.89471,548.179639 1461.9428,550.980318 L1451.92507,560.488294 Z M1501.41759,551.902703 C1497.73896,550.637258 1495.02283,546.70447 1493.11409,539.880036 C1490.86951,531.853085 1490.94832,526.477278 1493.35362,523.445442 C1495.66199,520.535104 1502.01047,517.669627 1512.76431,514.686391 C1522.35739,512.022163 1528.71338,511.348007 1532.1925,512.626537 C1535.8211,513.957404 1538.55162,518.060289 1540.53978,525.17071 C1542.70368,532.907935 1542.56984,538.123614 1540.13014,541.114328 C1537.79425,543.974821 1531.49643,546.797929 1520.87643,549.744405 C1514.30655,551.568117 1509.25016,552.473431 1505.58841,552.473431 C1503.90795,552.473431 1502.52143,552.282773 1501.41759,551.902703 Z M1503.93422,526.600022 C1503.7172,526.962646 1503.18061,528.779504 1505.43832,536.835115 C1507.00308,542.436472 1508.36709,543.485091 1508.88117,543.675749 C1509.4628,543.893199 1511.68486,544.149279 1519.80886,541.895029 C1527.50509,539.759161 1529.10113,538.362249 1529.43009,537.861304 C1529.67337,537.489334 1530.32192,535.739767 1528.40568,528.886672 C1526.48631,522.022361 1525.12793,520.92452 1524.75707,520.751931 C1524.6226,520.689002 1524.30865,520.599903 1523.62446,520.599903 C1522.30235,520.599903 1519.59873,520.934489 1514.13269,522.452899 L1514.13207,522.452899 C1505.55402,524.831763 1504.15811,526.228675 1503.93422,526.600022 Z M1565.74846,547.067841 C1558.22172,545.791804 1553.53181,544.27277 1551.40981,542.424136 C1549.14335,540.445903 1548.41537,536.976053 1549.24716,532.109913 L1550.03955,528.508596 L1561.73712,530.489943 L1561.68771,531.594015 C1561.63143,532.881268 1561.55012,533.82895 1561.43943,534.490022 C1561.34749,535.026482 1561.27119,535.688177 1561.21366,536.460778 C1561.10734,537.62591 1563.34003,538.698828 1567.18439,539.349932 C1570.79673,539.962405 1571.86117,539.544951 1572.1007,539.401023 C1572.31646,539.272672 1573.06195,538.625307 1573.55664,535.717461 L1577.45541,512.885856 L1589.81591,514.979979 L1585.78518,538.5711 C1585.00217,543.168699 1583.1516,546.086514 1580.286,547.241053 C1579.00829,547.756952 1577.26592,548.014278 1575.02884,548.014278 C1572.55349,548.014278 1569.47337,547.699006 1565.74846,547.067841 Z M1597.17967,556.244961 L1586.1138,548.584843 L1621.92796,530.2698 L1635.53965,539.692743 L1631.0477,579.695652 L1620.13895,572.142826 L1620.98713,565.03975 L1603.4982,552.932023 L1597.17967,556.244961 Z M1610.58792,549.183056 L1622.05003,557.118888 L1623.8259,542.28084 L1610.58792,549.183056 Z M1637.18357,592.051313 L1631.77369,580.748559 L1663.8913,565.481407 L1672.0174,582.469902 L1662.56422,602.586804 C1661.74553,604.318143 1660.7112,606.391877 1659.48755,608.751772 L1658.00313,611.580272 L1658.52531,611.29661 L1662.38055,609.377204 L1680.72147,600.658026 L1686.12821,611.963279 L1654.01436,627.227307 L1645.88701,610.244435 L1655.99715,588.317468 C1656.50241,587.227805 1657.42077,585.495216 1658.80489,583.017857 L1659.82355,581.172803 L1659.38099,581.413979 L1655.45742,583.364625 L1637.18357,592.051313 Z M1664.14061,678.827907 L1687,683.32964 L1684.55835,695.660825 L1660.93606,691.008515 C1656.3292,690.101295 1653.44435,688.170018 1652.36175,685.267166 C1651.34309,682.542383 1651.53052,677.776983 1652.93596,670.700422 C1654.42227,663.193369 1656.07845,658.531061 1657.99793,656.44858 C1660.04402,654.226143 1663.55386,653.585091 1668.43529,654.546669 L1672.03915,655.435768 L1669.72476,667.105284 L1668.6152,667.029057 C1667.31883,666.939085 1666.36787,666.832243 1665.70778,666.703533 C1665.17118,666.597316 1664.50796,666.504844 1663.73377,666.427368 C1662.55902,666.278664 1661.42376,668.502976 1660.66086,672.341789 C1659.94874,675.947548 1660.34116,677.02659 1660.47844,677.271514 C1660.60194,677.490821 1661.23257,678.25496 1664.14061,678.827907 Z M1643.58738,701.043179 L1651.59459,690.154943 L1668.86466,726.561796 L1659.01736,739.955234 L1619.06437,734.388048 L1626.96293,723.650751 L1634.05166,724.69041 L1646.71558,707.468397 L1643.58738,701.043179 Z M1650.26026,714.682127 L1641.96084,725.968689 L1656.77767,728.143205 L1650.26026,714.682127 Z M1608.03877,740.039296 L1619.76728,735.466738 L1632.67916,768.540385 L1615.57013,775.21378 L1600.61631,764.013484 C1599.60003,763.239195 1598.25709,762.137803 1596.50175,760.641137 L1594.19385,758.594712 L1593.89097,761.612438 C1593.69635,763.750801 1593.46669,765.518907 1593.21136,766.855462 L1589.96978,785.198231 L1572.52721,792.002342 L1559.61221,758.928069 L1571.33946,754.353635 L1578.33827,772.275485 C1578.81512,773.494459 1579.30198,774.887303 1579.7876,776.420871 C1580.04041,774.21496 1580.26695,772.539419 1580.46219,771.420515 L1584.69252,749.145635 L1594.53365,745.306087 L1612.78162,758.632864 C1613.76223,759.347736 1615.07012,760.417231 1616.77539,761.898262 C1616.0501,760.387835 1615.47876,759.09506 1615.03695,757.961146 L1608.03877,740.039296 Z M1541.48737,760.514304 L1545.88237,754.924289 L1559.15424,757.367162 L1534.04947,788.63221 L1517.72472,785.62617 L1505.23513,747.443999 L1518.3233,749.853307 L1520.49394,756.650461 L1541.48737,760.514304 Z M1536.56626,766.820398 L1522.80891,764.287393 L1527.34262,778.496461 L1536.56626,766.820398 Z M1494.27557,737.708604 L1505.23513,743.900273 L1487.73613,774.777994 L1476.77782,768.586325 L1494.27557,737.708604 Z M1473.4006,718.716592 C1480.69576,726.817209 1484.25014,732.4829 1484.26651,736.037367 C1484.2854,739.651708 1480.74425,744.543388 1473.44217,750.992446 C1470.19071,753.863961 1467.04442,755.307203 1464.05116,755.307203 C1462.9453,755.307203 1461.86085,755.110114 1460.7997,754.715936 C1457.08977,753.338182 1451.80481,748.800141 1444.6419,740.840481 C1439.37961,734.995787 1436.48208,730.664191 1435.78493,727.597457 C1435.03804,724.305569 1436.43548,721.068565 1439.93821,717.977508 L1441.3747,716.564827 L1449.87963,726.011388 L1448.29452,727.407853 C1446.46758,729.021365 1446.76735,729.99496 1446.86496,730.314919 C1447.07278,730.987891 1448.00483,732.766683 1451.92006,737.113249 C1457.32782,743.121352 1459.25175,744.031954 1459.82798,744.144843 C1460.23228,744.221559 1461.89423,744.171663 1466.3605,740.228631 C1472.60962,734.708885 1473.20097,732.82344 1473.23372,732.376871 C1473.2652,731.934668 1472.94843,730.025522 1467.52996,724.004321 C1463.52216,719.552974 1461.5995,718.121583 1460.69264,717.705575 C1460.06288,717.413683 1459.03259,717.19913 1457.37631,718.662331 L1455.41902,720.584574 L1446.91975,711.140508 L1448.71394,709.55132 C1452.53723,706.175856 1456.13946,705.120555 1459.43186,706.419722 C1462.46038,707.615979 1467.03056,711.638221 1473.4006,718.716592 Z M1454.31672,690.920919 L1457.68147,704.00916 L1418.75794,694.506652 L1414.62107,678.407772 L1444.01406,650.838924 L1447.33214,663.745063 L1442.07473,668.605515 L1447.39685,689.307026 L1454.31672,690.920919 Z M1436.12109,673.952201 L1425.13527,684.107399 L1439.60779,687.519791 L1436.12109,673.952201 Z" id="trojan-logo-orange-globe"></path>
        </g>
    </g>
</svg>