<svg xmlns="http://www.w3.org/2000/svg" width="275" height="277" viewBox="0 0 275 277">
  <path fill="#ED7924" fill-rule="evenodd" d="M38.7646,49.7823 L44.8866,56.0533 L54.0946,47.0623 C56.9956,44.2333 57.6246,42.8143 57.7416,42.2203 C57.9556,41.1243 56.9466,39.8113 56.0616,38.9033 C54.3206,37.1223 53.3706,36.9583 52.9606,37.0253 C52.5566,37.0853 51.3166,37.5273 48.4626,40.3163 L38.7646,49.7823 Z M57.9686,69.4563 L49.1656,78.0503 L24.5796,52.8643 L43.7346,34.1673 C48.4786,29.5333 52.2106,26.9213 55.1406,26.1793 C58.2746,25.3823 61.3196,26.4643 64.1846,29.3983 C66.7576,32.0353 68.0006,34.3203 67.9856,36.3853 C67.9806,37.3133 67.7126,38.3523 67.1756,39.5163 C70.6906,38.1333 73.2146,39.4643 74.8616,41.1503 L80.7666,47.2003 L71.9656,55.7943 L66.9306,50.6363 C66.0486,49.7333 65.1196,49.4163 64.0056,49.6483 C62.7196,49.9133 61.2046,50.8893 59.5056,52.5503 L50.2666,61.5673 L57.9686,69.4563 Z M4.26325641e-14,108.6106 L14.586,68.4606 L22.141,71.2026 L16.855,85.7476 L42.381,95.0196 L38.184,106.5816 L12.658,97.3086 L7.555,111.3576 L4.26325641e-14,108.6106 Z M150.2891,35.4957 C142.8971,34.3037 138.2851,32.8367 136.1901,31.0137 C133.9571,29.0717 133.2221,25.6287 134.0071,20.7827 L134.7541,17.1967 L146.2481,19.0547 L146.2111,20.1457 C146.1671,21.4047 146.0921,22.3767 145.9851,23.0327 C145.9021,23.5597 145.8311,24.2237 145.7751,25.0007 C145.6811,26.1577 147.8751,27.2057 151.6441,27.8167 C155.1821,28.3877 156.2161,27.9617 156.4471,27.8177 C156.6621,27.6847 157.3931,27.0317 157.8611,24.1267 L161.5381,1.3707 L173.6831,3.3317 L169.8821,26.8457 C169.1431,31.4257 167.3471,34.3447 164.5451,35.5207 C163.2401,36.0707 161.4341,36.3457 159.0941,36.3457 C156.7201,36.3457 153.7961,36.0617 150.2891,35.4957 Z M89.4478,15.7247 C89.2398,16.0887 88.7408,17.8937 91.0768,25.9027 C92.6998,31.4647 94.0598,32.4987 94.5688,32.6847 C95.1378,32.8917 97.3198,33.1277 105.2488,30.8137 C112.7628,28.6167 114.3028,27.2157 114.6158,26.7157 C114.8498,26.3417 115.4588,24.5897 113.4718,17.7887 C111.4778,10.9707 110.1258,9.8897 109.7598,9.7207 C109.6328,9.6617 109.3418,9.5797 108.7218,9.5797 C107.4538,9.5797 104.8108,9.9227 99.3748,11.5117 C91.0018,13.9577 89.6598,15.3547 89.4478,15.7247 Z M87.3498,40.9207 C83.7248,39.7007 81.0018,35.8177 79.0268,29.0507 C76.6998,21.0897 76.6918,15.7457 79.0018,12.7117 C81.2248,9.7917 87.4118,6.8807 97.9168,3.8137 L97.9158,3.8137 C107.2858,1.0757 113.5108,0.3457 116.9498,1.5827 C120.5298,2.8727 123.2698,6.9267 125.3298,13.9767 C127.5708,21.6477 127.5188,26.8327 125.1728,29.8277 C122.9278,32.6947 116.7918,35.5627 106.4148,38.5957 C99.8798,40.5057 94.8678,41.4527 91.2588,41.4527 C89.6958,41.4527 88.3968,41.2747 87.3498,40.9207 Z M207.4346,29.9722 L194.4226,36.9522 L205.6906,44.6912 L207.4346,29.9722 Z M181.2546,44.0862 L170.3726,36.6152 L205.5686,18.0872 L218.9596,27.2842 L214.5426,66.9442 L203.8086,59.5752 L204.6466,52.5312 L187.4706,40.7372 L181.2546,44.0862 Z M220.5156,79.2847 L215.1256,68.2277 L246.7616,52.8057 L254.8596,69.4157 L245.6006,89.3227 C244.7996,91.0387 243.8146,93.0337 242.5886,95.4237 L241.1496,98.1947 L241.6486,97.9167 L245.4486,95.9787 L263.5156,87.1727 L268.9056,98.2297 L237.2676,113.6517 L229.1726,97.0467 L239.0736,75.3497 C239.5586,74.2877 240.4586,72.5717 241.8256,70.1017 L242.8086,68.3027 L242.3816,68.5397 L238.5166,70.5077 L220.5156,79.2847 Z M44.354,190.4732 L22.792,199.6972 C20.613,200.6272 18.659,201.0932 16.944,201.0932 C15.356,201.0932 13.973,200.6952 12.804,199.8962 C10.513,198.3312 8.094,194.5232 5.41,188.2532 C2.565,181.6002 1.393,177.0712 1.823,174.4082 C2.287,171.5712 4.771,169.1722 9.207,167.2742 L12.573,166.0132 L17.005,176.3692 L16.082,176.9052 C14.992,177.5382 14.167,177.9732 13.56,178.2332 C13.036,178.4592 12.447,178.7502 11.817,179.0932 C10.771,179.6362 11.025,181.9102 12.493,185.3432 C13.817,188.4322 14.67,189.1012 14.976,189.2452 C15.199,189.3542 16.128,189.6062 18.805,188.4602 L39.676,179.5352 L44.354,190.4732 Z M49.6323,228.8101 L54.1963,215.0011 L40.3853,219.3921 L49.6323,228.8101 Z M17.4933,214.7901 L54.7363,203.2661 L65.7433,214.4761 L53.7343,251.7001 L44.9183,242.7241 L47.1003,236.1141 L33.0253,221.7811 L26.4313,223.8951 L17.4933,214.7901 Z M104.2036,252.066 L117.3966,239.764 L134.3396,244.815 L124.4446,278.023 L113.0436,274.625 L118.4066,256.628 C118.7616,255.431 119.2126,254.087 119.7476,252.628 C118.3196,254.128 117.1936,255.264 116.3876,256.021 L100.1466,270.782 L90.5656,267.925 L84.9096,246.814 C84.6116,245.702 84.2716,244.096 83.8986,242.036 C83.5566,243.587 83.2166,244.933 82.8856,246.044 L77.5226,264.041 L66.1196,260.642 L76.0156,227.435 L92.6366,232.388 L97.1096,249.906 C97.4116,251.153 97.7656,252.844 98.1646,254.95 L98.6556,257.841 L100.6196,255.722 C102.0086,254.195 103.2176,252.962 104.2036,252.066 Z M155.8682,260.2779 L168.7382,257.3509 L159.3822,246.2149 L155.8682,260.2779 Z M149.6792,239.5949 L164.9952,236.1129 L190.3722,265.8789 L178.1042,268.6669 L173.6272,263.3409 L154.0362,267.7919 L152.3732,274.5159 L139.9322,277.3449 L149.6792,239.5949 Z M181.1055,229.4751 L191.3905,223.4961 L208.8025,253.4521 L198.5145,259.4301 L181.1055,229.4751 Z M240.8906,205.0894 L242.5776,206.6804 C246.1846,210.0754 247.5486,213.4234 246.6326,216.6284 C245.7886,219.5894 242.3896,224.2054 236.2396,230.7384 C229.1946,238.2174 224.1116,241.9754 220.7026,242.2274 C220.5686,242.2364 220.4306,242.2414 220.2916,242.2414 C216.8516,242.2424 211.9446,239.1954 205.3136,232.9484 C201.1106,228.9924 199.4886,225.0424 200.4936,221.2074 C201.4416,217.5904 205.2646,212.2624 212.1826,204.9164 C217.2636,199.5194 221.1316,196.4734 224.0086,195.6074 C227.0776,194.6784 230.3166,195.7854 233.6206,198.8954 L235.0956,200.1574 L226.8716,208.8884 L225.3946,207.4894 C224.2336,206.4004 223.2416,206.0014 222.4416,206.3114 C221.8216,206.5504 220.2216,207.5484 216.4496,211.5484 C211.2476,217.0734 210.5696,218.9524 210.5186,219.5034 C210.4836,219.8934 210.6986,221.4754 214.9456,225.4764 C220.8776,231.0624 222.7576,231.5014 223.1926,231.5034 L223.1936,231.5034 C223.6196,231.5034 225.4116,231.0704 230.6156,225.5424 C234.4706,221.4474 235.6486,219.5324 235.9576,218.6474 C236.1686,218.0314 236.2686,217.0334 234.6856,215.5404 L232.6656,213.8244 L240.8906,205.0894 Z M250.9941,183.9888 L255.5411,171.5968 L241.1081,173.3928 L250.9941,183.9888 Z M235.6831,163.1858 L274.4641,158.0788 L270.1311,169.8888 L263.2241,170.7528 L256.3071,189.6148 L261.0441,194.6688 L256.6531,206.6418 L230.2731,177.9378 L235.6831,163.1858 Z M158.3545,134.5914 C158.3545,134.5914 159.6415,135.6204 160.5425,136.7794 C160.8305,137.1484 160.9545,137.6664 160.9855,138.2004 C160.3225,138.2264 159.6665,138.2524 159.0195,138.2744 C158.3805,136.5444 158.3545,134.5914 158.3545,134.5914 Z M141.4268,106.2066 C141.4268,106.2066 155.6808,105.1756 157.6138,105.0496 C159.5448,104.9196 165.1468,103.8896 165.6608,103.8896 C165.6608,103.8896 163.9888,106.7836 160.0278,106.8846 C152.9478,107.0566 142.0708,108.7826 141.4268,106.2066 Z M167.3047,116.8267 C170.2937,120.5927 168.4607,125.4217 168.4607,125.4217 C168.1697,121.6557 164.1147,117.5997 164.3087,117.6987 C164.5007,117.7917 167.3047,116.8267 167.3047,116.8267 Z M165.9795,138.0435 C165.8065,137.2265 165.6395,135.9955 165.5005,134.1415 C164.9845,127.3195 161.8965,121.6555 157.7765,118.3075 L162.1505,117.6635 C162.1505,117.6635 170.1805,127.2405 167.3425,138.0065 C166.8895,138.0195 166.4345,138.0315 165.9795,138.0435 Z M138.5947,102.2164 C138.5947,102.2164 145.2937,101.5474 149.7937,100.6104 C154.5577,99.6104 157.6137,99.5454 159.7407,99.3524 C161.9307,99.1534 163.4437,100.2204 163.4437,100.2204 C163.4437,100.2204 163.4087,101.5504 160.0277,101.8604 C156.1657,102.2164 153.0797,101.9604 149.6977,102.5374 C146.1887,103.1404 140.8467,104.9494 138.5947,102.2164 Z M96.1826,93.9761 C96.1826,93.9761 91.4176,96.7441 89.9996,101.5841 C88.6246,106.2971 89.2306,108.8491 89.2306,108.8491 C89.3546,109.1791 84.2096,99.3851 96.1826,93.9761 Z M148.249,114.5123 C148.249,114.5123 167.561,114.7033 171.52,109.9733 C171.52,109.9733 166.658,118.4983 148.249,114.5123 Z M151.918,95.5875 C150.276,92.3055 146.321,89.9865 146.321,89.9865 C150.373,89.4085 153.851,95.2975 153.851,95.2975 L151.918,95.5875 Z M121.6348,89.7945 C121.6348,89.7945 119.6768,88.3145 114.6838,89.6015 C114.3928,89.6795 123.1798,85.5465 136.6628,91.5365 L135.0568,93.2695 C135.0568,93.2695 133.7028,91.5365 131.2548,92.2385 C131.2548,92.2385 129.2608,89.6015 126.4628,91.8215 C126.4628,91.8215 125.7558,88.8265 121.6348,89.7945 Z M113.1094,91.2769 C106.7064,90.2749 101.9414,91.5369 101.9414,91.5369 C107.0584,85.6399 113.1094,91.2769 113.1094,91.2769 Z M137.8223,98.6138 C137.8223,98.6138 141.5663,90.8458 145.0633,92.5938 C148.9233,94.5228 149.9223,96.2928 149.9223,96.2928 C149.9223,96.2928 144.7713,97.7088 141.4923,98.4818 C139.1113,99.0448 138.3363,98.7388 137.8223,98.6138 Z M138.9795,89.858 C138.9795,89.858 134.2175,84.967 115.2965,85.482 C115.2965,85.482 129.8405,82.778 142.8435,88.701 C142.8435,88.701 139.8795,89.087 138.9795,89.858 Z M155.999,138.396 C154.151,134.717 152.819,129.312 152.819,129.312 C152.819,129.312 154.558,131.245 156.294,133.175 C157.325,134.32 157.451,136.636 157.383,138.338 C156.905,138.36 156.446,138.379 155.999,138.396 Z M118.8418,123.5972 C116.8438,123.7072 114.9588,124.0932 112.9738,124.0932 C112.2428,124.0932 102.4958,124.7052 102.5058,124.8162 C102.4358,123.9672 102.5938,123.1422 102.9078,122.3802 C103.0068,122.1472 105.7188,122.1492 105.9588,122.1442 C107.8878,122.1012 109.8058,121.9132 111.7268,121.7592 C112.7378,121.6812 113.7468,121.6102 114.7588,121.5722 C115.5908,121.5402 116.2368,121.2842 117.0478,121.1722 C118.1568,121.0242 119.2928,120.9812 120.4078,120.8872 C122.6138,120.6972 124.8208,120.5112 127.0288,120.3242 C130.2718,120.0442 133.5178,119.7672 136.7598,119.4902 C137.2128,119.4522 137.6648,119.4122 138.1128,119.3742 C139.0478,120.0552 139.8658,120.7922 140.5788,121.5662 C140.4558,121.4282 139.2018,121.6812 139.0268,121.6992 C137.6588,121.8142 136.2868,121.9302 134.9158,122.0482 C131.0718,122.3772 127.2568,122.7152 123.4378,123.1592 C122.7278,123.2442 121.9898,123.2262 121.2828,123.2862 C120.4578,123.3552 119.6568,123.5532 118.8418,123.5972 Z M128.1602,132.7222 C125.9392,132.9092 123.7152,133.1002 121.4972,133.2892 C119.8522,133.4302 118.2082,133.5702 116.5602,133.7112 C116.1922,133.7422 115.0782,134.0422 114.7332,133.8652 C113.8802,133.4202 112.8422,132.9942 111.5652,132.5452 C111.0882,132.3762 110.6392,132.2082 110.2092,132.0352 C110.4192,132.1182 110.9342,131.9732 111.1532,131.9552 C112.0562,131.8772 112.9592,131.8042 113.8662,131.7242 C118.2412,131.3272 122.6022,130.9772 126.9812,130.6042 C129.4342,130.3972 131.8852,130.1852 134.3362,129.9752 C136.3082,129.8082 138.2902,129.7832 140.2582,129.5412 C140.6812,129.4892 144.5972,128.7102 144.6992,129.0932 C144.9182,129.8572 145.0852,130.5882 145.2032,131.2652 C141.6062,131.5742 137.9852,132.2132 134.3852,132.2432 C132.3172,132.2592 130.2192,132.5452 128.1602,132.7222 Z M121.1025,128.358 C117.6975,128.649 114.3105,128.936 110.9105,129.227 C109.9985,129.306 109.0885,129.384 108.1745,129.462 C107.7515,129.497 106.0635,129.9 105.7455,129.669 C105.0485,129.163 103.8585,128.336 103.5675,127.494 C103.9975,127.354 104.5605,127.418 105.0155,127.374 C105.5435,127.327 106.0665,127.258 106.5915,127.212 C114.5545,126.535 122.5195,125.855 130.4875,125.176 C133.3475,124.93 136.2075,124.685 139.0695,124.443 C139.3485,124.417 142.3955,123.912 142.5395,124.144 C143.0045,124.903 143.4065,125.667 143.7415,126.427 C143.6785,126.285 140.9955,126.661 140.7995,126.678 C138.5575,126.871 136.2425,127.264 133.9985,127.264 C131.8735,127.264 129.6585,127.629 127.5285,127.81 C125.3875,127.993 123.2455,128.176 121.1025,128.358 Z M106.2695,119.3511 C106.0635,119.3581 105.3075,119.3021 105.1385,119.4431 C105.9455,118.7661 106.8295,118.2671 107.6465,117.9931 C119.7885,114.5841 128.0375,114.9171 133.6525,117.0121 C126.7805,117.5961 119.9135,118.3701 113.0405,118.8701 C111.5045,118.9801 109.9805,119.1751 108.4435,119.2841 C107.7175,119.3361 106.9945,119.3271 106.2695,119.3511 Z M158.3594,82.8824 C158.5384,82.8804 158.7354,82.8264 158.9214,82.7454 C158.7214,82.7824 158.5314,82.8264 158.3594,82.8824 Z M155.5879,118.4332 C155.5879,118.4332 161.6379,127.5762 161.8969,131.5662 C161.8969,131.5662 158.8079,129.7642 158.6759,129.3802 C158.5489,128.9922 156.4889,121.1412 153.5289,118.8222 C153.5289,118.8222 154.6859,118.6942 155.5879,118.4332 Z M170.6562,120.9996 C170.7042,120.4826 170.9092,117.2346 168.7172,115.9876 C168.7172,115.9876 172.7102,115.3476 173.3532,112.7716 C173.3532,112.7716 174.2502,116.5076 172.0652,118.9516 C170.8972,120.2216 170.6922,120.8076 170.6562,120.9996 Z M171.002,137.9351 C170.74,137.9411 170.475,137.9471 170.201,137.9471 C170.238,129.2351 174.25,120.5631 174.25,120.5631 C174.25,120.5631 173.481,127.5761 172.454,133.4971 C171.961,136.3101 171.43,137.4831 171.002,137.9351 Z M176.9561,125.1324 C179.0151,125.9014 173.6091,135.3004 173.6091,135.3004 L176.9561,125.1324 Z M176.3584,137.9585 C176.0384,137.9465 175.6944,137.9405 175.3284,137.9315 C176.2094,135.5505 177.9944,130.3825 178.3054,126.8665 C178.3054,126.8665 179.5684,134.2345 176.3584,137.9585 Z M129.5586,145.3765 C129.7486,145.3615 130.2936,145.4145 130.4536,145.2995 C129.0926,146.2745 126.2716,148.0575 123.7446,148.0575 C123.1796,148.0575 122.3146,147.2145 121.5026,146.0635 C121.5866,146.1845 122.8966,145.9395 123.0446,145.9335 C124.5286,145.8535 125.9456,145.6875 127.4136,145.5595 C128.1306,145.4995 128.8416,145.4365 129.5586,145.3765 Z M160.8867,46.6275 C161.9987,47.1955 163.0577,47.8185 164.4907,48.0685 C164.7727,48.0835 160.2997,46.2235 160.8867,46.6275 Z M148.2422,202.3589 C149.5352,189.5289 159.2862,172.2029 159.2862,172.2029 C159.2862,172.2029 157.4712,175.4379 154.1932,187.2419 C152.0802,194.8449 150.2202,198.9249 149.1672,200.8649 C148.5822,201.9439 148.2422,202.3589 148.2422,202.3589 Z M167.7402,174.9039 C167.8632,170.7779 171.2192,150.1579 171.2192,150.1579 C171.8512,151.9369 170.1002,166.2219 170.0192,166.5039 C169.9352,166.7879 169.2862,171.2699 169.3312,176.1659 C169.3752,181.0619 164.3642,185.7309 160.3492,191.7489 C156.8372,197.0189 156.1802,199.4779 156.1802,199.4779 C156.2582,196.6769 157.2712,191.9779 157.7212,191.3529 C158.6482,190.0579 162.2412,186.3519 164.1622,184.0759 C166.0872,181.7999 167.6382,178.3429 167.7402,174.9039 Z M141.4727,218.6929 C140.7487,196.5329 148.3997,188.4949 148.3997,188.4949 C143.2717,197.3279 141.4727,218.6929 141.4727,218.6929 Z M167.1826,149.5484 C167.7136,149.5534 168.2446,149.5584 168.7676,149.5684 C168.1246,161.3734 161.7196,169.6264 161.7196,169.6264 C162.8296,166.2064 166.2216,153.2454 167.1826,149.5484 Z M163.5371,150.7476 C163.5371,150.7476 162.0941,164.8486 149.4621,185.5886 C149.4621,185.5886 162.5951,156.4576 163.5371,150.7476 Z M161.7354,174.1304 C165.1254,169.5284 165.6374,168.5894 165.6244,168.9084 C165.5434,171.3214 164.8864,177.9424 162.3554,180.8874 C161.7624,181.5774 158.5144,185.2984 158.5144,185.2984 C159.3504,181.4964 161.7354,174.1304 161.7354,174.1304 Z M180.3008,141.149 C180.3008,141.149 179.5968,143.583 163.8248,143.345 C148.0558,143.11 147.8638,141.744 147.6078,141.86 C147.6078,141.86 150.5018,140.915 154.4268,141.091 C158.3528,141.268 168.3328,141.624 169.3598,141.685 C170.3898,141.744 179.4638,141.565 180.3008,141.149 Z M94.8281,107.3658 C97.7901,100.1548 104.9981,99.6408 104.9981,99.6408 C102.9401,101.0588 102.5551,104.0168 102.5551,104.0168 C101.3411,103.6958 98.6201,105.0908 96.7521,106.1758 C95.8961,106.7198 95.2701,107.1348 94.7891,107.5118 C94.8111,107.4278 94.8281,107.3658 94.8281,107.3658 Z M175.168,149.813 C175.23,149.815 175.29,149.824 175.352,149.828 C175.601,149.851 175.834,149.875 176.075,149.9 C175.797,155.043 173.647,174.397 173.647,174.397 C171.961,169.358 173.869,154.3 174.5,149.774 C174.719,149.787 174.952,149.797 175.168,149.813 Z M137.8877,222.8228 C137.8877,222.8228 140.2057,224.6088 141.8107,223.0688 L141.9097,220.1968 C141.9097,220.1968 145.1677,221.7988 146.3657,220.1358 C146.3657,220.1358 146.2747,210.7708 148.2237,205.1968 C148.2237,205.1968 149.6297,206.4138 151.3117,205.7298 C151.3117,205.7298 152.1887,213.2078 151.9067,215.3268 C151.9067,215.3268 152.9767,217.3868 155.6147,215.9868 L156.2017,201.8538 C156.2017,201.8538 157.4587,203.5658 159.1007,203.3378 C159.1007,203.3378 160.1157,202.6618 161.0547,200.1398 C161.0547,200.1398 161.0897,200.1718 161.1407,200.2058 C161.7687,199.0798 168.2617,187.4858 168.9577,184.8768 C168.9577,184.8768 165.5897,197.2318 163.0317,201.3958 C163.9037,201.8438 164.8717,202.1638 165.5197,201.8578 C165.5197,201.8578 166.4457,201.3568 167.4027,198.1988 C168.3987,194.9148 168.5607,194.6198 168.6797,194.1978 C168.7967,193.7768 170.8257,188.9528 170.9457,185.5518 C171.0617,182.1468 173.0157,179.4508 173.0157,179.4508 C173.0157,179.4508 173.8837,178.3078 173.8217,177.1388 C173.7587,175.9638 173.9467,179.4798 175.6527,184.0108 C177.3597,188.5388 175.9897,193.5348 175.8687,194.2688 C175.5997,195.9648 178.0507,196.8958 178.5397,194.9988 C180.2597,188.3568 177.5687,179.9948 177.5687,179.9948 C176.1627,175.0508 177.7327,158.7448 178.5397,151.4028 C178.5517,150.7738 178.5577,150.2238 178.5657,149.7738 C180.4847,148.8958 179.7227,145.8238 179.7227,145.8238 C181.8457,144.2788 180.9797,141.6728 180.9797,141.6728 C183.4567,138.8478 181.2397,137.1648 180.7047,136.8158 C181.5217,135.4768 180.4967,132.3398 180.4967,132.3398 C182.6217,127.1248 178.8197,123.5258 178.8197,123.5258 C179.7637,119.8338 174.9467,116.2938 174.9467,116.2938 C174.9467,116.2938 176.1107,114.3018 175.4267,111.9538 C174.9937,110.4558 173.3367,109.1248 173.3367,109.0558 C173.3857,106.1108 170.7127,105.7898 170.7127,105.7578 C170.3897,102.1028 166.1367,103.0848 166.1367,103.0848 C166.7987,100.5308 164.2437,99.2988 164.2437,99.2988 C164.0557,94.0938 157.5277,95.0408 157.5277,95.0408 C157.1477,94.4688 155.6327,93.9068 155.6327,93.9068 C152.7007,87.1868 140.9687,84.3448 138.2217,83.7818 C135.4807,83.2118 116.1727,79.9018 101.4117,86.2388 C86.6507,92.5808 86.2727,104.4078 86.2727,104.4078 C86.0847,109.8948 89.9627,109.6108 89.9627,109.6108 C91.0547,111.9908 92.9107,110.4288 93.3197,110.0418 C94.9207,113.6038 98.3217,112.3588 98.3217,112.3588 C99.3317,112.3588 102.7377,110.4648 102.7377,110.4648 C107.0267,110.4648 111.0647,108.8258 111.9457,109.3328 C112.8307,109.8338 114.8517,109.9598 118.2577,109.8338 C121.6617,109.7088 126.8957,108.6548 127.5257,108.6548 C128.1577,108.6548 130.3567,108.5228 138.8227,113.4918 C147.2667,118.4498 149.4937,135.2368 149.8617,138.6698 C149.7547,138.6768 149.6967,138.6778 149.6967,138.6778 C148.6347,138.7758 146.3187,138.2938 146.2207,140.5128 C146.1247,142.7338 147.6717,142.6358 147.6717,142.6358 C145.5447,145.9188 148.8267,147.0758 148.8267,147.0758 C148.5837,147.9298 148.8327,148.5288 149.4247,148.9428 C149.4707,148.9748 149.5327,148.9958 149.5817,149.0248 C148.2047,152.3708 146.3217,157.4128 145.8157,161.0608 C144.9867,166.9908 143.8207,167.7988 143.0687,168.6268 C142.3157,169.4518 135.4977,179.7608 133.3297,192.9758 C132.1487,200.1768 130.8157,202.8938 130.4577,204.1588 C130.1057,205.4248 128.2047,209.5098 128.2757,210.4678 C128.3477,211.4268 129.6587,212.4288 130.9187,211.8388 C130.9187,211.8388 135.0567,202.9348 135.6817,199.7648 C135.6817,199.7648 135.6667,206.2578 134.9657,208.4668 C134.9657,208.4668 135.0087,210.2758 136.4517,210.4298 L135.5047,216.8908 C135.5047,216.8908 135.8547,218.7118 137.7177,218.7778 L137.8877,222.8228 Z M99.5757,183.9098 C104.4807,184.1018 118.1267,187.1918 129.0507,160.7998 C129.0507,160.7998 129.3437,158.4828 129.9217,159.6398 C130.0007,159.8018 130.0877,159.9988 130.1837,160.2168 C130.7457,161.5128 131.6097,163.5228 133.5177,162.8898 C133.5727,162.8698 133.6267,162.8488 133.6897,162.8268 C136.9867,161.5098 139.3037,158.8058 140.8467,156.1008 C141.5917,154.7938 144.7217,148.5548 142.5397,144.2668 C142.3357,143.8718 142.0917,143.4878 141.7917,143.1288 C141.3147,142.5578 140.7177,142.0858 140.0457,141.7358 C138.1797,140.7608 135.7377,140.7578 133.5587,142.2868 C131.7297,142.4438 129.9317,142.6548 128.1177,142.8768 C127.3387,142.9688 126.7367,143.0898 125.9247,143.1268 C125.1687,143.1608 124.3257,143.0938 123.5677,143.1838 C123.2597,143.2228 120.1297,143.6708 120.0307,143.4438 C119.7877,142.8798 119.5927,142.3208 119.4807,141.8158 C119.4227,141.5568 119.3687,141.3158 119.3147,141.0808 C119.3527,141.2378 126.0807,140.6348 126.6257,140.5748 C128.1787,140.4128 129.7337,140.1508 131.2927,140.0168 C132.2227,139.9348 133.1567,139.9348 134.0827,139.8658 C134.7847,139.8118 135.4357,139.5488 136.1227,139.5168 C137.8667,139.4428 139.5557,139.3508 141.2897,139.2078 C141.5347,139.1858 144.6897,138.9628 144.6997,138.8508 L145.0447,136.0568 C145.0267,136.2168 140.4577,136.4628 140.1687,136.4868 C137.0337,136.7628 133.9037,137.0408 130.7697,137.3178 C128.7947,137.4908 126.8167,137.6668 124.8387,137.8418 C122.7627,138.0238 120.6867,138.2088 118.6047,138.3898 C118.3437,137.6118 118.0517,136.9498 117.6687,136.3648 C117.7677,136.5098 119.5117,136.1928 119.6927,136.1878 C120.9067,136.1648 122.1337,136.0338 123.3517,136.0338 C124.5617,136.0338 125.7527,135.8348 126.9417,135.6518 C128.0967,135.4768 129.2327,135.5058 130.4067,135.3528 C132.0797,135.1238 133.8127,135.2148 135.5087,135.0428 C138.4997,134.7288 141.4687,134.3308 144.4767,134.0748 C144.8267,134.0428 145.1757,134.0138 145.5267,133.9878 L145.6387,133.9758 C145.6607,133.4818 145.6667,132.9988 145.6667,132.5228 C145.6587,128.4038 144.8107,125.0868 143.3567,122.4268 C143.1587,122.0668 142.9487,121.7198 142.7297,121.3818 C141.8217,119.9938 140.7367,118.8038 139.5077,117.7898 C139.0067,117.3818 138.4857,116.9968 137.9437,116.6418 C126.5167,109.1928 105.9397,113.8548 101.0037,115.1308 C100.8137,115.1368 100.6307,115.1438 100.4287,115.1668 C95.8927,115.6488 92.3377,112.3758 93.3367,110.1198 C93.3367,110.1198 84.3877,121.8588 83.9367,130.0998 C83.4347,139.2388 86.6407,142.8438 87.6687,144.2608 C88.6997,145.6758 89.3437,146.3188 88.3127,148.8948 C87.2827,151.4678 84.2527,156.9618 84.0677,158.4208 C83.8867,159.8168 83.8087,161.2518 87.7977,162.7958 L86.4467,165.4988 C86.4467,165.4988 86.5097,167.8168 87.7977,168.5898 C87.7977,168.5898 87.0337,173.7298 89.0217,173.9328 C92.1867,174.2528 91.9167,176.2498 91.9167,178.1798 C91.9167,180.1088 93.7117,183.6778 99.5757,183.9098 Z M125.0087,74.9308 C125.3257,75.7968 124.9677,76.2518 125.0087,77.2758 C125.7477,77.7248 125.7307,76.9508 126.6317,77.0938 C127.2037,75.5318 126.7617,74.0518 125.0087,74.9308 Z M126.2717,72.4078 C125.4677,72.6808 125.2837,74.1648 126.4517,74.2118 C126.6167,73.6758 127.2347,72.5628 126.2717,72.4078 Z M134.0237,78.3558 C132.9687,79.0368 130.9497,78.2358 130.2367,78.8978 C130.9577,79.9178 132.7347,79.8858 133.8437,80.5198 C133.6997,79.6938 134.5057,78.6178 134.0237,78.3558 Z M145.3197,81.9338 C145.1597,82.0318 145.0757,82.2168 145.1087,82.4018 C145.1397,82.5858 145.2807,82.7328 145.4627,82.7728 C145.6437,82.8118 145.8647,82.8798 146.1067,82.9538 C146.7057,83.1368 147.4287,83.3578 148.0997,83.3578 C148.6287,83.3578 149.1257,83.2198 149.5027,82.8168 C149.6247,82.6858 149.6597,82.4968 149.5927,82.3308 C149.5257,82.1648 149.3677,82.0528 149.1897,82.0448 C148.7567,82.0248 148.2757,81.9488 147.8107,81.8758 C146.7857,81.7138 145.9017,81.5738 145.3197,81.9338 Z M157.1427,82.5338 C156.9867,82.6838 156.9567,82.9248 157.0727,83.1088 C157.2957,83.4668 157.6297,83.6968 158.0357,83.7728 C158.1377,83.7908 158.2417,83.7998 158.3437,83.7998 C158.9227,83.7998 159.5077,83.5238 159.8977,83.2328 C160.0067,83.1508 160.0687,83.0198 160.0747,82.8838 C160.0807,82.7808 160.0487,82.6768 159.9907,82.5928 C160.0307,82.5568 160.0837,82.5188 160.1277,82.4958 L160.1277,82.4938 C160.2687,82.4128 160.4177,82.2758 160.3827,82.0208 C160.3567,81.8208 160.2007,81.6618 160.0017,81.6298 C159.9047,81.6148 159.8047,81.6378 159.7037,81.6848 L159.7027,81.6828 L159.4617,81.7298 C158.6037,81.8548 157.7157,81.9838 157.1427,82.5338 Z M182.8657,168.5138 C182.6057,169.6408 183.2057,170.6558 183.0447,171.7598 C182.9827,172.1838 182.0237,174.1298 181.7837,174.4638 C181.6307,174.6768 181.1097,174.5188 180.8817,174.8238 C179.8627,176.1808 181.1497,177.9268 180.5217,179.8708 C180.7327,179.9018 180.7167,180.1568 180.7017,180.4128 C181.4437,180.5118 181.7567,181.0408 182.3247,181.3138 C183.0127,180.8018 183.9627,180.5488 184.8487,180.2318 C187.1427,175.3808 190.1117,170.4278 191.5187,165.2688 C191.9507,165.1978 191.4187,166.0908 192.0597,165.8098 C192.5177,164.1638 192.4337,160.7088 191.3377,159.4998 C190.6257,160.2578 190.6587,162.6298 189.3547,162.2048 C188.6607,164.7548 186.4817,165.8208 183.7667,166.3498 C183.7967,167.4088 183.0487,167.7158 182.8657,168.5138 Z M73.9887,64.4748 C74.4537,63.7358 75.8487,62.9728 75.9717,62.4918 C74.1617,63.9268 71.9337,64.9428 70.5627,66.8188 C71.6247,66.3068 71.2767,67.0878 71.2847,67.3598 C71.3967,67.0378 72.2547,66.5448 72.3667,66.8188 C71.9907,66.9948 70.9997,67.4818 71.4647,67.8998 C72.5097,66.8168 74.4957,65.6188 73.9887,64.4748 Z M107.8817,50.5938 C108.7807,50.6698 107.8107,50.9798 107.7007,51.1348 C109.8037,51.8438 111.9097,50.9038 113.8317,50.4138 C113.9727,49.9958 113.7707,49.6028 114.3717,49.3308 C112.5997,49.5198 111.7097,49.4928 110.2267,49.8718 C110.2587,49.4788 110.0787,49.2988 109.6857,49.3308 C109.4117,49.5978 108.8947,49.6218 108.4217,49.6918 C108.1437,50.3328 109.0337,49.8008 108.9617,50.2318 C108.8377,50.5888 107.9567,50.1878 107.8817,50.5938 Z M117.7977,55.4608 C115.7487,55.1778 114.0247,56.9328 114.3717,58.5258 C114.3177,58.3068 114.8937,57.9028 114.9127,58.3448 C114.9107,58.7038 114.4217,58.5748 114.5507,59.0658 C115.7747,58.8198 116.4557,60.0348 115.4547,60.5098 C114.8857,60.5968 114.8177,60.1838 114.1917,60.3288 C113.9307,60.7788 113.7547,61.0358 114.0107,61.5898 C113.5877,61.7658 112.8667,61.6488 112.9307,62.3108 C113.4087,62.3148 113.9917,62.2108 114.0107,62.6728 C112.9647,62.8278 112.3087,63.3728 111.6677,63.9338 C113.2807,63.0738 117.9457,64.0708 119.4197,62.4918 C119.3407,62.5768 119.8587,61.1678 119.9607,61.0498 C118.2917,60.9168 118.3687,59.0368 117.6177,57.9848 L116.8977,57.9848 C117.3337,57.2248 116.3847,57.1548 116.1757,56.5418 C116.7887,57.4518 117.9747,57.6998 118.3387,56.3608 C117.8487,56.2508 116.9087,56.5908 116.7157,56.1818 C117.2067,56.0708 117.5597,55.8238 117.7977,55.4608 Z M108.2417,62.1328 C111.3737,62.4978 112.4657,60.8258 113.6517,59.2468 C112.4837,57.9488 110.8457,59.5978 109.6857,59.9688 C109.6847,61.1678 108.8677,61.5538 108.2417,62.1328 Z M137.0877,42.6618 C135.4497,42.6018 133.5917,42.5778 132.4017,43.0218 C133.1167,43.2068 133.3297,43.8948 134.3837,43.7428 C134.8147,42.9118 136.0627,42.8968 137.0877,42.6618 Z M131.3187,57.8048 C130.6507,57.6768 130.5457,58.1128 129.8767,57.9848 C129.9097,59.2728 131.5107,59.2748 131.3187,57.8048 Z M145.2007,229.4358 C141.4877,232.0078 135.4437,229.4128 131.4987,230.8778 C128.2307,230.0258 123.6057,231.9528 120.3207,231.0558 C120.0677,231.4058 120.2237,232.1608 119.4197,231.9588 C119.2467,232.7318 120.3067,232.2738 120.3207,232.8598 C119.9197,233.4798 118.8307,233.4138 118.1587,233.7608 C118.1747,233.8088 118.2127,233.8358 118.2357,233.8788 C94.8317,229.9698 74.2527,217.6098 59.7607,200.0458 C60.2567,200.0068 60.5137,199.7288 60.4677,199.1478 C59.8947,197.3758 58.4437,196.4828 57.4027,195.1808 C57.9947,195.5328 59.2137,197.0388 59.2047,196.8028 C58.4597,195.6868 56.8547,194.4698 56.5007,193.5578 C57.2257,194.1478 57.7507,194.4178 58.6647,194.4608 C58.0207,191.9488 57.3977,189.4638 56.8617,186.7078 C56.1097,182.8468 53.5777,180.1668 56.5007,177.3328 C57.0657,177.1148 57.3947,176.6648 58.3037,176.7928 C58.7467,175.4158 58.3347,174.4688 58.3037,173.3668 C58.2857,172.7578 58.6857,172.0968 58.6647,171.3828 C58.6387,170.4548 58.3527,169.1638 58.3037,168.3178 C58.1577,165.7718 56.9017,162.6398 57.0417,161.2878 C57.0837,160.8878 57.5807,160.1138 57.7627,159.4848 C57.9797,158.7368 57.9317,157.9098 58.1237,157.3218 C58.5397,156.0468 59.5217,155.1348 59.7467,153.8958 C60.0387,152.2828 58.9247,149.4688 58.6647,149.5688 C59.0627,149.1808 59.4117,148.6348 59.0257,147.9458 C56.2047,147.5178 55.8657,144.4658 53.6167,143.6198 C53.3967,143.5378 52.7537,143.7328 52.1747,143.6198 C51.1097,143.4118 50.6817,142.4378 49.6497,143.2588 C49.9417,140.9848 48.1587,140.7868 47.1267,139.8338 C46.5127,139.6998 46.8287,140.4988 46.4047,140.5538 C46.1267,140.2948 46.2467,139.6328 46.2257,139.1128 C45.6007,139.0148 44.8747,139.0198 44.7827,138.3908 C45.7227,137.0208 45.0557,135.9498 44.7827,134.4258 C44.2327,131.3618 44.1307,127.8768 41.5367,128.8368 C40.7117,126.5628 40.0387,122.5348 40.0957,120.5438 C39.6527,120.6048 39.5137,120.9718 39.3207,121.2828 C43.5917,98.0478 56.2317,77.7158 73.9707,63.4958 C76.1407,62.1798 78.2987,61.2298 79.9387,59.2468 C80.0247,59.1418 80.0947,59.0318 80.1667,58.9218 C84.8897,55.7168 89.9097,52.9198 95.1787,50.5808 C93.8197,51.4218 92.5797,52.3808 91.4767,53.4768 C92.1067,53.3158 91.7847,54.0648 91.6577,54.1988 C94.6277,53.3868 97.1387,51.0498 100.3097,50.0528 C101.1497,49.7878 102.1007,49.8968 103.0147,49.6918 C104.4517,49.3668 105.7747,48.5278 107.1607,48.2498 C109.2037,47.8418 111.3107,47.8828 113.2897,46.9878 C112.9737,46.8838 112.2317,47.2058 112.2087,46.8058 C113.3367,46.2478 114.6547,47.3828 115.0937,45.7248 C116.6727,45.5178 119.1917,44.8048 120.5017,43.7428 C121.4267,43.5208 122.7047,43.1818 123.8787,42.8868 C127.2627,42.5268 130.6927,42.3198 134.1707,42.3198 C139.9517,42.3198 145.6137,42.8378 151.1167,43.8188 C150.5947,43.8418 150.1707,44.0308 150.0697,44.6428 C151.0527,44.8608 151.3277,45.7898 152.0507,46.2658 C152.9367,46.2668 154.9357,46.9268 154.9367,46.6278 C153.6937,46.2428 150.9657,45.3268 152.1517,44.0168 C154.8847,44.5348 157.5827,45.1558 160.2317,45.8998 C159.3707,45.8348 159.7927,46.1838 160.1637,46.4468 C158.6117,45.8548 159.3887,45.3888 157.0987,45.7248 C158.8247,46.7038 160.9537,47.2788 162.6887,48.2498 C161.2807,47.8538 159.1847,47.1868 157.8207,47.3478 C158.1407,47.6888 159.1427,47.3488 159.0827,48.0688 C157.5507,48.0448 153.3667,47.7458 154.3967,49.1518 C153.5167,49.3078 153.1987,48.9058 152.5907,48.7908 C152.5937,48.5518 152.9087,48.6258 152.9527,48.4288 C152.5607,48.2718 151.5917,47.7608 151.1497,48.2498 C151.6217,48.5648 152.7797,49.1358 152.5907,49.5108 C151.7207,49.2048 150.9817,49.4078 150.6097,50.0528 C150.7577,50.2248 151.7757,50.4218 151.3297,50.5938 C150.4257,50.6578 149.7597,50.4818 149.1677,50.2318 C148.5487,50.6458 150.1087,50.8128 149.5277,51.1348 C147.7527,51.0448 147.3517,49.5848 145.9217,49.1518 C147.6847,49.0148 149.6727,50.3598 150.6097,48.9698 C148.4847,47.4038 143.4707,47.9368 142.1347,46.6278 C134.8517,45.5838 131.7127,51.1848 125.7307,52.5758 C125.6347,53.5618 125.2987,54.3078 125.3687,55.4608 C126.7397,56.5518 128.4747,55.3448 129.6967,54.7408 C130.4207,55.9378 131.2277,57.0538 131.6807,58.5258 C133.4227,58.7658 132.8197,57.2148 134.5647,57.8048 C135.0747,57.2338 135.0747,56.1538 135.2847,55.2808 C136.4217,55.5158 136.4397,54.6338 136.9077,54.1988 C136.3457,53.8608 135.5647,53.7388 135.4647,52.9368 C135.7977,51.7088 137.1567,51.5028 138.1707,50.9538 C137.5797,49.7498 140.6587,49.0378 141.0537,50.4138 C139.3897,50.8508 138.0437,51.6388 138.8917,53.6578 C140.5317,55.4078 143.6507,52.8538 145.3817,54.3798 C144.0967,55.2068 142.1137,54.2288 140.8737,55.0998 C141.0857,55.6078 141.7127,55.7038 142.1347,56.0018 C142.0367,56.2628 142.3457,56.9328 141.9557,56.9028 C140.9147,57.1018 140.9797,56.1968 139.9717,56.3608 C139.9327,56.5028 139.8227,56.5718 139.6127,56.5418 C139.3197,57.1808 139.3737,58.2638 139.7927,58.7068 C138.9207,58.6758 138.5787,59.1758 137.9907,59.4268 C136.1567,58.5788 134.4687,59.6428 132.7607,59.9688 C131.6517,59.3248 130.9067,59.5668 129.5157,59.7868 C130.0987,59.1828 128.6397,59.6048 128.6147,59.0658 C128.5077,58.1778 128.7887,57.6778 129.6967,57.8048 C129.3537,57.2748 129.3247,57.1148 129.5157,56.3608 C128.7687,56.6958 127.7997,56.8088 127.1727,57.2648 C127.0367,58.3618 127.4597,58.8988 127.3527,59.9688 C125.6347,60.3398 122.5617,60.3068 121.9457,62.3108 C122.1427,62.4328 122.8797,62.9118 122.4857,63.0328 C120.4467,60.9918 118.0587,65.9258 115.2747,64.2948 C115.1667,64.6688 115.4967,65.4788 115.0937,65.5568 C114.0077,65.3218 112.0737,64.8448 111.8477,66.2778 C114.9477,66.4368 115.3267,70.2318 113.1097,71.6868 C109.8047,72.0518 106.2337,70.5758 104.2767,72.2268 C104.7287,74.6408 102.8187,76.1498 102.1137,77.9968 C103.1017,78.3748 102.3697,79.4978 102.1137,80.1598 C103.3267,80.3388 104.2377,79.7108 105.1797,80.1598 C105.0607,80.8168 105.2987,81.1198 105.5377,81.4208 C107.0957,80.9968 108.2357,80.1528 110.5867,80.5198 C111.6717,79.5618 112.9937,78.8418 114.0107,77.8158 C114.1427,77.2638 113.7007,77.2858 113.8317,76.7338 C114.7417,74.3378 118.7597,75.0518 119.0597,72.0468 C120.5957,71.3188 121.6187,72.2588 123.2057,72.0468 C124.9127,71.8208 126.1427,69.5308 127.8937,71.1468 C128.0337,72.5638 129.0117,73.4048 130.2357,73.9718 C130.8227,74.2448 131.4327,74.4608 132.0227,74.7308 C132.3027,74.8598 132.5507,75.0078 132.8037,75.1728 C133.1087,75.3708 133.5337,75.4778 133.8047,75.7188 C134.0567,75.9428 134.3717,76.4118 134.5337,76.7258 C134.8467,77.3298 134.6427,78.0408 134.7387,78.6968 C135.2517,78.7948 135.4197,78.2188 135.6147,77.8708 C135.8207,77.5018 135.9647,77.3438 135.9857,76.8748 C135.9947,76.6518 135.9807,76.4498 135.9297,76.2348 C135.9097,76.1558 135.6917,75.7768 135.6967,75.7498 C135.7727,75.3458 136.4027,75.6758 136.6667,75.7508 C136.9267,75.8238 137.6997,76.1548 137.8257,75.7608 C137.9637,75.3248 137.2187,74.7228 136.9067,74.5988 C136.4167,74.4068 135.9137,74.2508 135.4307,74.0428 C134.4887,73.6348 133.6537,73.0518 132.6657,72.7518 C131.9377,72.5308 131.3887,72.0928 131.1647,71.3608 C131.0667,71.0358 129.7727,69.6498 130.4167,69.3438 C130.9067,69.1098 131.4167,68.9018 132.2207,68.9818 C132.2007,69.4298 131.8827,69.5408 132.2207,69.8848 C132.7877,69.9698 132.6277,69.3298 133.3027,69.5228 C133.9077,70.5038 134.7027,72.1768 136.1867,71.6868 C136.2337,72.7508 138.8077,72.7698 139.4317,73.8488 C139.1127,74.1918 139.2997,75.0408 139.2507,75.6528 C141.8257,76.6238 141.3817,80.6128 144.6587,80.8808 C144.9547,80.6908 144.1657,80.0658 144.1187,79.6188 C145.1587,79.9448 144.6157,78.9688 144.8407,78.8978 C145.1547,78.8458 145.8087,79.4738 145.7417,78.7178 C144.5487,77.7278 144.1177,77.0888 143.5787,75.4728 C144.2177,75.6748 144.4847,76.2498 145.5607,76.0118 C146.1357,75.8268 144.6267,75.2978 145.2007,75.1128 C146.3107,74.5758 147.8977,74.8588 148.4477,75.8318 C148.8537,74.7988 150.4687,74.9698 151.3297,74.3898 C148.6817,74.0148 150.1227,71.7008 150.0697,70.0638 C151.6457,69.9588 151.0857,67.7168 152.7727,67.7208 C153.0677,68.6268 154.7857,68.1108 155.2967,68.8018 C155.0277,69.0738 154.2697,68.8568 154.3967,69.5228 C155.6947,69.4258 155.2677,70.2478 156.0177,70.4248 C156.5057,70.3178 158.1577,69.9568 158.7217,69.3438 C158.2987,69.3138 156.7297,69.4398 156.7407,68.4418 C157.4897,67.6258 159.5577,67.1768 160.7057,67.3598 C160.5527,67.7478 159.7757,67.5128 159.6227,67.8998 C159.8887,68.0578 160.1947,68.1708 160.1637,68.6228 C160.0957,69.2158 159.4117,69.1908 159.2617,69.7028 C161.6997,71.0528 165.1077,71.4308 166.2947,74.0308 C162.9587,76.6168 157.6077,71.3808 154.2157,74.5708 L151.6917,74.5708 C151.3787,74.6808 151.7037,75.4258 151.3297,75.4728 C149.7617,75.2258 148.9317,75.7168 148.4477,76.5538 C148.9867,77.3358 149.2737,77.4268 148.8067,78.5378 C149.7547,78.9098 150.2047,79.7838 150.7897,80.5198 C152.6617,80.0368 153.8397,82.1878 154.7557,80.5198 C156.8427,80.5368 158.7797,82.1138 160.1637,80.3408 C160.7087,80.5528 161.2397,80.7778 161.7867,80.5198 C162.6007,82.5038 161.8717,85.4578 161.2457,88.2718 C161.2297,88.2918 161.2137,88.3048 161.1977,88.3218 C161.3117,89.3708 162.0117,90.0798 162.4627,91.0378 C162.4697,91.0518 162.4737,91.0638 162.4797,91.0788 C162.5357,90.9708 162.6037,90.8758 162.6887,90.7968 L162.6887,91.6668 C162.7877,92.0538 162.8087,92.4388 162.7627,92.8258 C165.0267,94.1888 166.3287,96.5118 167.7377,98.7278 C170.7297,99.5118 170.0997,103.1118 172.0637,104.8588 C173.3367,105.9918 174.7057,106.7058 175.1277,108.6438 C176.5937,109.4998 177.8717,111.5008 177.2917,113.3318 C178.3467,114.2598 178.3517,116.2388 179.0937,117.4788 C180.6787,117.6208 181.5457,117.0468 182.1587,116.2178 C185.9787,115.9418 187.0817,113.5808 190.4517,112.6098 C190.1757,112.0388 190.3887,111.8188 190.4517,111.1688 C191.7247,111.0028 192.2327,109.9318 193.5167,110.2668 C194.0767,109.8848 193.5557,109.4638 193.8777,109.0048 C194.1177,108.7048 194.8987,108.9448 195.1397,108.6438 C195.0387,107.6418 195.3117,107.0128 196.2217,107.0218 C196.1227,106.3398 195.7847,105.8958 195.8607,105.0388 C196.8377,104.3938 197.0027,102.9368 197.3027,101.6138 C195.5097,99.4018 191.4507,98.8308 191.3537,95.4838 C190.8907,96.7628 190.2677,97.8848 189.5507,98.9088 L186.8457,98.9088 C185.8887,98.3048 186.7147,95.9188 185.2237,95.8438 C184.9657,96.6198 185.4087,97.2348 185.2237,97.6478 C184.8207,96.7898 183.9587,96.3878 183.9617,95.1238 C182.1807,93.8398 180.4907,92.4658 179.8157,90.0748 C180.5417,90.3228 180.4537,89.7518 180.7167,89.5348 C181.1167,89.7948 181.5857,89.9868 182.3397,89.8948 C183.8827,92.5578 186.4217,94.2238 189.5507,95.3018 C189.9157,94.7078 190.5587,94.3888 191.3537,94.2218 C191.9807,94.7958 192.5177,95.4628 192.7957,96.3848 C196.1287,97.2158 198.8977,97.5738 202.7097,96.9258 C203.8027,98.8408 205.7227,99.9238 207.2177,101.4338 C206.8177,102.7698 208.3547,103.6378 209.3807,104.1378 C209.8177,104.0808 210.1807,103.0278 210.4627,103.4158 C212.4127,108.9988 214.8357,114.4248 217.1347,119.6418 C217.9647,121.5258 218.0737,123.6848 219.4787,125.2318 C221.0577,121.3638 219.9017,116.7428 218.9377,112.2498 C219.2077,111.7398 219.7307,111.4808 219.8377,110.8068 C219.4657,108.5078 220.9447,105.1918 220.0187,102.8758 C221.0437,102.8628 220.1737,101.9608 221.1007,102.3358 C221.2537,101.5828 220.7497,101.4828 220.7397,100.8908 C223.1147,104.0478 224.5337,108.1538 226.1487,112.0698 C226.2567,111.6388 225.9217,110.7618 226.3267,110.6288 C226.6317,111.9608 227.1187,113.4698 227.5847,114.7488 C229.5607,122.4268 230.6117,130.4728 230.6117,138.7598 C230.6117,179.7258 204.9327,214.8038 168.8277,228.7558 C165.1617,229.2148 161.3297,231.2718 157.8207,231.4188 C159.5687,230.6418 161.7967,230.3458 163.0487,229.0748 C161.8657,228.8458 161.2327,229.0098 160.1637,229.2548 C160.4497,228.5488 159.6977,228.8818 159.6227,228.5338 C159.4007,227.9498 160.2067,228.3958 159.9857,227.8118 C154.8357,227.7348 149.6957,231.0518 145.2007,229.4358 Z M157.3877,147.8501 C157.3877,147.8501 152.6697,148.2561 150.1267,147.0391 C149.8047,146.8841 149.5167,146.7071 149.2797,146.4991 C149.2797,146.4991 149.5937,146.4931 150.1387,146.4831 C153.2787,146.4201 164.2257,146.2121 168.7817,146.0461 C171.4507,145.9511 173.8427,145.7771 175.6847,145.5661 C177.5317,145.3581 178.8227,145.1161 179.2727,144.8871 C179.2727,144.8871 179.0647,146.3591 175.5577,146.9151 C175.1097,146.9831 174.6177,147.0421 174.0607,147.0761 C169.0997,147.4011 157.3877,147.8501 157.3877,147.8501 Z M150.9355,167.4429 C149.7835,170.0629 142.7415,182.9109 142.7415,182.9109 C143.5725,177.2969 147.5615,170.6239 150.1825,165.7139 C152.2565,161.8159 155.3435,153.1379 156.5315,149.7209 C156.8605,149.7089 157.1945,149.6939 157.5255,149.6759 C157.2215,155.8509 152.0055,165.0139 150.9355,167.4429 Z M136.9033,103.1294 C136.9033,103.1294 136.3933,106.3514 138.9663,106.4784 C138.9663,106.4784 130.5013,106.9004 126.7693,105.8674 C126.7693,105.8674 131.2553,103.6974 134.9713,100.3034 C134.9713,100.3034 134.8423,102.7464 136.9033,103.1294 Z M133.042,96.2154 C133.042,96.2154 130.774,98.7244 127.395,101.1394 C123.059,104.2344 119.933,106.5954 115.682,106.4634 C115.682,106.4634 124.857,100.3804 126.751,98.6744 C131.211,94.6694 132.914,95.4444 133.042,96.2154 Z M123.6631,93.6578 C125.5321,92.4008 125.4651,93.4938 125.4651,93.4938 C125.4651,93.4938 118.5791,100.4138 112.6251,104.3058 C112.6251,104.3058 115.0391,99.4498 123.6631,93.6578 Z M108.5049,94.4312 C108.5049,94.4312 106.6719,96.1662 105.9929,96.8402 C105.9929,96.8402 94.0549,95.6502 90.7409,109.8772 C90.7409,109.8772 91.8039,92.7862 108.5049,94.4312 Z M105.3223,105.9185 C105.3223,105.9185 110.6963,92.5625 121.2173,91.7885 C121.2173,91.7885 113.2393,96.6695 111.7563,99.1905 C109.8253,102.4735 109.1203,104.7905 105.3223,105.9185 Z M155.5879,126.2896 C155.5879,126.2896 148.7639,120.1096 147.9939,118.5666 C147.9939,118.5666 150.4379,119.0806 152.1119,118.8216 C152.1119,118.8216 155.0719,123.7146 155.5879,126.2896 Z M152.0859,149.6988 C152.5209,149.7478 152.9429,149.7738 153.3459,149.7858 C152.2589,152.9358 149.8829,159.4798 147.8749,162.6518 C147.8749,162.6518 148.9749,156.4828 150.9329,152.1888 C151.4259,151.0998 151.7999,150.3008 152.0859,149.6988 Z M142.3711,176.1558 C141.3631,178.8668 139.2411,185.6618 138.0021,190.7258 C136.7641,195.7938 135.0091,197.3258 135.0091,197.3258 C134.9011,194.2368 137.0241,188.2478 138.6151,182.2338 C140.2051,176.2238 145.6111,168.6058 145.6111,168.6058 C145.6111,168.6058 143.4281,173.3228 142.3711,176.1558 Z M169.3604,108.1373 C169.3604,108.1373 171.8514,112.0173 143.2804,112.9183 C143.2804,112.9183 141.9404,111.2293 136.4074,109.1683 C136.4074,109.1683 155.8464,112.9013 169.3604,108.1373 Z M156.001,165.5962 C154.949,168.3242 146.424,184.1022 143.668,189.9622 C140.914,195.8292 137.258,209.2202 137.258,209.2202 C137.843,201.4682 142.446,188.4332 148.339,178.1002 C153.295,169.4002 159.613,154.1082 161.485,149.4972 C161.888,149.4912 162.276,149.4862 162.635,149.4922 C162.675,149.4922 162.713,149.4922 162.758,149.4932 C161.246,153.6602 156.932,163.1852 156.001,165.5962 Z" transform="translate(0 -1)"/>
</svg>
