<?xml version="1.0" encoding="UTF-8"?>
<svg width="275px" height="280px" viewBox="0 0 275 280" version="1.1" xmlns="http://www.w3.org/2000/svg" xmlns:xlink="http://www.w3.org/1999/xlink">
    <!-- Generator: Sketch 54.1 (76490) - https://sketchapp.com -->
    <title>trojan-logo-red-globe</title>
    <desc>Created with Sketch.</desc>
    <g id="Page-1" stroke="none" stroke-width="1" fill="none" fill-rule="evenodd">
        <g id="Large-Web" transform="translate(-733.000000, -512.000000)" fill="#EC0400">
            <path d="M827.052261,622.465197 C827.398723,619.533605 829.84731,605.599918 845,607.114734 C845,607.114734 843.142648,608.899076 842.454627,609.592243 C842.454627,609.592243 830.629469,608.395863 827.116978,622.510749 C828.137332,623.190197 829.319154,622.179074 829.634567,621.877907 C831.224762,625.448107 834.602809,624.200241 834.602809,624.200241 C835.605993,624.200241 838.989006,622.301881 838.989006,622.301881 C843.24906,622.301881 847.259808,620.659108 848.134863,621.167275 C849.01389,621.669428 851.02125,621.795718 854.404264,621.669428 C857.78529,621.54414 862.983967,620.487714 863.609715,620.487714 C864.23745,620.487714 866.421609,620.35541 874.830473,625.33585 C883.217485,630.305264 885.429456,647.13091 885.794972,650.571813 C885.688694,650.578829 885.631086,650.579832 885.631086,650.579832 C884.576253,650.678057 882.275883,650.194948 882.178545,652.419056 C882.120803,653.767112 882.661497,654.262813 883.097019,654.444127 C884.295498,654.21499 886.381885,653.922121 888.883033,654.019065 C892.8459,654.1735 902.919616,654.484114 903.95626,654.537337 C904.995932,654.588816 914.15514,654.432636 915,654.069671 C915,654.069671 914.289389,656.193364 898.369284,655.985707 C888.893628,655.863643 884.990277,655.391856 883.328332,655.051348 C881.842835,657.956934 884.766957,658.997165 884.766957,658.997165 C884.525597,659.853131 884.772917,660.45351 885.360921,660.868464 C885.406611,660.900537 885.468192,660.921586 885.516862,660.950652 C884.149155,664.304355 882.278863,669.357963 881.776278,673.014361 C880.952873,678.958013 879.794742,679.767873 879.047817,680.597779 C878.299899,681.424679 871.527913,691.757412 869.374545,705.002835 C868.201515,712.220413 866.877511,714.943667 866.521927,716.21158 C866.172303,717.480494 864.284133,721.574899 864.354653,722.535104 C864.426167,723.496312 865.72832,724.500619 866.979816,723.90926 C866.979816,723.90926 871.089889,714.984762 871.710671,711.807464 C871.710671,711.807464 871.695772,718.315412 870.999503,720.529497 C870.999503,720.529497 871.042213,722.342662 872.475475,722.497017 L871.534866,728.972891 C871.534866,728.972891 871.882504,730.798083 873.73293,730.864235 L873.901783,734.918547 C873.901783,734.918547 876.204139,736.708659 877.798307,735.165114 L877.896639,732.286502 C877.896639,732.286502 881.132651,733.89219 882.322566,732.225361 C882.322566,732.225361 882.23218,722.838802 884.168027,717.251969 C884.168027,717.251969 885.564538,718.471771 887.235186,717.786196 C887.235186,717.786196 888.106267,725.281412 887.826171,727.40529 C887.826171,727.40529 888.888949,729.470033 891.509146,728.06681 L892.092184,713.901273 C892.092184,713.901273 893.340701,715.617215 894.971619,715.38869 C894.971619,715.38869 895.979769,714.711133 896.912432,712.183327 C896.912432,712.183327 896.947196,712.215401 896.997851,712.249479 C897.621613,711.120887 904.070793,699.500196 904.762095,696.885189 C904.762095,696.885189 901.416826,709.268633 898.876089,713.442219 C899.742204,713.89125 900.703671,714.211987 901.347298,713.905282 C901.347298,713.905282 902.267049,713.403129 903.21759,710.237859 C904.206868,706.946299 904.367775,706.650619 904.485972,706.227648 C904.602182,705.805679 906.617489,700.970573 906.736679,697.561743 C906.851896,694.148905 908.792708,691.446698 908.792708,691.446698 C908.792708,691.446698 909.65485,690.301067 909.593269,689.129375 C909.530694,687.95167 909.717425,691.475765 911.411912,696.017196 C913.107391,700.55562 911.746637,705.563122 911.626454,706.298811 C911.359269,707.998716 913.793728,708.931859 914.279428,707.030492 C915.98782,700.373201 913.314981,691.99195 913.314981,691.99195 C911.91847,687.036568 913.477874,670.693029 914.279428,663.334127 C914.291347,662.703679 914.297306,662.152413 914.305252,661.701377 C916.211301,660.821355 915.454444,657.742283 915.454444,657.742283 C917.563116,656.193726 916.70296,653.581727 916.70296,653.581727 C919.163243,650.750223 916.961206,649.063349 916.429816,648.713545 C917.241303,647.371463 916.22322,644.227241 916.22322,644.227241 C918.333879,639.000235 914.557538,635.392949 914.557538,635.392949 C915.495167,631.69245 910.710676,628.1443 910.710676,628.1443 C910.710676,628.1443 911.866821,626.147714 911.187437,623.794309 C910.757359,622.29286 909.111542,620.958796 909.111542,620.889637 C909.160211,617.937857 906.505251,617.616118 906.505251,617.584045 C906.184431,613.92063 901.960134,614.904891 901.960134,614.904891 C902.617666,612.345011 900.07991,611.110175 900.07991,611.110175 C899.893178,605.893192 893.409235,606.842372 893.409235,606.842372 C893.0318,606.269055 891.527024,605.705762 891.527024,605.705762 C888.614812,598.970291 876.96199,596.121748 874.233529,595.557452 C871.511028,594.98614 852.333335,591.66852 837.671955,598.020109 C823.010576,604.376709 822.635127,616.230937 822.635127,616.230937 C822.493397,620.405166 824.678215,621.247164 825.739522,621.410565 C824.899207,619.238 822.901738,611.567807 833,607 C833,607 828.202985,609.79011 826.775457,614.668772 C825.7662,618.1325 825.817111,620.438272 825.918756,621.433329 C826.153517,621.456757 826.300223,621.445915 826.300223,621.445915 C826.524856,621.939961 826.782038,622.264535 827.052261,622.465197 Z M881.419533,641.041542 C881.085508,638.422569 880.36231,636.190023 879.333874,634.291419 C879.13721,633.930591 878.928627,633.582792 878.711105,633.244014 C877.809233,631.852818 876.731556,630.660079 875.51085,629.643744 C875.013231,629.234805 874.495747,628.848919 873.957405,628.493101 C862.607525,621.026953 842.169396,625.699685 837.266709,626.978623 C837.077991,626.984637 836.896226,626.991653 836.695589,627.014706 C832.190202,627.497815 828.659195,624.21728 829.651452,621.956087 C829.651452,621.956087 820.762848,633.722112 820.314892,641.982084 C819.81628,651.142123 823.000643,654.755423 824.021705,656.175685 C825.045747,657.593942 825.685401,658.238423 824.661359,660.820353 C823.63831,663.399276 820.628759,668.905925 820.445008,670.368283 C820.265229,671.767497 820.187756,673.205801 824.149835,674.753355 L822.807952,677.462578 C822.807952,677.462578 822.870527,679.785915 824.149835,680.560694 C824.149835,680.560694 823.390991,685.712527 825.365574,685.915995 C828.509214,686.236731 828.241036,688.238329 828.241036,690.172772 C828.241036,692.106213 830.023922,695.683429 835.848346,695.915963 C840.720243,696.108405 854.274148,699.205519 865.124423,672.75276 C865.124423,672.75276 865.415446,670.430426 865.989545,671.59009 C866.068012,671.752463 866.154424,671.949916 866.249777,672.168418 C866.807984,673.467402 867.666153,675.482029 869.561276,674.847572 C869.615905,674.827526 869.66954,674.806477 869.732115,674.784427 C873.006864,673.464395 875.308227,670.75417 876.840813,668.042942 C877.580785,666.732933 880.689661,660.47957 878.522387,656.181699 C878.319764,655.785789 878.077411,655.400905 877.779436,655.041079 C877.305655,654.468764 876.712684,653.995678 876.045219,653.644872 C874.191812,652.667627 871.766293,652.66462 869.601999,654.19714 C867.785343,654.354502 865.999477,654.565988 864.19772,654.788499 C863.423977,654.88071 862.82604,655.001989 862.01952,655.039074 C861.268622,655.073152 860.431311,655.005998 859.678427,655.096205 C859.372506,655.135295 856.26363,655.584326 856.165298,655.356804 C855.923938,654.791505 855.730254,654.231219 855.61901,653.725056 C855.561401,653.46546 855.507766,653.223905 855.45413,652.988364 C855.491874,653.145725 862.174467,652.541337 862.715789,652.481199 C864.258308,652.318826 865.802814,652.056223 867.351292,651.921914 C868.275016,651.839726 869.202712,651.839726 870.122463,651.770567 C870.819725,651.716442 871.466331,651.452837 872.148695,651.420763 C873.880925,651.346593 875.558526,651.254381 877.280823,651.111052 C877.52417,651.089001 880.657877,650.865488 880.66781,650.75323 L881.010481,647.952798 C880.992603,648.113166 876.454439,648.359733 876.167389,648.383788 C873.053547,648.660423 869.944671,648.939063 866.831822,649.216701 C864.870151,649.390099 862.9055,649.566504 860.940849,649.741907 C858.87886,649.924326 856.816871,650.109752 854.748922,650.291169 C854.489683,649.511378 854.199654,648.847854 853.819239,648.261507 C853.917571,648.406841 855.649801,648.089111 855.829579,648.084099 C857.035386,648.061046 858.254105,647.929745 859.463885,647.929745 C860.665719,647.929745 861.848681,647.730287 863.029656,647.546865 C864.176861,647.371463 865.305195,647.400529 866.471272,647.247177 C868.132981,647.01765 869.854285,647.108859 871.538839,646.936463 C874.509653,646.621741 877.458615,646.222824 880.446315,645.966235 C880.793953,645.934161 881.140597,645.905095 881.489228,645.879035 L881.600473,645.867007 C881.622324,645.37187 881.628284,644.887758 881.628284,644.410662 C881.627587,644.048937 881.620486,643.693382 881.607136,643.343901 C878.138817,643.667942 874.64973,644.2704 871.180145,644.299701 C869.111791,644.315918 867.013431,644.6058 864.954078,644.785203 C862.732697,644.974741 860.508316,645.168334 858.289935,645.359899 C856.644653,645.502813 855.000371,645.644714 853.352089,645.787628 C852.984026,645.819049 851.869835,646.123121 851.524776,645.943718 C850.671629,645.492678 849.633451,645.060895 848.356232,644.6058 C847.879151,644.434506 847.430074,644.264225 847,644.088877 C847.210036,644.173004 847.725124,644.026035 847.944162,644.007791 C848.847317,643.928732 849.750472,643.854741 850.657627,643.773655 C855.033377,643.371266 859.395125,643.016515 863.774876,642.638452 C866.228296,642.428642 868.679717,642.213765 871.131137,642.000914 C873.103475,641.831647 875.085815,641.806308 877.054152,641.561023 C877.447285,641.512047 880.857044,640.826805 881.419533,641.041542 Z M897.863087,559.59118 C898.092402,559.703386 898.317045,559.820332 898.535404,559.943652 C897.136907,559.54674 895.055052,558.878205 893.700258,559.039575 C894.018098,559.38136 895.013336,559.040578 894.953741,559.762235 C893.43208,559.73818 889.276317,559.438492 890.299366,560.847728 C889.425305,561.004088 889.109451,560.601162 888.505554,560.485897 C888.508534,560.246347 888.821408,560.320517 888.865111,560.123064 C888.475757,559.965702 887.513296,559.453526 887.07428,559.943652 C887.543094,560.259377 888.693279,560.831692 888.505554,561.207555 C887.641426,560.90085 886.907413,561.104318 886.537924,561.750803 C886.684925,561.923199 887.696055,562.120652 887.253065,562.293048 C886.355166,562.357195 885.69366,562.18079 885.105656,561.930215 C884.490833,562.345168 886.040305,562.512552 885.463226,562.835294 C883.700205,562.745086 883.301912,561.281725 881.881563,560.847728 C883.632664,560.710413 885.607248,562.058509 886.537924,560.665309 C884.427265,559.095704 879.447104,559.629931 878.120121,558.317918 C870.886273,557.271514 867.768457,562.885409 861.826829,564.279611 C861.731477,565.267881 861.397745,566.015598 861.467272,567.171253 C862.82902,568.264764 864.55231,567.054986 865.766063,566.449595 C866.485177,567.649351 867.286731,568.76792 867.736673,570.243309 C869.466917,570.483861 868.867986,568.929291 870.60121,569.520649 C871.107768,568.948334 871.107768,567.865848 871.31635,566.990838 C872.445677,567.226379 872.463556,566.342349 872.928397,565.906347 C872.37019,565.567569 871.594461,565.445288 871.495136,564.641442 C871.825888,563.410615 873.175717,563.204141 874.182873,562.653877 C873.595862,561.447105 876.654082,560.733466 877.046416,562.112634 C875.393646,562.55064 874.05673,563.340454 874.899007,565.364102 C876.527939,567.118131 879.625889,564.558251 881.345207,566.087764 C880.068879,566.916668 878.099262,565.936416 876.867631,566.809422 C877.0782,567.318591 877.700969,567.414812 878.120121,567.713498 C878.022782,567.975099 878.329697,568.646642 877.942329,568.616572 C876.908354,568.816031 876.972916,567.908947 875.971718,568.073325 C875.932982,568.215652 875.823724,568.28481 875.615141,568.254741 C875.324119,568.895212 875.377754,569.980706 875.793927,570.424726 C874.927812,570.393654 874.58812,570.894805 874.004088,571.146383 C872.182465,570.296431 870.505858,571.36288 868.809385,571.689631 C867.707869,571.044148 866.967897,571.286705 865.586285,571.507212 C866.16535,570.901821 864.716197,571.324793 864.691366,570.784552 C864.585088,569.894508 864.864191,569.393357 865.766063,569.520649 C865.425378,568.989429 865.396574,568.82906 865.586285,568.073325 C864.844326,568.409096 863.881866,568.522356 863.259097,568.979406 C863.124015,570.078931 863.54416,570.617168 863.437883,571.689631 C861.731477,572.061485 858.679216,572.028409 858.067374,574.037023 C858.263044,574.159303 858.99507,574.639406 858.603729,574.760685 C856.57849,572.714986 854.206607,577.660345 851.441396,576.02559 C851.334124,576.400451 851.661897,577.212316 851.261617,577.290495 C850.182946,577.054954 848.261999,576.576856 848.037524,578.013155 C851.116602,578.172521 851.493045,581.976258 849.291007,583.434608 C846.008312,583.800448 842.461412,582.32105 840.51762,583.975851 C840.966569,586.395408 839.06946,587.907882 838.369218,589.759134 C839.35055,590.138004 838.62349,591.26359 838.369218,591.927114 C839.574031,592.106526 840.478883,591.47708 841.414526,591.927114 C841.296329,592.585626 841.532722,592.889324 841.770109,593.191017 C843.317595,592.766041 844.449901,591.920098 846.785034,592.287943 C847.862712,591.327737 849.17579,590.60608 850.185926,589.577718 C850.317035,589.024447 849.878018,589.046497 850.008134,588.493227 C850.911993,586.091711 854.902876,586.807354 855.200851,583.795436 C856.726485,583.06576 857.742581,584.007924 859.31887,583.795436 C861.01435,583.568916 862.236049,581.273644 863.975231,582.893364 C864.114287,584.313627 865.085686,585.156563 866.301426,585.724868 C866.884464,585.998497 867.490347,586.214994 868.076365,586.485615 C868.354476,586.614912 868.600802,586.763253 868.852094,586.928633 C869.155036,587.127089 869.577168,587.234335 869.846339,587.47589 C870.096638,587.700406 870.409512,588.170485 870.570419,588.485208 C870.881306,589.090599 870.678683,589.803236 870.774035,590.460746 C871.283573,590.558971 871.450439,589.981645 871.644123,589.632844 C871.848733,589.262995 871.991761,589.104631 872.01262,588.634551 C872.021559,588.411038 872.007653,588.208573 871.956997,587.993078 C871.937132,587.913896 871.720604,587.534023 871.72557,587.506961 C871.801057,587.102031 872.426805,587.432791 872.689024,587.507964 C872.947269,587.581132 873.715052,587.912894 873.840202,587.517987 C873.97727,587.080983 873.237298,586.477597 872.927404,586.353312 C872.440711,586.160869 871.941105,586.00451 871.461365,585.796032 C870.525723,585.387092 869.696358,584.80275 868.715026,584.502059 C867.991939,584.280551 867.446644,583.841542 867.224156,583.107857 C867.126817,582.782109 865.84155,581.392918 866.481204,581.086214 C866.967897,580.851675 867.474455,580.643196 868.273029,580.72338 C868.253164,581.172412 867.93731,581.283667 868.273029,581.628459 C868.836202,581.713655 868.677282,581.072181 869.347727,581.265626 C869.948644,582.248884 870.738278,583.925736 872.212263,583.434608 C872.258946,584.501057 874.815574,584.520101 875.435363,585.601585 C875.118516,585.945375 875.304254,586.796329 875.255584,587.409738 C877.813206,588.382973 877.372203,592.381157 880.627086,592.649774 C880.921089,592.459336 880.137414,591.832897 880.090731,591.384868 C881.123712,591.711619 880.584377,590.733372 880.807858,590.662209 C881.119739,590.610089 881.769325,591.239535 881.702777,590.481794 C880.517829,589.489515 880.089738,588.849044 879.554375,587.229324 C880.189063,587.431789 880.454261,588.008112 881.522999,587.769564 C882.094118,587.584139 880.595302,587.053921 881.165429,586.868495 C882.267937,586.330259 883.844227,586.61391 884.390515,587.58915 C884.793775,586.553772 886.397875,586.725166 887.253065,586.14383 C884.622936,585.767967 886.054211,583.44864 886.001568,581.807871 C887.566932,581.702629 887.010711,579.455468 888.686326,579.459477 C888.979335,580.367563 890.685741,579.850375 891.193292,580.542966 C890.926107,580.815592 890.173223,580.598092 890.299366,581.265626 C891.588606,581.168402 891.164488,581.992295 891.909426,582.169702 C892.394132,582.062456 894.034983,581.700625 894.595177,581.086214 C894.175032,581.056145 892.616621,581.182435 892.627547,580.182137 C893.371492,579.364259 895.425535,578.914225 896.565787,579.097646 C896.41382,579.486539 895.642064,579.250998 895.490096,579.638889 C895.754301,579.797253 896.058236,579.910513 896.027445,580.363554 C895.959904,580.957919 895.28052,580.932861 895.131533,581.44604 C897.553079,582.799148 900.938079,583.178018 902.117068,585.784004 C898.803582,588.375957 893.488695,583.127903 890.119587,586.325247 L887.612622,586.325247 C887.301734,586.4355 887.624541,587.182215 887.253065,587.229324 C885.695647,586.981755 884.871249,587.473885 884.390515,588.312812 C884.925877,589.096613 885.21094,589.187822 884.747092,590.30138 C885.688694,590.674236 886.135657,591.550248 886.716709,592.287943 C888.576075,591.803831 889.746125,593.959783 890.655943,592.287943 C892.728858,592.304982 894.652786,593.885612 896.027445,592.108531 C896.568767,592.321019 897.096183,592.546537 897.639492,592.287943 C898.447998,594.27651 897.723918,597.237311 897.102143,600.057789 C897.086251,600.077835 897.070359,600.090865 897.054467,600.107904 C897.167697,601.159319 897.862973,601.869951 898.310929,602.830157 C898.317882,602.844189 898.321855,602.856217 898.327815,602.871251 C898.383437,602.763003 898.450978,602.667784 898.535404,602.588602 L898.535404,603.460605 C898.633736,603.848496 898.654594,604.234382 898.608905,604.622273 C900.857625,605.988411 902.150838,608.316759 903.550329,610.53786 C906.522136,611.323665 905.896388,614.931953 907.847133,616.682975 C909.111542,617.818583 910.471303,618.534227 910.890455,620.476689 C912.346561,621.334659 913.615936,623.340266 913.03985,625.175481 C914.08773,626.105618 914.092696,628.089174 914.829689,629.332028 C916.403992,629.474355 917.265141,628.899034 917.874003,628.068125 C921.668223,627.79149 922.763779,625.425054 926.111035,624.451819 C925.836898,623.879504 926.04846,623.658998 926.111035,623.007502 C927.375444,622.841119 927.880015,621.767654 929.15535,622.103425 C929.71157,621.720546 929.194086,621.298576 929.513913,620.83852 C929.752294,620.537829 930.528023,620.778382 930.767396,620.476689 C930.667078,619.472382 930.938235,618.841934 931.842094,618.850955 C931.743762,618.167384 931.408043,617.722362 931.48353,616.863389 C932.453937,616.216904 932.617823,614.75655 932.915798,613.430504 C931.134899,611.213412 927.103293,610.641098 927.006948,607.286392 C926.547072,608.568337 925.928277,609.69292 925.216116,610.719277 L922.529371,610.719277 C921.57883,610.113887 922.399256,607.722394 920.918318,607.647221 C920.662059,608.425007 921.10207,609.041423 920.918318,609.455374 C920.518038,608.595399 919.661855,608.192473 919.664835,606.925563 C917.895855,605.638607 916.217261,604.261444 915.546816,601.86494 C916.267916,602.113511 916.18051,601.541196 916.441735,601.323697 C916.839036,601.584295 917.304871,601.776737 918.053782,601.684525 C919.586368,604.353656 922.108233,606.023491 925.216116,607.103973 C925.578652,606.508606 926.217313,606.188871 927.006948,606.021487 C927.629716,606.596808 928.163092,607.265344 928.439216,608.189466 C931.749722,609.02238 934.500034,609.381204 938.286307,608.731712 C939.371931,610.651121 941.278973,611.736614 942.763883,613.25009 C942.366583,614.589166 943.89321,615.459164 944.912285,615.960315 C945.346336,615.903184 945.706886,614.84776 945.986983,615.236653 C947.923823,620.832506 950.33047,626.270997 952.613955,631.500008 C953.438353,633.388345 953.546617,635.552315 954.942135,637.102877 C956.510479,633.225972 955.362281,628.594334 954.404786,624.09099 C954.672964,623.579816 955.192435,623.32022 955.298712,622.644668 C954.929223,620.340376 956.398241,617.016742 955.478491,614.69541 C956.496573,614.68238 955.632445,613.778303 956.553189,614.154167 C956.705156,613.399433 956.204557,613.299203 956.194625,612.70584 C958.553596,615.870108 959.96302,619.985561 961.56712,623.910576 C961.674391,623.478584 961.341652,622.599565 961.743919,622.466258 C962.046861,623.801325 962.530574,625.313799 962.993429,626.595743 C964.956093,634.291419 966,642.355943 966,650.662021 C966,691.722331 940.494304,726.881086 904.632973,740.865206 C900.991714,741.325263 897.185576,743.386998 893.700258,743.534337 C895.436461,742.755548 897.649424,742.458866 898.892975,741.18494 C897.717959,740.955413 897.089231,741.119791 896.027445,741.365355 C896.311515,740.657729 895.56459,740.991496 895.490096,740.642695 C895.269594,740.05735 896.070155,740.504377 895.850646,739.919033 C890.735403,739.841856 885.630092,743.166492 881.165429,741.546771 C877.477487,744.124693 871.474277,741.523719 867.555902,742.992091 C864.309957,742.13813 859.716171,744.069566 856.453341,743.170501 C856.202048,743.521307 856.356995,744.278045 855.558421,744.07558 C855.386589,744.850359 856.439435,744.391305 856.453341,744.978654 C856.055047,745.600081 854.973397,745.533929 854.305932,745.881728 C854.321824,745.929839 854.359567,745.956901 854.382412,746 C831.136363,742.082001 810.696248,729.693546 796.302053,712.089111 C796.794705,712.050021 797.049971,711.771381 797.004281,711.189044 C796.435149,709.412964 794.993941,708.517908 793.959967,707.212911 C794.547971,707.565721 795.758745,709.075188 795.749805,708.838645 C795.009833,707.720076 793.415665,706.500274 793.064054,705.586174 C793.784161,706.177533 794.305618,706.448154 795.21345,706.491253 C794.573796,703.97347 793.955,701.482749 793.422618,698.720405 C792.675693,694.850516 790.160781,692.164346 793.064054,689.323822 C793.625241,689.10532 793.952021,688.654284 794.854886,688.782579 C795.294896,687.402409 794.885677,686.453229 794.854886,685.348692 C794.837007,684.73829 795.234308,684.075768 795.21345,683.360124 C795.187625,682.429988 794.903555,681.136016 794.854886,680.288068 C794.709871,677.736207 793.462348,674.596996 793.601403,673.241884 C793.64312,672.840963 794.136765,672.065181 794.317537,671.434733 C794.533073,670.685011 794.485397,669.856107 794.676101,669.266753 C795.089293,667.988818 796.064666,667.074718 796.288147,665.832866 C796.578177,664.216153 795.471695,661.395674 795.21345,661.495905 C795.608764,661.107011 795.955408,660.559754 795.572013,659.869168 C792.770052,659.440183 792.43334,656.381157 790.199518,655.533209 C789.981003,655.45102 789.342342,655.646469 788.76725,655.533209 C787.709437,655.32473 787.284326,654.348488 786.259291,655.171378 C786.54932,652.892143 784.778353,652.693687 783.753318,651.738493 C783.143462,651.604185 783.457329,652.405024 783.036191,652.460151 C782.760067,652.200554 782.879257,651.53703 782.858399,651.015833 C782.237617,650.917608 781.516517,650.922619 781.425138,650.292171 C782.358794,648.919017 781.696295,647.845552 781.425138,646.318043 C780.87885,643.246989 780.777538,639.753966 778.201044,640.716176 C777.381612,638.436941 776.713154,634.399668 776.76977,632.404084 C776.329759,632.465225 776.191697,632.83307 776,633.144786 C780.242176,609.856295 792.79687,589.477487 810.416151,575.224751 C812.571506,573.905721 814.714942,572.953534 816.343874,570.965969 C816.429294,570.860727 816.498821,570.750474 816.570335,570.640221 C821.26146,567.427842 826.247581,564.624403 831.481021,562.280018 C830.131193,563.122954 828.899561,564.084162 827.804005,565.182685 C828.429754,565.021315 828.109927,565.772039 827.983784,565.906347 C830.93374,565.092478 833.427793,562.750098 836.577393,561.750803 C837.411723,561.485193 838.356305,561.594443 839.264137,561.388972 C840.691439,561.063223 842.00551,560.222292 843.382156,559.943652 C845.411368,559.534713 847.504148,559.575807 849.469792,558.678746 C849.155925,558.574507 848.418932,558.897248 848.396088,558.496328 C849.516475,557.937043 850.82558,559.074656 851.261617,557.412839 C852.829961,557.205362 855.33196,556.490721 856.633119,555.426276 C857.551876,555.203765 858.821251,554.863984 859.987328,554.568305 C863.34849,554.207477 866.755341,554 870.209869,554 C875.951853,554 881.575641,554.519193 887.041502,555.502451 C886.523025,555.525504 886.101887,555.714939 886.001568,556.328348 C886.977934,556.54685 887.251078,557.477989 887.969199,557.955084 C888.849219,557.956087 890.834728,558.617606 890.835721,558.317918 C889.60111,557.932031 886.891521,557.013923 888.069517,555.700907 C890.784072,556.220099 893.463864,556.842529 896.094986,557.588242 C895.239797,557.523092 895.658949,557.872896 896.027445,558.136501 C894.485919,557.543138 895.257675,557.076065 892.98313,557.412839 C894.223765,558.122948 895.674028,558.620993 897.033901,559.210866 C898.279004,559.506121 900.181601,560.006309 899.986036,559.99994 C899.193741,559.915311 898.506342,559.76663 897.863087,559.59118 Z M894,647 C894,647 895.467503,648.117567 896.494869,649.376324 C896.823261,649.777084 896.964652,650.339669 897,650.919631 C896.244014,650.947869 895.496009,650.976106 894.758267,651 C894.029647,649.121097 894,647 894,647 Z M877,619.491391 C877,619.491391 891.116365,618.382792 893.030701,618.247309 C894.943055,618.107524 900.490963,617 901,617 C901,617 899.344145,620.11182 895.421391,620.220422 C888.409755,620.405367 877.637782,622.261276 877,619.491391 Z M903.184265,629 C906.353958,632.943455 904.410149,638 904.410149,638 C904.101557,634.056545 899.801422,629.809424 900.007149,629.913089 C900.210756,630.010471 903.184265,629 903.184265,629 Z M901.06327,650 C900.893217,649.198234 900.729062,647.990186 900.59243,646.170756 C900.085219,639.475957 897.04982,633.917566 893,630.631992 L897.299493,630 C897.299493,630 905.192711,639.39843 902.403053,649.96369 C901.957769,649.976447 901.51052,649.988224 901.06327,650 Z M874,615.652547 C874,615.652547 880.739708,615.038246 885.267053,614.177858 C890.060002,613.25962 893.134573,613.199935 895.274498,613.022715 C897.477806,612.839986 899,613.819745 899,613.819745 C899,613.819745 898.964787,615.041001 895.563242,615.325654 C891.677774,615.652547 888.573021,615.417478 885.17047,615.947301 C881.640146,616.500998 876.265685,618.16209 874,615.652547 Z M884,627.862892 C884,627.862892 903.087104,628.067521 907,623 C907,623 902.19462,632.133323 884,627.862892 Z M887.946348,609 C886.201859,605.509083 882,603.042466 882,603.042466 C886.304914,602.427674 890,608.69154 890,608.69154 L887.946348,609 Z M857.96244,602.514773 C857.96244,602.514773 856.003195,601.030417 851.007019,602.321205 C850.715834,602.399435 859.508423,598.254271 873,604.2619 L871.392978,606 C871.392978,606 870.038117,604.2619 867.58856,604.965966 C867.58856,604.965966 865.593291,602.321205 862.793512,604.547739 C862.793512,604.547739 862.086062,601.543924 857.96244,602.514773 Z M849,604.710041 C842.69332,603.592585 838,605 838,605 C843.040025,598.423511 849,604.710041 849,604.710041 Z M873,611.818397 C873,611.818397 876.713058,604.617055 880.181157,606.237542 C884.009256,608.025826 885,609.666709 885,609.666709 C885,609.666709 879.89157,610.979415 876.639669,611.696026 C874.278347,612.217957 873.509752,611.934279 873,611.818397 Z M875.212727,603 C875.212727,603 870.545286,598.10111 852,598.616941 C852,598.616941 866.2552,595.908579 879,601.841134 C879,601.841134 876.094856,602.227756 875.212727,603 Z M891.472221,650 C889.454402,646.35502 888,641 888,641 C888,641 889.898802,642.915125 891.794329,644.827279 C892.920071,645.961691 893.05765,648.256275 892.983401,649.942536 C892.461476,649.964333 891.960297,649.983157 891.472221,650 Z M855.314013,635.880007 C853.320702,635.981073 851.440125,636.335722 849.459784,636.335722 C848.730499,636.335722 839.006374,636.898015 839.01635,637 C838.946515,636.219956 839.104144,635.461963 839.417407,634.761852 C839.516175,634.547777 842.22181,634.549614 842.461247,634.54502 C844.38572,634.505513 846.299219,634.332782 848.21571,634.19129 C849.224338,634.119625 850.23097,634.054392 851.240595,634.019478 C852.070642,633.990077 852.715126,633.75487 853.524223,633.651966 C854.63062,633.515987 855.763954,633.476479 856.876338,633.390114 C859.077161,633.215546 861.278981,633.044653 863.481799,632.872841 C866.717189,632.615583 869.955571,632.36108 873.189962,632.106578 C873.641899,632.071665 874.092839,632.034914 874.539787,632 C875.472593,632.625689 876.288673,633.30283 877,634.013965 C876.877289,633.887174 875.626232,634.119625 875.451642,634.136163 C874.086853,634.241823 872.718073,634.348401 871.35029,634.456817 C867.515311,634.759096 863.709264,635.069644 859.899227,635.477582 C859.190893,635.555678 858.454625,635.53914 857.749284,635.594267 C856.92622,635.657663 856.1271,635.839581 855.314013,635.880007 Z M857.459053,640.534092 C854.068801,640.842744 850.69647,641.147153 847.311196,641.455805 C846.403146,641.539597 845.497088,641.622328 844.587046,641.705059 C844.165878,641.742182 842.485189,642.169628 842.168567,641.924616 C841.474586,641.387922 840.28974,640.510758 840,639.617683 C840.428138,639.469191 840.988699,639.537073 841.441728,639.490404 C841.967442,639.440553 842.488176,639.367368 843.010903,639.318577 C850.939414,638.600511 858.869916,637.879263 866.803405,637.159076 C869.651018,636.898154 872.498631,636.638293 875.348235,636.381613 C875.626027,636.354036 878.65983,635.818404 878.803206,636.064476 C879.266192,636.869516 879.666451,637.67986 880,638.48596 C879.937273,638.335347 877.265893,638.734154 877.070742,638.752186 C874.838453,638.956893 872.533479,639.373732 870.299198,639.373732 C868.183402,639.373732 865.977996,639.760872 863.857221,639.952851 C861.725494,640.146952 859.592771,640.341052 857.459053,640.534092 Z M842.110612,631.908268 C841.908326,631.915248 841.165954,631.859411 841,632 C841.792453,631.324975 842.660518,630.827431 843.46279,630.55423 C855.385916,627.155175 863.486217,627.487204 869,629.576092 C862.251876,630.158388 855.508662,630.93013 848.759557,631.428672 C847.251245,631.538351 845.754717,631.732782 844.245423,631.841464 C843.53251,631.893312 842.822543,631.884338 842.110612,631.908268 Z M894.219,595.5685 C894.398,595.5665 894.595,595.5125 894.781,595.4315 C894.581,595.4685 894.391,595.5125 894.219,595.5685 Z M890.968451,631 C890.968451,631 896.75239,640.050407 897,644 C897,644 894.046845,642.216249 893.92065,641.836138 C893.799235,641.452067 891.829828,633.680576 889,631.385061 C889,631.385061 890.106119,631.258357 890.968451,631 Z M906.012102,634 C906.061912,633.497326 906.274641,630.339329 904,629.126884 C904,629.126884 908.143541,628.504618 908.810782,626 C908.810782,626 909.7416,629.632474 907.474223,632.008751 C906.262188,633.243559 906.04946,633.81332 906.012102,634 Z M906.791306,649.988265 C906.532477,649.994133 906.270684,650 906,650 C906.036552,641.480442 910,633 910,633 C910,633 909.240306,639.858088 908.225735,645.648297 C907.738701,648.39916 907.214127,649.546249 906.791306,649.988265 Z M912.509556,637 C914.668557,637.756294 909,647 909,647 L912.509556,637 Z M911.959051,650 C911.661093,649.9881 911.340789,649.982149 911,649.973224 C911.820314,647.611973 913.482359,642.486837 913.771936,639 C913.771936,639 914.947937,646.306888 911.959051,650 Z M866.100101,658.083756 C866.291141,658.06744 866.839124,658.125091 867,658 C865.63155,659.060551 862.795107,661 860.254273,661 C859.68618,661 858.816445,660.083031 858,658.831037 C858.08446,658.962654 859.401631,658.696157 859.550441,658.68963 C861.042565,658.602611 862.467322,658.422045 863.943358,658.282814 C864.664283,658.217549 865.379176,658.149021 866.100101,658.083756 Z M884,714 C885.287849,701.661825 895,685 895,685 C895,685 893.192231,688.11099 889.927291,699.462495 C887.822709,706.774042 885.97012,710.697639 884.921315,712.563271 C884.338645,713.600909 884,714 884,714 Z M903.425743,687.585442 C903.547315,683.486212 906.864339,663 906.864339,663 C907.488999,664.767457 905.758335,678.959773 905.678275,679.239943 C905.595251,679.522101 904.953788,683.97502 904.998266,688.839254 C905.041755,693.703487 900.088952,698.342194 896.120582,704.321148 C892.64937,709.556955 892,712 892,712 C892.077094,709.217174 893.078329,704.548662 893.523103,703.927717 C894.439337,702.641119 897.990608,698.959165 899.889298,696.697932 C901.791941,694.436699 903.324928,691.002129 903.425743,687.585442 Z M877.048494,731 C876.321933,709.71912 884,702 884,702 C878.853858,710.482582 877.048494,731 877.048494,731 Z M902.425795,662 C902.953178,662.004981 903.480562,662.009961 904,662.019922 C903.361379,673.779062 897,682 897,682 C898.10244,678.593286 901.471339,665.682638 902.425795,662 Z M899,663 C899,663 897.564689,677.165351 885,698 C885,698 898.06302,668.736058 899,663 Z M897.171062,686.135188 C900.508503,681.658123 901.012565,680.744615 900.999767,681.054955 C900.920022,683.402447 900.273208,689.8437 897.781449,692.70875 C897.197643,693.380018 894,697 894,697 C894.823039,693.301216 897.171062,686.135188 897.171062,686.135188 Z M831.038202,620.851607 C833.939563,613.522424 841,613 841,613 C838.984132,614.44124 838.607013,617.447719 838.607013,617.447719 C837.417867,617.121459 834.752571,618.539322 832.922813,619.642104 C832.084337,620.19502 831.471153,620.616821 831,621 C831.02155,620.914623 831.038202,620.851607 831.038202,620.851607 Z M911.124206,662.039597 C911.184073,662.041628 911.242009,662.050766 911.301875,662.054827 C911.542308,662.078179 911.767292,662.102546 912,662.127929 C911.731565,667.349673 909.655537,687 909.655537,687 C908.027546,681.883848 909.869899,666.595297 910.479189,662 C910.690654,662.013199 910.915638,662.023352 911.124206,662.039597 Z M861.109702,586.686076 C861.424563,587.55407 861.068979,588.010117 861.109702,589.036474 C861.843715,589.486508 861.826829,588.710726 862.721749,588.854055 C863.289888,587.288459 862.850871,585.805052 861.109702,586.686076 Z M862.364178,584.157267 C863.320679,584.312624 862.70685,585.428187 862.542963,585.965421 C861.382846,585.918312 861.565604,584.430896 862.364178,584.157267 Z M870.063861,590.118961 C869.015981,590.801529 867.010607,589.998684 866.302419,590.662209 C867.018553,591.684557 868.78356,591.652483 869.885076,592.287943 C869.742047,591.460041 870.542608,590.381564 870.063861,590.118961 Z M881.283625,593.705198 C881.124705,593.803423 881.041272,593.988849 881.074049,594.174275 C881.10484,594.358699 881.244889,594.506037 881.42566,594.546129 C881.605439,594.585219 881.824947,594.653376 882.065314,594.727546 C882.660272,594.910967 883.378392,595.132476 884.044864,595.132476 C884.570293,595.132476 885.063939,594.994158 885.438395,594.590231 C885.559572,594.458929 885.594335,594.269494 885.527788,594.103112 C885.46124,593.93673 885.304306,593.824472 885.127507,593.816453 C884.69743,593.796407 884.219676,593.720232 883.757814,593.647064 C882.739732,593.484691 881.861698,593.344369 881.283625,593.705198 Z M893.026833,594.306579 C892.871886,594.456924 892.842089,594.698479 892.957306,594.882903 C893.178801,595.241727 893.510547,595.472257 893.913807,595.548432 C894.015118,595.566473 894.118416,595.575494 894.219728,595.575494 C894.79482,595.575494 895.375872,595.298858 895.76324,595.007188 C895.871505,594.925 895.933086,594.793698 895.939046,594.657385 C895.945005,594.554148 895.913221,594.449908 895.855613,594.365715 C895.895343,594.329632 895.947985,594.291545 895.991688,594.268492 L895.991688,594.266487 C896.131736,594.185301 896.279731,594.047985 896.244967,593.792398 C896.219143,593.591938 896.064195,593.432572 895.866538,593.400498 C895.770193,593.385463 895.670868,593.408516 895.57055,593.455625 L895.569556,593.45362 L895.330183,593.500728 C894.477973,593.626016 893.595966,593.755313 893.026833,594.306579 Z M918.576232,680.484519 C918.317987,681.614114 918.913937,682.63145 918.754024,683.737992 C918.692442,684.162968 917.739915,686.113448 917.501534,686.448217 C917.349567,686.661707 916.832083,686.503344 916.605622,686.809046 C915.593499,688.16917 916.871813,689.919189 916.248051,691.867665 C916.457627,691.898736 916.441735,692.154323 916.426837,692.410913 C917.163829,692.51014 917.474717,693.040358 918.038883,693.313987 C918.72224,692.800808 919.665829,692.547226 920.545849,692.229496 C922.824367,687.367328 925.77333,682.402925 927.170834,677.232049 C927.599918,677.160885 927.071509,678.055941 927.708183,677.774294 C928.163092,676.124505 928.079659,672.661551 926.991056,671.449767 C926.283861,672.209512 926.316638,674.586973 925.021439,674.160995 C924.332122,676.716865 922.167828,677.785319 919.471151,678.315537 C919.500949,679.376975 918.757997,679.684682 918.576232,680.484519 Z M810.43403,576.206004 C810.895892,575.465303 812.281477,574.700547 812.403647,574.218439 C810.605862,575.656743 808.392899,576.675082 807.031151,578.555401 C808.085984,578.042222 807.740333,578.82502 807.748279,579.097646 C807.859523,578.774905 808.711732,578.28077 808.822977,578.555401 C808.449514,578.731806 807.465202,579.219927 807.927064,579.638889 C808.965011,578.553396 810.937608,577.352638 810.43403,576.206004 Z M844.09829,562.293048 C844.991223,562.369223 844.027769,562.679937 843.918512,562.835294 C846.007319,563.545926 848.099106,562.603762 850.008134,562.112634 C850.148183,561.693671 849.947546,561.299767 850.54449,561.02714 C848.784449,561.216576 847.900455,561.189513 846.427464,561.569386 C846.459248,561.175481 846.280463,560.995067 845.890115,561.02714 C845.617964,561.294755 845.104453,561.31881 844.634646,561.388972 C844.358522,562.031447 845.242515,561.498222 845.171001,561.930215 C845.047838,562.288037 844.172784,561.886113 844.09829,562.293048 Z M853.947368,567.171253 C851.912197,566.887601 850.199832,568.646642 850.54449,570.243309 C850.490854,570.023805 851.062967,569.618875 851.081839,570.061892 C851.079852,570.421719 850.594152,570.292422 850.722282,570.784552 C851.938021,570.537986 852.614425,571.755783 851.620181,572.231876 C851.055021,572.319077 850.98748,571.905126 850.365705,572.05046 C850.106466,572.501496 849.931654,572.759087 850.185926,573.314363 C849.765781,573.490768 849.049647,573.373499 849.113215,574.037023 C849.587989,574.041032 850.167054,573.936792 850.185926,574.399856 C849.146985,574.555213 848.495413,575.101467 847.858739,575.663759 C849.460853,574.801779 854.094369,575.801074 855.558421,574.218439 C855.479955,574.303635 855.994459,572.891391 856.09577,572.77312 C854.438034,572.639813 854.514515,570.755485 853.768583,569.701063 L853.053442,569.701063 C853.4865,568.939314 852.543904,568.869153 852.336315,568.254741 C852.945178,569.166836 854.123174,569.415407 854.484717,568.073325 C853.998024,567.963071 853.064368,568.303854 852.87267,567.893913 C853.360357,567.782657 853.710974,567.535088 853.947368,567.171253 Z M844.45586,573.858613 C847.566723,574.224453 848.651353,572.548604 849.829349,570.965969 C848.669232,569.664981 847.042286,571.317777 845.890115,571.689631 C845.889122,572.891391 845.077636,573.27828 844.45586,573.858613 Z M873.107182,554.342787 C871.480237,554.282649 869.634776,554.258594 868.452808,554.703616 C869.162982,554.889042 869.374545,555.578626 870.421431,555.426276 C870.849522,554.593363 872.0891,554.578328 873.107182,554.342787 Z M867.377117,569.520649 C867.567821,570.994033 865.977626,570.992029 865.944848,569.701063 C866.609333,569.829358 866.713625,569.392354 867.377117,569.520649 Z M892.839563,660.935578 C892.839563,660.935578 888.277765,661.33782 885.818958,660.132083 C885.507618,659.978518 885.229153,659.803156 885,659.597081 C885,659.597081 885.303604,659.591137 885.83056,659.581229 C888.866602,659.518812 899.451172,659.312737 903.856333,659.148274 C906.436969,659.054153 908.749775,658.881763 910.530791,658.672716 C912.316641,658.466641 913.564898,658.226881 914,658 C914,658 913.798886,659.458377 910.407995,660.009231 C909.974827,660.076602 909.499116,660.135056 908.960557,660.168741 C904.163805,660.490733 892.839563,660.935578 892.839563,660.935578 Z M886.313718,679.641372 C885.144886,682.242846 878,695 878,695 C878.843141,689.425696 882.890422,682.79988 885.549716,677.924598 C887.654018,674.05416 890.78612,665.437521 891.991477,662.044682 C892.325284,662.032767 892.664164,662.017873 893,662 C892.691558,668.131337 887.399351,677.229547 886.313718,679.641372 Z M872.970321,615.708486 C872.970321,615.708486 872.468558,618.796506 875,618.918224 C875,618.918224 866.671723,619.322676 863,618.332632 C863,618.332632 867.413544,616.252867 871.069525,613 C871.069525,613 870.942609,615.341413 872.970321,615.708486 Z M869,609.628155 C869,609.628155 866.779032,612.166169 863.470104,614.609097 C859.224021,617.739888 856.162846,620.12819 852,619.994664 C852,619.994664 860.984735,613.84132 862.839459,612.115591 C867.20697,608.064277 868.874654,608.848239 869,609.628155 Z M860.175284,606.59103 C862.06753,605.362247 861.999696,606.430711 861.999696,606.430711 C861.999696,606.430711 855.028052,613.195369 849,617 C849,617 851.444024,612.253009 860.175284,606.59103 Z M842,619 C842,619 847.4095,605.766879 858,605 C858,605 849.969299,609.836093 848.476502,612.3339 C846.532746,615.586695 845.823089,617.882378 842,619 Z M891,638 C891,638 883.811167,631.598343 883,630 C883,630 885.574664,630.532436 887.338162,630.264146 C887.338162,630.264146 890.456413,635.332643 891,638 Z M887.848474,662 C888.246024,662.049178 888.631694,662.075272 889,662.087316 C888.00658,665.248745 885.835131,671.81649 884,675 C884,675 885.005301,668.808616 886.794736,664.499035 C887.245293,663.406084 887.587096,662.604184 887.848474,662 Z M877.639626,688.360724 C876.594176,691.00376 874.393338,697.628412 873.108306,702.56546 C871.824311,707.506407 870.004108,709 870.004108,709 C869.892096,705.98844 872.093971,700.149582 873.744081,694.286351 C875.393153,688.427019 881,681 881,681 C881,681 878.735896,685.598747 877.639626,688.360724 Z M904.945095,621 C904.945095,621 907.435497,625.057729 878.871351,626 C878.871351,626 877.531673,624.233633 872,622.078226 C872,622.078226 891.434337,625.982221 904.945095,621 Z M891.11051,677.179324 C890.037882,679.919623 881.345725,695.768757 878.535686,701.655177 C875.727686,707.548628 872,721 872,721 C872.596471,713.213051 877.289725,700.119283 883.298275,689.739698 C888.351451,681.000474 894.793333,665.639532 896.702039,661.007743 C897.112941,661.001716 897.508549,660.996694 897.874588,661.002721 C897.915373,661.002721 897.954118,661.002721 898,661.003725 C896.458353,665.189512 892.059765,674.757455 891.11051,677.179324 Z M733,620.33374 L748.140658,579.695652 L755.779374,582.491782 L750.292674,597.217944 L776.060402,606.64408 L771.705549,618.336593 L745.935939,608.909835 L740.642481,623.130492 L733,620.33374 Z M792.041185,580.481836 L782.964687,589.095091 L758.482596,563.489599 L778.249136,544.73035 C783.142927,540.085398 786.972906,537.471016 789.959213,536.736422 C793.159408,535.952606 796.227644,537.067893 799.081991,540.052375 C801.644899,542.733425 802.866314,545.052474 802.814406,547.142235 C802.791266,548.074341 802.503579,549.114237 801.944468,550.276254 C805.52616,548.915479 808.057798,550.276254 809.696358,551.990306 L815.577664,558.142453 L806.503668,566.7582 L801.486046,561.510744 C800.760577,560.753097 798.835581,558.739973 793.915523,563.407355 L784.374349,572.463609 L792.041185,580.481836 Z M772.925066,560.488294 L779.008377,566.851037 L788.522658,557.821574 C791.522099,554.976035 792.185653,553.544231 792.314487,552.944219 C792.55214,551.837655 791.555871,550.510526 790.677803,549.591505 C788.94981,547.784616 787.994191,547.628849 787.57517,547.678071 C787.166156,547.738509 785.894708,548.179639 782.942798,550.980318 L772.925066,560.488294 Z M822.41759,551.902703 C818.738959,550.637258 816.022827,546.70447 814.114092,539.880036 C811.869515,531.853085 811.948316,526.477278 814.353622,523.445442 C816.661991,520.535104 823.010473,517.669627 833.764306,514.686391 C843.357389,512.022163 849.713376,511.348007 853.192502,512.626537 C856.8211,513.957404 859.551617,518.060289 861.539778,525.17071 C863.703678,532.907935 863.569842,538.123614 861.130138,541.114328 C858.794252,543.974821 852.496427,546.797929 841.87643,549.744405 C835.306554,551.568117 830.250158,552.473431 826.588413,552.473431 C824.907951,552.473431 823.521429,552.282773 822.41759,551.902703 Z M824.934218,526.600022 C824.717203,526.962646 824.180605,528.779504 826.438316,536.835115 C828.003079,542.436472 829.367086,543.485091 829.881169,543.675749 C830.462795,543.893199 832.684858,544.149279 840.808865,541.895029 C848.505094,539.759161 850.101127,538.362249 850.43009,537.861304 C850.673372,537.489334 851.321917,535.739767 849.405677,528.886672 C847.48631,522.022361 846.127931,520.92452 845.757066,520.751931 C845.622604,520.689002 845.308651,520.599903 844.624458,520.599903 C843.302353,520.599903 840.598729,520.934489 835.132692,522.452899 L835.132066,522.452899 C826.554016,524.831763 825.158113,526.228675 824.934218,526.600022 Z M886.748464,547.067841 C879.221719,545.791804 874.53181,544.27277 872.409812,542.424136 C870.143345,540.445903 869.415374,536.976053 870.247162,532.109913 L871.03955,528.508596 L882.737119,530.489943 L882.687712,531.594015 C882.631425,532.881268 882.550123,533.82895 882.439426,534.490022 C882.347492,535.026482 882.271192,535.688177 882.213655,536.460778 C882.107336,537.62591 884.340031,538.698828 888.184393,539.349932 C891.796731,539.962405 892.861169,539.544951 893.100699,539.401023 C893.316464,539.272672 894.061946,538.625307 894.556642,535.717461 L898.455414,512.885856 L910.815912,514.979979 L906.785179,538.5711 C906.002172,543.168699 904.1516,546.086514 901.285996,547.241053 C900.008294,547.756952 898.265917,548.014278 896.028844,548.014278 C893.553492,548.014278 890.473374,547.699006 886.748464,547.067841 Z M918.17967,556.244961 L907.113798,548.584843 L942.927964,530.2698 L956.53965,539.692743 L952.0477,579.695652 L941.138946,572.142826 L941.987133,565.03975 L924.498197,552.932023 L918.17967,556.244961 Z M931.587917,549.183056 L943.050028,557.118888 L944.8259,542.28084 L931.587917,549.183056 Z M958.183569,592.051313 L952.773694,580.748559 L984.891305,565.481407 L993.017402,582.469902 L983.564224,602.586804 C982.745534,604.318143 981.711201,606.391877 980.487553,608.751772 L979.003128,611.580272 L979.52531,611.29661 L983.380552,609.377204 L1001.72147,600.658026 L1007.12821,611.963279 L975.014364,627.227307 L966.887013,610.244435 L976.997149,588.317468 C977.502405,587.227805 978.420768,585.495216 979.804893,583.017857 L980.823555,581.172803 L980.380986,581.413979 L976.457415,583.364625 L958.183569,592.051313 Z M985.140611,678.827907 L1008,683.32964 L1005.55835,695.660825 L981.936058,691.008515 C977.329201,690.101295 974.444352,688.170018 973.36175,685.267166 C972.343089,682.542383 972.530522,677.776983 973.935962,670.700422 C975.422267,663.193369 977.078454,658.531061 978.997925,656.44858 C981.044024,654.226143 984.553862,653.585091 989.435287,654.546669 L993.039155,655.435768 L990.724756,667.105284 L989.615198,667.029057 C988.318834,666.939085 987.367875,666.832243 986.707782,666.703533 C986.171183,666.597316 985.507956,666.504844 984.733773,666.427368 C983.559021,666.278664 982.423762,668.502976 981.660863,672.341789 C980.94874,675.947548 981.34116,677.02659 981.478444,677.271514 C981.601938,677.490821 982.232567,678.25496 985.140611,678.827907 Z M964.587379,701.043179 L972.594587,690.154943 L989.864657,726.561796 L980.017364,739.955234 L940.064366,734.388048 L947.96293,723.650751 L955.051657,724.69041 L967.715585,707.468397 L964.587379,701.043179 Z M971.26026,714.682127 L962.960836,725.968689 L977.777668,728.143205 L971.26026,714.682127 Z M929.038773,740.039296 L940.767282,735.466738 L953.679156,768.540385 L936.570126,775.21378 L921.616307,764.013484 C920.600028,763.239195 919.257088,762.137803 917.501754,760.641137 L915.19385,758.594712 L914.890969,761.612438 C914.696349,763.750801 914.466685,765.518907 914.211364,766.855462 L910.969784,785.198231 L893.527209,792.002342 L880.612207,758.928069 L892.339464,754.353635 L899.338272,772.275485 C899.815122,773.494459 900.301985,774.887303 900.787596,776.420871 C901.040414,774.21496 901.266949,772.539419 901.462195,771.420515 L905.692518,749.145635 L915.533653,745.306087 L933.781616,758.632864 C934.762226,759.347736 936.070121,760.417231 937.775392,761.898262 C937.050105,760.387835 936.478761,759.09506 936.036955,757.961146 L929.038773,740.039296 Z M862.487368,760.514304 L866.882374,754.924289 L880.154242,757.367162 L855.049474,788.63221 L838.72472,785.62617 L826.235131,747.443999 L839.323301,749.853307 L841.493936,756.650461 L862.487368,760.514304 Z M857.566261,766.820398 L843.808906,764.287393 L848.342622,778.496461 L857.566261,766.820398 Z M815.275568,737.708604 L826.235131,743.900273 L808.736133,774.777994 L797.777822,768.586325 L815.275568,737.708604 Z M794.400603,718.716592 C801.695763,726.817209 805.250138,732.4829 805.266512,736.037367 C805.285405,739.651708 801.744254,744.543388 794.442167,750.992446 C791.190707,753.863961 788.044417,755.307203 785.051159,755.307203 C783.945298,755.307203 782.860848,755.110114 781.7997,754.715936 C778.089773,753.338182 772.804812,748.800141 765.641902,740.840481 C760.379613,734.995787 757.482079,730.664191 756.784933,727.597457 C756.038035,724.305569 757.435477,721.068565 760.938211,717.977508 L762.374698,716.564827 L770.879631,726.011388 L769.29452,727.407853 C767.467581,729.021365 767.767348,729.99496 767.864961,730.314919 C768.072782,730.987891 769.00483,732.766683 772.920059,737.113249 C778.327823,743.121352 780.251745,744.031954 780.827977,744.144843 C781.232284,744.221559 782.894225,744.171663 787.360496,740.228631 C793.609622,734.708885 794.200968,732.82344 794.233716,732.376871 C794.265204,731.934668 793.948434,730.025522 788.529963,724.004321 C784.52216,719.552974 782.599497,718.121583 781.69264,717.705575 C781.062878,717.413683 780.032588,717.19913 778.376315,718.662331 L776.419015,720.584574 L767.91975,711.140508 L769.713942,709.55132 C773.537225,706.175856 777.139463,705.120555 780.431857,706.419722 C783.460381,707.615979 788.030562,711.638221 794.400603,718.716592 Z M775.316724,690.920919 L778.68147,704.00916 L739.757938,694.506652 L735.621068,678.407772 L765.014059,650.838924 L768.33214,663.745063 L763.074726,668.605515 L768.396847,689.307026 L775.316724,690.920919 Z M757.121093,673.952201 L746.135275,684.107399 L760.607785,687.519791 L757.121093,673.952201 Z" id="trojan-logo-red-globe"></path>
        </g>
    </g>
</svg>