<?xml version="1.0" encoding="UTF-8"?>
<svg width="275px" height="280px" viewBox="0 0 275 280" version="1.1" xmlns="http://www.w3.org/2000/svg" xmlns:xlink="http://www.w3.org/1999/xlink">
    <!-- Generator: Sketch 54.1 (76490) - https://sketchapp.com -->
    <title>trojan-logo-dk-green-globe</title>
    <desc>Created with Sketch.</desc>
    <g id="Page-1" stroke="none" stroke-width="1" fill="none" fill-rule="evenodd">
        <g id="Large-Web" transform="translate(-1078.000000, -512.000000)" fill="#115B2F">
            <path d="M1172.05226,622.465197 C1172.39872,619.533605 1174.84731,605.599918 1190,607.114734 C1190,607.114734 1188.14265,608.899076 1187.45463,609.592243 C1187.45463,609.592243 1175.62947,608.395863 1172.11698,622.510749 C1173.13733,623.190197 1174.31915,622.179074 1174.63457,621.877907 C1176.22476,625.448107 1179.60281,624.200241 1179.60281,624.200241 C1180.60599,624.200241 1183.98901,622.301881 1183.98901,622.301881 C1188.24906,622.301881 1192.25981,620.659108 1193.13486,621.167275 C1194.01389,621.669428 1196.02125,621.795718 1199.40426,621.669428 C1202.78529,621.54414 1207.98397,620.487714 1208.60972,620.487714 C1209.23745,620.487714 1211.42161,620.35541 1219.83047,625.33585 C1228.21749,630.305264 1230.42946,647.13091 1230.79497,650.571813 C1230.68869,650.578829 1230.63109,650.579832 1230.63109,650.579832 C1229.57625,650.678057 1227.27588,650.194948 1227.17854,652.419056 C1227.1208,653.767112 1227.6615,654.262813 1228.09702,654.444127 C1229.2955,654.21499 1231.38188,653.922121 1233.88303,654.019065 C1237.8459,654.1735 1247.91962,654.484114 1248.95626,654.537337 C1249.99593,654.588816 1259.15514,654.432636 1260,654.069671 C1260,654.069671 1259.28939,656.193364 1243.36928,655.985707 C1233.89363,655.863643 1229.99028,655.391856 1228.32833,655.051348 C1226.84284,657.956934 1229.76696,658.997165 1229.76696,658.997165 C1229.5256,659.853131 1229.77292,660.45351 1230.36092,660.868464 C1230.40661,660.900537 1230.46819,660.921586 1230.51686,660.950652 C1229.14915,664.304355 1227.27886,669.357963 1226.77628,673.014361 C1225.95287,678.958013 1224.79474,679.767873 1224.04782,680.597779 C1223.2999,681.424679 1216.52791,691.757412 1214.37454,705.002835 C1213.20151,712.220413 1211.87751,714.943667 1211.52193,716.21158 C1211.1723,717.480494 1209.28413,721.574899 1209.35465,722.535104 C1209.42617,723.496312 1210.72832,724.500619 1211.97982,723.90926 C1211.97982,723.90926 1216.08989,714.984762 1216.71067,711.807464 C1216.71067,711.807464 1216.69577,718.315412 1215.9995,720.529497 C1215.9995,720.529497 1216.04221,722.342662 1217.47547,722.497017 L1216.53487,728.972891 C1216.53487,728.972891 1216.8825,730.798083 1218.73293,730.864235 L1218.90178,734.918547 C1218.90178,734.918547 1221.20414,736.708659 1222.79831,735.165114 L1222.89664,732.286502 C1222.89664,732.286502 1226.13265,733.89219 1227.32257,732.225361 C1227.32257,732.225361 1227.23218,722.838802 1229.16803,717.251969 C1229.16803,717.251969 1230.56454,718.471771 1232.23519,717.786196 C1232.23519,717.786196 1233.10627,725.281412 1232.82617,727.40529 C1232.82617,727.40529 1233.88895,729.470033 1236.50915,728.06681 L1237.09218,713.901273 C1237.09218,713.901273 1238.3407,715.617215 1239.97162,715.38869 C1239.97162,715.38869 1240.97977,714.711133 1241.91243,712.183327 C1241.91243,712.183327 1241.9472,712.215401 1241.99785,712.249479 C1242.62161,711.120887 1249.07079,699.500196 1249.7621,696.885189 C1249.7621,696.885189 1246.41683,709.268633 1243.87609,713.442219 C1244.7422,713.89125 1245.70367,714.211987 1246.3473,713.905282 C1246.3473,713.905282 1247.26705,713.403129 1248.21759,710.237859 C1249.20687,706.946299 1249.36777,706.650619 1249.48597,706.227648 C1249.60218,705.805679 1251.61749,700.970573 1251.73668,697.561743 C1251.8519,694.148905 1253.79271,691.446698 1253.79271,691.446698 C1253.79271,691.446698 1254.65485,690.301067 1254.59327,689.129375 C1254.53069,687.95167 1254.71743,691.475765 1256.41191,696.017196 C1258.10739,700.55562 1256.74664,705.563122 1256.62645,706.298811 C1256.35927,707.998716 1258.79373,708.931859 1259.27943,707.030492 C1260.98782,700.373201 1258.31498,691.99195 1258.31498,691.99195 C1256.91847,687.036568 1258.47787,670.693029 1259.27943,663.334127 C1259.29135,662.703679 1259.29731,662.152413 1259.30525,661.701377 C1261.2113,660.821355 1260.45444,657.742283 1260.45444,657.742283 C1262.56312,656.193726 1261.70296,653.581727 1261.70296,653.581727 C1264.16324,650.750223 1261.96121,649.063349 1261.42982,648.713545 C1262.2413,647.371463 1261.22322,644.227241 1261.22322,644.227241 C1263.33388,639.000235 1259.55754,635.392949 1259.55754,635.392949 C1260.49517,631.69245 1255.71068,628.1443 1255.71068,628.1443 C1255.71068,628.1443 1256.86682,626.147714 1256.18744,623.794309 C1255.75736,622.29286 1254.11154,620.958796 1254.11154,620.889637 C1254.16021,617.937857 1251.50525,617.616118 1251.50525,617.584045 C1251.18443,613.92063 1246.96013,614.904891 1246.96013,614.904891 C1247.61767,612.345011 1245.07991,611.110175 1245.07991,611.110175 C1244.89318,605.893192 1238.40924,606.842372 1238.40924,606.842372 C1238.0318,606.269055 1236.52702,605.705762 1236.52702,605.705762 C1233.61481,598.970291 1221.96199,596.121748 1219.23353,595.557452 C1216.51103,594.98614 1197.33334,591.66852 1182.67196,598.020109 C1168.01058,604.376709 1167.63513,616.230937 1167.63513,616.230937 C1167.4934,620.405166 1169.67821,621.247164 1170.73952,621.410565 C1169.89921,619.238 1167.90174,611.567807 1178,607 C1178,607 1173.20298,609.79011 1171.77546,614.668772 C1170.7662,618.1325 1170.81711,620.438272 1170.91876,621.433329 C1171.15352,621.456757 1171.30022,621.445915 1171.30022,621.445915 C1171.52486,621.939961 1171.78204,622.264535 1172.05226,622.465197 Z M1226.41953,641.041542 C1226.08551,638.422569 1225.36231,636.190023 1224.33387,634.291419 C1224.13721,633.930591 1223.92863,633.582792 1223.71111,633.244014 C1222.80923,631.852818 1221.73156,630.660079 1220.51085,629.643744 C1220.01323,629.234805 1219.49575,628.848919 1218.95741,628.493101 C1207.60752,621.026953 1187.1694,625.699685 1182.26671,626.978623 C1182.07799,626.984637 1181.89623,626.991653 1181.69559,627.014706 C1177.1902,627.497815 1173.65919,624.21728 1174.65145,621.956087 C1174.65145,621.956087 1165.76285,633.722112 1165.31489,641.982084 C1164.81628,651.142123 1168.00064,654.755423 1169.02171,656.175685 C1170.04575,657.593942 1170.6854,658.238423 1169.66136,660.820353 C1168.63831,663.399276 1165.62876,668.905925 1165.44501,670.368283 C1165.26523,671.767497 1165.18776,673.205801 1169.14983,674.753355 L1167.80795,677.462578 C1167.80795,677.462578 1167.87053,679.785915 1169.14983,680.560694 C1169.14983,680.560694 1168.39099,685.712527 1170.36557,685.915995 C1173.50921,686.236731 1173.24104,688.238329 1173.24104,690.172772 C1173.24104,692.106213 1175.02392,695.683429 1180.84835,695.915963 C1185.72024,696.108405 1199.27415,699.205519 1210.12442,672.75276 C1210.12442,672.75276 1210.41545,670.430426 1210.98954,671.59009 C1211.06801,671.752463 1211.15442,671.949916 1211.24978,672.168418 C1211.80798,673.467402 1212.66615,675.482029 1214.56128,674.847572 C1214.6159,674.827526 1214.66954,674.806477 1214.73211,674.784427 C1218.00686,673.464395 1220.30823,670.75417 1221.84081,668.042942 C1222.58079,666.732933 1225.68966,660.47957 1223.52239,656.181699 C1223.31976,655.785789 1223.07741,655.400905 1222.77944,655.041079 C1222.30565,654.468764 1221.71268,653.995678 1221.04522,653.644872 C1219.19181,652.667627 1216.76629,652.66462 1214.602,654.19714 C1212.78534,654.354502 1210.99948,654.565988 1209.19772,654.788499 C1208.42398,654.88071 1207.82604,655.001989 1207.01952,655.039074 C1206.26862,655.073152 1205.43131,655.005998 1204.67843,655.096205 C1204.37251,655.135295 1201.26363,655.584326 1201.1653,655.356804 C1200.92394,654.791505 1200.73025,654.231219 1200.61901,653.725056 C1200.5614,653.46546 1200.50777,653.223905 1200.45413,652.988364 C1200.49187,653.145725 1207.17447,652.541337 1207.71579,652.481199 C1209.25831,652.318826 1210.80281,652.056223 1212.35129,651.921914 C1213.27502,651.839726 1214.20271,651.839726 1215.12246,651.770567 C1215.81972,651.716442 1216.46633,651.452837 1217.14869,651.420763 C1218.88092,651.346593 1220.55853,651.254381 1222.28082,651.111052 C1222.52417,651.089001 1225.65788,650.865488 1225.66781,650.75323 L1226.01048,647.952798 C1225.9926,648.113166 1221.45444,648.359733 1221.16739,648.383788 C1218.05355,648.660423 1214.94467,648.939063 1211.83182,649.216701 C1209.87015,649.390099 1207.9055,649.566504 1205.94085,649.741907 C1203.87886,649.924326 1201.81687,650.109752 1199.74892,650.291169 C1199.48968,649.511378 1199.19965,648.847854 1198.81924,648.261507 C1198.91757,648.406841 1200.6498,648.089111 1200.82958,648.084099 C1202.03539,648.061046 1203.25411,647.929745 1204.46388,647.929745 C1205.66572,647.929745 1206.84868,647.730287 1208.02966,647.546865 C1209.17686,647.371463 1210.30519,647.400529 1211.47127,647.247177 C1213.13298,647.01765 1214.85428,647.108859 1216.53884,646.936463 C1219.50965,646.621741 1222.45862,646.222824 1225.44631,645.966235 C1225.79395,645.934161 1226.1406,645.905095 1226.48923,645.879035 L1226.60047,645.867007 C1226.62232,645.37187 1226.62828,644.887758 1226.62828,644.410662 C1226.62759,644.048937 1226.62049,643.693382 1226.60714,643.343901 C1223.13882,643.667942 1219.64973,644.2704 1216.18015,644.299701 C1214.11179,644.315918 1212.01343,644.6058 1209.95408,644.785203 C1207.7327,644.974741 1205.50832,645.168334 1203.28994,645.359899 C1201.64465,645.502813 1200.00037,645.644714 1198.35209,645.787628 C1197.98403,645.819049 1196.86983,646.123121 1196.52478,645.943718 C1195.67163,645.492678 1194.63345,645.060895 1193.35623,644.6058 C1192.87915,644.434506 1192.43007,644.264225 1192,644.088877 C1192.21004,644.173004 1192.72512,644.026035 1192.94416,644.007791 C1193.84732,643.928732 1194.75047,643.854741 1195.65763,643.773655 C1200.03338,643.371266 1204.39512,643.016515 1208.77488,642.638452 C1211.2283,642.428642 1213.67972,642.213765 1216.13114,642.000914 C1218.10347,641.831647 1220.08581,641.806308 1222.05415,641.561023 C1222.44728,641.512047 1225.85704,640.826805 1226.41953,641.041542 Z M1242.86309,559.59118 C1243.0924,559.703386 1243.31704,559.820332 1243.5354,559.943652 C1242.13691,559.54674 1240.05505,558.878205 1238.70026,559.039575 C1239.0181,559.38136 1240.01334,559.040578 1239.95374,559.762235 C1238.43208,559.73818 1234.27632,559.438492 1235.29937,560.847728 C1234.4253,561.004088 1234.10945,560.601162 1233.50555,560.485897 C1233.50853,560.246347 1233.82141,560.320517 1233.86511,560.123064 C1233.47576,559.965702 1232.5133,559.453526 1232.07428,559.943652 C1232.54309,560.259377 1233.69328,560.831692 1233.50555,561.207555 C1232.64143,560.90085 1231.90741,561.104318 1231.53792,561.750803 C1231.68493,561.923199 1232.69605,562.120652 1232.25306,562.293048 C1231.35517,562.357195 1230.69366,562.18079 1230.10566,561.930215 C1229.49083,562.345168 1231.04031,562.512552 1230.46323,562.835294 C1228.70021,562.745086 1228.30191,561.281725 1226.88156,560.847728 C1228.63266,560.710413 1230.60725,562.058509 1231.53792,560.665309 C1229.42727,559.095704 1224.4471,559.629931 1223.12012,558.317918 C1215.88627,557.271514 1212.76846,562.885409 1206.82683,564.279611 C1206.73148,565.267881 1206.39774,566.015598 1206.46727,567.171253 C1207.82902,568.264764 1209.55231,567.054986 1210.76606,566.449595 C1211.48518,567.649351 1212.28673,568.76792 1212.73667,570.243309 C1214.46692,570.483861 1213.86799,568.929291 1215.60121,569.520649 C1216.10777,568.948334 1216.10777,567.865848 1216.31635,566.990838 C1217.44568,567.226379 1217.46356,566.342349 1217.9284,565.906347 C1217.37019,565.567569 1216.59446,565.445288 1216.49514,564.641442 C1216.82589,563.410615 1218.17572,563.204141 1219.18287,562.653877 C1218.59586,561.447105 1221.65408,560.733466 1222.04642,562.112634 C1220.39365,562.55064 1219.05673,563.340454 1219.89901,565.364102 C1221.52794,567.118131 1224.62589,564.558251 1226.34521,566.087764 C1225.06888,566.916668 1223.09926,565.936416 1221.86763,566.809422 C1222.0782,567.318591 1222.70097,567.414812 1223.12012,567.713498 C1223.02278,567.975099 1223.3297,568.646642 1222.94233,568.616572 C1221.90835,568.816031 1221.97292,567.908947 1220.97172,568.073325 C1220.93298,568.215652 1220.82372,568.28481 1220.61514,568.254741 C1220.32412,568.895212 1220.37775,569.980706 1220.79393,570.424726 C1219.92781,570.393654 1219.58812,570.894805 1219.00409,571.146383 C1217.18247,570.296431 1215.50586,571.36288 1213.80938,571.689631 C1212.70787,571.044148 1211.9679,571.286705 1210.58628,571.507212 C1211.16535,570.901821 1209.7162,571.324793 1209.69137,570.784552 C1209.58509,569.894508 1209.86419,569.393357 1210.76606,569.520649 C1210.42538,568.989429 1210.39657,568.82906 1210.58628,568.073325 C1209.84433,568.409096 1208.88187,568.522356 1208.2591,568.979406 C1208.12402,570.078931 1208.54416,570.617168 1208.43788,571.689631 C1206.73148,572.061485 1203.67922,572.028409 1203.06737,574.037023 C1203.26304,574.159303 1203.99507,574.639406 1203.60373,574.760685 C1201.57849,572.714986 1199.20661,577.660345 1196.4414,576.02559 C1196.33412,576.400451 1196.6619,577.212316 1196.26162,577.290495 C1195.18295,577.054954 1193.262,576.576856 1193.03752,578.013155 C1196.1166,578.172521 1196.49304,581.976258 1194.29101,583.434608 C1191.00831,583.800448 1187.46141,582.32105 1185.51762,583.975851 C1185.96657,586.395408 1184.06946,587.907882 1183.36922,589.759134 C1184.35055,590.138004 1183.62349,591.26359 1183.36922,591.927114 C1184.57403,592.106526 1185.47888,591.47708 1186.41453,591.927114 C1186.29633,592.585626 1186.53272,592.889324 1186.77011,593.191017 C1188.31759,592.766041 1189.4499,591.920098 1191.78503,592.287943 C1192.86271,591.327737 1194.17579,590.60608 1195.18593,589.577718 C1195.31704,589.024447 1194.87802,589.046497 1195.00813,588.493227 C1195.91199,586.091711 1199.90288,586.807354 1200.20085,583.795436 C1201.72648,583.06576 1202.74258,584.007924 1204.31887,583.795436 C1206.01435,583.568916 1207.23605,581.273644 1208.97523,582.893364 C1209.11429,584.313627 1210.08569,585.156563 1211.30143,585.724868 C1211.88446,585.998497 1212.49035,586.214994 1213.07637,586.485615 C1213.35448,586.614912 1213.6008,586.763253 1213.85209,586.928633 C1214.15504,587.127089 1214.57717,587.234335 1214.84634,587.47589 C1215.09664,587.700406 1215.40951,588.170485 1215.57042,588.485208 C1215.88131,589.090599 1215.67868,589.803236 1215.77404,590.460746 C1216.28357,590.558971 1216.45044,589.981645 1216.64412,589.632844 C1216.84873,589.262995 1216.99176,589.104631 1217.01262,588.634551 C1217.02156,588.411038 1217.00765,588.208573 1216.957,587.993078 C1216.93713,587.913896 1216.7206,587.534023 1216.72557,587.506961 C1216.80106,587.102031 1217.42681,587.432791 1217.68902,587.507964 C1217.94727,587.581132 1218.71505,587.912894 1218.8402,587.517987 C1218.97727,587.080983 1218.2373,586.477597 1217.9274,586.353312 C1217.44071,586.160869 1216.94111,586.00451 1216.46137,585.796032 C1215.52572,585.387092 1214.69636,584.80275 1213.71503,584.502059 C1212.99194,584.280551 1212.44664,583.841542 1212.22416,583.107857 C1212.12682,582.782109 1210.84155,581.392918 1211.4812,581.086214 C1211.9679,580.851675 1212.47446,580.643196 1213.27303,580.72338 C1213.25316,581.172412 1212.93731,581.283667 1213.27303,581.628459 C1213.8362,581.713655 1213.67728,581.072181 1214.34773,581.265626 C1214.94864,582.248884 1215.73828,583.925736 1217.21226,583.434608 C1217.25895,584.501057 1219.81557,584.520101 1220.43536,585.601585 C1220.11852,585.945375 1220.30425,586.796329 1220.25558,587.409738 C1222.81321,588.382973 1222.3722,592.381157 1225.62709,592.649774 C1225.92109,592.459336 1225.13741,591.832897 1225.09073,591.384868 C1226.12371,591.711619 1225.58438,590.733372 1225.80786,590.662209 C1226.11974,590.610089 1226.76933,591.239535 1226.70278,590.481794 C1225.51783,589.489515 1225.08974,588.849044 1224.55438,587.229324 C1225.18906,587.431789 1225.45426,588.008112 1226.523,587.769564 C1227.09412,587.584139 1225.5953,587.053921 1226.16543,586.868495 C1227.26794,586.330259 1228.84423,586.61391 1229.39051,587.58915 C1229.79377,586.553772 1231.39788,586.725166 1232.25306,586.14383 C1229.62294,585.767967 1231.05421,583.44864 1231.00157,581.807871 C1232.56693,581.702629 1232.01071,579.455468 1233.68633,579.459477 C1233.97934,580.367563 1235.68574,579.850375 1236.19329,580.542966 C1235.92611,580.815592 1235.17322,580.598092 1235.29937,581.265626 C1236.58861,581.168402 1236.16449,581.992295 1236.90943,582.169702 C1237.39413,582.062456 1239.03498,581.700625 1239.59518,581.086214 C1239.17503,581.056145 1237.61662,581.182435 1237.62755,580.182137 C1238.37149,579.364259 1240.42553,578.914225 1241.56579,579.097646 C1241.41382,579.486539 1240.64206,579.250998 1240.4901,579.638889 C1240.7543,579.797253 1241.05824,579.910513 1241.02745,580.363554 C1240.9599,580.957919 1240.28052,580.932861 1240.13153,581.44604 C1242.55308,582.799148 1245.93808,583.178018 1247.11707,585.784004 C1243.80358,588.375957 1238.4887,583.127903 1235.11959,586.325247 L1232.61262,586.325247 C1232.30173,586.4355 1232.62454,587.182215 1232.25306,587.229324 C1230.69565,586.981755 1229.87125,587.473885 1229.39051,588.312812 C1229.92588,589.096613 1230.21094,589.187822 1229.74709,590.30138 C1230.68869,590.674236 1231.13566,591.550248 1231.71671,592.287943 C1233.57608,591.803831 1234.74613,593.959783 1235.65594,592.287943 C1237.72886,592.304982 1239.65279,593.885612 1241.02745,592.108531 C1241.56877,592.321019 1242.09618,592.546537 1242.63949,592.287943 C1243.448,594.27651 1242.72392,597.237311 1242.10214,600.057789 C1242.08625,600.077835 1242.07036,600.090865 1242.05447,600.107904 C1242.1677,601.159319 1242.86297,601.869951 1243.31093,602.830157 C1243.31788,602.844189 1243.32186,602.856217 1243.32781,602.871251 C1243.38344,602.763003 1243.45098,602.667784 1243.5354,602.588602 L1243.5354,603.460605 C1243.63374,603.848496 1243.65459,604.234382 1243.6089,604.622273 C1245.85763,605.988411 1247.15084,608.316759 1248.55033,610.53786 C1251.52214,611.323665 1250.89639,614.931953 1252.84713,616.682975 C1254.11154,617.818583 1255.4713,618.534227 1255.89045,620.476689 C1257.34656,621.334659 1258.61594,623.340266 1258.03985,625.175481 C1259.08773,626.105618 1259.0927,628.089174 1259.82969,629.332028 C1261.40399,629.474355 1262.26514,628.899034 1262.874,628.068125 C1266.66822,627.79149 1267.76378,625.425054 1271.11104,624.451819 C1270.8369,623.879504 1271.04846,623.658998 1271.11104,623.007502 C1272.37544,622.841119 1272.88002,621.767654 1274.15535,622.103425 C1274.71157,621.720546 1274.19409,621.298576 1274.51391,620.83852 C1274.75229,620.537829 1275.52802,620.778382 1275.7674,620.476689 C1275.66708,619.472382 1275.93824,618.841934 1276.84209,618.850955 C1276.74376,618.167384 1276.40804,617.722362 1276.48353,616.863389 C1277.45394,616.216904 1277.61782,614.75655 1277.9158,613.430504 C1276.1349,611.213412 1272.10329,610.641098 1272.00695,607.286392 C1271.54707,608.568337 1270.92828,609.69292 1270.21612,610.719277 L1267.52937,610.719277 C1266.57883,610.113887 1267.39926,607.722394 1265.91832,607.647221 C1265.66206,608.425007 1266.10207,609.041423 1265.91832,609.455374 C1265.51804,608.595399 1264.66186,608.192473 1264.66484,606.925563 C1262.89586,605.638607 1261.21726,604.261444 1260.54682,601.86494 C1261.26792,602.113511 1261.18051,601.541196 1261.44174,601.323697 C1261.83904,601.584295 1262.30487,601.776737 1263.05378,601.684525 C1264.58637,604.353656 1267.10823,606.023491 1270.21612,607.103973 C1270.57865,606.508606 1271.21731,606.188871 1272.00695,606.021487 C1272.62972,606.596808 1273.16309,607.265344 1273.43922,608.189466 C1276.74972,609.02238 1279.50003,609.381204 1283.28631,608.731712 C1284.37193,610.651121 1286.27897,611.736614 1287.76388,613.25009 C1287.36658,614.589166 1288.89321,615.459164 1289.91229,615.960315 C1290.34634,615.903184 1290.70689,614.84776 1290.98698,615.236653 C1292.92382,620.832506 1295.33047,626.270997 1297.61395,631.500008 C1298.43835,633.388345 1298.54662,635.552315 1299.94214,637.102877 C1301.51048,633.225972 1300.36228,628.594334 1299.40479,624.09099 C1299.67296,623.579816 1300.19243,623.32022 1300.29871,622.644668 C1299.92922,620.340376 1301.39824,617.016742 1300.47849,614.69541 C1301.49657,614.68238 1300.63244,613.778303 1301.55319,614.154167 C1301.70516,613.399433 1301.20456,613.299203 1301.19462,612.70584 C1303.5536,615.870108 1304.96302,619.985561 1306.56712,623.910576 C1306.67439,623.478584 1306.34165,622.599565 1306.74392,622.466258 C1307.04686,623.801325 1307.53057,625.313799 1307.99343,626.595743 C1309.95609,634.291419 1311,642.355943 1311,650.662021 C1311,691.722331 1285.4943,726.881086 1249.63297,740.865206 C1245.99171,741.325263 1242.18558,743.386998 1238.70026,743.534337 C1240.43646,742.755548 1242.64942,742.458866 1243.89297,741.18494 C1242.71796,740.955413 1242.08923,741.119791 1241.02745,741.365355 C1241.31151,740.657729 1240.56459,740.991496 1240.4901,740.642695 C1240.26959,740.05735 1241.07015,740.504377 1240.85065,739.919033 C1235.7354,739.841856 1230.63009,743.166492 1226.16543,741.546771 C1222.47749,744.124693 1216.47428,741.523719 1212.5559,742.992091 C1209.30996,742.13813 1204.71617,744.069566 1201.45334,743.170501 C1201.20205,743.521307 1201.357,744.278045 1200.55842,744.07558 C1200.38659,744.850359 1201.43944,744.391305 1201.45334,744.978654 C1201.05505,745.600081 1199.9734,745.533929 1199.30593,745.881728 C1199.32182,745.929839 1199.35957,745.956901 1199.38241,746 C1176.13636,742.082001 1155.69625,729.693546 1141.30205,712.089111 C1141.79471,712.050021 1142.04997,711.771381 1142.00428,711.189044 C1141.43515,709.412964 1139.99394,708.517908 1138.95997,707.212911 C1139.54797,707.565721 1140.75874,709.075188 1140.74981,708.838645 C1140.00983,707.720076 1138.41567,706.500274 1138.06405,705.586174 C1138.78416,706.177533 1139.30562,706.448154 1140.21345,706.491253 C1139.5738,703.97347 1138.955,701.482749 1138.42262,698.720405 C1137.67569,694.850516 1135.16078,692.164346 1138.06405,689.323822 C1138.62524,689.10532 1138.95202,688.654284 1139.85489,688.782579 C1140.2949,687.402409 1139.88568,686.453229 1139.85489,685.348692 C1139.83701,684.73829 1140.23431,684.075768 1140.21345,683.360124 C1140.18763,682.429988 1139.90356,681.136016 1139.85489,680.288068 C1139.70987,677.736207 1138.46235,674.596996 1138.6014,673.241884 C1138.64312,672.840963 1139.13677,672.065181 1139.31754,671.434733 C1139.53307,670.685011 1139.4854,669.856107 1139.6761,669.266753 C1140.08929,667.988818 1141.06467,667.074718 1141.28815,665.832866 C1141.57818,664.216153 1140.47169,661.395674 1140.21345,661.495905 C1140.60876,661.107011 1140.95541,660.559754 1140.57201,659.869168 C1137.77005,659.440183 1137.43334,656.381157 1135.19952,655.533209 C1134.981,655.45102 1134.34234,655.646469 1133.76725,655.533209 C1132.70944,655.32473 1132.28433,654.348488 1131.25929,655.171378 C1131.54932,652.892143 1129.77835,652.693687 1128.75332,651.738493 C1128.14346,651.604185 1128.45733,652.405024 1128.03619,652.460151 C1127.76007,652.200554 1127.87926,651.53703 1127.8584,651.015833 C1127.23762,650.917608 1126.51652,650.922619 1126.42514,650.292171 C1127.35879,648.919017 1126.6963,647.845552 1126.42514,646.318043 C1125.87885,643.246989 1125.77754,639.753966 1123.20104,640.716176 C1122.38161,638.436941 1121.71315,634.399668 1121.76977,632.404084 C1121.32976,632.465225 1121.1917,632.83307 1121,633.144786 C1125.24218,609.856295 1137.79687,589.477487 1155.41615,575.224751 C1157.57151,573.905721 1159.71494,572.953534 1161.34387,570.965969 C1161.42929,570.860727 1161.49882,570.750474 1161.57034,570.640221 C1166.26146,567.427842 1171.24758,564.624403 1176.48102,562.280018 C1175.13119,563.122954 1173.89956,564.084162 1172.80401,565.182685 C1173.42975,565.021315 1173.10993,565.772039 1172.98378,565.906347 C1175.93374,565.092478 1178.42779,562.750098 1181.57739,561.750803 C1182.41172,561.485193 1183.35631,561.594443 1184.26414,561.388972 C1185.69144,561.063223 1187.00551,560.222292 1188.38216,559.943652 C1190.41137,559.534713 1192.50415,559.575807 1194.46979,558.678746 C1194.15592,558.574507 1193.41893,558.897248 1193.39609,558.496328 C1194.51647,557.937043 1195.82558,559.074656 1196.26162,557.412839 C1197.82996,557.205362 1200.33196,556.490721 1201.63312,555.426276 C1202.55188,555.203765 1203.82125,554.863984 1204.98733,554.568305 C1208.34849,554.207477 1211.75534,554 1215.20987,554 C1220.95185,554 1226.57564,554.519193 1232.0415,555.502451 C1231.52303,555.525504 1231.10189,555.714939 1231.00157,556.328348 C1231.97793,556.54685 1232.25108,557.477989 1232.9692,557.955084 C1233.84922,557.956087 1235.83473,558.617606 1235.83572,558.317918 C1234.60111,557.932031 1231.89152,557.013923 1233.06952,555.700907 C1235.78407,556.220099 1238.46386,556.842529 1241.09499,557.588242 C1240.2398,557.523092 1240.65895,557.872896 1241.02745,558.136501 C1239.48592,557.543138 1240.25768,557.076065 1237.98313,557.412839 C1239.22376,558.122948 1240.67403,558.620993 1242.0339,559.210866 C1243.279,559.506121 1245.1816,560.006309 1244.98604,559.99994 C1244.19374,559.915311 1243.50634,559.76663 1242.86309,559.59118 Z M1239,647 C1239,647 1240.4675,648.117567 1241.49487,649.376324 C1241.82326,649.777084 1241.96465,650.339669 1242,650.919631 C1241.24401,650.947869 1240.49601,650.976106 1239.75827,651 C1239.02965,649.121097 1239,647 1239,647 Z M1222,619.491391 C1222,619.491391 1236.11637,618.382792 1238.0307,618.247309 C1239.94306,618.107524 1245.49096,617 1246,617 C1246,617 1244.34414,620.11182 1240.42139,620.220422 C1233.40975,620.405367 1222.63778,622.261276 1222,619.491391 Z M1248.18427,629 C1251.35396,632.943455 1249.41015,638 1249.41015,638 C1249.10156,634.056545 1244.80142,629.809424 1245.00715,629.913089 C1245.21076,630.010471 1248.18427,629 1248.18427,629 Z M1246.06327,650 C1245.89322,649.198234 1245.72906,647.990186 1245.59243,646.170756 C1245.08522,639.475957 1242.04982,633.917566 1238,630.631992 L1242.29949,630 C1242.29949,630 1250.19271,639.39843 1247.40305,649.96369 C1246.95777,649.976447 1246.51052,649.988224 1246.06327,650 Z M1219,615.652547 C1219,615.652547 1225.73971,615.038246 1230.26705,614.177858 C1235.06,613.25962 1238.13457,613.199935 1240.2745,613.022715 C1242.47781,612.839986 1244,613.819745 1244,613.819745 C1244,613.819745 1243.96479,615.041001 1240.56324,615.325654 C1236.67777,615.652547 1233.57302,615.417478 1230.17047,615.947301 C1226.64015,616.500998 1221.26568,618.16209 1219,615.652547 Z M1229,627.862892 C1229,627.862892 1248.0871,628.067521 1252,623 C1252,623 1247.19462,632.133323 1229,627.862892 Z M1232.94635,609 C1231.20186,605.509083 1227,603.042466 1227,603.042466 C1231.30491,602.427674 1235,608.69154 1235,608.69154 L1232.94635,609 Z M1202.96244,602.514773 C1202.96244,602.514773 1201.00319,601.030417 1196.00702,602.321205 C1195.71583,602.399435 1204.50842,598.254271 1218,604.2619 L1216.39298,606 C1216.39298,606 1215.03812,604.2619 1212.58856,604.965966 C1212.58856,604.965966 1210.59329,602.321205 1207.79351,604.547739 C1207.79351,604.547739 1207.08606,601.543924 1202.96244,602.514773 Z M1194,604.710041 C1187.69332,603.592585 1183,605 1183,605 C1188.04003,598.423511 1194,604.710041 1194,604.710041 Z M1218,611.818397 C1218,611.818397 1221.71306,604.617055 1225.18116,606.237542 C1229.00926,608.025826 1230,609.666709 1230,609.666709 C1230,609.666709 1224.89157,610.979415 1221.63967,611.696026 C1219.27835,612.217957 1218.50975,611.934279 1218,611.818397 Z M1220.21273,603 C1220.21273,603 1215.54529,598.10111 1197,598.616941 C1197,598.616941 1211.2552,595.908579 1224,601.841134 C1224,601.841134 1221.09486,602.227756 1220.21273,603 Z M1236.47222,650 C1234.4544,646.35502 1233,641 1233,641 C1233,641 1234.8988,642.915125 1236.79433,644.827279 C1237.92007,645.961691 1238.05765,648.256275 1237.9834,649.942536 C1237.46148,649.964333 1236.9603,649.983157 1236.47222,650 Z M1200.31401,635.880007 C1198.3207,635.981073 1196.44013,636.335722 1194.45978,636.335722 C1193.7305,636.335722 1184.00637,636.898015 1184.01635,637 C1183.94651,636.219956 1184.10414,635.461963 1184.41741,634.761852 C1184.51617,634.547777 1187.22181,634.549614 1187.46125,634.54502 C1189.38572,634.505513 1191.29922,634.332782 1193.21571,634.19129 C1194.22434,634.119625 1195.23097,634.054392 1196.24059,634.019478 C1197.07064,633.990077 1197.71513,633.75487 1198.52422,633.651966 C1199.63062,633.515987 1200.76395,633.476479 1201.87634,633.390114 C1204.07716,633.215546 1206.27898,633.044653 1208.4818,632.872841 C1211.71719,632.615583 1214.95557,632.36108 1218.18996,632.106578 C1218.6419,632.071665 1219.09284,632.034914 1219.53979,632 C1220.47259,632.625689 1221.28867,633.30283 1222,634.013965 C1221.87729,633.887174 1220.62623,634.119625 1220.45164,634.136163 C1219.08685,634.241823 1217.71807,634.348401 1216.35029,634.456817 C1212.51531,634.759096 1208.70926,635.069644 1204.89923,635.477582 C1204.19089,635.555678 1203.45462,635.53914 1202.74928,635.594267 C1201.92622,635.657663 1201.1271,635.839581 1200.31401,635.880007 Z M1202.45905,640.534092 C1199.0688,640.842744 1195.69647,641.147153 1192.3112,641.455805 C1191.40315,641.539597 1190.49709,641.622328 1189.58705,641.705059 C1189.16588,641.742182 1187.48519,642.169628 1187.16857,641.924616 C1186.47459,641.387922 1185.28974,640.510758 1185,639.617683 C1185.42814,639.469191 1185.9887,639.537073 1186.44173,639.490404 C1186.96744,639.440553 1187.48818,639.367368 1188.0109,639.318577 C1195.93941,638.600511 1203.86992,637.879263 1211.80341,637.159076 C1214.65102,636.898154 1217.49863,636.638293 1220.34824,636.381613 C1220.62603,636.354036 1223.65983,635.818404 1223.80321,636.064476 C1224.26619,636.869516 1224.66645,637.67986 1225,638.48596 C1224.93727,638.335347 1222.26589,638.734154 1222.07074,638.752186 C1219.83845,638.956893 1217.53348,639.373732 1215.2992,639.373732 C1213.1834,639.373732 1210.978,639.760872 1208.85722,639.952851 C1206.72549,640.146952 1204.59277,640.341052 1202.45905,640.534092 Z M1187.11061,631.908268 C1186.90833,631.915248 1186.16595,631.859411 1186,632 C1186.79245,631.324975 1187.66052,630.827431 1188.46279,630.55423 C1200.38592,627.155175 1208.48622,627.487204 1214,629.576092 C1207.25188,630.158388 1200.50866,630.93013 1193.75956,631.428672 C1192.25125,631.538351 1190.75472,631.732782 1189.24542,631.841464 C1188.53251,631.893312 1187.82254,631.884338 1187.11061,631.908268 Z M1239.219,595.5685 C1239.398,595.5665 1239.595,595.5125 1239.781,595.4315 C1239.581,595.4685 1239.391,595.5125 1239.219,595.5685 Z M1235.96845,631 C1235.96845,631 1241.75239,640.050407 1242,644 C1242,644 1239.04685,642.216249 1238.92065,641.836138 C1238.79924,641.452067 1236.82983,633.680576 1234,631.385061 C1234,631.385061 1235.10612,631.258357 1235.96845,631 Z M1251.0121,634 C1251.06191,633.497326 1251.27464,630.339329 1249,629.126884 C1249,629.126884 1253.14354,628.504618 1253.81078,626 C1253.81078,626 1254.7416,629.632474 1252.47422,632.008751 C1251.26219,633.243559 1251.04946,633.81332 1251.0121,634 Z M1251.79131,649.988265 C1251.53248,649.994133 1251.27068,650 1251,650 C1251.03655,641.480442 1255,633 1255,633 C1255,633 1254.24031,639.858088 1253.22573,645.648297 C1252.7387,648.39916 1252.21413,649.546249 1251.79131,649.988265 Z M1257.50956,637 C1259.66856,637.756294 1254,647 1254,647 L1257.50956,637 Z M1256.95905,650 C1256.66109,649.9881 1256.34079,649.982149 1256,649.973224 C1256.82031,647.611973 1258.48236,642.486837 1258.77194,639 C1258.77194,639 1259.94794,646.306888 1256.95905,650 Z M1211.1001,658.083756 C1211.29114,658.06744 1211.83912,658.125091 1212,658 C1210.63155,659.060551 1207.79511,661 1205.25427,661 C1204.68618,661 1203.81645,660.083031 1203,658.831037 C1203.08446,658.962654 1204.40163,658.696157 1204.55044,658.68963 C1206.04257,658.602611 1207.46732,658.422045 1208.94336,658.282814 C1209.66428,658.217549 1210.37918,658.149021 1211.1001,658.083756 Z M1229,714 C1230.28785,701.661825 1240,685 1240,685 C1240,685 1238.19223,688.11099 1234.92729,699.462495 C1232.82271,706.774042 1230.97012,710.697639 1229.92131,712.563271 C1229.33865,713.600909 1229,714 1229,714 Z M1248.42574,687.585442 C1248.54731,683.486212 1251.86434,663 1251.86434,663 C1252.489,664.767457 1250.75833,678.959773 1250.67828,679.239943 C1250.59525,679.522101 1249.95379,683.97502 1249.99827,688.839254 C1250.04175,693.703487 1245.08895,698.342194 1241.12058,704.321148 C1237.64937,709.556955 1237,712 1237,712 C1237.07709,709.217174 1238.07833,704.548662 1238.5231,703.927717 C1239.43934,702.641119 1242.99061,698.959165 1244.8893,696.697932 C1246.79194,694.436699 1248.32493,691.002129 1248.42574,687.585442 Z M1222.04849,731 C1221.32193,709.71912 1229,702 1229,702 C1223.85386,710.482582 1222.04849,731 1222.04849,731 Z M1247.42579,662 C1247.95318,662.004981 1248.48056,662.009961 1249,662.019922 C1248.36138,673.779062 1242,682 1242,682 C1243.10244,678.593286 1246.47134,665.682638 1247.42579,662 Z M1244,663 C1244,663 1242.56469,677.165351 1230,698 C1230,698 1243.06302,668.736058 1244,663 Z M1242.17106,686.135188 C1245.5085,681.658123 1246.01256,680.744615 1245.99977,681.054955 C1245.92002,683.402447 1245.27321,689.8437 1242.78145,692.70875 C1242.19764,693.380018 1239,697 1239,697 C1239.82304,693.301216 1242.17106,686.135188 1242.17106,686.135188 Z M1176.0382,620.851607 C1178.93956,613.522424 1186,613 1186,613 C1183.98413,614.44124 1183.60701,617.447719 1183.60701,617.447719 C1182.41787,617.121459 1179.75257,618.539322 1177.92281,619.642104 C1177.08434,620.19502 1176.47115,620.616821 1176,621 C1176.02155,620.914623 1176.0382,620.851607 1176.0382,620.851607 Z M1256.12421,662.039597 C1256.18407,662.041628 1256.24201,662.050766 1256.30188,662.054827 C1256.54231,662.078179 1256.76729,662.102546 1257,662.127929 C1256.73156,667.349673 1254.65554,687 1254.65554,687 C1253.02755,681.883848 1254.8699,666.595297 1255.47919,662 C1255.69065,662.013199 1255.91564,662.023352 1256.12421,662.039597 Z M1206.1097,586.686076 C1206.42456,587.55407 1206.06898,588.010117 1206.1097,589.036474 C1206.84371,589.486508 1206.82683,588.710726 1207.72175,588.854055 C1208.28989,587.288459 1207.85087,585.805052 1206.1097,586.686076 Z M1207.36418,584.157267 C1208.32068,584.312624 1207.70685,585.428187 1207.54296,585.965421 C1206.38285,585.918312 1206.5656,584.430896 1207.36418,584.157267 Z M1215.06386,590.118961 C1214.01598,590.801529 1212.01061,589.998684 1211.30242,590.662209 C1212.01855,591.684557 1213.78356,591.652483 1214.88508,592.287943 C1214.74205,591.460041 1215.54261,590.381564 1215.06386,590.118961 Z M1226.28363,593.705198 C1226.12471,593.803423 1226.04127,593.988849 1226.07405,594.174275 C1226.10484,594.358699 1226.24489,594.506037 1226.42566,594.546129 C1226.60544,594.585219 1226.82495,594.653376 1227.06531,594.727546 C1227.66027,594.910967 1228.37839,595.132476 1229.04486,595.132476 C1229.57029,595.132476 1230.06394,594.994158 1230.43839,594.590231 C1230.55957,594.458929 1230.59434,594.269494 1230.52779,594.103112 C1230.46124,593.93673 1230.30431,593.824472 1230.12751,593.816453 C1229.69743,593.796407 1229.21968,593.720232 1228.75781,593.647064 C1227.73973,593.484691 1226.8617,593.344369 1226.28363,593.705198 Z M1238.02683,594.306579 C1237.87189,594.456924 1237.84209,594.698479 1237.95731,594.882903 C1238.1788,595.241727 1238.51055,595.472257 1238.91381,595.548432 C1239.01512,595.566473 1239.11842,595.575494 1239.21973,595.575494 C1239.79482,595.575494 1240.37587,595.298858 1240.76324,595.007188 C1240.8715,594.925 1240.93309,594.793698 1240.93905,594.657385 C1240.94501,594.554148 1240.91322,594.449908 1240.85561,594.365715 C1240.89534,594.329632 1240.94799,594.291545 1240.99169,594.268492 L1240.99169,594.266487 C1241.13174,594.185301 1241.27973,594.047985 1241.24497,593.792398 C1241.21914,593.591938 1241.0642,593.432572 1240.86654,593.400498 C1240.77019,593.385463 1240.67087,593.408516 1240.57055,593.455625 L1240.56956,593.45362 L1240.33018,593.500728 C1239.47797,593.626016 1238.59597,593.755313 1238.02683,594.306579 Z M1263.57623,680.484519 C1263.31799,681.614114 1263.91394,682.63145 1263.75402,683.737992 C1263.69244,684.162968 1262.73991,686.113448 1262.50153,686.448217 C1262.34957,686.661707 1261.83208,686.503344 1261.60562,686.809046 C1260.5935,688.16917 1261.87181,689.919189 1261.24805,691.867665 C1261.45763,691.898736 1261.44174,692.154323 1261.42684,692.410913 C1262.16383,692.51014 1262.47472,693.040358 1263.03888,693.313987 C1263.72224,692.800808 1264.66583,692.547226 1265.54585,692.229496 C1267.82437,687.367328 1270.77333,682.402925 1272.17083,677.232049 C1272.59992,677.160885 1272.07151,678.055941 1272.70818,677.774294 C1273.16309,676.124505 1273.07966,672.661551 1271.99106,671.449767 C1271.28386,672.209512 1271.31664,674.586973 1270.02144,674.160995 C1269.33212,676.716865 1267.16783,677.785319 1264.47115,678.315537 C1264.50095,679.376975 1263.758,679.684682 1263.57623,680.484519 Z M1155.43403,576.206004 C1155.89589,575.465303 1157.28148,574.700547 1157.40365,574.218439 C1155.60586,575.656743 1153.3929,576.675082 1152.03115,578.555401 C1153.08598,578.042222 1152.74033,578.82502 1152.74828,579.097646 C1152.85952,578.774905 1153.71173,578.28077 1153.82298,578.555401 C1153.44951,578.731806 1152.4652,579.219927 1152.92706,579.638889 C1153.96501,578.553396 1155.93761,577.352638 1155.43403,576.206004 Z M1189.09829,562.293048 C1189.99122,562.369223 1189.02777,562.679937 1188.91851,562.835294 C1191.00732,563.545926 1193.09911,562.603762 1195.00813,562.112634 C1195.14818,561.693671 1194.94755,561.299767 1195.54449,561.02714 C1193.78445,561.216576 1192.90046,561.189513 1191.42746,561.569386 C1191.45925,561.175481 1191.28046,560.995067 1190.89012,561.02714 C1190.61796,561.294755 1190.10445,561.31881 1189.63465,561.388972 C1189.35852,562.031447 1190.24252,561.498222 1190.171,561.930215 C1190.04784,562.288037 1189.17278,561.886113 1189.09829,562.293048 Z M1198.94737,567.171253 C1196.9122,566.887601 1195.19983,568.646642 1195.54449,570.243309 C1195.49085,570.023805 1196.06297,569.618875 1196.08184,570.061892 C1196.07985,570.421719 1195.59415,570.292422 1195.72228,570.784552 C1196.93802,570.537986 1197.61443,571.755783 1196.62018,572.231876 C1196.05502,572.319077 1195.98748,571.905126 1195.3657,572.05046 C1195.10647,572.501496 1194.93165,572.759087 1195.18593,573.314363 C1194.76578,573.490768 1194.04965,573.373499 1194.11321,574.037023 C1194.58799,574.041032 1195.16705,573.936792 1195.18593,574.399856 C1194.14699,574.555213 1193.49541,575.101467 1192.85874,575.663759 C1194.46085,574.801779 1199.09437,575.801074 1200.55842,574.218439 C1200.47995,574.303635 1200.99446,572.891391 1201.09577,572.77312 C1199.43803,572.639813 1199.51451,570.755485 1198.76858,569.701063 L1198.05344,569.701063 C1198.4865,568.939314 1197.5439,568.869153 1197.33631,568.254741 C1197.94518,569.166836 1199.12317,569.415407 1199.48472,568.073325 C1198.99802,567.963071 1198.06437,568.303854 1197.87267,567.893913 C1198.36036,567.782657 1198.71097,567.535088 1198.94737,567.171253 Z M1189.45586,573.858613 C1192.56672,574.224453 1193.65135,572.548604 1194.82935,570.965969 C1193.66923,569.664981 1192.04229,571.317777 1190.89012,571.689631 C1190.88912,572.891391 1190.07764,573.27828 1189.45586,573.858613 Z M1218.10718,554.342787 C1216.48024,554.282649 1214.63478,554.258594 1213.45281,554.703616 C1214.16298,554.889042 1214.37454,555.578626 1215.42143,555.426276 C1215.84952,554.593363 1217.0891,554.578328 1218.10718,554.342787 Z M1212.37712,569.520649 C1212.56782,570.994033 1210.97763,570.992029 1210.94485,569.701063 C1211.60933,569.829358 1211.71362,569.392354 1212.37712,569.520649 Z M1237.83956,660.935578 C1237.83956,660.935578 1233.27776,661.33782 1230.81896,660.132083 C1230.50762,659.978518 1230.22915,659.803156 1230,659.597081 C1230,659.597081 1230.3036,659.591137 1230.83056,659.581229 C1233.8666,659.518812 1244.45117,659.312737 1248.85633,659.148274 C1251.43697,659.054153 1253.74977,658.881763 1255.53079,658.672716 C1257.31664,658.466641 1258.5649,658.226881 1259,658 C1259,658 1258.79889,659.458377 1255.408,660.009231 C1254.97483,660.076602 1254.49912,660.135056 1253.96056,660.168741 C1249.1638,660.490733 1237.83956,660.935578 1237.83956,660.935578 Z M1231.31372,679.641372 C1230.14489,682.242846 1223,695 1223,695 C1223.84314,689.425696 1227.89042,682.79988 1230.54972,677.924598 C1232.65402,674.05416 1235.78612,665.437521 1236.99148,662.044682 C1237.32528,662.032767 1237.66416,662.017873 1238,662 C1237.69156,668.131337 1232.39935,677.229547 1231.31372,679.641372 Z M1217.97032,615.708486 C1217.97032,615.708486 1217.46856,618.796506 1220,618.918224 C1220,618.918224 1211.67172,619.322676 1208,618.332632 C1208,618.332632 1212.41354,616.252867 1216.06953,613 C1216.06953,613 1215.94261,615.341413 1217.97032,615.708486 Z M1214,609.628155 C1214,609.628155 1211.77903,612.166169 1208.4701,614.609097 C1204.22402,617.739888 1201.16285,620.12819 1197,619.994664 C1197,619.994664 1205.98474,613.84132 1207.83946,612.115591 C1212.20697,608.064277 1213.87465,608.848239 1214,609.628155 Z M1205.17528,606.59103 C1207.06753,605.362247 1206.9997,606.430711 1206.9997,606.430711 C1206.9997,606.430711 1200.02805,613.195369 1194,617 C1194,617 1196.44402,612.253009 1205.17528,606.59103 Z M1187,619 C1187,619 1192.4095,605.766879 1203,605 C1203,605 1194.9693,609.836093 1193.4765,612.3339 C1191.53275,615.586695 1190.82309,617.882378 1187,619 Z M1236,638 C1236,638 1228.81117,631.598343 1228,630 C1228,630 1230.57466,630.532436 1232.33816,630.264146 C1232.33816,630.264146 1235.45641,635.332643 1236,638 Z M1232.84847,662 C1233.24602,662.049178 1233.63169,662.075272 1234,662.087316 C1233.00658,665.248745 1230.83513,671.81649 1229,675 C1229,675 1230.0053,668.808616 1231.79474,664.499035 C1232.24529,663.406084 1232.5871,662.604184 1232.84847,662 Z M1222.63963,688.360724 C1221.59418,691.00376 1219.39334,697.628412 1218.10831,702.56546 C1216.82431,707.506407 1215.00411,709 1215.00411,709 C1214.8921,705.98844 1217.09397,700.149582 1218.74408,694.286351 C1220.39315,688.427019 1226,681 1226,681 C1226,681 1223.7359,685.598747 1222.63963,688.360724 Z M1249.94509,621 C1249.94509,621 1252.4355,625.057729 1223.87135,626 C1223.87135,626 1222.53167,624.233633 1217,622.078226 C1217,622.078226 1236.43434,625.982221 1249.94509,621 Z M1236.11051,677.179324 C1235.03788,679.919623 1226.34573,695.768757 1223.53569,701.655177 C1220.72769,707.548628 1217,721 1217,721 C1217.59647,713.213051 1222.28973,700.119283 1228.29827,689.739698 C1233.35145,681.000474 1239.79333,665.639532 1241.70204,661.007743 C1242.11294,661.001716 1242.50855,660.996694 1242.87459,661.002721 C1242.91537,661.002721 1242.95412,661.002721 1243,661.003725 C1241.45835,665.189512 1237.05976,674.757455 1236.11051,677.179324 Z M1078,620.33374 L1093.14066,579.695652 L1100.77937,582.491782 L1095.29267,597.217944 L1121.0604,606.64408 L1116.70555,618.336593 L1090.93594,608.909835 L1085.64248,623.130492 L1078,620.33374 Z M1137.04118,580.481836 L1127.96469,589.095091 L1103.4826,563.489599 L1123.24914,544.73035 C1128.14293,540.085398 1131.97291,537.471016 1134.95921,536.736422 C1138.15941,535.952606 1141.22764,537.067893 1144.08199,540.052375 C1146.6449,542.733425 1147.86631,545.052474 1147.81441,547.142235 C1147.79127,548.074341 1147.50358,549.114237 1146.94447,550.276254 C1150.52616,548.915479 1153.0578,550.276254 1154.69636,551.990306 L1160.57766,558.142453 L1151.50367,566.7582 L1146.48605,561.510744 C1145.76058,560.753097 1143.83558,558.739973 1138.91552,563.407355 L1129.37435,572.463609 L1137.04118,580.481836 Z M1117.92507,560.488294 L1124.00838,566.851037 L1133.52266,557.821574 C1136.5221,554.976035 1137.18565,553.544231 1137.31449,552.944219 C1137.55214,551.837655 1136.55587,550.510526 1135.6778,549.591505 C1133.94981,547.784616 1132.99419,547.628849 1132.57517,547.678071 C1132.16616,547.738509 1130.89471,548.179639 1127.9428,550.980318 L1117.92507,560.488294 Z M1167.41759,551.902703 C1163.73896,550.637258 1161.02283,546.70447 1159.11409,539.880036 C1156.86951,531.853085 1156.94832,526.477278 1159.35362,523.445442 C1161.66199,520.535104 1168.01047,517.669627 1178.76431,514.686391 C1188.35739,512.022163 1194.71338,511.348007 1198.1925,512.626537 C1201.8211,513.957404 1204.55162,518.060289 1206.53978,525.17071 C1208.70368,532.907935 1208.56984,538.123614 1206.13014,541.114328 C1203.79425,543.974821 1197.49643,546.797929 1186.87643,549.744405 C1180.30655,551.568117 1175.25016,552.473431 1171.58841,552.473431 C1169.90795,552.473431 1168.52143,552.282773 1167.41759,551.902703 Z M1169.93422,526.600022 C1169.7172,526.962646 1169.18061,528.779504 1171.43832,536.835115 C1173.00308,542.436472 1174.36709,543.485091 1174.88117,543.675749 C1175.4628,543.893199 1177.68486,544.149279 1185.80886,541.895029 C1193.50509,539.759161 1195.10113,538.362249 1195.43009,537.861304 C1195.67337,537.489334 1196.32192,535.739767 1194.40568,528.886672 C1192.48631,522.022361 1191.12793,520.92452 1190.75707,520.751931 C1190.6226,520.689002 1190.30865,520.599903 1189.62446,520.599903 C1188.30235,520.599903 1185.59873,520.934489 1180.13269,522.452899 L1180.13207,522.452899 C1171.55402,524.831763 1170.15811,526.228675 1169.93422,526.600022 Z M1231.74846,547.067841 C1224.22172,545.791804 1219.53181,544.27277 1217.40981,542.424136 C1215.14335,540.445903 1214.41537,536.976053 1215.24716,532.109913 L1216.03955,528.508596 L1227.73712,530.489943 L1227.68771,531.594015 C1227.63143,532.881268 1227.55012,533.82895 1227.43943,534.490022 C1227.34749,535.026482 1227.27119,535.688177 1227.21366,536.460778 C1227.10734,537.62591 1229.34003,538.698828 1233.18439,539.349932 C1236.79673,539.962405 1237.86117,539.544951 1238.1007,539.401023 C1238.31646,539.272672 1239.06195,538.625307 1239.55664,535.717461 L1243.45541,512.885856 L1255.81591,514.979979 L1251.78518,538.5711 C1251.00217,543.168699 1249.1516,546.086514 1246.286,547.241053 C1245.00829,547.756952 1243.26592,548.014278 1241.02884,548.014278 C1238.55349,548.014278 1235.47337,547.699006 1231.74846,547.067841 Z M1263.17967,556.244961 L1252.1138,548.584843 L1287.92796,530.2698 L1301.53965,539.692743 L1297.0477,579.695652 L1286.13895,572.142826 L1286.98713,565.03975 L1269.4982,552.932023 L1263.17967,556.244961 Z M1276.58792,549.183056 L1288.05003,557.118888 L1289.8259,542.28084 L1276.58792,549.183056 Z M1303.18357,592.051313 L1297.77369,580.748559 L1329.8913,565.481407 L1338.0174,582.469902 L1328.56422,602.586804 C1327.74553,604.318143 1326.7112,606.391877 1325.48755,608.751772 L1324.00313,611.580272 L1324.52531,611.29661 L1328.38055,609.377204 L1346.72147,600.658026 L1352.12821,611.963279 L1320.01436,627.227307 L1311.88701,610.244435 L1321.99715,588.317468 C1322.50241,587.227805 1323.42077,585.495216 1324.80489,583.017857 L1325.82355,581.172803 L1325.38099,581.413979 L1321.45742,583.364625 L1303.18357,592.051313 Z M1330.14061,678.827907 L1353,683.32964 L1350.55835,695.660825 L1326.93606,691.008515 C1322.3292,690.101295 1319.44435,688.170018 1318.36175,685.267166 C1317.34309,682.542383 1317.53052,677.776983 1318.93596,670.700422 C1320.42227,663.193369 1322.07845,658.531061 1323.99793,656.44858 C1326.04402,654.226143 1329.55386,653.585091 1334.43529,654.546669 L1338.03915,655.435768 L1335.72476,667.105284 L1334.6152,667.029057 C1333.31883,666.939085 1332.36787,666.832243 1331.70778,666.703533 C1331.17118,666.597316 1330.50796,666.504844 1329.73377,666.427368 C1328.55902,666.278664 1327.42376,668.502976 1326.66086,672.341789 C1325.94874,675.947548 1326.34116,677.02659 1326.47844,677.271514 C1326.60194,677.490821 1327.23257,678.25496 1330.14061,678.827907 Z M1309.58738,701.043179 L1317.59459,690.154943 L1334.86466,726.561796 L1325.01736,739.955234 L1285.06437,734.388048 L1292.96293,723.650751 L1300.05166,724.69041 L1312.71558,707.468397 L1309.58738,701.043179 Z M1316.26026,714.682127 L1307.96084,725.968689 L1322.77767,728.143205 L1316.26026,714.682127 Z M1274.03877,740.039296 L1285.76728,735.466738 L1298.67916,768.540385 L1281.57013,775.21378 L1266.61631,764.013484 C1265.60003,763.239195 1264.25709,762.137803 1262.50175,760.641137 L1260.19385,758.594712 L1259.89097,761.612438 C1259.69635,763.750801 1259.46669,765.518907 1259.21136,766.855462 L1255.96978,785.198231 L1238.52721,792.002342 L1225.61221,758.928069 L1237.33946,754.353635 L1244.33827,772.275485 C1244.81512,773.494459 1245.30198,774.887303 1245.7876,776.420871 C1246.04041,774.21496 1246.26695,772.539419 1246.46219,771.420515 L1250.69252,749.145635 L1260.53365,745.306087 L1278.78162,758.632864 C1279.76223,759.347736 1281.07012,760.417231 1282.77539,761.898262 C1282.0501,760.387835 1281.47876,759.09506 1281.03695,757.961146 L1274.03877,740.039296 Z M1207.48737,760.514304 L1211.88237,754.924289 L1225.15424,757.367162 L1200.04947,788.63221 L1183.72472,785.62617 L1171.23513,747.443999 L1184.3233,749.853307 L1186.49394,756.650461 L1207.48737,760.514304 Z M1202.56626,766.820398 L1188.80891,764.287393 L1193.34262,778.496461 L1202.56626,766.820398 Z M1160.27557,737.708604 L1171.23513,743.900273 L1153.73613,774.777994 L1142.77782,768.586325 L1160.27557,737.708604 Z M1139.4006,718.716592 C1146.69576,726.817209 1150.25014,732.4829 1150.26651,736.037367 C1150.2854,739.651708 1146.74425,744.543388 1139.44217,750.992446 C1136.19071,753.863961 1133.04442,755.307203 1130.05116,755.307203 C1128.9453,755.307203 1127.86085,755.110114 1126.7997,754.715936 C1123.08977,753.338182 1117.80481,748.800141 1110.6419,740.840481 C1105.37961,734.995787 1102.48208,730.664191 1101.78493,727.597457 C1101.03804,724.305569 1102.43548,721.068565 1105.93821,717.977508 L1107.3747,716.564827 L1115.87963,726.011388 L1114.29452,727.407853 C1112.46758,729.021365 1112.76735,729.99496 1112.86496,730.314919 C1113.07278,730.987891 1114.00483,732.766683 1117.92006,737.113249 C1123.32782,743.121352 1125.25175,744.031954 1125.82798,744.144843 C1126.23228,744.221559 1127.89423,744.171663 1132.3605,740.228631 C1138.60962,734.708885 1139.20097,732.82344 1139.23372,732.376871 C1139.2652,731.934668 1138.94843,730.025522 1133.52996,724.004321 C1129.52216,719.552974 1127.5995,718.121583 1126.69264,717.705575 C1126.06288,717.413683 1125.03259,717.19913 1123.37631,718.662331 L1121.41902,720.584574 L1112.91975,711.140508 L1114.71394,709.55132 C1118.53723,706.175856 1122.13946,705.120555 1125.43186,706.419722 C1128.46038,707.615979 1133.03056,711.638221 1139.4006,718.716592 Z M1120.31672,690.920919 L1123.68147,704.00916 L1084.75794,694.506652 L1080.62107,678.407772 L1110.01406,650.838924 L1113.33214,663.745063 L1108.07473,668.605515 L1113.39685,689.307026 L1120.31672,690.920919 Z M1102.12109,673.952201 L1091.13527,684.107399 L1105.60779,687.519791 L1102.12109,673.952201 Z" id="trojan-logo-dk-green-globe"></path>
        </g>
    </g>
</svg>