<svg xmlns="http://www.w3.org/2000/svg" width="275" height="277" viewBox="0 0 275 277">
  <path fill="#FFCA00" fill-rule="evenodd" d="M396.7646,49.7823 L402.8866,56.0533 L412.0946,47.0623 C414.9956,44.2333 415.6246,42.8143 415.7416,42.2203 C415.9556,41.1243 414.9466,39.8113 414.0616,38.9033 C412.3206,37.1223 411.3706,36.9583 410.9606,37.0253 C410.5566,37.0853 409.3166,37.5273 406.4626,40.3163 L396.7646,49.7823 Z M415.9686,69.4563 L407.1656,78.0503 L382.5796,52.8643 L401.7346,34.1673 C406.4786,29.5333 410.2106,26.9213 413.1406,26.1793 C416.2746,25.3823 419.3196,26.4643 422.1846,29.3983 C424.7576,32.0353 426.0006,34.3203 425.9856,36.3853 C425.9806,37.3133 425.7126,38.3523 425.1756,39.5163 C428.6906,38.1333 431.2146,39.4643 432.8616,41.1503 L438.7666,47.2003 L429.9656,55.7943 L424.9306,50.6363 C424.0486,49.7333 423.1196,49.4163 422.0056,49.6483 C420.7196,49.9133 419.2046,50.8893 417.5056,52.5503 L408.2666,61.5673 L415.9686,69.4563 Z M358,108.6106 L372.586,68.4606 L380.141,71.2026 L374.855,85.7476 L400.381,95.0196 L396.184,106.5816 L370.658,97.3086 L365.555,111.3576 L358,108.6106 Z M508.2891,35.4957 C500.8971,34.3037 496.2851,32.8367 494.1901,31.0137 C491.9571,29.0717 491.2221,25.6287 492.0071,20.7827 L492.7541,17.1967 L504.2481,19.0547 L504.2111,20.1457 C504.1671,21.4047 504.0921,22.3767 503.9851,23.0327 C503.9021,23.5597 503.8311,24.2237 503.7751,25.0007 C503.6811,26.1577 505.8751,27.2057 509.6441,27.8167 C513.1821,28.3877 514.2161,27.9617 514.4471,27.8177 C514.6621,27.6847 515.3931,27.0317 515.8611,24.1267 L519.5381,1.3707 L531.6831,3.3317 L527.8821,26.8457 C527.1431,31.4257 525.3471,34.3447 522.5451,35.5207 C521.2401,36.0707 519.4341,36.3457 517.0941,36.3457 C514.7201,36.3457 511.7961,36.0617 508.2891,35.4957 Z M447.4478,15.7247 C447.2398,16.0887 446.7408,17.8937 449.0768,25.9027 C450.6998,31.4647 452.0598,32.4987 452.5688,32.6847 C453.1378,32.8917 455.3198,33.1277 463.2488,30.8137 C470.7628,28.6167 472.3028,27.2157 472.6158,26.7157 C472.8498,26.3417 473.4588,24.5897 471.4718,17.7887 C469.4778,10.9707 468.1258,9.8897 467.7598,9.7207 C467.6328,9.6617 467.3418,9.5797 466.7218,9.5797 C465.4538,9.5797 462.8108,9.9227 457.3748,11.5117 C449.0018,13.9577 447.6598,15.3547 447.4478,15.7247 Z M445.3498,40.9207 C441.7248,39.7007 439.0018,35.8177 437.0268,29.0507 C434.6998,21.0897 434.6918,15.7457 437.0018,12.7117 C439.2248,9.7917 445.4118,6.8807 455.9168,3.8137 L455.9158,3.8137 C465.2858,1.0757 471.5108,0.3457 474.9498,1.5827 C478.5298,2.8727 481.2698,6.9267 483.3298,13.9767 C485.5708,21.6477 485.5188,26.8327 483.1728,29.8277 C480.9278,32.6947 474.7918,35.5627 464.4148,38.5957 C457.8798,40.5057 452.8678,41.4527 449.2588,41.4527 C447.6958,41.4527 446.3968,41.2747 445.3498,40.9207 Z M565.4346,29.9722 L552.4226,36.9522 L563.6906,44.6912 L565.4346,29.9722 Z M539.2546,44.0862 L528.3726,36.6152 L563.5686,18.0872 L576.9596,27.2842 L572.5426,66.9442 L561.8086,59.5752 L562.6466,52.5312 L545.4706,40.7372 L539.2546,44.0862 Z M578.5156,79.2847 L573.1256,68.2277 L604.7616,52.8057 L612.8596,69.4157 L603.6006,89.3227 C602.7996,91.0387 601.8146,93.0337 600.5886,95.4237 L599.1496,98.1947 L599.6486,97.9167 L603.4486,95.9787 L621.5156,87.1727 L626.9056,98.2297 L595.2676,113.6517 L587.1726,97.0467 L597.0736,75.3497 C597.5586,74.2877 598.4586,72.5717 599.8256,70.1017 L600.8086,68.3027 L600.3816,68.5397 L596.5166,70.5077 L578.5156,79.2847 Z M402.354,190.4732 L380.792,199.6972 C378.613,200.6272 376.659,201.0932 374.944,201.0932 C373.356,201.0932 371.973,200.6952 370.804,199.8962 C368.513,198.3312 366.094,194.5232 363.41,188.2532 C360.565,181.6002 359.393,177.0712 359.823,174.4082 C360.287,171.5712 362.771,169.1722 367.207,167.2742 L370.573,166.0132 L375.005,176.3692 L374.082,176.9052 C372.992,177.5382 372.167,177.9732 371.56,178.2332 C371.036,178.4592 370.447,178.7502 369.817,179.0932 C368.771,179.6362 369.025,181.9102 370.493,185.3432 C371.817,188.4322 372.67,189.1012 372.976,189.2452 C373.199,189.3542 374.128,189.6062 376.805,188.4602 L397.676,179.5352 L402.354,190.4732 Z M407.6323,228.8101 L412.1963,215.0011 L398.3853,219.3921 L407.6323,228.8101 Z M375.4933,214.7901 L412.7363,203.2661 L423.7433,214.4761 L411.7343,251.7001 L402.9183,242.7241 L405.1003,236.1141 L391.0253,221.7811 L384.4313,223.8951 L375.4933,214.7901 Z M462.2036,252.066 L475.3966,239.764 L492.3396,244.815 L482.4446,278.023 L471.0436,274.625 L476.4066,256.628 C476.7616,255.431 477.2126,254.087 477.7476,252.628 C476.3196,254.128 475.1936,255.264 474.3876,256.021 L458.1466,270.782 L448.5656,267.925 L442.9096,246.814 C442.6116,245.702 442.2716,244.096 441.8986,242.036 C441.5566,243.587 441.2166,244.933 440.8856,246.044 L435.5226,264.041 L424.1196,260.642 L434.0156,227.435 L450.6366,232.388 L455.1096,249.906 C455.4116,251.153 455.7656,252.844 456.1646,254.95 L456.6556,257.841 L458.6196,255.722 C460.0086,254.195 461.2176,252.962 462.2036,252.066 Z M513.8682,260.2779 L526.7382,257.3509 L517.3822,246.2149 L513.8682,260.2779 Z M507.6792,239.5949 L522.9952,236.1129 L548.3722,265.8789 L536.1042,268.6669 L531.6272,263.3409 L512.0362,267.7919 L510.3732,274.5159 L497.9322,277.3449 L507.6792,239.5949 Z M539.1055,229.4751 L549.3905,223.4961 L566.8025,253.4521 L556.5145,259.4301 L539.1055,229.4751 Z M598.8906,205.0894 L600.5776,206.6804 C604.1846,210.0754 605.5486,213.4234 604.6326,216.6284 C603.7886,219.5894 600.3896,224.2054 594.2396,230.7384 C587.1946,238.2174 582.1116,241.9754 578.7026,242.2274 C578.5686,242.2364 578.4306,242.2414 578.2916,242.2414 C574.8516,242.2424 569.9446,239.1954 563.3136,232.9484 C559.1106,228.9924 557.4886,225.0424 558.4936,221.2074 C559.4416,217.5904 563.2646,212.2624 570.1826,204.9164 C575.2636,199.5194 579.1316,196.4734 582.0086,195.6074 C585.0776,194.6784 588.3166,195.7854 591.6206,198.8954 L593.0956,200.1574 L584.8716,208.8884 L583.3946,207.4894 C582.2336,206.4004 581.2416,206.0014 580.4416,206.3114 C579.8216,206.5504 578.2216,207.5484 574.4496,211.5484 C569.2476,217.0734 568.5696,218.9524 568.5186,219.5034 C568.4836,219.8934 568.6986,221.4754 572.9456,225.4764 C578.8776,231.0624 580.7576,231.5014 581.1926,231.5034 L581.1936,231.5034 C581.6196,231.5034 583.4116,231.0704 588.6156,225.5424 C592.4706,221.4474 593.6486,219.5324 593.9576,218.6474 C594.1686,218.0314 594.2686,217.0334 592.6856,215.5404 L590.6656,213.8244 L598.8906,205.0894 Z M608.9941,183.9888 L613.5411,171.5968 L599.1081,173.3928 L608.9941,183.9888 Z M593.6831,163.1858 L632.4641,158.0788 L628.1311,169.8888 L621.2241,170.7528 L614.3071,189.6148 L619.0441,194.6688 L614.6531,206.6418 L588.2731,177.9378 L593.6831,163.1858 Z M516.3545,134.5914 C516.3545,134.5914 517.6415,135.6204 518.5425,136.7794 C518.8305,137.1484 518.9545,137.6664 518.9855,138.2004 C518.3225,138.2264 517.6665,138.2524 517.0195,138.2744 C516.3805,136.5444 516.3545,134.5914 516.3545,134.5914 Z M499.4268,106.2066 C499.4268,106.2066 513.6808,105.1756 515.6138,105.0496 C517.5448,104.9196 523.1468,103.8896 523.6608,103.8896 C523.6608,103.8896 521.9888,106.7836 518.0278,106.8846 C510.9478,107.0566 500.0708,108.7826 499.4268,106.2066 Z M525.3047,116.8267 C528.2937,120.5927 526.4607,125.4217 526.4607,125.4217 C526.1697,121.6557 522.1147,117.5997 522.3087,117.6987 C522.5007,117.7917 525.3047,116.8267 525.3047,116.8267 Z M523.9795,138.0435 C523.8065,137.2265 523.6395,135.9955 523.5005,134.1415 C522.9845,127.3195 519.8965,121.6555 515.7765,118.3075 L520.1505,117.6635 C520.1505,117.6635 528.1805,127.2405 525.3425,138.0065 C524.8895,138.0195 524.4345,138.0315 523.9795,138.0435 Z M496.5947,102.2164 C496.5947,102.2164 503.2937,101.5474 507.7937,100.6104 C512.5577,99.6104 515.6137,99.5454 517.7407,99.3524 C519.9307,99.1534 521.4437,100.2204 521.4437,100.2204 C521.4437,100.2204 521.4087,101.5504 518.0277,101.8604 C514.1657,102.2164 511.0797,101.9604 507.6977,102.5374 C504.1887,103.1404 498.8467,104.9494 496.5947,102.2164 Z M454.1826,93.9761 C454.1826,93.9761 449.4176,96.7441 447.9996,101.5841 C446.6246,106.2971 447.2306,108.8491 447.2306,108.8491 C447.3546,109.1791 442.2096,99.3851 454.1826,93.9761 Z M506.249,114.5123 C506.249,114.5123 525.561,114.7033 529.52,109.9733 C529.52,109.9733 524.658,118.4983 506.249,114.5123 Z M509.918,95.5875 C508.276,92.3055 504.321,89.9865 504.321,89.9865 C508.373,89.4085 511.851,95.2975 511.851,95.2975 L509.918,95.5875 Z M479.6348,89.7945 C479.6348,89.7945 477.6768,88.3145 472.6838,89.6015 C472.3928,89.6795 481.1798,85.5465 494.6628,91.5365 L493.0568,93.2695 C493.0568,93.2695 491.7028,91.5365 489.2548,92.2385 C489.2548,92.2385 487.2608,89.6015 484.4628,91.8215 C484.4628,91.8215 483.7558,88.8265 479.6348,89.7945 Z M471.1094,91.2769 C464.7064,90.2749 459.9414,91.5369 459.9414,91.5369 C465.0584,85.6399 471.1094,91.2769 471.1094,91.2769 Z M495.8223,98.6138 C495.8223,98.6138 499.5663,90.8458 503.0633,92.5938 C506.9233,94.5228 507.9223,96.2928 507.9223,96.2928 C507.9223,96.2928 502.7713,97.7088 499.4923,98.4818 C497.1113,99.0448 496.3363,98.7388 495.8223,98.6138 Z M496.9795,89.858 C496.9795,89.858 492.2175,84.967 473.2965,85.482 C473.2965,85.482 487.8405,82.778 500.8435,88.701 C500.8435,88.701 497.8795,89.087 496.9795,89.858 Z M513.999,138.396 C512.151,134.717 510.819,129.312 510.819,129.312 C510.819,129.312 512.558,131.245 514.294,133.175 C515.325,134.32 515.451,136.636 515.383,138.338 C514.905,138.36 514.446,138.379 513.999,138.396 Z M476.8418,123.5972 C474.8438,123.7072 472.9588,124.0932 470.9738,124.0932 C470.2428,124.0932 460.4958,124.7052 460.5058,124.8162 C460.4358,123.9672 460.5938,123.1422 460.9078,122.3802 C461.0068,122.1472 463.7188,122.1492 463.9588,122.1442 C465.8878,122.1012 467.8058,121.9132 469.7268,121.7592 C470.7378,121.6812 471.7468,121.6102 472.7588,121.5722 C473.5908,121.5402 474.2368,121.2842 475.0478,121.1722 C476.1568,121.0242 477.2928,120.9812 478.4078,120.8872 C480.6138,120.6972 482.8208,120.5112 485.0288,120.3242 C488.2718,120.0442 491.5178,119.7672 494.7598,119.4902 C495.2128,119.4522 495.6648,119.4122 496.1128,119.3742 C497.0478,120.0552 497.8658,120.7922 498.5788,121.5662 C498.4558,121.4282 497.2018,121.6812 497.0268,121.6992 C495.6588,121.8142 494.2868,121.9302 492.9158,122.0482 C489.0718,122.3772 485.2568,122.7152 481.4378,123.1592 C480.7278,123.2442 479.9898,123.2262 479.2828,123.2862 C478.4578,123.3552 477.6568,123.5532 476.8418,123.5972 Z M486.1602,132.7222 C483.9392,132.9092 481.7152,133.1002 479.4972,133.2892 C477.8522,133.4302 476.2082,133.5702 474.5602,133.7112 C474.1922,133.7422 473.0782,134.0422 472.7332,133.8652 C471.8802,133.4202 470.8422,132.9942 469.5652,132.5452 C469.0882,132.3762 468.6392,132.2082 468.2092,132.0352 C468.4192,132.1182 468.9342,131.9732 469.1532,131.9552 C470.0562,131.8772 470.9592,131.8042 471.8662,131.7242 C476.2412,131.3272 480.6022,130.9772 484.9812,130.6042 C487.4342,130.3972 489.8852,130.1852 492.3362,129.9752 C494.3082,129.8082 496.2902,129.7832 498.2582,129.5412 C498.6812,129.4892 502.5972,128.7102 502.6992,129.0932 C502.9182,129.8572 503.0852,130.5882 503.2032,131.2652 C499.6062,131.5742 495.9852,132.2132 492.3852,132.2432 C490.3172,132.2592 488.2192,132.5452 486.1602,132.7222 Z M479.1025,128.358 C475.6975,128.649 472.3105,128.936 468.9105,129.227 C467.9985,129.306 467.0885,129.384 466.1745,129.462 C465.7515,129.497 464.0635,129.9 463.7455,129.669 C463.0485,129.163 461.8585,128.336 461.5675,127.494 C461.9975,127.354 462.5605,127.418 463.0155,127.374 C463.5435,127.327 464.0665,127.258 464.5915,127.212 C472.5545,126.535 480.5195,125.855 488.4875,125.176 C491.3475,124.93 494.2075,124.685 497.0695,124.443 C497.3485,124.417 500.3955,123.912 500.5395,124.144 C501.0045,124.903 501.4065,125.667 501.7415,126.427 C501.6785,126.285 498.9955,126.661 498.7995,126.678 C496.5575,126.871 494.2425,127.264 491.9985,127.264 C489.8735,127.264 487.6585,127.629 485.5285,127.81 C483.3875,127.993 481.2455,128.176 479.1025,128.358 Z M464.2695,119.3511 C464.0635,119.3581 463.3075,119.3021 463.1385,119.4431 C463.9455,118.7661 464.8295,118.2671 465.6465,117.9931 C477.7885,114.5841 486.0375,114.9171 491.6525,117.0121 C484.7805,117.5961 477.9135,118.3701 471.0405,118.8701 C469.5045,118.9801 467.9805,119.1751 466.4435,119.2841 C465.7175,119.3361 464.9945,119.3271 464.2695,119.3511 Z M516.3594,82.8824 C516.5384,82.8804 516.7354,82.8264 516.9214,82.7454 C516.7214,82.7824 516.5314,82.8264 516.3594,82.8824 Z M513.5879,118.4332 C513.5879,118.4332 519.6379,127.5762 519.8969,131.5662 C519.8969,131.5662 516.8079,129.7642 516.6759,129.3802 C516.5489,128.9922 514.4889,121.1412 511.5289,118.8222 C511.5289,118.8222 512.6859,118.6942 513.5879,118.4332 Z M528.6562,120.9996 C528.7042,120.4826 528.9092,117.2346 526.7172,115.9876 C526.7172,115.9876 530.7102,115.3476 531.3532,112.7716 C531.3532,112.7716 532.2502,116.5076 530.0652,118.9516 C528.8972,120.2216 528.6922,120.8076 528.6562,120.9996 Z M529.002,137.9351 C528.74,137.9411 528.475,137.9471 528.201,137.9471 C528.238,129.2351 532.25,120.5631 532.25,120.5631 C532.25,120.5631 531.481,127.5761 530.454,133.4971 C529.961,136.3101 529.43,137.4831 529.002,137.9351 Z M534.9561,125.1324 C537.0151,125.9014 531.6091,135.3004 531.6091,135.3004 L534.9561,125.1324 Z M534.3584,137.9585 C534.0384,137.9465 533.6944,137.9405 533.3284,137.9315 C534.2094,135.5505 535.9944,130.3825 536.3054,126.8665 C536.3054,126.8665 537.5684,134.2345 534.3584,137.9585 Z M487.5586,145.3765 C487.7486,145.3615 488.2936,145.4145 488.4536,145.2995 C487.0926,146.2745 484.2716,148.0575 481.7446,148.0575 C481.1796,148.0575 480.3146,147.2145 479.5026,146.0635 C479.5866,146.1845 480.8966,145.9395 481.0446,145.9335 C482.5286,145.8535 483.9456,145.6875 485.4136,145.5595 C486.1306,145.4995 486.8416,145.4365 487.5586,145.3765 Z M518.8867,46.6275 C519.9987,47.1955 521.0577,47.8185 522.4907,48.0685 C522.7727,48.0835 518.2997,46.2235 518.8867,46.6275 Z M506.2422,202.3589 C507.5352,189.5289 517.2862,172.2029 517.2862,172.2029 C517.2862,172.2029 515.4712,175.4379 512.1932,187.2419 C510.0802,194.8449 508.2202,198.9249 507.1672,200.8649 C506.5822,201.9439 506.2422,202.3589 506.2422,202.3589 Z M525.7402,174.9039 C525.8632,170.7779 529.2192,150.1579 529.2192,150.1579 C529.8512,151.9369 528.1002,166.2219 528.0192,166.5039 C527.9352,166.7879 527.2862,171.2699 527.3312,176.1659 C527.3752,181.0619 522.3642,185.7309 518.3492,191.7489 C514.8372,197.0189 514.1802,199.4779 514.1802,199.4779 C514.2582,196.6769 515.2712,191.9779 515.7212,191.3529 C516.6482,190.0579 520.2412,186.3519 522.1622,184.0759 C524.0872,181.7999 525.6382,178.3429 525.7402,174.9039 Z M499.4727,218.6929 C498.7487,196.5329 506.3997,188.4949 506.3997,188.4949 C501.2717,197.3279 499.4727,218.6929 499.4727,218.6929 Z M525.1826,149.5484 C525.7136,149.5534 526.2446,149.5584 526.7676,149.5684 C526.1246,161.3734 519.7196,169.6264 519.7196,169.6264 C520.8296,166.2064 524.2216,153.2454 525.1826,149.5484 Z M521.5371,150.7476 C521.5371,150.7476 520.0941,164.8486 507.4621,185.5886 C507.4621,185.5886 520.5951,156.4576 521.5371,150.7476 Z M519.7354,174.1304 C523.1254,169.5284 523.6374,168.5894 523.6244,168.9084 C523.5434,171.3214 522.8864,177.9424 520.3554,180.8874 C519.7624,181.5774 516.5144,185.2984 516.5144,185.2984 C517.3504,181.4964 519.7354,174.1304 519.7354,174.1304 Z M538.3008,141.149 C538.3008,141.149 537.5968,143.583 521.8248,143.345 C506.0558,143.11 505.8638,141.744 505.6078,141.86 C505.6078,141.86 508.5018,140.915 512.4268,141.091 C516.3528,141.268 526.3328,141.624 527.3598,141.685 C528.3898,141.744 537.4638,141.565 538.3008,141.149 Z M452.8281,107.3658 C455.7901,100.1548 462.9981,99.6408 462.9981,99.6408 C460.9401,101.0588 460.5551,104.0168 460.5551,104.0168 C459.3411,103.6958 456.6201,105.0908 454.7521,106.1758 C453.8961,106.7198 453.2701,107.1348 452.7891,107.5118 C452.8111,107.4278 452.8281,107.3658 452.8281,107.3658 Z M533.168,149.813 C533.23,149.815 533.29,149.824 533.352,149.828 C533.601,149.851 533.834,149.875 534.075,149.9 C533.797,155.043 531.647,174.397 531.647,174.397 C529.961,169.358 531.869,154.3 532.5,149.774 C532.719,149.787 532.952,149.797 533.168,149.813 Z M495.8877,222.8228 C495.8877,222.8228 498.2057,224.6088 499.8107,223.0688 L499.9097,220.1968 C499.9097,220.1968 503.1677,221.7988 504.3657,220.1358 C504.3657,220.1358 504.2747,210.7708 506.2237,205.1968 C506.2237,205.1968 507.6297,206.4138 509.3117,205.7298 C509.3117,205.7298 510.1887,213.2078 509.9067,215.3268 C509.9067,215.3268 510.9767,217.3868 513.6147,215.9868 L514.2017,201.8538 C514.2017,201.8538 515.4587,203.5658 517.1007,203.3378 C517.1007,203.3378 518.1157,202.6618 519.0547,200.1398 C519.0547,200.1398 519.0897,200.1718 519.1407,200.2058 C519.7687,199.0798 526.2617,187.4858 526.9577,184.8768 C526.9577,184.8768 523.5897,197.2318 521.0317,201.3958 C521.9037,201.8438 522.8717,202.1638 523.5197,201.8578 C523.5197,201.8578 524.4457,201.3568 525.4027,198.1988 C526.3987,194.9148 526.5607,194.6198 526.6797,194.1978 C526.7967,193.7768 528.8257,188.9528 528.9457,185.5518 C529.0617,182.1468 531.0157,179.4508 531.0157,179.4508 C531.0157,179.4508 531.8837,178.3078 531.8217,177.1388 C531.7587,175.9638 531.9467,179.4798 533.6527,184.0108 C535.3597,188.5388 533.9897,193.5348 533.8687,194.2688 C533.5997,195.9648 536.0507,196.8958 536.5397,194.9988 C538.2597,188.3568 535.5687,179.9948 535.5687,179.9948 C534.1627,175.0508 535.7327,158.7448 536.5397,151.4028 C536.5517,150.7738 536.5577,150.2238 536.5657,149.7738 C538.4847,148.8958 537.7227,145.8238 537.7227,145.8238 C539.8457,144.2788 538.9797,141.6728 538.9797,141.6728 C541.4567,138.8478 539.2397,137.1648 538.7047,136.8158 C539.5217,135.4768 538.4967,132.3398 538.4967,132.3398 C540.6217,127.1248 536.8197,123.5258 536.8197,123.5258 C537.7637,119.8338 532.9467,116.2938 532.9467,116.2938 C532.9467,116.2938 534.1107,114.3018 533.4267,111.9538 C532.9937,110.4558 531.3367,109.1248 531.3367,109.0558 C531.3857,106.1108 528.7127,105.7898 528.7127,105.7578 C528.3897,102.1028 524.1367,103.0848 524.1367,103.0848 C524.7987,100.5308 522.2437,99.2988 522.2437,99.2988 C522.0557,94.0938 515.5277,95.0408 515.5277,95.0408 C515.1477,94.4688 513.6327,93.9068 513.6327,93.9068 C510.7007,87.1868 498.9687,84.3448 496.2217,83.7818 C493.4807,83.2118 474.1727,79.9018 459.4117,86.2388 C444.6507,92.5808 444.2727,104.4078 444.2727,104.4078 C444.0847,109.8948 447.9627,109.6108 447.9627,109.6108 C449.0547,111.9908 450.9107,110.4288 451.3197,110.0418 C452.9207,113.6038 456.3217,112.3588 456.3217,112.3588 C457.3317,112.3588 460.7377,110.4648 460.7377,110.4648 C465.0267,110.4648 469.0647,108.8258 469.9457,109.3328 C470.8307,109.8338 472.8517,109.9598 476.2577,109.8338 C479.6617,109.7088 484.8957,108.6548 485.5257,108.6548 C486.1577,108.6548 488.3567,108.5228 496.8227,113.4918 C505.2667,118.4498 507.4937,135.2368 507.8617,138.6698 C507.7547,138.6768 507.6967,138.6778 507.6967,138.6778 C506.6347,138.7758 504.3187,138.2938 504.2207,140.5128 C504.1247,142.7338 505.6717,142.6358 505.6717,142.6358 C503.5447,145.9188 506.8267,147.0758 506.8267,147.0758 C506.5837,147.9298 506.8327,148.5288 507.4247,148.9428 C507.4707,148.9748 507.5327,148.9958 507.5817,149.0248 C506.2047,152.3708 504.3217,157.4128 503.8157,161.0608 C502.9867,166.9908 501.8207,167.7988 501.0687,168.6268 C500.3157,169.4518 493.4977,179.7608 491.3297,192.9758 C490.1487,200.1768 488.8157,202.8938 488.4577,204.1588 C488.1057,205.4248 486.2047,209.5098 486.2757,210.4678 C486.3477,211.4268 487.6587,212.4288 488.9187,211.8388 C488.9187,211.8388 493.0567,202.9348 493.6817,199.7648 C493.6817,199.7648 493.6667,206.2578 492.9657,208.4668 C492.9657,208.4668 493.0087,210.2758 494.4517,210.4298 L493.5047,216.8908 C493.5047,216.8908 493.8547,218.7118 495.7177,218.7778 L495.8877,222.8228 Z M457.5757,183.9098 C462.4807,184.1018 476.1267,187.1918 487.0507,160.7998 C487.0507,160.7998 487.3437,158.4828 487.9217,159.6398 C488.0007,159.8018 488.0877,159.9988 488.1837,160.2168 C488.7457,161.5128 489.6097,163.5228 491.5177,162.8898 C491.5727,162.8698 491.6267,162.8488 491.6897,162.8268 C494.9867,161.5098 497.3037,158.8058 498.8467,156.1008 C499.5917,154.7938 502.7217,148.5548 500.5397,144.2668 C500.3357,143.8718 500.0917,143.4878 499.7917,143.1288 C499.3147,142.5578 498.7177,142.0858 498.0457,141.7358 C496.1797,140.7608 493.7377,140.7578 491.5587,142.2868 C489.7297,142.4438 487.9317,142.6548 486.1177,142.8768 C485.3387,142.9688 484.7367,143.0898 483.9247,143.1268 C483.1687,143.1608 482.3257,143.0938 481.5677,143.1838 C481.2597,143.2228 478.1297,143.6708 478.0307,143.4438 C477.7877,142.8798 477.5927,142.3208 477.4807,141.8158 C477.4227,141.5568 477.3687,141.3158 477.3147,141.0808 C477.3527,141.2378 484.0807,140.6348 484.6257,140.5748 C486.1787,140.4128 487.7337,140.1508 489.2927,140.0168 C490.2227,139.9348 491.1567,139.9348 492.0827,139.8658 C492.7847,139.8118 493.4357,139.5488 494.1227,139.5168 C495.8667,139.4428 497.5557,139.3508 499.2897,139.2078 C499.5347,139.1858 502.6897,138.9628 502.6997,138.8508 L503.0447,136.0568 C503.0267,136.2168 498.4577,136.4628 498.1687,136.4868 C495.0337,136.7628 491.9037,137.0408 488.7697,137.3178 C486.7947,137.4908 484.8167,137.6668 482.8387,137.8418 C480.7627,138.0238 478.6867,138.2088 476.6047,138.3898 C476.3437,137.6118 476.0517,136.9498 475.6687,136.3648 C475.7677,136.5098 477.5117,136.1928 477.6927,136.1878 C478.9067,136.1648 480.1337,136.0338 481.3517,136.0338 C482.5617,136.0338 483.7527,135.8348 484.9417,135.6518 C486.0967,135.4768 487.2327,135.5058 488.4067,135.3528 C490.0797,135.1238 491.8127,135.2148 493.5087,135.0428 C496.4997,134.7288 499.4687,134.3308 502.4767,134.0748 C502.8267,134.0428 503.1757,134.0138 503.5267,133.9878 L503.6387,133.9758 C503.6607,133.4818 503.6667,132.9988 503.6667,132.5228 C503.6587,128.4038 502.8107,125.0868 501.3567,122.4268 C501.1587,122.0668 500.9487,121.7198 500.7297,121.3818 C499.8217,119.9938 498.7367,118.8038 497.5077,117.7898 C497.0067,117.3818 496.4857,116.9968 495.9437,116.6418 C484.5167,109.1928 463.9397,113.8548 459.0037,115.1308 C458.8137,115.1368 458.6307,115.1438 458.4287,115.1668 C453.8927,115.6488 450.3377,112.3758 451.3367,110.1198 C451.3367,110.1198 442.3877,121.8588 441.9367,130.0998 C441.4347,139.2388 444.6407,142.8438 445.6687,144.2608 C446.6997,145.6758 447.3437,146.3188 446.3127,148.8948 C445.2827,151.4678 442.2527,156.9618 442.0677,158.4208 C441.8867,159.8168 441.8087,161.2518 445.7977,162.7958 L444.4467,165.4988 C444.4467,165.4988 444.5097,167.8168 445.7977,168.5898 C445.7977,168.5898 445.0337,173.7298 447.0217,173.9328 C450.1867,174.2528 449.9167,176.2498 449.9167,178.1798 C449.9167,180.1088 451.7117,183.6778 457.5757,183.9098 Z M483.0087,74.9308 C483.3257,75.7968 482.9677,76.2518 483.0087,77.2758 C483.7477,77.7248 483.7307,76.9508 484.6317,77.0938 C485.2037,75.5318 484.7617,74.0518 483.0087,74.9308 Z M484.2717,72.4078 C483.4677,72.6808 483.2837,74.1648 484.4517,74.2118 C484.6167,73.6758 485.2347,72.5628 484.2717,72.4078 Z M492.0237,78.3558 C490.9687,79.0368 488.9497,78.2358 488.2367,78.8978 C488.9577,79.9178 490.7347,79.8858 491.8437,80.5198 C491.6997,79.6938 492.5057,78.6178 492.0237,78.3558 Z M503.3197,81.9338 C503.1597,82.0318 503.0757,82.2168 503.1087,82.4018 C503.1397,82.5858 503.2807,82.7328 503.4627,82.7728 C503.6437,82.8118 503.8647,82.8798 504.1067,82.9538 C504.7057,83.1368 505.4287,83.3578 506.0997,83.3578 C506.6287,83.3578 507.1257,83.2198 507.5027,82.8168 C507.6247,82.6858 507.6597,82.4968 507.5927,82.3308 C507.5257,82.1648 507.3677,82.0528 507.1897,82.0448 C506.7567,82.0248 506.2757,81.9488 505.8107,81.8758 C504.7857,81.7138 503.9017,81.5738 503.3197,81.9338 Z M515.1427,82.5338 C514.9867,82.6838 514.9567,82.9248 515.0727,83.1088 C515.2957,83.4668 515.6297,83.6968 516.0357,83.7728 C516.1377,83.7908 516.2417,83.7998 516.3437,83.7998 C516.9227,83.7998 517.5077,83.5238 517.8977,83.2328 C518.0067,83.1508 518.0687,83.0198 518.0747,82.8838 C518.0807,82.7808 518.0487,82.6768 517.9907,82.5928 C518.0307,82.5568 518.0837,82.5188 518.1277,82.4958 L518.1277,82.4938 C518.2687,82.4128 518.4177,82.2758 518.3827,82.0208 C518.3567,81.8208 518.2007,81.6618 518.0017,81.6298 C517.9047,81.6148 517.8047,81.6378 517.7037,81.6848 L517.7027,81.6828 L517.4617,81.7298 C516.6037,81.8548 515.7157,81.9838 515.1427,82.5338 Z M540.8657,168.5138 C540.6057,169.6408 541.2057,170.6558 541.0447,171.7598 C540.9827,172.1838 540.0237,174.1298 539.7837,174.4638 C539.6307,174.6768 539.1097,174.5188 538.8817,174.8238 C537.8627,176.1808 539.1497,177.9268 538.5217,179.8708 C538.7327,179.9018 538.7167,180.1568 538.7017,180.4128 C539.4437,180.5118 539.7567,181.0408 540.3247,181.3138 C541.0127,180.8018 541.9627,180.5488 542.8487,180.2318 C545.1427,175.3808 548.1117,170.4278 549.5187,165.2688 C549.9507,165.1978 549.4187,166.0908 550.0597,165.8098 C550.5177,164.1638 550.4337,160.7088 549.3377,159.4998 C548.6257,160.2578 548.6587,162.6298 547.3547,162.2048 C546.6607,164.7548 544.4817,165.8208 541.7667,166.3498 C541.7967,167.4088 541.0487,167.7158 540.8657,168.5138 Z M431.9887,64.4748 C432.4537,63.7358 433.8487,62.9728 433.9717,62.4918 C432.1617,63.9268 429.9337,64.9428 428.5627,66.8188 C429.6247,66.3068 429.2767,67.0878 429.2847,67.3598 C429.3967,67.0378 430.2547,66.5448 430.3667,66.8188 C429.9907,66.9948 428.9997,67.4818 429.4647,67.8998 C430.5097,66.8168 432.4957,65.6188 431.9887,64.4748 Z M465.8817,50.5938 C466.7807,50.6698 465.8107,50.9798 465.7007,51.1348 C467.8037,51.8438 469.9097,50.9038 471.8317,50.4138 C471.9727,49.9958 471.7707,49.6028 472.3717,49.3308 C470.5997,49.5198 469.7097,49.4928 468.2267,49.8718 C468.2587,49.4788 468.0787,49.2988 467.6857,49.3308 C467.4117,49.5978 466.8947,49.6218 466.4217,49.6918 C466.1437,50.3328 467.0337,49.8008 466.9617,50.2318 C466.8377,50.5888 465.9567,50.1878 465.8817,50.5938 Z M475.7977,55.4608 C473.7487,55.1778 472.0247,56.9328 472.3717,58.5258 C472.3177,58.3068 472.8937,57.9028 472.9127,58.3448 C472.9107,58.7038 472.4217,58.5748 472.5507,59.0658 C473.7747,58.8198 474.4557,60.0348 473.4547,60.5098 C472.8857,60.5968 472.8177,60.1838 472.1917,60.3288 C471.9307,60.7788 471.7547,61.0358 472.0107,61.5898 C471.5877,61.7658 470.8667,61.6488 470.9307,62.3108 C471.4087,62.3148 471.9917,62.2108 472.0107,62.6728 C470.9647,62.8278 470.3087,63.3728 469.6677,63.9338 C471.2807,63.0738 475.9457,64.0708 477.4197,62.4918 C477.3407,62.5768 477.8587,61.1678 477.9607,61.0498 C476.2917,60.9168 476.3687,59.0368 475.6177,57.9848 L474.8977,57.9848 C475.3337,57.2248 474.3847,57.1548 474.1757,56.5418 C474.7887,57.4518 475.9747,57.6998 476.3387,56.3608 C475.8487,56.2508 474.9087,56.5908 474.7157,56.1818 C475.2067,56.0708 475.5597,55.8238 475.7977,55.4608 Z M466.2417,62.1328 C469.3737,62.4978 470.4657,60.8258 471.6517,59.2468 C470.4837,57.9488 468.8457,59.5978 467.6857,59.9688 C467.6847,61.1678 466.8677,61.5538 466.2417,62.1328 Z M495.0877,42.6618 C493.4497,42.6018 491.5917,42.5778 490.4017,43.0218 C491.1167,43.2068 491.3297,43.8948 492.3837,43.7428 C492.8147,42.9118 494.0627,42.8968 495.0877,42.6618 Z M489.3187,57.8048 C488.6507,57.6768 488.5457,58.1128 487.8767,57.9848 C487.9097,59.2728 489.5107,59.2748 489.3187,57.8048 Z M503.2007,229.4358 C499.4877,232.0078 493.4437,229.4128 489.4987,230.8778 C486.2307,230.0258 481.6057,231.9528 478.3207,231.0558 C478.0677,231.4058 478.2237,232.1608 477.4197,231.9588 C477.2467,232.7318 478.3067,232.2738 478.3207,232.8598 C477.9197,233.4798 476.8307,233.4138 476.1587,233.7608 C476.1747,233.8088 476.2127,233.8358 476.2357,233.8788 C452.8317,229.9698 432.2527,217.6098 417.7607,200.0458 C418.2567,200.0068 418.5137,199.7288 418.4677,199.1478 C417.8947,197.3758 416.4437,196.4828 415.4027,195.1808 C415.9947,195.5328 417.2137,197.0388 417.2047,196.8028 C416.4597,195.6868 414.8547,194.4698 414.5007,193.5578 C415.2257,194.1478 415.7507,194.4178 416.6647,194.4608 C416.0207,191.9488 415.3977,189.4638 414.8617,186.7078 C414.1097,182.8468 411.5777,180.1668 414.5007,177.3328 C415.0657,177.1148 415.3947,176.6648 416.3037,176.7928 C416.7467,175.4158 416.3347,174.4688 416.3037,173.3668 C416.2857,172.7578 416.6857,172.0968 416.6647,171.3828 C416.6387,170.4548 416.3527,169.1638 416.3037,168.3178 C416.1577,165.7718 414.9017,162.6398 415.0417,161.2878 C415.0837,160.8878 415.5807,160.1138 415.7627,159.4848 C415.9797,158.7368 415.9317,157.9098 416.1237,157.3218 C416.5397,156.0468 417.5217,155.1348 417.7467,153.8958 C418.0387,152.2828 416.9247,149.4688 416.6647,149.5688 C417.0627,149.1808 417.4117,148.6348 417.0257,147.9458 C414.2047,147.5178 413.8657,144.4658 411.6167,143.6198 C411.3967,143.5378 410.7537,143.7328 410.1747,143.6198 C409.1097,143.4118 408.6817,142.4378 407.6497,143.2588 C407.9417,140.9848 406.1587,140.7868 405.1267,139.8338 C404.5127,139.6998 404.8287,140.4988 404.4047,140.5538 C404.1267,140.2948 404.2467,139.6328 404.2257,139.1128 C403.6007,139.0148 402.8747,139.0198 402.7827,138.3908 C403.7227,137.0208 403.0557,135.9498 402.7827,134.4258 C402.2327,131.3618 402.1307,127.8768 399.5367,128.8368 C398.7117,126.5628 398.0387,122.5348 398.0957,120.5438 C397.6527,120.6048 397.5137,120.9718 397.3207,121.2828 C401.5917,98.0478 414.2317,77.7158 431.9707,63.4958 C434.1407,62.1798 436.2987,61.2298 437.9387,59.2468 C438.0247,59.1418 438.0947,59.0318 438.1667,58.9218 C442.8897,55.7168 447.9097,52.9198 453.1787,50.5808 C451.8197,51.4218 450.5797,52.3808 449.4767,53.4768 C450.1067,53.3158 449.7847,54.0648 449.6577,54.1988 C452.6277,53.3868 455.1387,51.0498 458.3097,50.0528 C459.1497,49.7878 460.1007,49.8968 461.0147,49.6918 C462.4517,49.3668 463.7747,48.5278 465.1607,48.2498 C467.2037,47.8418 469.3107,47.8828 471.2897,46.9878 C470.9737,46.8838 470.2317,47.2058 470.2087,46.8058 C471.3367,46.2478 472.6547,47.3828 473.0937,45.7248 C474.6727,45.5178 477.1917,44.8048 478.5017,43.7428 C479.4267,43.5208 480.7047,43.1818 481.8787,42.8868 C485.2627,42.5268 488.6927,42.3198 492.1707,42.3198 C497.9517,42.3198 503.6137,42.8378 509.1167,43.8188 C508.5947,43.8418 508.1707,44.0308 508.0697,44.6428 C509.0527,44.8608 509.3277,45.7898 510.0507,46.2658 C510.9367,46.2668 512.9357,46.9268 512.9367,46.6278 C511.6937,46.2428 508.9657,45.3268 510.1517,44.0168 C512.8847,44.5348 515.5827,45.1558 518.2317,45.8998 C517.3707,45.8348 517.7927,46.1838 518.1637,46.4468 C516.6117,45.8548 517.3887,45.3888 515.0987,45.7248 C516.8247,46.7038 518.9537,47.2788 520.6887,48.2498 C519.2807,47.8538 517.1847,47.1868 515.8207,47.3478 C516.1407,47.6888 517.1427,47.3488 517.0827,48.0688 C515.5507,48.0448 511.3667,47.7458 512.3967,49.1518 C511.5167,49.3078 511.1987,48.9058 510.5907,48.7908 C510.5937,48.5518 510.9087,48.6258 510.9527,48.4288 C510.5607,48.2718 509.5917,47.7608 509.1497,48.2498 C509.6217,48.5648 510.7797,49.1358 510.5907,49.5108 C509.7207,49.2048 508.9817,49.4078 508.6097,50.0528 C508.7577,50.2248 509.7757,50.4218 509.3297,50.5938 C508.4257,50.6578 507.7597,50.4818 507.1677,50.2318 C506.5487,50.6458 508.1087,50.8128 507.5277,51.1348 C505.7527,51.0448 505.3517,49.5848 503.9217,49.1518 C505.6847,49.0148 507.6727,50.3598 508.6097,48.9698 C506.4847,47.4038 501.4707,47.9368 500.1347,46.6278 C492.8517,45.5838 489.7127,51.1848 483.7307,52.5758 C483.6347,53.5618 483.2987,54.3078 483.3687,55.4608 C484.7397,56.5518 486.4747,55.3448 487.6967,54.7408 C488.4207,55.9378 489.2277,57.0538 489.6807,58.5258 C491.4227,58.7658 490.8197,57.2148 492.5647,57.8048 C493.0747,57.2338 493.0747,56.1538 493.2847,55.2808 C494.4217,55.5158 494.4397,54.6338 494.9077,54.1988 C494.3457,53.8608 493.5647,53.7388 493.4647,52.9368 C493.7977,51.7088 495.1567,51.5028 496.1707,50.9538 C495.5797,49.7498 498.6587,49.0378 499.0537,50.4138 C497.3897,50.8508 496.0437,51.6388 496.8917,53.6578 C498.5317,55.4078 501.6507,52.8538 503.3817,54.3798 C502.0967,55.2068 500.1137,54.2288 498.8737,55.0998 C499.0857,55.6078 499.7127,55.7038 500.1347,56.0018 C500.0367,56.2628 500.3457,56.9328 499.9557,56.9028 C498.9147,57.1018 498.9797,56.1968 497.9717,56.3608 C497.9327,56.5028 497.8227,56.5718 497.6127,56.5418 C497.3197,57.1808 497.3737,58.2638 497.7927,58.7068 C496.9207,58.6758 496.5787,59.1758 495.9907,59.4268 C494.1567,58.5788 492.4687,59.6428 490.7607,59.9688 C489.6517,59.3248 488.9067,59.5668 487.5157,59.7868 C488.0987,59.1828 486.6397,59.6048 486.6147,59.0658 C486.5077,58.1778 486.7887,57.6778 487.6967,57.8048 C487.3537,57.2748 487.3247,57.1148 487.5157,56.3608 C486.7687,56.6958 485.7997,56.8088 485.1727,57.2648 C485.0367,58.3618 485.4597,58.8988 485.3527,59.9688 C483.6347,60.3398 480.5617,60.3068 479.9457,62.3108 C480.1427,62.4328 480.8797,62.9118 480.4857,63.0328 C478.4467,60.9918 476.0587,65.9258 473.2747,64.2948 C473.1667,64.6688 473.4967,65.4788 473.0937,65.5568 C472.0077,65.3218 470.0737,64.8448 469.8477,66.2778 C472.9477,66.4368 473.3267,70.2318 471.1097,71.6868 C467.8047,72.0518 464.2337,70.5758 462.2767,72.2268 C462.7287,74.6408 460.8187,76.1498 460.1137,77.9968 C461.1017,78.3748 460.3697,79.4978 460.1137,80.1598 C461.3267,80.3388 462.2377,79.7108 463.1797,80.1598 C463.0607,80.8168 463.2987,81.1198 463.5377,81.4208 C465.0957,80.9968 466.2357,80.1528 468.5867,80.5198 C469.6717,79.5618 470.9937,78.8418 472.0107,77.8158 C472.1427,77.2638 471.7007,77.2858 471.8317,76.7338 C472.7417,74.3378 476.7597,75.0518 477.0597,72.0468 C478.5957,71.3188 479.6187,72.2588 481.2057,72.0468 C482.9127,71.8208 484.1427,69.5308 485.8937,71.1468 C486.0337,72.5638 487.0117,73.4048 488.2357,73.9718 C488.8227,74.2448 489.4327,74.4608 490.0227,74.7308 C490.3027,74.8598 490.5507,75.0078 490.8037,75.1728 C491.1087,75.3708 491.5337,75.4778 491.8047,75.7188 C492.0567,75.9428 492.3717,76.4118 492.5337,76.7258 C492.8467,77.3298 492.6427,78.0408 492.7387,78.6968 C493.2517,78.7948 493.4197,78.2188 493.6147,77.8708 C493.8207,77.5018 493.9647,77.3438 493.9857,76.8748 C493.9947,76.6518 493.9807,76.4498 493.9297,76.2348 C493.9097,76.1558 493.6917,75.7768 493.6967,75.7498 C493.7727,75.3458 494.4027,75.6758 494.6667,75.7508 C494.9267,75.8238 495.6997,76.1548 495.8257,75.7608 C495.9637,75.3248 495.2187,74.7228 494.9067,74.5988 C494.4167,74.4068 493.9137,74.2508 493.4307,74.0428 C492.4887,73.6348 491.6537,73.0518 490.6657,72.7518 C489.9377,72.5308 489.3887,72.0928 489.1647,71.3608 C489.0667,71.0358 487.7727,69.6498 488.4167,69.3438 C488.9067,69.1098 489.4167,68.9018 490.2207,68.9818 C490.2007,69.4298 489.8827,69.5408 490.2207,69.8848 C490.7877,69.9698 490.6277,69.3298 491.3027,69.5228 C491.9077,70.5038 492.7027,72.1768 494.1867,71.6868 C494.2337,72.7508 496.8077,72.7698 497.4317,73.8488 C497.1127,74.1918 497.2997,75.0408 497.2507,75.6528 C499.8257,76.6238 499.3817,80.6128 502.6587,80.8808 C502.9547,80.6908 502.1657,80.0658 502.1187,79.6188 C503.1587,79.9448 502.6157,78.9688 502.8407,78.8978 C503.1547,78.8458 503.8087,79.4738 503.7417,78.7178 C502.5487,77.7278 502.1177,77.0888 501.5787,75.4728 C502.2177,75.6748 502.4847,76.2498 503.5607,76.0118 C504.1357,75.8268 502.6267,75.2978 503.2007,75.1128 C504.3107,74.5758 505.8977,74.8588 506.4477,75.8318 C506.8537,74.7988 508.4687,74.9698 509.3297,74.3898 C506.6817,74.0148 508.1227,71.7008 508.0697,70.0638 C509.6457,69.9588 509.0857,67.7168 510.7727,67.7208 C511.0677,68.6268 512.7857,68.1108 513.2967,68.8018 C513.0277,69.0738 512.2697,68.8568 512.3967,69.5228 C513.6947,69.4258 513.2677,70.2478 514.0177,70.4248 C514.5057,70.3178 516.1577,69.9568 516.7217,69.3438 C516.2987,69.3138 514.7297,69.4398 514.7407,68.4418 C515.4897,67.6258 517.5577,67.1768 518.7057,67.3598 C518.5527,67.7478 517.7757,67.5128 517.6227,67.8998 C517.8887,68.0578 518.1947,68.1708 518.1637,68.6228 C518.0957,69.2158 517.4117,69.1908 517.2617,69.7028 C519.6997,71.0528 523.1077,71.4308 524.2947,74.0308 C520.9587,76.6168 515.6077,71.3808 512.2157,74.5708 L509.6917,74.5708 C509.3787,74.6808 509.7037,75.4258 509.3297,75.4728 C507.7617,75.2258 506.9317,75.7168 506.4477,76.5538 C506.9867,77.3358 507.2737,77.4268 506.8067,78.5378 C507.7547,78.9098 508.2047,79.7838 508.7897,80.5198 C510.6617,80.0368 511.8397,82.1878 512.7557,80.5198 C514.8427,80.5368 516.7797,82.1138 518.1637,80.3408 C518.7087,80.5528 519.2397,80.7778 519.7867,80.5198 C520.6007,82.5038 519.8717,85.4578 519.2457,88.2718 C519.2297,88.2918 519.2137,88.3048 519.1977,88.3218 C519.3117,89.3708 520.0117,90.0798 520.4627,91.0378 C520.4697,91.0518 520.4737,91.0638 520.4797,91.0788 C520.5357,90.9708 520.6037,90.8758 520.6887,90.7968 L520.6887,91.6668 C520.7877,92.0538 520.8087,92.4388 520.7627,92.8258 C523.0267,94.1888 524.3287,96.5118 525.7377,98.7278 C528.7297,99.5118 528.0997,103.1118 530.0637,104.8588 C531.3367,105.9918 532.7057,106.7058 533.1277,108.6438 C534.5937,109.4998 535.8717,111.5008 535.2917,113.3318 C536.3467,114.2598 536.3517,116.2388 537.0937,117.4788 C538.6787,117.6208 539.5457,117.0468 540.1587,116.2178 C543.9787,115.9418 545.0817,113.5808 548.4517,112.6098 C548.1757,112.0388 548.3887,111.8188 548.4517,111.1688 C549.7247,111.0028 550.2327,109.9318 551.5167,110.2668 C552.0767,109.8848 551.5557,109.4638 551.8777,109.0048 C552.1177,108.7048 552.8987,108.9448 553.1397,108.6438 C553.0387,107.6418 553.3117,107.0128 554.2217,107.0218 C554.1227,106.3398 553.7847,105.8958 553.8607,105.0388 C554.8377,104.3938 555.0027,102.9368 555.3027,101.6138 C553.5097,99.4018 549.4507,98.8308 549.3537,95.4838 C548.8907,96.7628 548.2677,97.8848 547.5507,98.9088 L544.8457,98.9088 C543.8887,98.3048 544.7147,95.9188 543.2237,95.8438 C542.9657,96.6198 543.4087,97.2348 543.2237,97.6478 C542.8207,96.7898 541.9587,96.3878 541.9617,95.1238 C540.1807,93.8398 538.4907,92.4658 537.8157,90.0748 C538.5417,90.3228 538.4537,89.7518 538.7167,89.5348 C539.1167,89.7948 539.5857,89.9868 540.3397,89.8948 C541.8827,92.5578 544.4217,94.2238 547.5507,95.3018 C547.9157,94.7078 548.5587,94.3888 549.3537,94.2218 C549.9807,94.7958 550.5177,95.4628 550.7957,96.3848 C554.1287,97.2158 556.8977,97.5738 560.7097,96.9258 C561.8027,98.8408 563.7227,99.9238 565.2177,101.4338 C564.8177,102.7698 566.3547,103.6378 567.3807,104.1378 C567.8177,104.0808 568.1807,103.0278 568.4627,103.4158 C570.4127,108.9988 572.8357,114.4248 575.1347,119.6418 C575.9647,121.5258 576.0737,123.6848 577.4787,125.2318 C579.0577,121.3638 577.9017,116.7428 576.9377,112.2498 C577.2077,111.7398 577.7307,111.4808 577.8377,110.8068 C577.4657,108.5078 578.9447,105.1918 578.0187,102.8758 C579.0437,102.8628 578.1737,101.9608 579.1007,102.3358 C579.2537,101.5828 578.7497,101.4828 578.7397,100.8908 C581.1147,104.0478 582.5337,108.1538 584.1487,112.0698 C584.2567,111.6388 583.9217,110.7618 584.3267,110.6288 C584.6317,111.9608 585.1187,113.4698 585.5847,114.7488 C587.5607,122.4268 588.6117,130.4728 588.6117,138.7598 C588.6117,179.7258 562.9327,214.8038 526.8277,228.7558 C523.1617,229.2148 519.3297,231.2718 515.8207,231.4188 C517.5687,230.6418 519.7967,230.3458 521.0487,229.0748 C519.8657,228.8458 519.2327,229.0098 518.1637,229.2548 C518.4497,228.5488 517.6977,228.8818 517.6227,228.5338 C517.4007,227.9498 518.2067,228.3958 517.9857,227.8118 C512.8357,227.7348 507.6957,231.0518 503.2007,229.4358 Z M515.3877,147.8501 C515.3877,147.8501 510.6697,148.2561 508.1267,147.0391 C507.8047,146.8841 507.5167,146.7071 507.2797,146.4991 C507.2797,146.4991 507.5937,146.4931 508.1387,146.4831 C511.2787,146.4201 522.2257,146.2121 526.7817,146.0461 C529.4507,145.9511 531.8427,145.7771 533.6847,145.5661 C535.5317,145.3581 536.8227,145.1161 537.2727,144.8871 C537.2727,144.8871 537.0647,146.3591 533.5577,146.9151 C533.1097,146.9831 532.6177,147.0421 532.0607,147.0761 C527.0997,147.4011 515.3877,147.8501 515.3877,147.8501 Z M508.9355,167.4429 C507.7835,170.0629 500.7415,182.9109 500.7415,182.9109 C501.5725,177.2969 505.5615,170.6239 508.1825,165.7139 C510.2565,161.8159 513.3435,153.1379 514.5315,149.7209 C514.8605,149.7089 515.1945,149.6939 515.5255,149.6759 C515.2215,155.8509 510.0055,165.0139 508.9355,167.4429 Z M494.9033,103.1294 C494.9033,103.1294 494.3933,106.3514 496.9663,106.4784 C496.9663,106.4784 488.5013,106.9004 484.7693,105.8674 C484.7693,105.8674 489.2553,103.6974 492.9713,100.3034 C492.9713,100.3034 492.8423,102.7464 494.9033,103.1294 Z M491.042,96.2154 C491.042,96.2154 488.774,98.7244 485.395,101.1394 C481.059,104.2344 477.933,106.5954 473.682,106.4634 C473.682,106.4634 482.857,100.3804 484.751,98.6744 C489.211,94.6694 490.914,95.4444 491.042,96.2154 Z M481.6631,93.6578 C483.5321,92.4008 483.4651,93.4938 483.4651,93.4938 C483.4651,93.4938 476.5791,100.4138 470.6251,104.3058 C470.6251,104.3058 473.0391,99.4498 481.6631,93.6578 Z M466.5049,94.4312 C466.5049,94.4312 464.6719,96.1662 463.9929,96.8402 C463.9929,96.8402 452.0549,95.6502 448.7409,109.8772 C448.7409,109.8772 449.8039,92.7862 466.5049,94.4312 Z M463.3223,105.9185 C463.3223,105.9185 468.6963,92.5625 479.2173,91.7885 C479.2173,91.7885 471.2393,96.6695 469.7563,99.1905 C467.8253,102.4735 467.1203,104.7905 463.3223,105.9185 Z M513.5879,126.2896 C513.5879,126.2896 506.7639,120.1096 505.9939,118.5666 C505.9939,118.5666 508.4379,119.0806 510.1119,118.8216 C510.1119,118.8216 513.0719,123.7146 513.5879,126.2896 Z M510.0859,149.6988 C510.5209,149.7478 510.9429,149.7738 511.3459,149.7858 C510.2589,152.9358 507.8829,159.4798 505.8749,162.6518 C505.8749,162.6518 506.9749,156.4828 508.9329,152.1888 C509.4259,151.0998 509.7999,150.3008 510.0859,149.6988 Z M500.3711,176.1558 C499.3631,178.8668 497.2411,185.6618 496.0021,190.7258 C494.7641,195.7938 493.0091,197.3258 493.0091,197.3258 C492.9011,194.2368 495.0241,188.2478 496.6151,182.2338 C498.2051,176.2238 503.6111,168.6058 503.6111,168.6058 C503.6111,168.6058 501.4281,173.3228 500.3711,176.1558 Z M527.3604,108.1373 C527.3604,108.1373 529.8514,112.0173 501.2804,112.9183 C501.2804,112.9183 499.9404,111.2293 494.4074,109.1683 C494.4074,109.1683 513.8464,112.9013 527.3604,108.1373 Z M514.001,165.5962 C512.949,168.3242 504.424,184.1022 501.668,189.9622 C498.914,195.8292 495.258,209.2202 495.258,209.2202 C495.843,201.4682 500.446,188.4332 506.339,178.1002 C511.295,169.4002 517.613,154.1082 519.485,149.4972 C519.888,149.4912 520.276,149.4862 520.635,149.4922 C520.675,149.4922 520.713,149.4922 520.758,149.4932 C519.246,153.6602 514.932,163.1852 514.001,165.5962 Z" transform="translate(-358 -1)"/>
</svg>
