<svg xmlns="http://www.w3.org/2000/svg" width="275" height="277" viewBox="0 0 275 277">
  <path fill="#115B2F" fill-rule="evenodd" d="M1204.7646,49.7823 L1210.8866,56.0533 L1220.0946,47.0623 C1222.9956,44.2333 1223.6246,42.8143 1223.7416,42.2203 C1223.9556,41.1243 1222.9466,39.8113 1222.0616,38.9033 C1220.3206,37.1223 1219.3706,36.9583 1218.9606,37.0253 C1218.5566,37.0853 1217.3166,37.5273 1214.4626,40.3163 L1204.7646,49.7823 Z M1223.9686,69.4563 L1215.1656,78.0503 L1190.5796,52.8643 L1209.7346,34.1673 C1214.4786,29.5333 1218.2106,26.9213 1221.1406,26.1793 C1224.2746,25.3823 1227.3196,26.4643 1230.1846,29.3983 C1232.7576,32.0353 1234.0006,34.3203 1233.9856,36.3853 C1233.9806,37.3133 1233.7126,38.3523 1233.1756,39.5163 C1236.6906,38.1333 1239.2146,39.4643 1240.8616,41.1503 L1246.7666,47.2003 L1237.9656,55.7943 L1232.9306,50.6363 C1232.0486,49.7333 1231.1196,49.4163 1230.0056,49.6483 C1228.7196,49.9133 1227.2046,50.8893 1225.5056,52.5503 L1216.2666,61.5673 L1223.9686,69.4563 Z M1166,108.6106 L1180.586,68.4606 L1188.141,71.2026 L1182.855,85.7476 L1208.381,95.0196 L1204.184,106.5816 L1178.658,97.3086 L1173.555,111.3576 L1166,108.6106 Z M1316.2891,35.4957 C1308.8971,34.3037 1304.2851,32.8367 1302.1901,31.0137 C1299.9571,29.0717 1299.2221,25.6287 1300.0071,20.7827 L1300.7541,17.1967 L1312.2481,19.0547 L1312.2111,20.1457 C1312.1671,21.4047 1312.0921,22.3767 1311.9851,23.0327 C1311.9021,23.5597 1311.8311,24.2237 1311.7751,25.0007 C1311.6811,26.1577 1313.8751,27.2057 1317.6441,27.8167 C1321.1821,28.3877 1322.2161,27.9617 1322.4471,27.8177 C1322.6621,27.6847 1323.3931,27.0317 1323.8611,24.1267 L1327.5381,1.3707 L1339.6831,3.3317 L1335.8821,26.8457 C1335.1431,31.4257 1333.3471,34.3447 1330.5451,35.5207 C1329.2401,36.0707 1327.4341,36.3457 1325.0941,36.3457 C1322.7201,36.3457 1319.7961,36.0617 1316.2891,35.4957 Z M1255.4478,15.7247 C1255.2398,16.0887 1254.7408,17.8937 1257.0768,25.9027 C1258.6998,31.4647 1260.0598,32.4987 1260.5688,32.6847 C1261.1378,32.8917 1263.3198,33.1277 1271.2488,30.8137 C1278.7628,28.6167 1280.3028,27.2157 1280.6158,26.7157 C1280.8498,26.3417 1281.4588,24.5897 1279.4718,17.7887 C1277.4778,10.9707 1276.1258,9.8897 1275.7598,9.7207 C1275.6328,9.6617 1275.3418,9.5797 1274.7218,9.5797 C1273.4538,9.5797 1270.8108,9.9227 1265.3748,11.5117 C1257.0018,13.9577 1255.6598,15.3547 1255.4478,15.7247 Z M1253.3498,40.9207 C1249.7248,39.7007 1247.0018,35.8177 1245.0268,29.0507 C1242.6998,21.0897 1242.6918,15.7457 1245.0018,12.7117 C1247.2248,9.7917 1253.4118,6.8807 1263.9168,3.8137 L1263.9158,3.8137 C1273.2858,1.0757 1279.5108,0.3457 1282.9498,1.5827 C1286.5298,2.8727 1289.2698,6.9267 1291.3298,13.9767 C1293.5708,21.6477 1293.5188,26.8327 1291.1728,29.8277 C1288.9278,32.6947 1282.7918,35.5627 1272.4148,38.5957 C1265.8798,40.5057 1260.8678,41.4527 1257.2588,41.4527 C1255.6958,41.4527 1254.3968,41.2747 1253.3498,40.9207 Z M1373.4346,29.9722 L1360.4226,36.9522 L1371.6906,44.6912 L1373.4346,29.9722 Z M1347.2546,44.0862 L1336.3726,36.6152 L1371.5686,18.0872 L1384.9596,27.2842 L1380.5426,66.9442 L1369.8086,59.5752 L1370.6466,52.5312 L1353.4706,40.7372 L1347.2546,44.0862 Z M1386.5156,79.2847 L1381.1256,68.2277 L1412.7616,52.8057 L1420.8596,69.4157 L1411.6006,89.3227 C1410.7996,91.0387 1409.8146,93.0337 1408.5886,95.4237 L1407.1496,98.1947 L1407.6486,97.9167 L1411.4486,95.9787 L1429.5156,87.1727 L1434.9056,98.2297 L1403.2676,113.6517 L1395.1726,97.0467 L1405.0736,75.3497 C1405.5586,74.2877 1406.4586,72.5717 1407.8256,70.1017 L1408.8086,68.3027 L1408.3816,68.5397 L1404.5166,70.5077 L1386.5156,79.2847 Z M1210.354,190.4732 L1188.792,199.6972 C1186.613,200.6272 1184.659,201.0932 1182.944,201.0932 C1181.356,201.0932 1179.973,200.6952 1178.804,199.8962 C1176.513,198.3312 1174.094,194.5232 1171.41,188.2532 C1168.565,181.6002 1167.393,177.0712 1167.823,174.4082 C1168.287,171.5712 1170.771,169.1722 1175.207,167.2742 L1178.573,166.0132 L1183.005,176.3692 L1182.082,176.9052 C1180.992,177.5382 1180.167,177.9732 1179.56,178.2332 C1179.036,178.4592 1178.447,178.7502 1177.817,179.0932 C1176.771,179.6362 1177.025,181.9102 1178.493,185.3432 C1179.817,188.4322 1180.67,189.1012 1180.976,189.2452 C1181.199,189.3542 1182.128,189.6062 1184.805,188.4602 L1205.676,179.5352 L1210.354,190.4732 Z M1215.6323,228.8101 L1220.1963,215.0011 L1206.3853,219.3921 L1215.6323,228.8101 Z M1183.4933,214.7901 L1220.7363,203.2661 L1231.7433,214.4761 L1219.7343,251.7001 L1210.9183,242.7241 L1213.1003,236.1141 L1199.0253,221.7811 L1192.4313,223.8951 L1183.4933,214.7901 Z M1270.2036,252.066 L1283.3966,239.764 L1300.3396,244.815 L1290.4446,278.023 L1279.0436,274.625 L1284.4066,256.628 C1284.7616,255.431 1285.2126,254.087 1285.7476,252.628 C1284.3196,254.128 1283.1936,255.264 1282.3876,256.021 L1266.1466,270.782 L1256.5656,267.925 L1250.9096,246.814 C1250.6116,245.702 1250.2716,244.096 1249.8986,242.036 C1249.5566,243.587 1249.2166,244.933 1248.8856,246.044 L1243.5226,264.041 L1232.1196,260.642 L1242.0156,227.435 L1258.6366,232.388 L1263.1096,249.906 C1263.4116,251.153 1263.7656,252.844 1264.1646,254.95 L1264.6556,257.841 L1266.6196,255.722 C1268.0086,254.195 1269.2176,252.962 1270.2036,252.066 Z M1321.8682,260.2779 L1334.7382,257.3509 L1325.3822,246.2149 L1321.8682,260.2779 Z M1315.6792,239.5949 L1330.9952,236.1129 L1356.3722,265.8789 L1344.1042,268.6669 L1339.6272,263.3409 L1320.0362,267.7919 L1318.3732,274.5159 L1305.9322,277.3449 L1315.6792,239.5949 Z M1347.1055,229.4751 L1357.3905,223.4961 L1374.8025,253.4521 L1364.5145,259.4301 L1347.1055,229.4751 Z M1406.8906,205.0894 L1408.5776,206.6804 C1412.1846,210.0754 1413.5486,213.4234 1412.6326,216.6284 C1411.7886,219.5894 1408.3896,224.2054 1402.2396,230.7384 C1395.1946,238.2174 1390.1116,241.9754 1386.7026,242.2274 C1386.5686,242.2364 1386.4306,242.2414 1386.2916,242.2414 C1382.8516,242.2424 1377.9446,239.1954 1371.3136,232.9484 C1367.1106,228.9924 1365.4886,225.0424 1366.4936,221.2074 C1367.4416,217.5904 1371.2646,212.2624 1378.1826,204.9164 C1383.2636,199.5194 1387.1316,196.4734 1390.0086,195.6074 C1393.0776,194.6784 1396.3166,195.7854 1399.6206,198.8954 L1401.0956,200.1574 L1392.8716,208.8884 L1391.3946,207.4894 C1390.2336,206.4004 1389.2416,206.0014 1388.4416,206.3114 C1387.8216,206.5504 1386.2216,207.5484 1382.4496,211.5484 C1377.2476,217.0734 1376.5696,218.9524 1376.5186,219.5034 C1376.4836,219.8934 1376.6986,221.4754 1380.9456,225.4764 C1386.8776,231.0624 1388.7576,231.5014 1389.1926,231.5034 L1389.1936,231.5034 C1389.6196,231.5034 1391.4116,231.0704 1396.6156,225.5424 C1400.4706,221.4474 1401.6486,219.5324 1401.9576,218.6474 C1402.1686,218.0314 1402.2686,217.0334 1400.6856,215.5404 L1398.6656,213.8244 L1406.8906,205.0894 Z M1416.9941,183.9888 L1421.5411,171.5968 L1407.1081,173.3928 L1416.9941,183.9888 Z M1401.6831,163.1858 L1440.4641,158.0788 L1436.1311,169.8888 L1429.2241,170.7528 L1422.3071,189.6148 L1427.0441,194.6688 L1422.6531,206.6418 L1396.2731,177.9378 L1401.6831,163.1858 Z M1324.3545,134.5914 C1324.3545,134.5914 1325.6415,135.6204 1326.5425,136.7794 C1326.8305,137.1484 1326.9545,137.6664 1326.9855,138.2004 C1326.3225,138.2264 1325.6665,138.2524 1325.0195,138.2744 C1324.3805,136.5444 1324.3545,134.5914 1324.3545,134.5914 Z M1307.4268,106.2066 C1307.4268,106.2066 1321.6808,105.1756 1323.6138,105.0496 C1325.5448,104.9196 1331.1468,103.8896 1331.6608,103.8896 C1331.6608,103.8896 1329.9888,106.7836 1326.0278,106.8846 C1318.9478,107.0566 1308.0708,108.7826 1307.4268,106.2066 Z M1333.3047,116.8267 C1336.2937,120.5927 1334.4607,125.4217 1334.4607,125.4217 C1334.1697,121.6557 1330.1147,117.5997 1330.3087,117.6987 C1330.5007,117.7917 1333.3047,116.8267 1333.3047,116.8267 Z M1331.9795,138.0435 C1331.8065,137.2265 1331.6395,135.9955 1331.5005,134.1415 C1330.9845,127.3195 1327.8965,121.6555 1323.7765,118.3075 L1328.1505,117.6635 C1328.1505,117.6635 1336.1805,127.2405 1333.3425,138.0065 C1332.8895,138.0195 1332.4345,138.0315 1331.9795,138.0435 Z M1304.5947,102.2164 C1304.5947,102.2164 1311.2937,101.5474 1315.7937,100.6104 C1320.5577,99.6104 1323.6137,99.5454 1325.7407,99.3524 C1327.9307,99.1534 1329.4437,100.2204 1329.4437,100.2204 C1329.4437,100.2204 1329.4087,101.5504 1326.0277,101.8604 C1322.1657,102.2164 1319.0797,101.9604 1315.6977,102.5374 C1312.1887,103.1404 1306.8467,104.9494 1304.5947,102.2164 Z M1262.1826,93.9761 C1262.1826,93.9761 1257.4176,96.7441 1255.9996,101.5841 C1254.6246,106.2971 1255.2306,108.8491 1255.2306,108.8491 C1255.3546,109.1791 1250.2096,99.3851 1262.1826,93.9761 Z M1314.249,114.5123 C1314.249,114.5123 1333.561,114.7033 1337.52,109.9733 C1337.52,109.9733 1332.658,118.4983 1314.249,114.5123 Z M1317.918,95.5875 C1316.276,92.3055 1312.321,89.9865 1312.321,89.9865 C1316.373,89.4085 1319.851,95.2975 1319.851,95.2975 L1317.918,95.5875 Z M1287.6348,89.7945 C1287.6348,89.7945 1285.6768,88.3145 1280.6838,89.6015 C1280.3928,89.6795 1289.1798,85.5465 1302.6628,91.5365 L1301.0568,93.2695 C1301.0568,93.2695 1299.7028,91.5365 1297.2548,92.2385 C1297.2548,92.2385 1295.2608,89.6015 1292.4628,91.8215 C1292.4628,91.8215 1291.7558,88.8265 1287.6348,89.7945 Z M1279.1094,91.2769 C1272.7064,90.2749 1267.9414,91.5369 1267.9414,91.5369 C1273.0584,85.6399 1279.1094,91.2769 1279.1094,91.2769 Z M1303.8223,98.6138 C1303.8223,98.6138 1307.5663,90.8458 1311.0633,92.5938 C1314.9233,94.5228 1315.9223,96.2928 1315.9223,96.2928 C1315.9223,96.2928 1310.7713,97.7088 1307.4923,98.4818 C1305.1113,99.0448 1304.3363,98.7388 1303.8223,98.6138 Z M1304.9795,89.858 C1304.9795,89.858 1300.2175,84.967 1281.2965,85.482 C1281.2965,85.482 1295.8405,82.778 1308.8435,88.701 C1308.8435,88.701 1305.8795,89.087 1304.9795,89.858 Z M1321.999,138.396 C1320.151,134.717 1318.819,129.312 1318.819,129.312 C1318.819,129.312 1320.558,131.245 1322.294,133.175 C1323.325,134.32 1323.451,136.636 1323.383,138.338 C1322.905,138.36 1322.446,138.379 1321.999,138.396 Z M1284.8418,123.5972 C1282.8438,123.7072 1280.9588,124.0932 1278.9738,124.0932 C1278.2428,124.0932 1268.4958,124.7052 1268.5058,124.8162 C1268.4358,123.9672 1268.5938,123.1422 1268.9078,122.3802 C1269.0068,122.1472 1271.7188,122.1492 1271.9588,122.1442 C1273.8878,122.1012 1275.8058,121.9132 1277.7268,121.7592 C1278.7378,121.6812 1279.7468,121.6102 1280.7588,121.5722 C1281.5908,121.5402 1282.2368,121.2842 1283.0478,121.1722 C1284.1568,121.0242 1285.2928,120.9812 1286.4078,120.8872 C1288.6138,120.6972 1290.8208,120.5112 1293.0288,120.3242 C1296.2718,120.0442 1299.5178,119.7672 1302.7598,119.4902 C1303.2128,119.4522 1303.6648,119.4122 1304.1128,119.3742 C1305.0478,120.0552 1305.8658,120.7922 1306.5788,121.5662 C1306.4558,121.4282 1305.2018,121.6812 1305.0268,121.6992 C1303.6588,121.8142 1302.2868,121.9302 1300.9158,122.0482 C1297.0718,122.3772 1293.2568,122.7152 1289.4378,123.1592 C1288.7278,123.2442 1287.9898,123.2262 1287.2828,123.2862 C1286.4578,123.3552 1285.6568,123.5532 1284.8418,123.5972 Z M1294.1602,132.7222 C1291.9392,132.9092 1289.7152,133.1002 1287.4972,133.2892 C1285.8522,133.4302 1284.2082,133.5702 1282.5602,133.7112 C1282.1922,133.7422 1281.0782,134.0422 1280.7332,133.8652 C1279.8802,133.4202 1278.8422,132.9942 1277.5652,132.5452 C1277.0882,132.3762 1276.6392,132.2082 1276.2092,132.0352 C1276.4192,132.1182 1276.9342,131.9732 1277.1532,131.9552 C1278.0562,131.8772 1278.9592,131.8042 1279.8662,131.7242 C1284.2412,131.3272 1288.6022,130.9772 1292.9812,130.6042 C1295.4342,130.3972 1297.8852,130.1852 1300.3362,129.9752 C1302.3082,129.8082 1304.2902,129.7832 1306.2582,129.5412 C1306.6812,129.4892 1310.5972,128.7102 1310.6992,129.0932 C1310.9182,129.8572 1311.0852,130.5882 1311.2032,131.2652 C1307.6062,131.5742 1303.9852,132.2132 1300.3852,132.2432 C1298.3172,132.2592 1296.2192,132.5452 1294.1602,132.7222 Z M1287.1025,128.358 C1283.6975,128.649 1280.3105,128.936 1276.9105,129.227 C1275.9985,129.306 1275.0885,129.384 1274.1745,129.462 C1273.7515,129.497 1272.0635,129.9 1271.7455,129.669 C1271.0485,129.163 1269.8585,128.336 1269.5675,127.494 C1269.9975,127.354 1270.5605,127.418 1271.0155,127.374 C1271.5435,127.327 1272.0665,127.258 1272.5915,127.212 C1280.5545,126.535 1288.5195,125.855 1296.4875,125.176 C1299.3475,124.93 1302.2075,124.685 1305.0695,124.443 C1305.3485,124.417 1308.3955,123.912 1308.5395,124.144 C1309.0045,124.903 1309.4065,125.667 1309.7415,126.427 C1309.6785,126.285 1306.9955,126.661 1306.7995,126.678 C1304.5575,126.871 1302.2425,127.264 1299.9985,127.264 C1297.8735,127.264 1295.6585,127.629 1293.5285,127.81 C1291.3875,127.993 1289.2455,128.176 1287.1025,128.358 Z M1272.2695,119.3511 C1272.0635,119.3581 1271.3075,119.3021 1271.1385,119.4431 C1271.9455,118.7661 1272.8295,118.2671 1273.6465,117.9931 C1285.7885,114.5841 1294.0375,114.9171 1299.6525,117.0121 C1292.7805,117.5961 1285.9135,118.3701 1279.0405,118.8701 C1277.5045,118.9801 1275.9805,119.1751 1274.4435,119.2841 C1273.7175,119.3361 1272.9945,119.3271 1272.2695,119.3511 Z M1324.3594,82.8824 C1324.5384,82.8804 1324.7354,82.8264 1324.9214,82.7454 C1324.7214,82.7824 1324.5314,82.8264 1324.3594,82.8824 Z M1321.5879,118.4332 C1321.5879,118.4332 1327.6379,127.5762 1327.8969,131.5662 C1327.8969,131.5662 1324.8079,129.7642 1324.6759,129.3802 C1324.5489,128.9922 1322.4889,121.1412 1319.5289,118.8222 C1319.5289,118.8222 1320.6859,118.6942 1321.5879,118.4332 Z M1336.6562,120.9996 C1336.7042,120.4826 1336.9092,117.2346 1334.7172,115.9876 C1334.7172,115.9876 1338.7102,115.3476 1339.3532,112.7716 C1339.3532,112.7716 1340.2502,116.5076 1338.0652,118.9516 C1336.8972,120.2216 1336.6922,120.8076 1336.6562,120.9996 Z M1337.002,137.9351 C1336.74,137.9411 1336.475,137.9471 1336.201,137.9471 C1336.238,129.2351 1340.25,120.5631 1340.25,120.5631 C1340.25,120.5631 1339.481,127.5761 1338.454,133.4971 C1337.961,136.3101 1337.43,137.4831 1337.002,137.9351 Z M1342.9561,125.1324 C1345.0151,125.9014 1339.6091,135.3004 1339.6091,135.3004 L1342.9561,125.1324 Z M1342.3584,137.9585 C1342.0384,137.9465 1341.6944,137.9405 1341.3284,137.9315 C1342.2094,135.5505 1343.9944,130.3825 1344.3054,126.8665 C1344.3054,126.8665 1345.5684,134.2345 1342.3584,137.9585 Z M1295.5586,145.3765 C1295.7486,145.3615 1296.2936,145.4145 1296.4536,145.2995 C1295.0926,146.2745 1292.2716,148.0575 1289.7446,148.0575 C1289.1796,148.0575 1288.3146,147.2145 1287.5026,146.0635 C1287.5866,146.1845 1288.8966,145.9395 1289.0446,145.9335 C1290.5286,145.8535 1291.9456,145.6875 1293.4136,145.5595 C1294.1306,145.4995 1294.8416,145.4365 1295.5586,145.3765 Z M1326.8867,46.6275 C1327.9987,47.1955 1329.0577,47.8185 1330.4907,48.0685 C1330.7727,48.0835 1326.2997,46.2235 1326.8867,46.6275 Z M1314.2422,202.3589 C1315.5352,189.5289 1325.2862,172.2029 1325.2862,172.2029 C1325.2862,172.2029 1323.4712,175.4379 1320.1932,187.2419 C1318.0802,194.8449 1316.2202,198.9249 1315.1672,200.8649 C1314.5822,201.9439 1314.2422,202.3589 1314.2422,202.3589 Z M1333.7402,174.9039 C1333.8632,170.7779 1337.2192,150.1579 1337.2192,150.1579 C1337.8512,151.9369 1336.1002,166.2219 1336.0192,166.5039 C1335.9352,166.7879 1335.2862,171.2699 1335.3312,176.1659 C1335.3752,181.0619 1330.3642,185.7309 1326.3492,191.7489 C1322.8372,197.0189 1322.1802,199.4779 1322.1802,199.4779 C1322.2582,196.6769 1323.2712,191.9779 1323.7212,191.3529 C1324.6482,190.0579 1328.2412,186.3519 1330.1622,184.0759 C1332.0872,181.7999 1333.6382,178.3429 1333.7402,174.9039 Z M1307.4727,218.6929 C1306.7487,196.5329 1314.3997,188.4949 1314.3997,188.4949 C1309.2717,197.3279 1307.4727,218.6929 1307.4727,218.6929 Z M1333.1826,149.5484 C1333.7136,149.5534 1334.2446,149.5584 1334.7676,149.5684 C1334.1246,161.3734 1327.7196,169.6264 1327.7196,169.6264 C1328.8296,166.2064 1332.2216,153.2454 1333.1826,149.5484 Z M1329.5371,150.7476 C1329.5371,150.7476 1328.0941,164.8486 1315.4621,185.5886 C1315.4621,185.5886 1328.5951,156.4576 1329.5371,150.7476 Z M1327.7354,174.1304 C1331.1254,169.5284 1331.6374,168.5894 1331.6244,168.9084 C1331.5434,171.3214 1330.8864,177.9424 1328.3554,180.8874 C1327.7624,181.5774 1324.5144,185.2984 1324.5144,185.2984 C1325.3504,181.4964 1327.7354,174.1304 1327.7354,174.1304 Z M1346.3008,141.149 C1346.3008,141.149 1345.5968,143.583 1329.8248,143.345 C1314.0558,143.11 1313.8638,141.744 1313.6078,141.86 C1313.6078,141.86 1316.5018,140.915 1320.4268,141.091 C1324.3528,141.268 1334.3328,141.624 1335.3598,141.685 C1336.3898,141.744 1345.4638,141.565 1346.3008,141.149 Z M1260.8281,107.3658 C1263.7901,100.1548 1270.9981,99.6408 1270.9981,99.6408 C1268.9401,101.0588 1268.5551,104.0168 1268.5551,104.0168 C1267.3411,103.6958 1264.6201,105.0908 1262.7521,106.1758 C1261.8961,106.7198 1261.2701,107.1348 1260.7891,107.5118 C1260.8111,107.4278 1260.8281,107.3658 1260.8281,107.3658 Z M1341.168,149.813 C1341.23,149.815 1341.29,149.824 1341.352,149.828 C1341.601,149.851 1341.834,149.875 1342.075,149.9 C1341.797,155.043 1339.647,174.397 1339.647,174.397 C1337.961,169.358 1339.869,154.3 1340.5,149.774 C1340.719,149.787 1340.952,149.797 1341.168,149.813 Z M1303.8877,222.8228 C1303.8877,222.8228 1306.2057,224.6088 1307.8107,223.0688 L1307.9097,220.1968 C1307.9097,220.1968 1311.1677,221.7988 1312.3657,220.1358 C1312.3657,220.1358 1312.2747,210.7708 1314.2237,205.1968 C1314.2237,205.1968 1315.6297,206.4138 1317.3117,205.7298 C1317.3117,205.7298 1318.1887,213.2078 1317.9067,215.3268 C1317.9067,215.3268 1318.9767,217.3868 1321.6147,215.9868 L1322.2017,201.8538 C1322.2017,201.8538 1323.4587,203.5658 1325.1007,203.3378 C1325.1007,203.3378 1326.1157,202.6618 1327.0547,200.1398 C1327.0547,200.1398 1327.0897,200.1718 1327.1407,200.2058 C1327.7687,199.0798 1334.2617,187.4858 1334.9577,184.8768 C1334.9577,184.8768 1331.5897,197.2318 1329.0317,201.3958 C1329.9037,201.8438 1330.8717,202.1638 1331.5197,201.8578 C1331.5197,201.8578 1332.4457,201.3568 1333.4027,198.1988 C1334.3987,194.9148 1334.5607,194.6198 1334.6797,194.1978 C1334.7967,193.7768 1336.8257,188.9528 1336.9457,185.5518 C1337.0617,182.1468 1339.0157,179.4508 1339.0157,179.4508 C1339.0157,179.4508 1339.8837,178.3078 1339.8217,177.1388 C1339.7587,175.9638 1339.9467,179.4798 1341.6527,184.0108 C1343.3597,188.5388 1341.9897,193.5348 1341.8687,194.2688 C1341.5997,195.9648 1344.0507,196.8958 1344.5397,194.9988 C1346.2597,188.3568 1343.5687,179.9948 1343.5687,179.9948 C1342.1627,175.0508 1343.7327,158.7448 1344.5397,151.4028 C1344.5517,150.7738 1344.5577,150.2238 1344.5657,149.7738 C1346.4847,148.8958 1345.7227,145.8238 1345.7227,145.8238 C1347.8457,144.2788 1346.9797,141.6728 1346.9797,141.6728 C1349.4567,138.8478 1347.2397,137.1648 1346.7047,136.8158 C1347.5217,135.4768 1346.4967,132.3398 1346.4967,132.3398 C1348.6217,127.1248 1344.8197,123.5258 1344.8197,123.5258 C1345.7637,119.8338 1340.9467,116.2938 1340.9467,116.2938 C1340.9467,116.2938 1342.1107,114.3018 1341.4267,111.9538 C1340.9937,110.4558 1339.3367,109.1248 1339.3367,109.0558 C1339.3857,106.1108 1336.7127,105.7898 1336.7127,105.7578 C1336.3897,102.1028 1332.1367,103.0848 1332.1367,103.0848 C1332.7987,100.5308 1330.2437,99.2988 1330.2437,99.2988 C1330.0557,94.0938 1323.5277,95.0408 1323.5277,95.0408 C1323.1477,94.4688 1321.6327,93.9068 1321.6327,93.9068 C1318.7007,87.1868 1306.9687,84.3448 1304.2217,83.7818 C1301.4807,83.2118 1282.1727,79.9018 1267.4117,86.2388 C1252.6507,92.5808 1252.2727,104.4078 1252.2727,104.4078 C1252.0847,109.8948 1255.9627,109.6108 1255.9627,109.6108 C1257.0547,111.9908 1258.9107,110.4288 1259.3197,110.0418 C1260.9207,113.6038 1264.3217,112.3588 1264.3217,112.3588 C1265.3317,112.3588 1268.7377,110.4648 1268.7377,110.4648 C1273.0267,110.4648 1277.0647,108.8258 1277.9457,109.3328 C1278.8307,109.8338 1280.8517,109.9598 1284.2577,109.8338 C1287.6617,109.7088 1292.8957,108.6548 1293.5257,108.6548 C1294.1577,108.6548 1296.3567,108.5228 1304.8227,113.4918 C1313.2667,118.4498 1315.4937,135.2368 1315.8617,138.6698 C1315.7547,138.6768 1315.6967,138.6778 1315.6967,138.6778 C1314.6347,138.7758 1312.3187,138.2938 1312.2207,140.5128 C1312.1247,142.7338 1313.6717,142.6358 1313.6717,142.6358 C1311.5447,145.9188 1314.8267,147.0758 1314.8267,147.0758 C1314.5837,147.9298 1314.8327,148.5288 1315.4247,148.9428 C1315.4707,148.9748 1315.5327,148.9958 1315.5817,149.0248 C1314.2047,152.3708 1312.3217,157.4128 1311.8157,161.0608 C1310.9867,166.9908 1309.8207,167.7988 1309.0687,168.6268 C1308.3157,169.4518 1301.4977,179.7608 1299.3297,192.9758 C1298.1487,200.1768 1296.8157,202.8938 1296.4577,204.1588 C1296.1057,205.4248 1294.2047,209.5098 1294.2757,210.4678 C1294.3477,211.4268 1295.6587,212.4288 1296.9187,211.8388 C1296.9187,211.8388 1301.0567,202.9348 1301.6817,199.7648 C1301.6817,199.7648 1301.6667,206.2578 1300.9657,208.4668 C1300.9657,208.4668 1301.0087,210.2758 1302.4517,210.4298 L1301.5047,216.8908 C1301.5047,216.8908 1301.8547,218.7118 1303.7177,218.7778 L1303.8877,222.8228 Z M1265.5757,183.9098 C1270.4807,184.1018 1284.1267,187.1918 1295.0507,160.7998 C1295.0507,160.7998 1295.3437,158.4828 1295.9217,159.6398 C1296.0007,159.8018 1296.0877,159.9988 1296.1837,160.2168 C1296.7457,161.5128 1297.6097,163.5228 1299.5177,162.8898 C1299.5727,162.8698 1299.6267,162.8488 1299.6897,162.8268 C1302.9867,161.5098 1305.3037,158.8058 1306.8467,156.1008 C1307.5917,154.7938 1310.7217,148.5548 1308.5397,144.2668 C1308.3357,143.8718 1308.0917,143.4878 1307.7917,143.1288 C1307.3147,142.5578 1306.7177,142.0858 1306.0457,141.7358 C1304.1797,140.7608 1301.7377,140.7578 1299.5587,142.2868 C1297.7297,142.4438 1295.9317,142.6548 1294.1177,142.8768 C1293.3387,142.9688 1292.7367,143.0898 1291.9247,143.1268 C1291.1687,143.1608 1290.3257,143.0938 1289.5677,143.1838 C1289.2597,143.2228 1286.1297,143.6708 1286.0307,143.4438 C1285.7877,142.8798 1285.5927,142.3208 1285.4807,141.8158 C1285.4227,141.5568 1285.3687,141.3158 1285.3147,141.0808 C1285.3527,141.2378 1292.0807,140.6348 1292.6257,140.5748 C1294.1787,140.4128 1295.7337,140.1508 1297.2927,140.0168 C1298.2227,139.9348 1299.1567,139.9348 1300.0827,139.8658 C1300.7847,139.8118 1301.4357,139.5488 1302.1227,139.5168 C1303.8667,139.4428 1305.5557,139.3508 1307.2897,139.2078 C1307.5347,139.1858 1310.6897,138.9628 1310.6997,138.8508 L1311.0447,136.0568 C1311.0267,136.2168 1306.4577,136.4628 1306.1687,136.4868 C1303.0337,136.7628 1299.9037,137.0408 1296.7697,137.3178 C1294.7947,137.4908 1292.8167,137.6668 1290.8387,137.8418 C1288.7627,138.0238 1286.6867,138.2088 1284.6047,138.3898 C1284.3437,137.6118 1284.0517,136.9498 1283.6687,136.3648 C1283.7677,136.5098 1285.5117,136.1928 1285.6927,136.1878 C1286.9067,136.1648 1288.1337,136.0338 1289.3517,136.0338 C1290.5617,136.0338 1291.7527,135.8348 1292.9417,135.6518 C1294.0967,135.4768 1295.2327,135.5058 1296.4067,135.3528 C1298.0797,135.1238 1299.8127,135.2148 1301.5087,135.0428 C1304.4997,134.7288 1307.4687,134.3308 1310.4767,134.0748 C1310.8267,134.0428 1311.1757,134.0138 1311.5267,133.9878 L1311.6387,133.9758 C1311.6607,133.4818 1311.6667,132.9988 1311.6667,132.5228 C1311.6587,128.4038 1310.8107,125.0868 1309.3567,122.4268 C1309.1587,122.0668 1308.9487,121.7198 1308.7297,121.3818 C1307.8217,119.9938 1306.7367,118.8038 1305.5077,117.7898 C1305.0067,117.3818 1304.4857,116.9968 1303.9437,116.6418 C1292.5167,109.1928 1271.9397,113.8548 1267.0037,115.1308 C1266.8137,115.1368 1266.6307,115.1438 1266.4287,115.1668 C1261.8927,115.6488 1258.3377,112.3758 1259.3367,110.1198 C1259.3367,110.1198 1250.3877,121.8588 1249.9367,130.0998 C1249.4347,139.2388 1252.6407,142.8438 1253.6687,144.2608 C1254.6997,145.6758 1255.3437,146.3188 1254.3127,148.8948 C1253.2827,151.4678 1250.2527,156.9618 1250.0677,158.4208 C1249.8867,159.8168 1249.8087,161.2518 1253.7977,162.7958 L1252.4467,165.4988 C1252.4467,165.4988 1252.5097,167.8168 1253.7977,168.5898 C1253.7977,168.5898 1253.0337,173.7298 1255.0217,173.9328 C1258.1867,174.2528 1257.9167,176.2498 1257.9167,178.1798 C1257.9167,180.1088 1259.7117,183.6778 1265.5757,183.9098 Z M1291.0087,74.9308 C1291.3257,75.7968 1290.9677,76.2518 1291.0087,77.2758 C1291.7477,77.7248 1291.7307,76.9508 1292.6317,77.0938 C1293.2037,75.5318 1292.7617,74.0518 1291.0087,74.9308 Z M1292.2717,72.4078 C1291.4677,72.6808 1291.2837,74.1648 1292.4517,74.2118 C1292.6167,73.6758 1293.2347,72.5628 1292.2717,72.4078 Z M1300.0237,78.3558 C1298.9687,79.0368 1296.9497,78.2358 1296.2367,78.8978 C1296.9577,79.9178 1298.7347,79.8858 1299.8437,80.5198 C1299.6997,79.6938 1300.5057,78.6178 1300.0237,78.3558 Z M1311.3197,81.9338 C1311.1597,82.0318 1311.0757,82.2168 1311.1087,82.4018 C1311.1397,82.5858 1311.2807,82.7328 1311.4627,82.7728 C1311.6437,82.8118 1311.8647,82.8798 1312.1067,82.9538 C1312.7057,83.1368 1313.4287,83.3578 1314.0997,83.3578 C1314.6287,83.3578 1315.1257,83.2198 1315.5027,82.8168 C1315.6247,82.6858 1315.6597,82.4968 1315.5927,82.3308 C1315.5257,82.1648 1315.3677,82.0528 1315.1897,82.0448 C1314.7567,82.0248 1314.2757,81.9488 1313.8107,81.8758 C1312.7857,81.7138 1311.9017,81.5738 1311.3197,81.9338 Z M1323.1427,82.5338 C1322.9867,82.6838 1322.9567,82.9248 1323.0727,83.1088 C1323.2957,83.4668 1323.6297,83.6968 1324.0357,83.7728 C1324.1377,83.7908 1324.2417,83.7998 1324.3437,83.7998 C1324.9227,83.7998 1325.5077,83.5238 1325.8977,83.2328 C1326.0067,83.1508 1326.0687,83.0198 1326.0747,82.8838 C1326.0807,82.7808 1326.0487,82.6768 1325.9907,82.5928 C1326.0307,82.5568 1326.0837,82.5188 1326.1277,82.4958 L1326.1277,82.4938 C1326.2687,82.4128 1326.4177,82.2758 1326.3827,82.0208 C1326.3567,81.8208 1326.2007,81.6618 1326.0017,81.6298 C1325.9047,81.6148 1325.8047,81.6378 1325.7037,81.6848 L1325.7027,81.6828 L1325.4617,81.7298 C1324.6037,81.8548 1323.7157,81.9838 1323.1427,82.5338 Z M1348.8657,168.5138 C1348.6057,169.6408 1349.2057,170.6558 1349.0447,171.7598 C1348.9827,172.1838 1348.0237,174.1298 1347.7837,174.4638 C1347.6307,174.6768 1347.1097,174.5188 1346.8817,174.8238 C1345.8627,176.1808 1347.1497,177.9268 1346.5217,179.8708 C1346.7327,179.9018 1346.7167,180.1568 1346.7017,180.4128 C1347.4437,180.5118 1347.7567,181.0408 1348.3247,181.3138 C1349.0127,180.8018 1349.9627,180.5488 1350.8487,180.2318 C1353.1427,175.3808 1356.1117,170.4278 1357.5187,165.2688 C1357.9507,165.1978 1357.4187,166.0908 1358.0597,165.8098 C1358.5177,164.1638 1358.4337,160.7088 1357.3377,159.4998 C1356.6257,160.2578 1356.6587,162.6298 1355.3547,162.2048 C1354.6607,164.7548 1352.4817,165.8208 1349.7667,166.3498 C1349.7967,167.4088 1349.0487,167.7158 1348.8657,168.5138 Z M1239.9887,64.4748 C1240.4537,63.7358 1241.8487,62.9728 1241.9717,62.4918 C1240.1617,63.9268 1237.9337,64.9428 1236.5627,66.8188 C1237.6247,66.3068 1237.2767,67.0878 1237.2847,67.3598 C1237.3967,67.0378 1238.2547,66.5448 1238.3667,66.8188 C1237.9907,66.9948 1236.9997,67.4818 1237.4647,67.8998 C1238.5097,66.8168 1240.4957,65.6188 1239.9887,64.4748 Z M1273.8817,50.5938 C1274.7807,50.6698 1273.8107,50.9798 1273.7007,51.1348 C1275.8037,51.8438 1277.9097,50.9038 1279.8317,50.4138 C1279.9727,49.9958 1279.7707,49.6028 1280.3717,49.3308 C1278.5997,49.5198 1277.7097,49.4928 1276.2267,49.8718 C1276.2587,49.4788 1276.0787,49.2988 1275.6857,49.3308 C1275.4117,49.5978 1274.8947,49.6218 1274.4217,49.6918 C1274.1437,50.3328 1275.0337,49.8008 1274.9617,50.2318 C1274.8377,50.5888 1273.9567,50.1878 1273.8817,50.5938 Z M1283.7977,55.4608 C1281.7487,55.1778 1280.0247,56.9328 1280.3717,58.5258 C1280.3177,58.3068 1280.8937,57.9028 1280.9127,58.3448 C1280.9107,58.7038 1280.4217,58.5748 1280.5507,59.0658 C1281.7747,58.8198 1282.4557,60.0348 1281.4547,60.5098 C1280.8857,60.5968 1280.8177,60.1838 1280.1917,60.3288 C1279.9307,60.7788 1279.7547,61.0358 1280.0107,61.5898 C1279.5877,61.7658 1278.8667,61.6488 1278.9307,62.3108 C1279.4087,62.3148 1279.9917,62.2108 1280.0107,62.6728 C1278.9647,62.8278 1278.3087,63.3728 1277.6677,63.9338 C1279.2807,63.0738 1283.9457,64.0708 1285.4197,62.4918 C1285.3407,62.5768 1285.8587,61.1678 1285.9607,61.0498 C1284.2917,60.9168 1284.3687,59.0368 1283.6177,57.9848 L1282.8977,57.9848 C1283.3337,57.2248 1282.3847,57.1548 1282.1757,56.5418 C1282.7887,57.4518 1283.9747,57.6998 1284.3387,56.3608 C1283.8487,56.2508 1282.9087,56.5908 1282.7157,56.1818 C1283.2067,56.0708 1283.5597,55.8238 1283.7977,55.4608 Z M1274.2417,62.1328 C1277.3737,62.4978 1278.4657,60.8258 1279.6517,59.2468 C1278.4837,57.9488 1276.8457,59.5978 1275.6857,59.9688 C1275.6847,61.1678 1274.8677,61.5538 1274.2417,62.1328 Z M1303.0877,42.6618 C1301.4497,42.6018 1299.5917,42.5778 1298.4017,43.0218 C1299.1167,43.2068 1299.3297,43.8948 1300.3837,43.7428 C1300.8147,42.9118 1302.0627,42.8968 1303.0877,42.6618 Z M1297.3187,57.8048 C1296.6507,57.6768 1296.5457,58.1128 1295.8767,57.9848 C1295.9097,59.2728 1297.5107,59.2748 1297.3187,57.8048 Z M1311.2007,229.4358 C1307.4877,232.0078 1301.4437,229.4128 1297.4987,230.8778 C1294.2307,230.0258 1289.6057,231.9528 1286.3207,231.0558 C1286.0677,231.4058 1286.2237,232.1608 1285.4197,231.9588 C1285.2467,232.7318 1286.3067,232.2738 1286.3207,232.8598 C1285.9197,233.4798 1284.8307,233.4138 1284.1587,233.7608 C1284.1747,233.8088 1284.2127,233.8358 1284.2357,233.8788 C1260.8317,229.9698 1240.2527,217.6098 1225.7607,200.0458 C1226.2567,200.0068 1226.5137,199.7288 1226.4677,199.1478 C1225.8947,197.3758 1224.4437,196.4828 1223.4027,195.1808 C1223.9947,195.5328 1225.2137,197.0388 1225.2047,196.8028 C1224.4597,195.6868 1222.8547,194.4698 1222.5007,193.5578 C1223.2257,194.1478 1223.7507,194.4178 1224.6647,194.4608 C1224.0207,191.9488 1223.3977,189.4638 1222.8617,186.7078 C1222.1097,182.8468 1219.5777,180.1668 1222.5007,177.3328 C1223.0657,177.1148 1223.3947,176.6648 1224.3037,176.7928 C1224.7467,175.4158 1224.3347,174.4688 1224.3037,173.3668 C1224.2857,172.7578 1224.6857,172.0968 1224.6647,171.3828 C1224.6387,170.4548 1224.3527,169.1638 1224.3037,168.3178 C1224.1577,165.7718 1222.9017,162.6398 1223.0417,161.2878 C1223.0837,160.8878 1223.5807,160.1138 1223.7627,159.4848 C1223.9797,158.7368 1223.9317,157.9098 1224.1237,157.3218 C1224.5397,156.0468 1225.5217,155.1348 1225.7467,153.8958 C1226.0387,152.2828 1224.9247,149.4688 1224.6647,149.5688 C1225.0627,149.1808 1225.4117,148.6348 1225.0257,147.9458 C1222.2047,147.5178 1221.8657,144.4658 1219.6167,143.6198 C1219.3967,143.5378 1218.7537,143.7328 1218.1747,143.6198 C1217.1097,143.4118 1216.6817,142.4378 1215.6497,143.2588 C1215.9417,140.9848 1214.1587,140.7868 1213.1267,139.8338 C1212.5127,139.6998 1212.8287,140.4988 1212.4047,140.5538 C1212.1267,140.2948 1212.2467,139.6328 1212.2257,139.1128 C1211.6007,139.0148 1210.8747,139.0198 1210.7827,138.3908 C1211.7227,137.0208 1211.0557,135.9498 1210.7827,134.4258 C1210.2327,131.3618 1210.1307,127.8768 1207.5367,128.8368 C1206.7117,126.5628 1206.0387,122.5348 1206.0957,120.5438 C1205.6527,120.6048 1205.5137,120.9718 1205.3207,121.2828 C1209.5917,98.0478 1222.2317,77.7158 1239.9707,63.4958 C1242.1407,62.1798 1244.2987,61.2298 1245.9387,59.2468 C1246.0247,59.1418 1246.0947,59.0318 1246.1667,58.9218 C1250.8897,55.7168 1255.9097,52.9198 1261.1787,50.5808 C1259.8197,51.4218 1258.5797,52.3808 1257.4767,53.4768 C1258.1067,53.3158 1257.7847,54.0648 1257.6577,54.1988 C1260.6277,53.3868 1263.1387,51.0498 1266.3097,50.0528 C1267.1497,49.7878 1268.1007,49.8968 1269.0147,49.6918 C1270.4517,49.3668 1271.7747,48.5278 1273.1607,48.2498 C1275.2037,47.8418 1277.3107,47.8828 1279.2897,46.9878 C1278.9737,46.8838 1278.2317,47.2058 1278.2087,46.8058 C1279.3367,46.2478 1280.6547,47.3828 1281.0937,45.7248 C1282.6727,45.5178 1285.1917,44.8048 1286.5017,43.7428 C1287.4267,43.5208 1288.7047,43.1818 1289.8787,42.8868 C1293.2627,42.5268 1296.6927,42.3198 1300.1707,42.3198 C1305.9517,42.3198 1311.6137,42.8378 1317.1167,43.8188 C1316.5947,43.8418 1316.1707,44.0308 1316.0697,44.6428 C1317.0527,44.8608 1317.3277,45.7898 1318.0507,46.2658 C1318.9367,46.2668 1320.9357,46.9268 1320.9367,46.6278 C1319.6937,46.2428 1316.9657,45.3268 1318.1517,44.0168 C1320.8847,44.5348 1323.5827,45.1558 1326.2317,45.8998 C1325.3707,45.8348 1325.7927,46.1838 1326.1637,46.4468 C1324.6117,45.8548 1325.3887,45.3888 1323.0987,45.7248 C1324.8247,46.7038 1326.9537,47.2788 1328.6887,48.2498 C1327.2807,47.8538 1325.1847,47.1868 1323.8207,47.3478 C1324.1407,47.6888 1325.1427,47.3488 1325.0827,48.0688 C1323.5507,48.0448 1319.3667,47.7458 1320.3967,49.1518 C1319.5167,49.3078 1319.1987,48.9058 1318.5907,48.7908 C1318.5937,48.5518 1318.9087,48.6258 1318.9527,48.4288 C1318.5607,48.2718 1317.5917,47.7608 1317.1497,48.2498 C1317.6217,48.5648 1318.7797,49.1358 1318.5907,49.5108 C1317.7207,49.2048 1316.9817,49.4078 1316.6097,50.0528 C1316.7577,50.2248 1317.7757,50.4218 1317.3297,50.5938 C1316.4257,50.6578 1315.7597,50.4818 1315.1677,50.2318 C1314.5487,50.6458 1316.1087,50.8128 1315.5277,51.1348 C1313.7527,51.0448 1313.3517,49.5848 1311.9217,49.1518 C1313.6847,49.0148 1315.6727,50.3598 1316.6097,48.9698 C1314.4847,47.4038 1309.4707,47.9368 1308.1347,46.6278 C1300.8517,45.5838 1297.7127,51.1848 1291.7307,52.5758 C1291.6347,53.5618 1291.2987,54.3078 1291.3687,55.4608 C1292.7397,56.5518 1294.4747,55.3448 1295.6967,54.7408 C1296.4207,55.9378 1297.2277,57.0538 1297.6807,58.5258 C1299.4227,58.7658 1298.8197,57.2148 1300.5647,57.8048 C1301.0747,57.2338 1301.0747,56.1538 1301.2847,55.2808 C1302.4217,55.5158 1302.4397,54.6338 1302.9077,54.1988 C1302.3457,53.8608 1301.5647,53.7388 1301.4647,52.9368 C1301.7977,51.7088 1303.1567,51.5028 1304.1707,50.9538 C1303.5797,49.7498 1306.6587,49.0378 1307.0537,50.4138 C1305.3897,50.8508 1304.0437,51.6388 1304.8917,53.6578 C1306.5317,55.4078 1309.6507,52.8538 1311.3817,54.3798 C1310.0967,55.2068 1308.1137,54.2288 1306.8737,55.0998 C1307.0857,55.6078 1307.7127,55.7038 1308.1347,56.0018 C1308.0367,56.2628 1308.3457,56.9328 1307.9557,56.9028 C1306.9147,57.1018 1306.9797,56.1968 1305.9717,56.3608 C1305.9327,56.5028 1305.8227,56.5718 1305.6127,56.5418 C1305.3197,57.1808 1305.3737,58.2638 1305.7927,58.7068 C1304.9207,58.6758 1304.5787,59.1758 1303.9907,59.4268 C1302.1567,58.5788 1300.4687,59.6428 1298.7607,59.9688 C1297.6517,59.3248 1296.9067,59.5668 1295.5157,59.7868 C1296.0987,59.1828 1294.6397,59.6048 1294.6147,59.0658 C1294.5077,58.1778 1294.7887,57.6778 1295.6967,57.8048 C1295.3537,57.2748 1295.3247,57.1148 1295.5157,56.3608 C1294.7687,56.6958 1293.7997,56.8088 1293.1727,57.2648 C1293.0367,58.3618 1293.4597,58.8988 1293.3527,59.9688 C1291.6347,60.3398 1288.5617,60.3068 1287.9457,62.3108 C1288.1427,62.4328 1288.8797,62.9118 1288.4857,63.0328 C1286.4467,60.9918 1284.0587,65.9258 1281.2747,64.2948 C1281.1667,64.6688 1281.4967,65.4788 1281.0937,65.5568 C1280.0077,65.3218 1278.0737,64.8448 1277.8477,66.2778 C1280.9477,66.4368 1281.3267,70.2318 1279.1097,71.6868 C1275.8047,72.0518 1272.2337,70.5758 1270.2767,72.2268 C1270.7287,74.6408 1268.8187,76.1498 1268.1137,77.9968 C1269.1017,78.3748 1268.3697,79.4978 1268.1137,80.1598 C1269.3267,80.3388 1270.2377,79.7108 1271.1797,80.1598 C1271.0607,80.8168 1271.2987,81.1198 1271.5377,81.4208 C1273.0957,80.9968 1274.2357,80.1528 1276.5867,80.5198 C1277.6717,79.5618 1278.9937,78.8418 1280.0107,77.8158 C1280.1427,77.2638 1279.7007,77.2858 1279.8317,76.7338 C1280.7417,74.3378 1284.7597,75.0518 1285.0597,72.0468 C1286.5957,71.3188 1287.6187,72.2588 1289.2057,72.0468 C1290.9127,71.8208 1292.1427,69.5308 1293.8937,71.1468 C1294.0337,72.5638 1295.0117,73.4048 1296.2357,73.9718 C1296.8227,74.2448 1297.4327,74.4608 1298.0227,74.7308 C1298.3027,74.8598 1298.5507,75.0078 1298.8037,75.1728 C1299.1087,75.3708 1299.5337,75.4778 1299.8047,75.7188 C1300.0567,75.9428 1300.3717,76.4118 1300.5337,76.7258 C1300.8467,77.3298 1300.6427,78.0408 1300.7387,78.6968 C1301.2517,78.7948 1301.4197,78.2188 1301.6147,77.8708 C1301.8207,77.5018 1301.9647,77.3438 1301.9857,76.8748 C1301.9947,76.6518 1301.9807,76.4498 1301.9297,76.2348 C1301.9097,76.1558 1301.6917,75.7768 1301.6967,75.7498 C1301.7727,75.3458 1302.4027,75.6758 1302.6667,75.7508 C1302.9267,75.8238 1303.6997,76.1548 1303.8257,75.7608 C1303.9637,75.3248 1303.2187,74.7228 1302.9067,74.5988 C1302.4167,74.4068 1301.9137,74.2508 1301.4307,74.0428 C1300.4887,73.6348 1299.6537,73.0518 1298.6657,72.7518 C1297.9377,72.5308 1297.3887,72.0928 1297.1647,71.3608 C1297.0667,71.0358 1295.7727,69.6498 1296.4167,69.3438 C1296.9067,69.1098 1297.4167,68.9018 1298.2207,68.9818 C1298.2007,69.4298 1297.8827,69.5408 1298.2207,69.8848 C1298.7877,69.9698 1298.6277,69.3298 1299.3027,69.5228 C1299.9077,70.5038 1300.7027,72.1768 1302.1867,71.6868 C1302.2337,72.7508 1304.8077,72.7698 1305.4317,73.8488 C1305.1127,74.1918 1305.2997,75.0408 1305.2507,75.6528 C1307.8257,76.6238 1307.3817,80.6128 1310.6587,80.8808 C1310.9547,80.6908 1310.1657,80.0658 1310.1187,79.6188 C1311.1587,79.9448 1310.6157,78.9688 1310.8407,78.8978 C1311.1547,78.8458 1311.8087,79.4738 1311.7417,78.7178 C1310.5487,77.7278 1310.1177,77.0888 1309.5787,75.4728 C1310.2177,75.6748 1310.4847,76.2498 1311.5607,76.0118 C1312.1357,75.8268 1310.6267,75.2978 1311.2007,75.1128 C1312.3107,74.5758 1313.8977,74.8588 1314.4477,75.8318 C1314.8537,74.7988 1316.4687,74.9698 1317.3297,74.3898 C1314.6817,74.0148 1316.1227,71.7008 1316.0697,70.0638 C1317.6457,69.9588 1317.0857,67.7168 1318.7727,67.7208 C1319.0677,68.6268 1320.7857,68.1108 1321.2967,68.8018 C1321.0277,69.0738 1320.2697,68.8568 1320.3967,69.5228 C1321.6947,69.4258 1321.2677,70.2478 1322.0177,70.4248 C1322.5057,70.3178 1324.1577,69.9568 1324.7217,69.3438 C1324.2987,69.3138 1322.7297,69.4398 1322.7407,68.4418 C1323.4897,67.6258 1325.5577,67.1768 1326.7057,67.3598 C1326.5527,67.7478 1325.7757,67.5128 1325.6227,67.8998 C1325.8887,68.0578 1326.1947,68.1708 1326.1637,68.6228 C1326.0957,69.2158 1325.4117,69.1908 1325.2617,69.7028 C1327.6997,71.0528 1331.1077,71.4308 1332.2947,74.0308 C1328.9587,76.6168 1323.6077,71.3808 1320.2157,74.5708 L1317.6917,74.5708 C1317.3787,74.6808 1317.7037,75.4258 1317.3297,75.4728 C1315.7617,75.2258 1314.9317,75.7168 1314.4477,76.5538 C1314.9867,77.3358 1315.2737,77.4268 1314.8067,78.5378 C1315.7547,78.9098 1316.2047,79.7838 1316.7897,80.5198 C1318.6617,80.0368 1319.8397,82.1878 1320.7557,80.5198 C1322.8427,80.5368 1324.7797,82.1138 1326.1637,80.3408 C1326.7087,80.5528 1327.2397,80.7778 1327.7867,80.5198 C1328.6007,82.5038 1327.8717,85.4578 1327.2457,88.2718 C1327.2297,88.2918 1327.2137,88.3048 1327.1977,88.3218 C1327.3117,89.3708 1328.0117,90.0798 1328.4627,91.0378 C1328.4697,91.0518 1328.4737,91.0638 1328.4797,91.0788 C1328.5357,90.9708 1328.6037,90.8758 1328.6887,90.7968 L1328.6887,91.6668 C1328.7877,92.0538 1328.8087,92.4388 1328.7627,92.8258 C1331.0267,94.1888 1332.3287,96.5118 1333.7377,98.7278 C1336.7297,99.5118 1336.0997,103.1118 1338.0637,104.8588 C1339.3367,105.9918 1340.7057,106.7058 1341.1277,108.6438 C1342.5937,109.4998 1343.8717,111.5008 1343.2917,113.3318 C1344.3467,114.2598 1344.3517,116.2388 1345.0937,117.4788 C1346.6787,117.6208 1347.5457,117.0468 1348.1587,116.2178 C1351.9787,115.9418 1353.0817,113.5808 1356.4517,112.6098 C1356.1757,112.0388 1356.3887,111.8188 1356.4517,111.1688 C1357.7247,111.0028 1358.2327,109.9318 1359.5167,110.2668 C1360.0767,109.8848 1359.5557,109.4638 1359.8777,109.0048 C1360.1177,108.7048 1360.8987,108.9448 1361.1397,108.6438 C1361.0387,107.6418 1361.3117,107.0128 1362.2217,107.0218 C1362.1227,106.3398 1361.7847,105.8958 1361.8607,105.0388 C1362.8377,104.3938 1363.0027,102.9368 1363.3027,101.6138 C1361.5097,99.4018 1357.4507,98.8308 1357.3537,95.4838 C1356.8907,96.7628 1356.2677,97.8848 1355.5507,98.9088 L1352.8457,98.9088 C1351.8887,98.3048 1352.7147,95.9188 1351.2237,95.8438 C1350.9657,96.6198 1351.4087,97.2348 1351.2237,97.6478 C1350.8207,96.7898 1349.9587,96.3878 1349.9617,95.1238 C1348.1807,93.8398 1346.4907,92.4658 1345.8157,90.0748 C1346.5417,90.3228 1346.4537,89.7518 1346.7167,89.5348 C1347.1167,89.7948 1347.5857,89.9868 1348.3397,89.8948 C1349.8827,92.5578 1352.4217,94.2238 1355.5507,95.3018 C1355.9157,94.7078 1356.5587,94.3888 1357.3537,94.2218 C1357.9807,94.7958 1358.5177,95.4628 1358.7957,96.3848 C1362.1287,97.2158 1364.8977,97.5738 1368.7097,96.9258 C1369.8027,98.8408 1371.7227,99.9238 1373.2177,101.4338 C1372.8177,102.7698 1374.3547,103.6378 1375.3807,104.1378 C1375.8177,104.0808 1376.1807,103.0278 1376.4627,103.4158 C1378.4127,108.9988 1380.8357,114.4248 1383.1347,119.6418 C1383.9647,121.5258 1384.0737,123.6848 1385.4787,125.2318 C1387.0577,121.3638 1385.9017,116.7428 1384.9377,112.2498 C1385.2077,111.7398 1385.7307,111.4808 1385.8377,110.8068 C1385.4657,108.5078 1386.9447,105.1918 1386.0187,102.8758 C1387.0437,102.8628 1386.1737,101.9608 1387.1007,102.3358 C1387.2537,101.5828 1386.7497,101.4828 1386.7397,100.8908 C1389.1147,104.0478 1390.5337,108.1538 1392.1487,112.0698 C1392.2567,111.6388 1391.9217,110.7618 1392.3267,110.6288 C1392.6317,111.9608 1393.1187,113.4698 1393.5847,114.7488 C1395.5607,122.4268 1396.6117,130.4728 1396.6117,138.7598 C1396.6117,179.7258 1370.9327,214.8038 1334.8277,228.7558 C1331.1617,229.2148 1327.3297,231.2718 1323.8207,231.4188 C1325.5687,230.6418 1327.7967,230.3458 1329.0487,229.0748 C1327.8657,228.8458 1327.2327,229.0098 1326.1637,229.2548 C1326.4497,228.5488 1325.6977,228.8818 1325.6227,228.5338 C1325.4007,227.9498 1326.2067,228.3958 1325.9857,227.8118 C1320.8357,227.7348 1315.6957,231.0518 1311.2007,229.4358 Z M1323.3877,147.8501 C1323.3877,147.8501 1318.6697,148.2561 1316.1267,147.0391 C1315.8047,146.8841 1315.5167,146.7071 1315.2797,146.4991 C1315.2797,146.4991 1315.5937,146.4931 1316.1387,146.4831 C1319.2787,146.4201 1330.2257,146.2121 1334.7817,146.0461 C1337.4507,145.9511 1339.8427,145.7771 1341.6847,145.5661 C1343.5317,145.3581 1344.8227,145.1161 1345.2727,144.8871 C1345.2727,144.8871 1345.0647,146.3591 1341.5577,146.9151 C1341.1097,146.9831 1340.6177,147.0421 1340.0607,147.0761 C1335.0997,147.4011 1323.3877,147.8501 1323.3877,147.8501 Z M1316.9355,167.4429 C1315.7835,170.0629 1308.7415,182.9109 1308.7415,182.9109 C1309.5725,177.2969 1313.5615,170.6239 1316.1825,165.7139 C1318.2565,161.8159 1321.3435,153.1379 1322.5315,149.7209 C1322.8605,149.7089 1323.1945,149.6939 1323.5255,149.6759 C1323.2215,155.8509 1318.0055,165.0139 1316.9355,167.4429 Z M1302.9033,103.1294 C1302.9033,103.1294 1302.3933,106.3514 1304.9663,106.4784 C1304.9663,106.4784 1296.5013,106.9004 1292.7693,105.8674 C1292.7693,105.8674 1297.2553,103.6974 1300.9713,100.3034 C1300.9713,100.3034 1300.8423,102.7464 1302.9033,103.1294 Z M1299.042,96.2154 C1299.042,96.2154 1296.774,98.7244 1293.395,101.1394 C1289.059,104.2344 1285.933,106.5954 1281.682,106.4634 C1281.682,106.4634 1290.857,100.3804 1292.751,98.6744 C1297.211,94.6694 1298.914,95.4444 1299.042,96.2154 Z M1289.6631,93.6578 C1291.5321,92.4008 1291.4651,93.4938 1291.4651,93.4938 C1291.4651,93.4938 1284.5791,100.4138 1278.6251,104.3058 C1278.6251,104.3058 1281.0391,99.4498 1289.6631,93.6578 Z M1274.5049,94.4312 C1274.5049,94.4312 1272.6719,96.1662 1271.9929,96.8402 C1271.9929,96.8402 1260.0549,95.6502 1256.7409,109.8772 C1256.7409,109.8772 1257.8039,92.7862 1274.5049,94.4312 Z M1271.3223,105.9185 C1271.3223,105.9185 1276.6963,92.5625 1287.2173,91.7885 C1287.2173,91.7885 1279.2393,96.6695 1277.7563,99.1905 C1275.8253,102.4735 1275.1203,104.7905 1271.3223,105.9185 Z M1321.5879,126.2896 C1321.5879,126.2896 1314.7639,120.1096 1313.9939,118.5666 C1313.9939,118.5666 1316.4379,119.0806 1318.1119,118.8216 C1318.1119,118.8216 1321.0719,123.7146 1321.5879,126.2896 Z M1318.0859,149.6988 C1318.5209,149.7478 1318.9429,149.7738 1319.3459,149.7858 C1318.2589,152.9358 1315.8829,159.4798 1313.8749,162.6518 C1313.8749,162.6518 1314.9749,156.4828 1316.9329,152.1888 C1317.4259,151.0998 1317.7999,150.3008 1318.0859,149.6988 Z M1308.3711,176.1558 C1307.3631,178.8668 1305.2411,185.6618 1304.0021,190.7258 C1302.7641,195.7938 1301.0091,197.3258 1301.0091,197.3258 C1300.9011,194.2368 1303.0241,188.2478 1304.6151,182.2338 C1306.2051,176.2238 1311.6111,168.6058 1311.6111,168.6058 C1311.6111,168.6058 1309.4281,173.3228 1308.3711,176.1558 Z M1335.3604,108.1373 C1335.3604,108.1373 1337.8514,112.0173 1309.2804,112.9183 C1309.2804,112.9183 1307.9404,111.2293 1302.4074,109.1683 C1302.4074,109.1683 1321.8464,112.9013 1335.3604,108.1373 Z M1322.001,165.5962 C1320.949,168.3242 1312.424,184.1022 1309.668,189.9622 C1306.914,195.8292 1303.258,209.2202 1303.258,209.2202 C1303.843,201.4682 1308.446,188.4332 1314.339,178.1002 C1319.295,169.4002 1325.613,154.1082 1327.485,149.4972 C1327.888,149.4912 1328.276,149.4862 1328.635,149.4922 C1328.675,149.4922 1328.713,149.4922 1328.758,149.4932 C1327.246,153.6602 1322.932,163.1852 1322.001,165.5962 Z" transform="translate(-1166 -1)"/>
</svg>
