<svg xmlns="http://www.w3.org/2000/svg" width="275" height="277" viewBox="0 0 275 277">
  <path fill="#EC0400" fill-rule="evenodd" d="M800.7646,49.7823 L806.8866,56.0533 L816.0946,47.0623 C818.9956,44.2333 819.6246,42.8143 819.7416,42.2203 C819.9556,41.1243 818.9466,39.8113 818.0616,38.9033 C816.3206,37.1223 815.3706,36.9583 814.9606,37.0253 C814.5566,37.0853 813.3166,37.5273 810.4626,40.3163 L800.7646,49.7823 Z M819.9686,69.4563 L811.1656,78.0503 L786.5796,52.8643 L805.7346,34.1673 C810.4786,29.5333 814.2106,26.9213 817.1406,26.1793 C820.2746,25.3823 823.3196,26.4643 826.1846,29.3983 C828.7576,32.0353 830.0006,34.3203 829.9856,36.3853 C829.9806,37.3133 829.7126,38.3523 829.1756,39.5163 C832.6906,38.1333 835.2146,39.4643 836.8616,41.1503 L842.7666,47.2003 L833.9656,55.7943 L828.9306,50.6363 C828.0486,49.7333 827.1196,49.4163 826.0056,49.6483 C824.7196,49.9133 823.2046,50.8893 821.5056,52.5503 L812.2666,61.5673 L819.9686,69.4563 Z M762,108.6106 L776.586,68.4606 L784.141,71.2026 L778.855,85.7476 L804.381,95.0196 L800.184,106.5816 L774.658,97.3086 L769.555,111.3576 L762,108.6106 Z M912.2891,35.4957 C904.8971,34.3037 900.2851,32.8367 898.1901,31.0137 C895.9571,29.0717 895.2221,25.6287 896.0071,20.7827 L896.7541,17.1967 L908.2481,19.0547 L908.2111,20.1457 C908.1671,21.4047 908.0921,22.3767 907.9851,23.0327 C907.9021,23.5597 907.8311,24.2237 907.7751,25.0007 C907.6811,26.1577 909.8751,27.2057 913.6441,27.8167 C917.1821,28.3877 918.2161,27.9617 918.4471,27.8177 C918.6621,27.6847 919.3931,27.0317 919.8611,24.1267 L923.5381,1.3707 L935.6831,3.3317 L931.8821,26.8457 C931.1431,31.4257 929.3471,34.3447 926.5451,35.5207 C925.2401,36.0707 923.4341,36.3457 921.0941,36.3457 C918.7201,36.3457 915.7961,36.0617 912.2891,35.4957 Z M851.4478,15.7247 C851.2398,16.0887 850.7408,17.8937 853.0768,25.9027 C854.6998,31.4647 856.0598,32.4987 856.5688,32.6847 C857.1378,32.8917 859.3198,33.1277 867.2488,30.8137 C874.7628,28.6167 876.3028,27.2157 876.6158,26.7157 C876.8498,26.3417 877.4588,24.5897 875.4718,17.7887 C873.4778,10.9707 872.1258,9.8897 871.7598,9.7207 C871.6328,9.6617 871.3418,9.5797 870.7218,9.5797 C869.4538,9.5797 866.8108,9.9227 861.3748,11.5117 C853.0018,13.9577 851.6598,15.3547 851.4478,15.7247 Z M849.3498,40.9207 C845.7248,39.7007 843.0018,35.8177 841.0268,29.0507 C838.6998,21.0897 838.6918,15.7457 841.0018,12.7117 C843.2248,9.7917 849.4118,6.8807 859.9168,3.8137 L859.9158,3.8137 C869.2858,1.0757 875.5108,0.3457 878.9498,1.5827 C882.5298,2.8727 885.2698,6.9267 887.3298,13.9767 C889.5708,21.6477 889.5188,26.8327 887.1728,29.8277 C884.9278,32.6947 878.7918,35.5627 868.4148,38.5957 C861.8798,40.5057 856.8678,41.4527 853.2588,41.4527 C851.6958,41.4527 850.3968,41.2747 849.3498,40.9207 Z M969.4346,29.9722 L956.4226,36.9522 L967.6906,44.6912 L969.4346,29.9722 Z M943.2546,44.0862 L932.3726,36.6152 L967.5686,18.0872 L980.9596,27.2842 L976.5426,66.9442 L965.8086,59.5752 L966.6466,52.5312 L949.4706,40.7372 L943.2546,44.0862 Z M982.5156,79.2847 L977.1256,68.2277 L1008.7616,52.8057 L1016.8596,69.4157 L1007.6006,89.3227 C1006.7996,91.0387 1005.8146,93.0337 1004.5886,95.4237 L1003.1496,98.1947 L1003.6486,97.9167 L1007.4486,95.9787 L1025.5156,87.1727 L1030.9056,98.2297 L999.2676,113.6517 L991.1726,97.0467 L1001.0736,75.3497 C1001.5586,74.2877 1002.4586,72.5717 1003.8256,70.1017 L1004.8086,68.3027 L1004.3816,68.5397 L1000.5166,70.5077 L982.5156,79.2847 Z M806.354,190.4732 L784.792,199.6972 C782.613,200.6272 780.659,201.0932 778.944,201.0932 C777.356,201.0932 775.973,200.6952 774.804,199.8962 C772.513,198.3312 770.094,194.5232 767.41,188.2532 C764.565,181.6002 763.393,177.0712 763.823,174.4082 C764.287,171.5712 766.771,169.1722 771.207,167.2742 L774.573,166.0132 L779.005,176.3692 L778.082,176.9052 C776.992,177.5382 776.167,177.9732 775.56,178.2332 C775.036,178.4592 774.447,178.7502 773.817,179.0932 C772.771,179.6362 773.025,181.9102 774.493,185.3432 C775.817,188.4322 776.67,189.1012 776.976,189.2452 C777.199,189.3542 778.128,189.6062 780.805,188.4602 L801.676,179.5352 L806.354,190.4732 Z M811.6323,228.8101 L816.1963,215.0011 L802.3853,219.3921 L811.6323,228.8101 Z M779.4933,214.7901 L816.7363,203.2661 L827.7433,214.4761 L815.7343,251.7001 L806.9183,242.7241 L809.1003,236.1141 L795.0253,221.7811 L788.4313,223.8951 L779.4933,214.7901 Z M866.2036,252.066 L879.3966,239.764 L896.3396,244.815 L886.4446,278.023 L875.0436,274.625 L880.4066,256.628 C880.7616,255.431 881.2126,254.087 881.7476,252.628 C880.3196,254.128 879.1936,255.264 878.3876,256.021 L862.1466,270.782 L852.5656,267.925 L846.9096,246.814 C846.6116,245.702 846.2716,244.096 845.8986,242.036 C845.5566,243.587 845.2166,244.933 844.8856,246.044 L839.5226,264.041 L828.1196,260.642 L838.0156,227.435 L854.6366,232.388 L859.1096,249.906 C859.4116,251.153 859.7656,252.844 860.1646,254.95 L860.6556,257.841 L862.6196,255.722 C864.0086,254.195 865.2176,252.962 866.2036,252.066 Z M917.8682,260.2779 L930.7382,257.3509 L921.3822,246.2149 L917.8682,260.2779 Z M911.6792,239.5949 L926.9952,236.1129 L952.3722,265.8789 L940.1042,268.6669 L935.6272,263.3409 L916.0362,267.7919 L914.3732,274.5159 L901.9322,277.3449 L911.6792,239.5949 Z M943.1055,229.4751 L953.3905,223.4961 L970.8025,253.4521 L960.5145,259.4301 L943.1055,229.4751 Z M1002.8906,205.0894 L1004.5776,206.6804 C1008.1846,210.0754 1009.5486,213.4234 1008.6326,216.6284 C1007.7886,219.5894 1004.3896,224.2054 998.2396,230.7384 C991.1946,238.2174 986.1116,241.9754 982.7026,242.2274 C982.5686,242.2364 982.4306,242.2414 982.2916,242.2414 C978.8516,242.2424 973.9446,239.1954 967.3136,232.9484 C963.1106,228.9924 961.4886,225.0424 962.4936,221.2074 C963.4416,217.5904 967.2646,212.2624 974.1826,204.9164 C979.2636,199.5194 983.1316,196.4734 986.0086,195.6074 C989.0776,194.6784 992.3166,195.7854 995.6206,198.8954 L997.0956,200.1574 L988.8716,208.8884 L987.3946,207.4894 C986.2336,206.4004 985.2416,206.0014 984.4416,206.3114 C983.8216,206.5504 982.2216,207.5484 978.4496,211.5484 C973.2476,217.0734 972.5696,218.9524 972.5186,219.5034 C972.4836,219.8934 972.6986,221.4754 976.9456,225.4764 C982.8776,231.0624 984.7576,231.5014 985.1926,231.5034 L985.1936,231.5034 C985.6196,231.5034 987.4116,231.0704 992.6156,225.5424 C996.4706,221.4474 997.6486,219.5324 997.9576,218.6474 C998.1686,218.0314 998.2686,217.0334 996.6856,215.5404 L994.6656,213.8244 L1002.8906,205.0894 Z M1012.9941,183.9888 L1017.5411,171.5968 L1003.1081,173.3928 L1012.9941,183.9888 Z M997.6831,163.1858 L1036.4641,158.0788 L1032.1311,169.8888 L1025.2241,170.7528 L1018.3071,189.6148 L1023.0441,194.6688 L1018.6531,206.6418 L992.2731,177.9378 L997.6831,163.1858 Z M920.3545,134.5914 C920.3545,134.5914 921.6415,135.6204 922.5425,136.7794 C922.8305,137.1484 922.9545,137.6664 922.9855,138.2004 C922.3225,138.2264 921.6665,138.2524 921.0195,138.2744 C920.3805,136.5444 920.3545,134.5914 920.3545,134.5914 Z M903.4268,106.2066 C903.4268,106.2066 917.6808,105.1756 919.6138,105.0496 C921.5448,104.9196 927.1468,103.8896 927.6608,103.8896 C927.6608,103.8896 925.9888,106.7836 922.0278,106.8846 C914.9478,107.0566 904.0708,108.7826 903.4268,106.2066 Z M929.3047,116.8267 C932.2937,120.5927 930.4607,125.4217 930.4607,125.4217 C930.1697,121.6557 926.1147,117.5997 926.3087,117.6987 C926.5007,117.7917 929.3047,116.8267 929.3047,116.8267 Z M927.9795,138.0435 C927.8065,137.2265 927.6395,135.9955 927.5005,134.1415 C926.9845,127.3195 923.8965,121.6555 919.7765,118.3075 L924.1505,117.6635 C924.1505,117.6635 932.1805,127.2405 929.3425,138.0065 C928.8895,138.0195 928.4345,138.0315 927.9795,138.0435 Z M900.5947,102.2164 C900.5947,102.2164 907.2937,101.5474 911.7937,100.6104 C916.5577,99.6104 919.6137,99.5454 921.7407,99.3524 C923.9307,99.1534 925.4437,100.2204 925.4437,100.2204 C925.4437,100.2204 925.4087,101.5504 922.0277,101.8604 C918.1657,102.2164 915.0797,101.9604 911.6977,102.5374 C908.1887,103.1404 902.8467,104.9494 900.5947,102.2164 Z M858.1826,93.9761 C858.1826,93.9761 853.4176,96.7441 851.9996,101.5841 C850.6246,106.2971 851.2306,108.8491 851.2306,108.8491 C851.3546,109.1791 846.2096,99.3851 858.1826,93.9761 Z M910.249,114.5123 C910.249,114.5123 929.561,114.7033 933.52,109.9733 C933.52,109.9733 928.658,118.4983 910.249,114.5123 Z M913.918,95.5875 C912.276,92.3055 908.321,89.9865 908.321,89.9865 C912.373,89.4085 915.851,95.2975 915.851,95.2975 L913.918,95.5875 Z M883.6348,89.7945 C883.6348,89.7945 881.6768,88.3145 876.6838,89.6015 C876.3928,89.6795 885.1798,85.5465 898.6628,91.5365 L897.0568,93.2695 C897.0568,93.2695 895.7028,91.5365 893.2548,92.2385 C893.2548,92.2385 891.2608,89.6015 888.4628,91.8215 C888.4628,91.8215 887.7558,88.8265 883.6348,89.7945 Z M875.1094,91.2769 C868.7064,90.2749 863.9414,91.5369 863.9414,91.5369 C869.0584,85.6399 875.1094,91.2769 875.1094,91.2769 Z M899.8223,98.6138 C899.8223,98.6138 903.5663,90.8458 907.0633,92.5938 C910.9233,94.5228 911.9223,96.2928 911.9223,96.2928 C911.9223,96.2928 906.7713,97.7088 903.4923,98.4818 C901.1113,99.0448 900.3363,98.7388 899.8223,98.6138 Z M900.9795,89.858 C900.9795,89.858 896.2175,84.967 877.2965,85.482 C877.2965,85.482 891.8405,82.778 904.8435,88.701 C904.8435,88.701 901.8795,89.087 900.9795,89.858 Z M917.999,138.396 C916.151,134.717 914.819,129.312 914.819,129.312 C914.819,129.312 916.558,131.245 918.294,133.175 C919.325,134.32 919.451,136.636 919.383,138.338 C918.905,138.36 918.446,138.379 917.999,138.396 Z M880.8418,123.5972 C878.8438,123.7072 876.9588,124.0932 874.9738,124.0932 C874.2428,124.0932 864.4958,124.7052 864.5058,124.8162 C864.4358,123.9672 864.5938,123.1422 864.9078,122.3802 C865.0068,122.1472 867.7188,122.1492 867.9588,122.1442 C869.8878,122.1012 871.8058,121.9132 873.7268,121.7592 C874.7378,121.6812 875.7468,121.6102 876.7588,121.5722 C877.5908,121.5402 878.2368,121.2842 879.0478,121.1722 C880.1568,121.0242 881.2928,120.9812 882.4078,120.8872 C884.6138,120.6972 886.8208,120.5112 889.0288,120.3242 C892.2718,120.0442 895.5178,119.7672 898.7598,119.4902 C899.2128,119.4522 899.6648,119.4122 900.1128,119.3742 C901.0478,120.0552 901.8658,120.7922 902.5788,121.5662 C902.4558,121.4282 901.2018,121.6812 901.0268,121.6992 C899.6588,121.8142 898.2868,121.9302 896.9158,122.0482 C893.0718,122.3772 889.2568,122.7152 885.4378,123.1592 C884.7278,123.2442 883.9898,123.2262 883.2828,123.2862 C882.4578,123.3552 881.6568,123.5532 880.8418,123.5972 Z M890.1602,132.7222 C887.9392,132.9092 885.7152,133.1002 883.4972,133.2892 C881.8522,133.4302 880.2082,133.5702 878.5602,133.7112 C878.1922,133.7422 877.0782,134.0422 876.7332,133.8652 C875.8802,133.4202 874.8422,132.9942 873.5652,132.5452 C873.0882,132.3762 872.6392,132.2082 872.2092,132.0352 C872.4192,132.1182 872.9342,131.9732 873.1532,131.9552 C874.0562,131.8772 874.9592,131.8042 875.8662,131.7242 C880.2412,131.3272 884.6022,130.9772 888.9812,130.6042 C891.4342,130.3972 893.8852,130.1852 896.3362,129.9752 C898.3082,129.8082 900.2902,129.7832 902.2582,129.5412 C902.6812,129.4892 906.5972,128.7102 906.6992,129.0932 C906.9182,129.8572 907.0852,130.5882 907.2032,131.2652 C903.6062,131.5742 899.9852,132.2132 896.3852,132.2432 C894.3172,132.2592 892.2192,132.5452 890.1602,132.7222 Z M883.1025,128.358 C879.6975,128.649 876.3105,128.936 872.9105,129.227 C871.9985,129.306 871.0885,129.384 870.1745,129.462 C869.7515,129.497 868.0635,129.9 867.7455,129.669 C867.0485,129.163 865.8585,128.336 865.5675,127.494 C865.9975,127.354 866.5605,127.418 867.0155,127.374 C867.5435,127.327 868.0665,127.258 868.5915,127.212 C876.5545,126.535 884.5195,125.855 892.4875,125.176 C895.3475,124.93 898.2075,124.685 901.0695,124.443 C901.3485,124.417 904.3955,123.912 904.5395,124.144 C905.0045,124.903 905.4065,125.667 905.7415,126.427 C905.6785,126.285 902.9955,126.661 902.7995,126.678 C900.5575,126.871 898.2425,127.264 895.9985,127.264 C893.8735,127.264 891.6585,127.629 889.5285,127.81 C887.3875,127.993 885.2455,128.176 883.1025,128.358 Z M868.2695,119.3511 C868.0635,119.3581 867.3075,119.3021 867.1385,119.4431 C867.9455,118.7661 868.8295,118.2671 869.6465,117.9931 C881.7885,114.5841 890.0375,114.9171 895.6525,117.0121 C888.7805,117.5961 881.9135,118.3701 875.0405,118.8701 C873.5045,118.9801 871.9805,119.1751 870.4435,119.2841 C869.7175,119.3361 868.9945,119.3271 868.2695,119.3511 Z M920.3594,82.8824 C920.5384,82.8804 920.7354,82.8264 920.9214,82.7454 C920.7214,82.7824 920.5314,82.8264 920.3594,82.8824 Z M917.5879,118.4332 C917.5879,118.4332 923.6379,127.5762 923.8969,131.5662 C923.8969,131.5662 920.8079,129.7642 920.6759,129.3802 C920.5489,128.9922 918.4889,121.1412 915.5289,118.8222 C915.5289,118.8222 916.6859,118.6942 917.5879,118.4332 Z M932.6562,120.9996 C932.7042,120.4826 932.9092,117.2346 930.7172,115.9876 C930.7172,115.9876 934.7102,115.3476 935.3532,112.7716 C935.3532,112.7716 936.2502,116.5076 934.0652,118.9516 C932.8972,120.2216 932.6922,120.8076 932.6562,120.9996 Z M933.002,137.9351 C932.74,137.9411 932.475,137.9471 932.201,137.9471 C932.238,129.2351 936.25,120.5631 936.25,120.5631 C936.25,120.5631 935.481,127.5761 934.454,133.4971 C933.961,136.3101 933.43,137.4831 933.002,137.9351 Z M938.9561,125.1324 C941.0151,125.9014 935.6091,135.3004 935.6091,135.3004 L938.9561,125.1324 Z M938.3584,137.9585 C938.0384,137.9465 937.6944,137.9405 937.3284,137.9315 C938.2094,135.5505 939.9944,130.3825 940.3054,126.8665 C940.3054,126.8665 941.5684,134.2345 938.3584,137.9585 Z M891.5586,145.3765 C891.7486,145.3615 892.2936,145.4145 892.4536,145.2995 C891.0926,146.2745 888.2716,148.0575 885.7446,148.0575 C885.1796,148.0575 884.3146,147.2145 883.5026,146.0635 C883.5866,146.1845 884.8966,145.9395 885.0446,145.9335 C886.5286,145.8535 887.9456,145.6875 889.4136,145.5595 C890.1306,145.4995 890.8416,145.4365 891.5586,145.3765 Z M922.8867,46.6275 C923.9987,47.1955 925.0577,47.8185 926.4907,48.0685 C926.7727,48.0835 922.2997,46.2235 922.8867,46.6275 Z M910.2422,202.3589 C911.5352,189.5289 921.2862,172.2029 921.2862,172.2029 C921.2862,172.2029 919.4712,175.4379 916.1932,187.2419 C914.0802,194.8449 912.2202,198.9249 911.1672,200.8649 C910.5822,201.9439 910.2422,202.3589 910.2422,202.3589 Z M929.7402,174.9039 C929.8632,170.7779 933.2192,150.1579 933.2192,150.1579 C933.8512,151.9369 932.1002,166.2219 932.0192,166.5039 C931.9352,166.7879 931.2862,171.2699 931.3312,176.1659 C931.3752,181.0619 926.3642,185.7309 922.3492,191.7489 C918.8372,197.0189 918.1802,199.4779 918.1802,199.4779 C918.2582,196.6769 919.2712,191.9779 919.7212,191.3529 C920.6482,190.0579 924.2412,186.3519 926.1622,184.0759 C928.0872,181.7999 929.6382,178.3429 929.7402,174.9039 Z M903.4727,218.6929 C902.7487,196.5329 910.3997,188.4949 910.3997,188.4949 C905.2717,197.3279 903.4727,218.6929 903.4727,218.6929 Z M929.1826,149.5484 C929.7136,149.5534 930.2446,149.5584 930.7676,149.5684 C930.1246,161.3734 923.7196,169.6264 923.7196,169.6264 C924.8296,166.2064 928.2216,153.2454 929.1826,149.5484 Z M925.5371,150.7476 C925.5371,150.7476 924.0941,164.8486 911.4621,185.5886 C911.4621,185.5886 924.5951,156.4576 925.5371,150.7476 Z M923.7354,174.1304 C927.1254,169.5284 927.6374,168.5894 927.6244,168.9084 C927.5434,171.3214 926.8864,177.9424 924.3554,180.8874 C923.7624,181.5774 920.5144,185.2984 920.5144,185.2984 C921.3504,181.4964 923.7354,174.1304 923.7354,174.1304 Z M942.3008,141.149 C942.3008,141.149 941.5968,143.583 925.8248,143.345 C910.0558,143.11 909.8638,141.744 909.6078,141.86 C909.6078,141.86 912.5018,140.915 916.4268,141.091 C920.3528,141.268 930.3328,141.624 931.3598,141.685 C932.3898,141.744 941.4638,141.565 942.3008,141.149 Z M856.8281,107.3658 C859.7901,100.1548 866.9981,99.6408 866.9981,99.6408 C864.9401,101.0588 864.5551,104.0168 864.5551,104.0168 C863.3411,103.6958 860.6201,105.0908 858.7521,106.1758 C857.8961,106.7198 857.2701,107.1348 856.7891,107.5118 C856.8111,107.4278 856.8281,107.3658 856.8281,107.3658 Z M937.168,149.813 C937.23,149.815 937.29,149.824 937.352,149.828 C937.601,149.851 937.834,149.875 938.075,149.9 C937.797,155.043 935.647,174.397 935.647,174.397 C933.961,169.358 935.869,154.3 936.5,149.774 C936.719,149.787 936.952,149.797 937.168,149.813 Z M899.8877,222.8228 C899.8877,222.8228 902.2057,224.6088 903.8107,223.0688 L903.9097,220.1968 C903.9097,220.1968 907.1677,221.7988 908.3657,220.1358 C908.3657,220.1358 908.2747,210.7708 910.2237,205.1968 C910.2237,205.1968 911.6297,206.4138 913.3117,205.7298 C913.3117,205.7298 914.1887,213.2078 913.9067,215.3268 C913.9067,215.3268 914.9767,217.3868 917.6147,215.9868 L918.2017,201.8538 C918.2017,201.8538 919.4587,203.5658 921.1007,203.3378 C921.1007,203.3378 922.1157,202.6618 923.0547,200.1398 C923.0547,200.1398 923.0897,200.1718 923.1407,200.2058 C923.7687,199.0798 930.2617,187.4858 930.9577,184.8768 C930.9577,184.8768 927.5897,197.2318 925.0317,201.3958 C925.9037,201.8438 926.8717,202.1638 927.5197,201.8578 C927.5197,201.8578 928.4457,201.3568 929.4027,198.1988 C930.3987,194.9148 930.5607,194.6198 930.6797,194.1978 C930.7967,193.7768 932.8257,188.9528 932.9457,185.5518 C933.0617,182.1468 935.0157,179.4508 935.0157,179.4508 C935.0157,179.4508 935.8837,178.3078 935.8217,177.1388 C935.7587,175.9638 935.9467,179.4798 937.6527,184.0108 C939.3597,188.5388 937.9897,193.5348 937.8687,194.2688 C937.5997,195.9648 940.0507,196.8958 940.5397,194.9988 C942.2597,188.3568 939.5687,179.9948 939.5687,179.9948 C938.1627,175.0508 939.7327,158.7448 940.5397,151.4028 C940.5517,150.7738 940.5577,150.2238 940.5657,149.7738 C942.4847,148.8958 941.7227,145.8238 941.7227,145.8238 C943.8457,144.2788 942.9797,141.6728 942.9797,141.6728 C945.4567,138.8478 943.2397,137.1648 942.7047,136.8158 C943.5217,135.4768 942.4967,132.3398 942.4967,132.3398 C944.6217,127.1248 940.8197,123.5258 940.8197,123.5258 C941.7637,119.8338 936.9467,116.2938 936.9467,116.2938 C936.9467,116.2938 938.1107,114.3018 937.4267,111.9538 C936.9937,110.4558 935.3367,109.1248 935.3367,109.0558 C935.3857,106.1108 932.7127,105.7898 932.7127,105.7578 C932.3897,102.1028 928.1367,103.0848 928.1367,103.0848 C928.7987,100.5308 926.2437,99.2988 926.2437,99.2988 C926.0557,94.0938 919.5277,95.0408 919.5277,95.0408 C919.1477,94.4688 917.6327,93.9068 917.6327,93.9068 C914.7007,87.1868 902.9687,84.3448 900.2217,83.7818 C897.4807,83.2118 878.1727,79.9018 863.4117,86.2388 C848.6507,92.5808 848.2727,104.4078 848.2727,104.4078 C848.0847,109.8948 851.9627,109.6108 851.9627,109.6108 C853.0547,111.9908 854.9107,110.4288 855.3197,110.0418 C856.9207,113.6038 860.3217,112.3588 860.3217,112.3588 C861.3317,112.3588 864.7377,110.4648 864.7377,110.4648 C869.0267,110.4648 873.0647,108.8258 873.9457,109.3328 C874.8307,109.8338 876.8517,109.9598 880.2577,109.8338 C883.6617,109.7088 888.8957,108.6548 889.5257,108.6548 C890.1577,108.6548 892.3567,108.5228 900.8227,113.4918 C909.2667,118.4498 911.4937,135.2368 911.8617,138.6698 C911.7547,138.6768 911.6967,138.6778 911.6967,138.6778 C910.6347,138.7758 908.3187,138.2938 908.2207,140.5128 C908.1247,142.7338 909.6717,142.6358 909.6717,142.6358 C907.5447,145.9188 910.8267,147.0758 910.8267,147.0758 C910.5837,147.9298 910.8327,148.5288 911.4247,148.9428 C911.4707,148.9748 911.5327,148.9958 911.5817,149.0248 C910.2047,152.3708 908.3217,157.4128 907.8157,161.0608 C906.9867,166.9908 905.8207,167.7988 905.0687,168.6268 C904.3157,169.4518 897.4977,179.7608 895.3297,192.9758 C894.1487,200.1768 892.8157,202.8938 892.4577,204.1588 C892.1057,205.4248 890.2047,209.5098 890.2757,210.4678 C890.3477,211.4268 891.6587,212.4288 892.9187,211.8388 C892.9187,211.8388 897.0567,202.9348 897.6817,199.7648 C897.6817,199.7648 897.6667,206.2578 896.9657,208.4668 C896.9657,208.4668 897.0087,210.2758 898.4517,210.4298 L897.5047,216.8908 C897.5047,216.8908 897.8547,218.7118 899.7177,218.7778 L899.8877,222.8228 Z M861.5757,183.9098 C866.4807,184.1018 880.1267,187.1918 891.0507,160.7998 C891.0507,160.7998 891.3437,158.4828 891.9217,159.6398 C892.0007,159.8018 892.0877,159.9988 892.1837,160.2168 C892.7457,161.5128 893.6097,163.5228 895.5177,162.8898 C895.5727,162.8698 895.6267,162.8488 895.6897,162.8268 C898.9867,161.5098 901.3037,158.8058 902.8467,156.1008 C903.5917,154.7938 906.7217,148.5548 904.5397,144.2668 C904.3357,143.8718 904.0917,143.4878 903.7917,143.1288 C903.3147,142.5578 902.7177,142.0858 902.0457,141.7358 C900.1797,140.7608 897.7377,140.7578 895.5587,142.2868 C893.7297,142.4438 891.9317,142.6548 890.1177,142.8768 C889.3387,142.9688 888.7367,143.0898 887.9247,143.1268 C887.1687,143.1608 886.3257,143.0938 885.5677,143.1838 C885.2597,143.2228 882.1297,143.6708 882.0307,143.4438 C881.7877,142.8798 881.5927,142.3208 881.4807,141.8158 C881.4227,141.5568 881.3687,141.3158 881.3147,141.0808 C881.3527,141.2378 888.0807,140.6348 888.6257,140.5748 C890.1787,140.4128 891.7337,140.1508 893.2927,140.0168 C894.2227,139.9348 895.1567,139.9348 896.0827,139.8658 C896.7847,139.8118 897.4357,139.5488 898.1227,139.5168 C899.8667,139.4428 901.5557,139.3508 903.2897,139.2078 C903.5347,139.1858 906.6897,138.9628 906.6997,138.8508 L907.0447,136.0568 C907.0267,136.2168 902.4577,136.4628 902.1687,136.4868 C899.0337,136.7628 895.9037,137.0408 892.7697,137.3178 C890.7947,137.4908 888.8167,137.6668 886.8387,137.8418 C884.7627,138.0238 882.6867,138.2088 880.6047,138.3898 C880.3437,137.6118 880.0517,136.9498 879.6687,136.3648 C879.7677,136.5098 881.5117,136.1928 881.6927,136.1878 C882.9067,136.1648 884.1337,136.0338 885.3517,136.0338 C886.5617,136.0338 887.7527,135.8348 888.9417,135.6518 C890.0967,135.4768 891.2327,135.5058 892.4067,135.3528 C894.0797,135.1238 895.8127,135.2148 897.5087,135.0428 C900.4997,134.7288 903.4687,134.3308 906.4767,134.0748 C906.8267,134.0428 907.1757,134.0138 907.5267,133.9878 L907.6387,133.9758 C907.6607,133.4818 907.6667,132.9988 907.6667,132.5228 C907.6587,128.4038 906.8107,125.0868 905.3567,122.4268 C905.1587,122.0668 904.9487,121.7198 904.7297,121.3818 C903.8217,119.9938 902.7367,118.8038 901.5077,117.7898 C901.0067,117.3818 900.4857,116.9968 899.9437,116.6418 C888.5167,109.1928 867.9397,113.8548 863.0037,115.1308 C862.8137,115.1368 862.6307,115.1438 862.4287,115.1668 C857.8927,115.6488 854.3377,112.3758 855.3367,110.1198 C855.3367,110.1198 846.3877,121.8588 845.9367,130.0998 C845.4347,139.2388 848.6407,142.8438 849.6687,144.2608 C850.6997,145.6758 851.3437,146.3188 850.3127,148.8948 C849.2827,151.4678 846.2527,156.9618 846.0677,158.4208 C845.8867,159.8168 845.8087,161.2518 849.7977,162.7958 L848.4467,165.4988 C848.4467,165.4988 848.5097,167.8168 849.7977,168.5898 C849.7977,168.5898 849.0337,173.7298 851.0217,173.9328 C854.1867,174.2528 853.9167,176.2498 853.9167,178.1798 C853.9167,180.1088 855.7117,183.6778 861.5757,183.9098 Z M887.0087,74.9308 C887.3257,75.7968 886.9677,76.2518 887.0087,77.2758 C887.7477,77.7248 887.7307,76.9508 888.6317,77.0938 C889.2037,75.5318 888.7617,74.0518 887.0087,74.9308 Z M888.2717,72.4078 C887.4677,72.6808 887.2837,74.1648 888.4517,74.2118 C888.6167,73.6758 889.2347,72.5628 888.2717,72.4078 Z M896.0237,78.3558 C894.9687,79.0368 892.9497,78.2358 892.2367,78.8978 C892.9577,79.9178 894.7347,79.8858 895.8437,80.5198 C895.6997,79.6938 896.5057,78.6178 896.0237,78.3558 Z M907.3197,81.9338 C907.1597,82.0318 907.0757,82.2168 907.1087,82.4018 C907.1397,82.5858 907.2807,82.7328 907.4627,82.7728 C907.6437,82.8118 907.8647,82.8798 908.1067,82.9538 C908.7057,83.1368 909.4287,83.3578 910.0997,83.3578 C910.6287,83.3578 911.1257,83.2198 911.5027,82.8168 C911.6247,82.6858 911.6597,82.4968 911.5927,82.3308 C911.5257,82.1648 911.3677,82.0528 911.1897,82.0448 C910.7567,82.0248 910.2757,81.9488 909.8107,81.8758 C908.7857,81.7138 907.9017,81.5738 907.3197,81.9338 Z M919.1427,82.5338 C918.9867,82.6838 918.9567,82.9248 919.0727,83.1088 C919.2957,83.4668 919.6297,83.6968 920.0357,83.7728 C920.1377,83.7908 920.2417,83.7998 920.3437,83.7998 C920.9227,83.7998 921.5077,83.5238 921.8977,83.2328 C922.0067,83.1508 922.0687,83.0198 922.0747,82.8838 C922.0807,82.7808 922.0487,82.6768 921.9907,82.5928 C922.0307,82.5568 922.0837,82.5188 922.1277,82.4958 L922.1277,82.4938 C922.2687,82.4128 922.4177,82.2758 922.3827,82.0208 C922.3567,81.8208 922.2007,81.6618 922.0017,81.6298 C921.9047,81.6148 921.8047,81.6378 921.7037,81.6848 L921.7027,81.6828 L921.4617,81.7298 C920.6037,81.8548 919.7157,81.9838 919.1427,82.5338 Z M944.8657,168.5138 C944.6057,169.6408 945.2057,170.6558 945.0447,171.7598 C944.9827,172.1838 944.0237,174.1298 943.7837,174.4638 C943.6307,174.6768 943.1097,174.5188 942.8817,174.8238 C941.8627,176.1808 943.1497,177.9268 942.5217,179.8708 C942.7327,179.9018 942.7167,180.1568 942.7017,180.4128 C943.4437,180.5118 943.7567,181.0408 944.3247,181.3138 C945.0127,180.8018 945.9627,180.5488 946.8487,180.2318 C949.1427,175.3808 952.1117,170.4278 953.5187,165.2688 C953.9507,165.1978 953.4187,166.0908 954.0597,165.8098 C954.5177,164.1638 954.4337,160.7088 953.3377,159.4998 C952.6257,160.2578 952.6587,162.6298 951.3547,162.2048 C950.6607,164.7548 948.4817,165.8208 945.7667,166.3498 C945.7967,167.4088 945.0487,167.7158 944.8657,168.5138 Z M835.9887,64.4748 C836.4537,63.7358 837.8487,62.9728 837.9717,62.4918 C836.1617,63.9268 833.9337,64.9428 832.5627,66.8188 C833.6247,66.3068 833.2767,67.0878 833.2847,67.3598 C833.3967,67.0378 834.2547,66.5448 834.3667,66.8188 C833.9907,66.9948 832.9997,67.4818 833.4647,67.8998 C834.5097,66.8168 836.4957,65.6188 835.9887,64.4748 Z M869.8817,50.5938 C870.7807,50.6698 869.8107,50.9798 869.7007,51.1348 C871.8037,51.8438 873.9097,50.9038 875.8317,50.4138 C875.9727,49.9958 875.7707,49.6028 876.3717,49.3308 C874.5997,49.5198 873.7097,49.4928 872.2267,49.8718 C872.2587,49.4788 872.0787,49.2988 871.6857,49.3308 C871.4117,49.5978 870.8947,49.6218 870.4217,49.6918 C870.1437,50.3328 871.0337,49.8008 870.9617,50.2318 C870.8377,50.5888 869.9567,50.1878 869.8817,50.5938 Z M879.7977,55.4608 C877.7487,55.1778 876.0247,56.9328 876.3717,58.5258 C876.3177,58.3068 876.8937,57.9028 876.9127,58.3448 C876.9107,58.7038 876.4217,58.5748 876.5507,59.0658 C877.7747,58.8198 878.4557,60.0348 877.4547,60.5098 C876.8857,60.5968 876.8177,60.1838 876.1917,60.3288 C875.9307,60.7788 875.7547,61.0358 876.0107,61.5898 C875.5877,61.7658 874.8667,61.6488 874.9307,62.3108 C875.4087,62.3148 875.9917,62.2108 876.0107,62.6728 C874.9647,62.8278 874.3087,63.3728 873.6677,63.9338 C875.2807,63.0738 879.9457,64.0708 881.4197,62.4918 C881.3407,62.5768 881.8587,61.1678 881.9607,61.0498 C880.2917,60.9168 880.3687,59.0368 879.6177,57.9848 L878.8977,57.9848 C879.3337,57.2248 878.3847,57.1548 878.1757,56.5418 C878.7887,57.4518 879.9747,57.6998 880.3387,56.3608 C879.8487,56.2508 878.9087,56.5908 878.7157,56.1818 C879.2067,56.0708 879.5597,55.8238 879.7977,55.4608 Z M870.2417,62.1328 C873.3737,62.4978 874.4657,60.8258 875.6517,59.2468 C874.4837,57.9488 872.8457,59.5978 871.6857,59.9688 C871.6847,61.1678 870.8677,61.5538 870.2417,62.1328 Z M899.0877,42.6618 C897.4497,42.6018 895.5917,42.5778 894.4017,43.0218 C895.1167,43.2068 895.3297,43.8948 896.3837,43.7428 C896.8147,42.9118 898.0627,42.8968 899.0877,42.6618 Z M893.3187,57.8048 C892.6507,57.6768 892.5457,58.1128 891.8767,57.9848 C891.9097,59.2728 893.5107,59.2748 893.3187,57.8048 Z M907.2007,229.4358 C903.4877,232.0078 897.4437,229.4128 893.4987,230.8778 C890.2307,230.0258 885.6057,231.9528 882.3207,231.0558 C882.0677,231.4058 882.2237,232.1608 881.4197,231.9588 C881.2467,232.7318 882.3067,232.2738 882.3207,232.8598 C881.9197,233.4798 880.8307,233.4138 880.1587,233.7608 C880.1747,233.8088 880.2127,233.8358 880.2357,233.8788 C856.8317,229.9698 836.2527,217.6098 821.7607,200.0458 C822.2567,200.0068 822.5137,199.7288 822.4677,199.1478 C821.8947,197.3758 820.4437,196.4828 819.4027,195.1808 C819.9947,195.5328 821.2137,197.0388 821.2047,196.8028 C820.4597,195.6868 818.8547,194.4698 818.5007,193.5578 C819.2257,194.1478 819.7507,194.4178 820.6647,194.4608 C820.0207,191.9488 819.3977,189.4638 818.8617,186.7078 C818.1097,182.8468 815.5777,180.1668 818.5007,177.3328 C819.0657,177.1148 819.3947,176.6648 820.3037,176.7928 C820.7467,175.4158 820.3347,174.4688 820.3037,173.3668 C820.2857,172.7578 820.6857,172.0968 820.6647,171.3828 C820.6387,170.4548 820.3527,169.1638 820.3037,168.3178 C820.1577,165.7718 818.9017,162.6398 819.0417,161.2878 C819.0837,160.8878 819.5807,160.1138 819.7627,159.4848 C819.9797,158.7368 819.9317,157.9098 820.1237,157.3218 C820.5397,156.0468 821.5217,155.1348 821.7467,153.8958 C822.0387,152.2828 820.9247,149.4688 820.6647,149.5688 C821.0627,149.1808 821.4117,148.6348 821.0257,147.9458 C818.2047,147.5178 817.8657,144.4658 815.6167,143.6198 C815.3967,143.5378 814.7537,143.7328 814.1747,143.6198 C813.1097,143.4118 812.6817,142.4378 811.6497,143.2588 C811.9417,140.9848 810.1587,140.7868 809.1267,139.8338 C808.5127,139.6998 808.8287,140.4988 808.4047,140.5538 C808.1267,140.2948 808.2467,139.6328 808.2257,139.1128 C807.6007,139.0148 806.8747,139.0198 806.7827,138.3908 C807.7227,137.0208 807.0557,135.9498 806.7827,134.4258 C806.2327,131.3618 806.1307,127.8768 803.5367,128.8368 C802.7117,126.5628 802.0387,122.5348 802.0957,120.5438 C801.6527,120.6048 801.5137,120.9718 801.3207,121.2828 C805.5917,98.0478 818.2317,77.7158 835.9707,63.4958 C838.1407,62.1798 840.2987,61.2298 841.9387,59.2468 C842.0247,59.1418 842.0947,59.0318 842.1667,58.9218 C846.8897,55.7168 851.9097,52.9198 857.1787,50.5808 C855.8197,51.4218 854.5797,52.3808 853.4767,53.4768 C854.1067,53.3158 853.7847,54.0648 853.6577,54.1988 C856.6277,53.3868 859.1387,51.0498 862.3097,50.0528 C863.1497,49.7878 864.1007,49.8968 865.0147,49.6918 C866.4517,49.3668 867.7747,48.5278 869.1607,48.2498 C871.2037,47.8418 873.3107,47.8828 875.2897,46.9878 C874.9737,46.8838 874.2317,47.2058 874.2087,46.8058 C875.3367,46.2478 876.6547,47.3828 877.0937,45.7248 C878.6727,45.5178 881.1917,44.8048 882.5017,43.7428 C883.4267,43.5208 884.7047,43.1818 885.8787,42.8868 C889.2627,42.5268 892.6927,42.3198 896.1707,42.3198 C901.9517,42.3198 907.6137,42.8378 913.1167,43.8188 C912.5947,43.8418 912.1707,44.0308 912.0697,44.6428 C913.0527,44.8608 913.3277,45.7898 914.0507,46.2658 C914.9367,46.2668 916.9357,46.9268 916.9367,46.6278 C915.6937,46.2428 912.9657,45.3268 914.1517,44.0168 C916.8847,44.5348 919.5827,45.1558 922.2317,45.8998 C921.3707,45.8348 921.7927,46.1838 922.1637,46.4468 C920.6117,45.8548 921.3887,45.3888 919.0987,45.7248 C920.8247,46.7038 922.9537,47.2788 924.6887,48.2498 C923.2807,47.8538 921.1847,47.1868 919.8207,47.3478 C920.1407,47.6888 921.1427,47.3488 921.0827,48.0688 C919.5507,48.0448 915.3667,47.7458 916.3967,49.1518 C915.5167,49.3078 915.1987,48.9058 914.5907,48.7908 C914.5937,48.5518 914.9087,48.6258 914.9527,48.4288 C914.5607,48.2718 913.5917,47.7608 913.1497,48.2498 C913.6217,48.5648 914.7797,49.1358 914.5907,49.5108 C913.7207,49.2048 912.9817,49.4078 912.6097,50.0528 C912.7577,50.2248 913.7757,50.4218 913.3297,50.5938 C912.4257,50.6578 911.7597,50.4818 911.1677,50.2318 C910.5487,50.6458 912.1087,50.8128 911.5277,51.1348 C909.7527,51.0448 909.3517,49.5848 907.9217,49.1518 C909.6847,49.0148 911.6727,50.3598 912.6097,48.9698 C910.4847,47.4038 905.4707,47.9368 904.1347,46.6278 C896.8517,45.5838 893.7127,51.1848 887.7307,52.5758 C887.6347,53.5618 887.2987,54.3078 887.3687,55.4608 C888.7397,56.5518 890.4747,55.3448 891.6967,54.7408 C892.4207,55.9378 893.2277,57.0538 893.6807,58.5258 C895.4227,58.7658 894.8197,57.2148 896.5647,57.8048 C897.0747,57.2338 897.0747,56.1538 897.2847,55.2808 C898.4217,55.5158 898.4397,54.6338 898.9077,54.1988 C898.3457,53.8608 897.5647,53.7388 897.4647,52.9368 C897.7977,51.7088 899.1567,51.5028 900.1707,50.9538 C899.5797,49.7498 902.6587,49.0378 903.0537,50.4138 C901.3897,50.8508 900.0437,51.6388 900.8917,53.6578 C902.5317,55.4078 905.6507,52.8538 907.3817,54.3798 C906.0967,55.2068 904.1137,54.2288 902.8737,55.0998 C903.0857,55.6078 903.7127,55.7038 904.1347,56.0018 C904.0367,56.2628 904.3457,56.9328 903.9557,56.9028 C902.9147,57.1018 902.9797,56.1968 901.9717,56.3608 C901.9327,56.5028 901.8227,56.5718 901.6127,56.5418 C901.3197,57.1808 901.3737,58.2638 901.7927,58.7068 C900.9207,58.6758 900.5787,59.1758 899.9907,59.4268 C898.1567,58.5788 896.4687,59.6428 894.7607,59.9688 C893.6517,59.3248 892.9067,59.5668 891.5157,59.7868 C892.0987,59.1828 890.6397,59.6048 890.6147,59.0658 C890.5077,58.1778 890.7887,57.6778 891.6967,57.8048 C891.3537,57.2748 891.3247,57.1148 891.5157,56.3608 C890.7687,56.6958 889.7997,56.8088 889.1727,57.2648 C889.0367,58.3618 889.4597,58.8988 889.3527,59.9688 C887.6347,60.3398 884.5617,60.3068 883.9457,62.3108 C884.1427,62.4328 884.8797,62.9118 884.4857,63.0328 C882.4467,60.9918 880.0587,65.9258 877.2747,64.2948 C877.1667,64.6688 877.4967,65.4788 877.0937,65.5568 C876.0077,65.3218 874.0737,64.8448 873.8477,66.2778 C876.9477,66.4368 877.3267,70.2318 875.1097,71.6868 C871.8047,72.0518 868.2337,70.5758 866.2767,72.2268 C866.7287,74.6408 864.8187,76.1498 864.1137,77.9968 C865.1017,78.3748 864.3697,79.4978 864.1137,80.1598 C865.3267,80.3388 866.2377,79.7108 867.1797,80.1598 C867.0607,80.8168 867.2987,81.1198 867.5377,81.4208 C869.0957,80.9968 870.2357,80.1528 872.5867,80.5198 C873.6717,79.5618 874.9937,78.8418 876.0107,77.8158 C876.1427,77.2638 875.7007,77.2858 875.8317,76.7338 C876.7417,74.3378 880.7597,75.0518 881.0597,72.0468 C882.5957,71.3188 883.6187,72.2588 885.2057,72.0468 C886.9127,71.8208 888.1427,69.5308 889.8937,71.1468 C890.0337,72.5638 891.0117,73.4048 892.2357,73.9718 C892.8227,74.2448 893.4327,74.4608 894.0227,74.7308 C894.3027,74.8598 894.5507,75.0078 894.8037,75.1728 C895.1087,75.3708 895.5337,75.4778 895.8047,75.7188 C896.0567,75.9428 896.3717,76.4118 896.5337,76.7258 C896.8467,77.3298 896.6427,78.0408 896.7387,78.6968 C897.2517,78.7948 897.4197,78.2188 897.6147,77.8708 C897.8207,77.5018 897.9647,77.3438 897.9857,76.8748 C897.9947,76.6518 897.9807,76.4498 897.9297,76.2348 C897.9097,76.1558 897.6917,75.7768 897.6967,75.7498 C897.7727,75.3458 898.4027,75.6758 898.6667,75.7508 C898.9267,75.8238 899.6997,76.1548 899.8257,75.7608 C899.9637,75.3248 899.2187,74.7228 898.9067,74.5988 C898.4167,74.4068 897.9137,74.2508 897.4307,74.0428 C896.4887,73.6348 895.6537,73.0518 894.6657,72.7518 C893.9377,72.5308 893.3887,72.0928 893.1647,71.3608 C893.0667,71.0358 891.7727,69.6498 892.4167,69.3438 C892.9067,69.1098 893.4167,68.9018 894.2207,68.9818 C894.2007,69.4298 893.8827,69.5408 894.2207,69.8848 C894.7877,69.9698 894.6277,69.3298 895.3027,69.5228 C895.9077,70.5038 896.7027,72.1768 898.1867,71.6868 C898.2337,72.7508 900.8077,72.7698 901.4317,73.8488 C901.1127,74.1918 901.2997,75.0408 901.2507,75.6528 C903.8257,76.6238 903.3817,80.6128 906.6587,80.8808 C906.9547,80.6908 906.1657,80.0658 906.1187,79.6188 C907.1587,79.9448 906.6157,78.9688 906.8407,78.8978 C907.1547,78.8458 907.8087,79.4738 907.7417,78.7178 C906.5487,77.7278 906.1177,77.0888 905.5787,75.4728 C906.2177,75.6748 906.4847,76.2498 907.5607,76.0118 C908.1357,75.8268 906.6267,75.2978 907.2007,75.1128 C908.3107,74.5758 909.8977,74.8588 910.4477,75.8318 C910.8537,74.7988 912.4687,74.9698 913.3297,74.3898 C910.6817,74.0148 912.1227,71.7008 912.0697,70.0638 C913.6457,69.9588 913.0857,67.7168 914.7727,67.7208 C915.0677,68.6268 916.7857,68.1108 917.2967,68.8018 C917.0277,69.0738 916.2697,68.8568 916.3967,69.5228 C917.6947,69.4258 917.2677,70.2478 918.0177,70.4248 C918.5057,70.3178 920.1577,69.9568 920.7217,69.3438 C920.2987,69.3138 918.7297,69.4398 918.7407,68.4418 C919.4897,67.6258 921.5577,67.1768 922.7057,67.3598 C922.5527,67.7478 921.7757,67.5128 921.6227,67.8998 C921.8887,68.0578 922.1947,68.1708 922.1637,68.6228 C922.0957,69.2158 921.4117,69.1908 921.2617,69.7028 C923.6997,71.0528 927.1077,71.4308 928.2947,74.0308 C924.9587,76.6168 919.6077,71.3808 916.2157,74.5708 L913.6917,74.5708 C913.3787,74.6808 913.7037,75.4258 913.3297,75.4728 C911.7617,75.2258 910.9317,75.7168 910.4477,76.5538 C910.9867,77.3358 911.2737,77.4268 910.8067,78.5378 C911.7547,78.9098 912.2047,79.7838 912.7897,80.5198 C914.6617,80.0368 915.8397,82.1878 916.7557,80.5198 C918.8427,80.5368 920.7797,82.1138 922.1637,80.3408 C922.7087,80.5528 923.2397,80.7778 923.7867,80.5198 C924.6007,82.5038 923.8717,85.4578 923.2457,88.2718 C923.2297,88.2918 923.2137,88.3048 923.1977,88.3218 C923.3117,89.3708 924.0117,90.0798 924.4627,91.0378 C924.4697,91.0518 924.4737,91.0638 924.4797,91.0788 C924.5357,90.9708 924.6037,90.8758 924.6887,90.7968 L924.6887,91.6668 C924.7877,92.0538 924.8087,92.4388 924.7627,92.8258 C927.0267,94.1888 928.3287,96.5118 929.7377,98.7278 C932.7297,99.5118 932.0997,103.1118 934.0637,104.8588 C935.3367,105.9918 936.7057,106.7058 937.1277,108.6438 C938.5937,109.4998 939.8717,111.5008 939.2917,113.3318 C940.3467,114.2598 940.3517,116.2388 941.0937,117.4788 C942.6787,117.6208 943.5457,117.0468 944.1587,116.2178 C947.9787,115.9418 949.0817,113.5808 952.4517,112.6098 C952.1757,112.0388 952.3887,111.8188 952.4517,111.1688 C953.7247,111.0028 954.2327,109.9318 955.5167,110.2668 C956.0767,109.8848 955.5557,109.4638 955.8777,109.0048 C956.1177,108.7048 956.8987,108.9448 957.1397,108.6438 C957.0387,107.6418 957.3117,107.0128 958.2217,107.0218 C958.1227,106.3398 957.7847,105.8958 957.8607,105.0388 C958.8377,104.3938 959.0027,102.9368 959.3027,101.6138 C957.5097,99.4018 953.4507,98.8308 953.3537,95.4838 C952.8907,96.7628 952.2677,97.8848 951.5507,98.9088 L948.8457,98.9088 C947.8887,98.3048 948.7147,95.9188 947.2237,95.8438 C946.9657,96.6198 947.4087,97.2348 947.2237,97.6478 C946.8207,96.7898 945.9587,96.3878 945.9617,95.1238 C944.1807,93.8398 942.4907,92.4658 941.8157,90.0748 C942.5417,90.3228 942.4537,89.7518 942.7167,89.5348 C943.1167,89.7948 943.5857,89.9868 944.3397,89.8948 C945.8827,92.5578 948.4217,94.2238 951.5507,95.3018 C951.9157,94.7078 952.5587,94.3888 953.3537,94.2218 C953.9807,94.7958 954.5177,95.4628 954.7957,96.3848 C958.1287,97.2158 960.8977,97.5738 964.7097,96.9258 C965.8027,98.8408 967.7227,99.9238 969.2177,101.4338 C968.8177,102.7698 970.3547,103.6378 971.3807,104.1378 C971.8177,104.0808 972.1807,103.0278 972.4627,103.4158 C974.4127,108.9988 976.8357,114.4248 979.1347,119.6418 C979.9647,121.5258 980.0737,123.6848 981.4787,125.2318 C983.0577,121.3638 981.9017,116.7428 980.9377,112.2498 C981.2077,111.7398 981.7307,111.4808 981.8377,110.8068 C981.4657,108.5078 982.9447,105.1918 982.0187,102.8758 C983.0437,102.8628 982.1737,101.9608 983.1007,102.3358 C983.2537,101.5828 982.7497,101.4828 982.7397,100.8908 C985.1147,104.0478 986.5337,108.1538 988.1487,112.0698 C988.2567,111.6388 987.9217,110.7618 988.3267,110.6288 C988.6317,111.9608 989.1187,113.4698 989.5847,114.7488 C991.5607,122.4268 992.6117,130.4728 992.6117,138.7598 C992.6117,179.7258 966.9327,214.8038 930.8277,228.7558 C927.1617,229.2148 923.3297,231.2718 919.8207,231.4188 C921.5687,230.6418 923.7967,230.3458 925.0487,229.0748 C923.8657,228.8458 923.2327,229.0098 922.1637,229.2548 C922.4497,228.5488 921.6977,228.8818 921.6227,228.5338 C921.4007,227.9498 922.2067,228.3958 921.9857,227.8118 C916.8357,227.7348 911.6957,231.0518 907.2007,229.4358 Z M919.3877,147.8501 C919.3877,147.8501 914.6697,148.2561 912.1267,147.0391 C911.8047,146.8841 911.5167,146.7071 911.2797,146.4991 C911.2797,146.4991 911.5937,146.4931 912.1387,146.4831 C915.2787,146.4201 926.2257,146.2121 930.7817,146.0461 C933.4507,145.9511 935.8427,145.7771 937.6847,145.5661 C939.5317,145.3581 940.8227,145.1161 941.2727,144.8871 C941.2727,144.8871 941.0647,146.3591 937.5577,146.9151 C937.1097,146.9831 936.6177,147.0421 936.0607,147.0761 C931.0997,147.4011 919.3877,147.8501 919.3877,147.8501 Z M912.9355,167.4429 C911.7835,170.0629 904.7415,182.9109 904.7415,182.9109 C905.5725,177.2969 909.5615,170.6239 912.1825,165.7139 C914.2565,161.8159 917.3435,153.1379 918.5315,149.7209 C918.8605,149.7089 919.1945,149.6939 919.5255,149.6759 C919.2215,155.8509 914.0055,165.0139 912.9355,167.4429 Z M898.9033,103.1294 C898.9033,103.1294 898.3933,106.3514 900.9663,106.4784 C900.9663,106.4784 892.5013,106.9004 888.7693,105.8674 C888.7693,105.8674 893.2553,103.6974 896.9713,100.3034 C896.9713,100.3034 896.8423,102.7464 898.9033,103.1294 Z M895.042,96.2154 C895.042,96.2154 892.774,98.7244 889.395,101.1394 C885.059,104.2344 881.933,106.5954 877.682,106.4634 C877.682,106.4634 886.857,100.3804 888.751,98.6744 C893.211,94.6694 894.914,95.4444 895.042,96.2154 Z M885.6631,93.6578 C887.5321,92.4008 887.4651,93.4938 887.4651,93.4938 C887.4651,93.4938 880.5791,100.4138 874.6251,104.3058 C874.6251,104.3058 877.0391,99.4498 885.6631,93.6578 Z M870.5049,94.4312 C870.5049,94.4312 868.6719,96.1662 867.9929,96.8402 C867.9929,96.8402 856.0549,95.6502 852.7409,109.8772 C852.7409,109.8772 853.8039,92.7862 870.5049,94.4312 Z M867.3223,105.9185 C867.3223,105.9185 872.6963,92.5625 883.2173,91.7885 C883.2173,91.7885 875.2393,96.6695 873.7563,99.1905 C871.8253,102.4735 871.1203,104.7905 867.3223,105.9185 Z M917.5879,126.2896 C917.5879,126.2896 910.7639,120.1096 909.9939,118.5666 C909.9939,118.5666 912.4379,119.0806 914.1119,118.8216 C914.1119,118.8216 917.0719,123.7146 917.5879,126.2896 Z M914.0859,149.6988 C914.5209,149.7478 914.9429,149.7738 915.3459,149.7858 C914.2589,152.9358 911.8829,159.4798 909.8749,162.6518 C909.8749,162.6518 910.9749,156.4828 912.9329,152.1888 C913.4259,151.0998 913.7999,150.3008 914.0859,149.6988 Z M904.3711,176.1558 C903.3631,178.8668 901.2411,185.6618 900.0021,190.7258 C898.7641,195.7938 897.0091,197.3258 897.0091,197.3258 C896.9011,194.2368 899.0241,188.2478 900.6151,182.2338 C902.2051,176.2238 907.6111,168.6058 907.6111,168.6058 C907.6111,168.6058 905.4281,173.3228 904.3711,176.1558 Z M931.3604,108.1373 C931.3604,108.1373 933.8514,112.0173 905.2804,112.9183 C905.2804,112.9183 903.9404,111.2293 898.4074,109.1683 C898.4074,109.1683 917.8464,112.9013 931.3604,108.1373 Z M918.001,165.5962 C916.949,168.3242 908.424,184.1022 905.668,189.9622 C902.914,195.8292 899.258,209.2202 899.258,209.2202 C899.843,201.4682 904.446,188.4332 910.339,178.1002 C915.295,169.4002 921.613,154.1082 923.485,149.4972 C923.888,149.4912 924.276,149.4862 924.635,149.4922 C924.675,149.4922 924.713,149.4922 924.758,149.4932 C923.246,153.6602 918.932,163.1852 918.001,165.5962 Z" transform="translate(-762 -1)"/>
</svg>
