<svg xmlns="http://www.w3.org/2000/svg" width="60" height="55" viewBox="0 0 60 55">
  <path fill="#231F20" fill-rule="evenodd" d="M59.0846422,36.4297393 C59.1827465,35.3420616 59.3085758,34.2629147 59.1827465,33.1709716 C59.0665142,32.1664692 59.093173,31.2035545 59.0547844,30.1990521 C59.0302583,29.5741706 58.8276517,29.0026066 58.8564431,28.371327 C58.886301,27.7091232 59.0483863,27.0778436 59.0451872,26.4124408 C59.0441209,26.2524882 59.1294289,25.8707346 59.0206612,25.7395735 C58.7562062,25.4228673 56.8943578,26.653436 56.6480308,26.7686019 C55.450519,27.3241706 54.2263484,27.8082938 53.0032441,28.3020142 C51.4101161,28.94609 49.7668697,29.4206161 48.2910403,30.3035545 C47.9178176,30.5338863 47.5222014,30.7194313 47.1063247,30.8601896 C46.5560877,31.1171801 46.1700687,31.4936019 45.6742157,31.8177725 C45.3884337,32.0043839 44.9554953,32.2507109 44.6078649,32.2027251 C44.592936,32.0982227 44.650519,32.0449052 44.7795474,32.0438389 C44.8328649,31.9755924 44.8861825,31.907346 44.9395,31.8390995 C44.9746896,31.4776066 44.9235048,31.1257109 44.7870119,30.785545 C44.5396185,29.7949052 44.4095237,28.7850711 44.2900924,27.7709716 C44.2303768,27.2580569 44.2538365,26.753673 44.2506375,26.2386256 C44.2495711,26.0104265 44.221846,25.7651659 44.2410403,25.5390995 C44.261301,25.2991706 44.4201872,25.0848341 44.4084574,24.8577014 C44.2421067,24.792654 44.0522962,24.8331754 43.8784811,24.8353081 C43.6886706,24.8385071 43.5063247,24.850237 43.321846,24.8587678 C43.3527702,24.850237 43.3847607,24.8417062 43.4146185,24.8331754 C43.9947133,24.6881517 44.6025332,24.5793839 45.1325095,24.3095972 C45.1986232,24.2498815 45.2658033,24.1890995 45.3329834,24.1283175 C45.5665142,24.0195498 45.8096422,23.9353081 46.061301,23.8755924 C46.4729123,23.7028436 46.8408033,23.381872 47.2396185,23.1718009 C47.5467275,23.0086493 47.7855901,22.7335308 48.0767038,22.5437204 C48.39341,22.3379147 48.700519,22.1417062 48.9756375,21.8783175 C49.414974,21.4613744 49.8703057,21.0060427 50.2392631,20.5283175 C51.5135522,18.8744076 52.5575095,16.6873223 52.5319171,14.5802133 C52.5212536,13.6535545 52.6065616,12.7130332 52.4092867,11.8013033 C52.1640261,10.6645735 51.6905664,9.60035545 51.3738602,8.48921801 C51.1211351,7.60414692 51.0230308,6.46954976 50.2520593,5.8521327 C49.8212536,5.50663507 49.5493341,5.21232227 49.1867749,4.79111374 C48.8412773,4.39016588 48.4456612,4.16836493 47.9881967,3.91563981 C47.2385522,3.50082938 46.6627228,2.93992891 45.9685285,2.45793839 C45.4385522,2.08898104 44.8264668,1.717891 44.2591683,1.40545024 C43.853955,1.18364929 43.4114195,1.0535545 42.9592867,0.955450237 L40.7284811,1.05675355 C40.5322725,0.988507109 40.3659218,0.879739336 40.2272962,0.731516588 C40.6303768,0.588625592 41.382154,0.659004739 41.8065616,0.740047393 C42.1861825,0.812559242 42.5764668,0.872274882 42.9592867,0.955450237 L44.6035995,0.880805687 C44.1077465,0.895734597 43.5980308,0.703791469 43.114974,0.577962085 C42.4687654,0.409478673 41.9121304,0.349763033 41.2488602,0.352962085 C40.8575095,0.354028436 40.460827,0.333767773 40.0705427,0.348696682 C39.2547844,0.380687204 38.554192,0.758175355 37.7693578,0.88507109 C36.7531256,1.0492891 35.7624858,1.18258294 34.7782441,1.54194313 C33.5210166,2.00047393 32.3352346,2.53684834 31.257154,3.34727488 C30.7645,3.71729858 30.372083,4.13957346 29.9050213,4.52772512 C29.2406849,5.08009479 28.8685285,5.78175355 28.3961351,6.48661137 C28.2297844,6.73507109 28.0207796,6.88436019 27.9066801,7.17227488 C27.8117749,7.41113744 27.7254005,7.68092417 27.6475569,7.92511848 C27.4940024,8.4028436 27.346846,9.03305687 27.3383152,9.53744076 C27.3308507,9.92026066 27.3799029,10.289218 27.3031256,10.6709716 C27.2370119,11.0015403 27.1581019,11.1806872 27.1623673,11.5379147 C27.1698318,12.1531991 27.1719645,12.7695498 27.1666327,13.3859005 C27.161301,14.0587678 27.346846,14.5759479 27.4801398,15.22109 C27.5643815,15.6327014 27.5174621,16.0347156 27.6464905,16.4420616 C27.7637891,16.8088863 27.9024147,17.1671801 28.0474384,17.5233412 C28.489974,18.6174171 29.0124858,19.6507109 29.6331019,20.6562796 C29.9540735,21.1777251 30.2985048,21.6234597 30.7293104,22.0542654 C30.9457796,22.2707346 31.1355901,22.563981 31.4288365,22.685545 C31.8617749,22.8657583 32.2264668,22.9958531 32.6348792,23.2496445 C32.8854716,23.4053318 33.0368934,23.6271327 33.2778886,23.7870853 C33.5444763,23.9630332 33.8366564,23.9886256 34.1245711,24.1251185 C34.4178176,24.2637441 34.6417512,24.4311611 34.954192,24.5292654 C35.2389076,24.6188389 35.5214905,24.6881517 35.8019408,24.7905213 C36.1122488,24.9035545 36.4193578,24.9654028 36.7307322,25.0123223 C36.264737,25.0133886 35.7987417,25.0123223 35.3316801,25.014455 C34.2909218,25.0197867 33.2896185,24.8491706 32.2520593,24.8246445 C31.1089313,24.7979858 29.9551398,24.9014218 28.8130782,24.8438389 C27.0589313,24.7542654 25.3133152,24.464218 23.5506375,24.4780806 C22.5418697,24.485545 21.5448318,24.5260664 20.5488602,24.5836493 C20.8730308,24.382109 21.1876043,24.1699052 21.5288365,23.992891 C22.0310877,23.7337678 22.4896185,23.4223934 22.9492157,23.0726303 C23.1507559,22.9190758 23.4322725,22.6972749 23.6050213,22.518128 C23.9259929,22.1864929 24.1008744,21.6597156 24.3482678,21.2683649 C25.1299029,20.0324645 25.6001635,18.7048578 26.0704242,17.3345972 C26.5876043,15.8235782 26.4489787,14.2037915 26.4660403,12.6287915 C26.4703057,12.210782 26.4148555,11.9409953 26.3242157,11.5453791 C26.2207796,11.0943128 26.3370119,10.6635071 26.2111825,10.2060427 C26.1013484,9.80296209 25.8838128,9.43187204 25.7483863,9.03732227 C25.5916327,8.57985782 25.6353531,8.16504739 25.5521777,7.70225118 C25.4231493,6.98566351 24.9560877,6.24241706 24.6564431,5.58341232 C24.3269408,4.85829384 23.7958981,4.33364929 23.1624858,3.87938389 C23.0025332,3.75248815 22.8457796,3.62132701 22.6943578,3.48376777 C22.3403294,3.20758294 21.9233863,3.06255924 21.5554953,2.81409953 C21.4200687,2.69893365 21.2846422,2.58270142 21.1492157,2.46646919 C20.8389076,2.25533175 20.4763484,2.13909953 20.1596422,1.93755924 C19.6979123,1.6443128 19.1967275,1.29135071 18.6827465,1.09620853 C18.4086943,1.04395735 18.139974,0.973578199 17.875519,0.887203791 C17.4628413,0.729383886 17.203718,0.574763033 16.7622488,0.5257109 C16.5767038,0.532109005 16.407154,0.487322275 16.2514668,0.391350711 C15.9368934,0.341232227 15.6191209,0.394549763 15.3088128,0.31457346 C15.1552583,0.243127962 14.9963721,0.194075829 14.8300213,0.167417062 C14.6594052,0.15035545 14.4781256,0.214336493 14.3096422,0.185545024 C13.9790735,0.130094787 13.7828649,-0.00319905213 13.4288365,0.00106635071 C13.2528886,0.00319905213 13.0769408,0.00106635071 12.9009929,0.00106635071 L13.2528886,0.177014218 C13.2422251,0.211137441 13.232628,0.245260664 13.2219645,0.279383886 C12.8817986,0.142890995 12.5640261,0.18021327 12.2046659,0.177014218 C11.5168697,0.170616114 10.839737,0.3007109 10.1519408,0.348696682 C9.59743841,0.386018957 9.01521092,0.632345972 8.50016353,0.833886256 C7.67800713,1.15592417 6.84305452,1.492891 6.08061376,1.93862559 C5.3874858,2.34277251 4.703955,2.62109005 4.13239101,3.21504739 C3.84127727,3.517891 3.72611139,3.68957346 3.35075594,3.91457346 C2.92848106,4.16943128 2.72800713,4.32725118 2.50087443,4.75592417 C2.18096921,5.36054502 1.70111139,5.91504739 1.44305452,6.54739336 C1.28843367,6.92701422 1.24044789,7.35675355 1.14767537,7.75450237 C1.02931045,8.26101896 0.755258313,8.67156398 0.605969214,9.16315166 C0.419357839,9.77417062 0.107983432,10.4694313 0.0301398296,11.0964455 C-0.0455710708,11.6968009 0.0461350903,12.3760664 0.0386706353,12.9870853 C0.0301398296,13.8028436 0.27006874,14.542891 0.571845991,15.2925355 C0.719002389,15.6572275 0.858694332,15.8587678 1.06023462,16.1893365 C1.32788864,16.628673 1.39720144,17.1863744 1.62859955,17.6566351 C1.79921566,18.0021327 1.92291234,18.3561611 2.06367064,18.7123223 C2.20762798,19.0802133 2.42516353,19.3478673 2.6075095,19.6869668 C2.75573225,19.964218 2.81758059,20.2297393 2.98499765,20.5112559 C3.20786495,20.8866114 3.35928675,21.2331754 3.64080334,21.5754739 C4.74234362,22.9116114 6.12540049,23.8851896 7.69933414,24.5697867 C8.22397869,24.7979858 8.74435784,24.9813981 9.286064,25.1349526 C9.10691708,25.1626777 8.92457111,25.1861374 8.72622988,25.1861374 L9.02587443,25.1861374 L9.02587443,25.7150474 C8.59400239,25.6009479 8.66864694,25.9517773 8.67397869,26.2439573 C8.68144315,26.6886256 8.60359955,27.1770142 8.66438154,27.614218 C8.77314931,28.4033175 9.03013983,29.1444313 9.02587443,29.9377962 C9.01734362,31.2547393 8.99388391,32.4799763 8.71769907,33.7777251 C8.5396185,34.6137441 8.50442893,35.3804502 8.49269907,36.2292654 C8.48736732,36.6867299 8.57054267,37.064218 8.63452372,37.5152844 C8.69423936,37.9290284 8.63132466,38.3385071 8.71236732,38.7479858 C8.84566116,39.4187204 9.00348106,40.1363744 9.03440523,40.8231043 C9.05359955,41.2293839 8.99281755,41.6388626 9.01627727,42.0462085 C9.04293604,42.4972749 9.19329149,42.9184834 9.2103531,43.3727488 C9.24234362,44.2204976 9.2060877,45.0799763 9.2060877,45.9298578 C9.20502135,46.7882701 9.02374173,47.6168246 9.02587443,48.4890995 C9.03013983,49.7633886 9.02587443,51.0387441 9.02587443,52.3130332 C9.02587443,52.6425355 8.97255689,53.0146919 9.0653294,53.3271327 C9.1367749,53.5659953 9.39589812,53.756872 9.40869433,54.0415877 C9.56544789,54.0618483 9.71153793,54.0863744 9.86829149,54.1098341 C10.5902109,54.2175355 11.2652109,54.2196682 12.0031256,54.2377962 C13.992936,54.2879147 15.9838128,54.5555687 17.9714905,54.6078199 C19.939974,54.6600711 21.8839313,54.3604265 23.8406849,54.2047393 C25.0733863,54.1066351 26.282628,54.1290284 27.5153294,54.0810427 C28.3844052,54.0469194 29.2097607,53.8848341 30.086301,53.8912322 C33.035827,53.9114929 35.9874858,53.9104265 38.9370119,53.8954976 C40.0428176,53.8901659 41.2477939,53.939218 42.3280071,54.1994076 C42.853718,54.3263033 43.3847607,54.4297393 43.9115379,54.5555687 C44.1717275,54.6174171 44.6846422,54.8968009 44.9448318,54.7432464 C44.8072725,54.4883886 44.6867749,54.4819905 44.5993341,54.1311611 C44.3092867,52.9805687 44.5086943,51.7052133 44.3881967,50.5343602 C44.2762299,49.4349526 44.3263484,48.353673 44.2389076,47.2563981 C44.3945948,47.5080569 44.7560877,47.5325829 45.0066801,47.62109 C45.9749266,47.9612559 46.9026517,48.4837678 47.8570356,48.8708531 C48.9404479,49.3101896 49.9278886,49.9361374 51.0059692,50.3722749 C51.625519,50.561019 52.2344052,50.7806872 52.8315616,51.0312796 C53.3871304,51.2957346 53.8264668,51.6508294 54.3404479,51.9664692 C55.4046659,52.6190758 56.5030071,53.3687204 57.6312062,53.9040284 C57.9767038,54.0671801 58.3648555,54.0885071 58.6964905,54.285782 C58.8926991,54.4020142 59.2733863,54.5651659 59.4141446,54.7165877 C59.3949503,54.2548578 59.2371304,53.7707346 59.1731493,53.3154028 C58.9769408,51.9184834 59.1304953,50.5268957 59.0067986,49.1278436 C58.9150924,48.0934834 58.8351161,47.0953791 58.8617749,46.0535545 C58.8926991,44.8208531 59.1998081,43.6212085 59.2296659,42.3885071 C59.278718,40.3944313 58.9054953,38.4174171 59.0846422,36.4297393 L59.0846422,36.4297393 Z M20.164974,17.9690758 C19.7437654,18.5609005 19.3193578,18.9031991 18.6827465,19.2316351 C17.9725569,19.5984597 17.3316801,20.0207346 16.5415142,20.2201422 C15.9368934,20.3726303 15.282154,20.578436 14.6572725,20.6168246 C14.2445948,20.6413507 13.8180545,20.6072275 13.4032441,20.6072275 C12.7868934,20.6072275 12.2558507,20.6114929 11.6672251,20.4739336 C11.2652109,20.3811611 10.9378413,20.2585308 10.5624858,20.1177725 C9.75205926,19.8138626 9.0674621,19.1815166 8.36047158,18.6696682 C7.94672751,18.3700237 7.74092182,18.0106635 7.44980808,17.6171801 C7.26852846,17.3708531 7.06698817,17.2631517 6.95075594,16.9560427 C6.83559007,16.65 6.7396185,16.443128 6.55940523,16.1658768 C6.0603531,15.3927725 5.85134836,14.5087678 5.85561376,13.6055687 C5.85668011,13.1257109 5.77030571,12.5744076 5.89400239,12.1094787 C6.02622988,11.6168246 6.03049528,11.2180095 6.03156163,10.7050948 C6.03262798,10.1143365 5.98357585,9.68459716 6.25229623,9.15995261 C6.40691708,8.857109 6.57753319,8.5521327 6.77587443,8.27914692 C6.99340997,7.97736967 7.28985547,7.74703791 7.59483177,7.53909953 C8.10987917,7.18720379 8.67504504,6.89182464 9.19649054,6.55592417 C9.81284125,6.16030806 10.5059692,5.93530806 11.2278886,5.8478673 C11.6384337,5.79774882 12.0628413,5.86386256 12.4680545,5.7742891 C12.6653294,5.69324645 12.8711351,5.64419431 13.0844052,5.6271327 C13.9822725,5.56421801 14.8140261,5.76042654 15.6841683,5.80841232 C16.0275332,5.82654028 16.4060877,5.932109 16.7355901,6.02808057 C16.8528886,6.06220379 17.1599976,6.23175355 17.2335758,6.35118483 C17.1983863,6.34691943 17.1631967,6.34372038 17.1269408,6.34052133 L17.0693578,6.45675355 C17.3327465,6.52393365 17.5950687,6.58258294 17.8317986,6.73187204 C18.0290735,6.85770142 18.1421067,6.95687204 18.3511114,7.04537915 C18.5985048,7.15094787 18.8288365,7.20959716 19.0740972,7.35462085 C19.5400924,7.63293839 19.797083,8.01042654 20.1607086,8.407109 C20.5765853,8.86030806 20.9594052,9.24952607 21.1385522,9.85947867 C21.3678176,10.6432464 21.5864195,11.392891 21.7538365,12.1969194 C21.8881967,12.8388626 21.8700687,13.4413507 21.886064,14.0907583 C21.9223199,15.5804502 20.9849976,16.8184834 20.164974,17.9690758 L20.164974,17.9690758 Z M42.9742157,18.3700237 C42.6052583,18.7229858 41.9590498,19.0887441 41.4717275,19.207109 C40.9950687,19.3233412 40.5599976,19.5824645 40.0780071,19.6912322 C39.5597607,19.8074645 39.1588128,19.6976303 38.6725569,19.5888626 C38.2332204,19.4907583 37.81841,19.5558057 37.3780071,19.4225118 C36.4417512,19.1388626 35.5758744,18.7133886 34.775045,18.1450237 C34.3975569,17.878436 34.1320356,17.4124408 33.8590498,17.0402844 C33.6372488,16.7385071 33.3322725,16.4303318 33.1904479,16.0805687 C33.0091683,15.6348341 32.8737417,15.093128 32.7980308,14.6186019 C32.7265853,14.1707346 32.5772962,13.6236967 32.6135522,13.1662322 C32.6498081,12.7055687 32.8449503,12.2545024 32.9355901,11.8098341 C33.0390261,11.3011848 33.09341,10.9364929 33.3365379,10.4619668 C33.8035995,9.54917062 34.5703057,9.01279621 35.2772962,8.30793839 C35.6857086,7.90165877 36.3244526,7.51350711 36.8490972,7.26611374 C37.5806138,6.92061611 38.4816801,6.67109005 39.2803768,6.55272512 C39.6866564,6.49194313 40.1302583,6.49194313 40.542936,6.51220379 C40.9652109,6.3778436 41.9739787,6.57831754 42.1819171,6.68921801 C42.5572725,6.88969194 42.9294289,7.00165877 43.2759929,7.22239336 C43.5447133,7.39300948 43.8059692,7.50817536 44.0650924,7.69798578 C44.8776517,8.29087678 45.532391,8.81018957 45.7957796,9.8242891 C46.0474384,10.7893365 46.0549029,11.6498815 45.8746896,12.6319905 C45.7637891,13.2408768 45.8853531,13.7505924 45.6688839,14.3445498 C45.5227939,14.7454976 45.346846,15.0792654 45.3116564,15.5026066 C45.3351161,15.7361374 45.2658033,15.9398104 45.1058507,16.1157583 C44.8158033,16.5486967 44.4767038,17.0744076 44.0928176,17.4316351 C43.7355901,17.7654028 43.3282441,18.0319905 42.9742157,18.3700237 L42.9742157,18.3700237 Z M42.2693578,15.5079384 C42.7737417,15.1421801 43.6758744,14.3626777 43.872083,13.7377962 C44.0107086,13.296327 43.978718,12.3622038 43.8592867,11.9281991 C43.7569171,11.5581754 43.7419882,11.2937204 43.7270593,10.9119668 C43.711064,10.532346 43.5916327,10.5024882 43.3645,10.2113744 C43.1512299,9.93838863 43.0840498,9.8957346 42.7972014,9.69739336 C42.5316801,9.51291469 42.4271777,9.25912322 42.1424621,9.10770142 C41.8972014,8.97654028 41.6903294,9.00853081 41.4322725,8.94454976 C41.2211351,8.89229858 41.011064,8.66623223 40.7817986,8.84751185 C40.8521777,8.94774882 40.9513484,8.99253555 41.0803768,8.98293839 C40.8340498,8.98293839 40.5877228,8.98293839 40.3413958,8.98293839 C39.9340498,8.98293839 39.5011114,8.93388626 39.1001635,9.01812796 C38.7514668,9.09170616 38.457154,9.25592417 38.1308507,9.38388626 C37.7075095,9.54810427 37.2457796,9.65260664 36.8448318,9.86374408 C36.6422251,9.97037915 36.6230308,10.0524882 36.4662773,10.2167062 C36.2711351,10.4203791 36.0098792,10.5430095 35.796609,10.7402844 C35.6334574,10.8917062 35.3817986,11.0900474 35.2549029,11.2723934 C35.0938839,11.5048578 35.057628,11.7458531 34.9691209,12.0167062 C34.8667512,12.3248815 34.6193578,12.5541469 34.5511114,12.8580569 C34.4871304,13.1459716 34.6332204,13.4317536 34.7004005,13.6994076 C34.7526517,13.9052133 34.6908033,14.071564 34.7259929,14.2656398 C34.7771777,14.5418246 35.0139076,14.7209716 35.1408033,14.9662322 C35.2783626,15.2328199 35.3156849,15.4791469 35.5182915,15.7137441 C35.7411588,15.9718009 36.0578649,16.260782 36.3553768,16.4271327 C36.6368934,16.5849526 36.9440024,16.689455 37.2585758,16.7417062 C37.4195948,16.710782 37.5784811,16.7203791 37.7331019,16.7704976 C37.8813247,16.8600711 38.0412773,16.9123223 38.2150924,16.9272512 C38.3793104,16.8941943 38.5392631,16.8430095 38.6928176,16.774763 C38.922083,16.750237 39.1492157,16.7214455 39.3774147,16.689455 C39.6941209,16.6084123 40.0097607,16.6084123 40.3190024,16.525237 C41.0025332,16.3439573 41.6988602,15.9227488 42.2693578,15.5079384 L42.2693578,15.5079384 Z M40.5514668,6.51327014 C40.5493341,6.51327014 40.5461351,6.51327014 40.542936,6.51220379 C40.4512299,6.54206161 40.3851161,6.58791469 40.3637891,6.65402844 C40.5973199,6.72120853 40.8361825,6.73507109 41.0803768,6.69348341 L41.2563247,6.69348341 C40.9993341,6.66042654 40.8191209,6.5271327 40.5514668,6.51327014 L40.5514668,6.51327014 Z M18.2402109,15.0739336 C18.4588128,14.2005924 18.5217275,13.1374408 18.0077465,12.3643365 C17.8275332,12.0945498 17.7006375,11.8919431 17.611064,11.5773697 C17.4788365,11.1103081 17.2378413,11.0559242 16.9424621,10.7050948 C16.7793104,10.5131517 16.7217275,10.2028436 16.5596422,10.0268957 C16.4146185,9.86694313 16.0861825,9.63554502 15.889974,9.54597156 C15.5849976,9.40627962 15.0475569,9.11623223 14.704192,9.14609005 C14.9067986,9.21753555 15.1136706,9.27511848 15.3173436,9.34443128 C15.2746896,9.34123223 15.2320356,9.33803318 15.1904479,9.33483412 L15.0134337,9.51078199 L13.7807322,9.51078199 C13.4075095,9.51078199 12.8977939,9.41694313 12.5384337,9.50225118 C12.3838128,9.53850711 12.357154,9.64514218 12.2046659,9.69206161 C11.9796659,9.76137441 11.7290735,9.77630332 11.4912773,9.86374408 C11.3302583,9.92345972 11.0796659,9.94905213 10.9495711,10.0748815 C10.7704242,10.249763 10.7395,10.5238152 10.614737,10.7445498 C10.3524147,11.2084123 10.0730308,11.6306872 9.94613509,12.1531991 C9.89495026,12.3643365 9.93227253,12.5061611 9.91627727,12.7204976 C9.89281755,13.0190758 9.74886021,13.2600711 9.72646684,13.5575829 C9.68914457,14.0566351 9.85016353,14.6409953 10.0303768,15.1080569 C10.1338128,15.3778436 10.2447133,15.4663507 10.4345237,15.6753555 C10.6296659,15.8907583 10.7458981,16.1957346 10.9442394,16.3887441 C11.1361825,16.5764218 11.4507559,16.5742891 11.6725569,16.7225118 C11.7802583,16.8643365 11.9060877,16.9890995 12.050045,17.0946682 C12.250519,17.1906398 12.4595237,17.2599526 12.6759929,17.303673 C13.354192,17.5350711 14.0686469,17.92109 14.7937654,17.9776066 C15.5977939,18.039455 16.1203057,17.4412322 16.7793104,17.0829384 C17.1141446,16.9016588 17.2794289,16.8227488 17.4735048,16.4911137 C17.7390261,16.0347156 18.1101161,15.5900474 18.2402109,15.0739336 L18.2402109,15.0739336 Z M16.9509929,6.69348341 L17.0693578,6.45675355 C16.9264668,6.41943128 16.7846422,6.37890995 16.647083,6.31919431 C16.8240972,6.36504739 16.9637891,6.49727488 16.9509929,6.69348341 L16.9509929,6.69348341 Z M12.4254005,7.10542736e-15 C12.5832204,7.10542736e-15 12.7421067,7.10542736e-15 12.9009929,0.00106635071 L12.8999266,7.10542736e-15 L12.4254005,7.10542736e-15 Z" transform="translate(.393)"/>
</svg>
