<svg xmlns="http://www.w3.org/2000/svg" width="64" height="64" viewBox="0 0 64 64">
  <path fill="#231F20" fill-rule="evenodd" d="M137.802823,241.835877 C137.796755,241.824649 137.79066,241.81345 137.784538,241.80228 C137.705219,241.65658 137.619538,241.515757 137.530888,241.379388 C137.164622,240.817371 136.725824,240.33552 136.22828,239.926414 C136.025317,239.760566 135.815568,239.605322 135.595851,239.462591 C130.974159,236.447632 122.650363,238.33495 120.654035,238.849674 C120.577685,238.853067 120.503032,238.856248 120.421168,238.864944 C118.586659,239.060059 117.149379,237.735182 117.552759,236.823654 C117.552759,236.823654 113.933154,241.57111 113.750764,244.905464 C113.547801,248.601206 114.844471,250.059694 115.261,250.632528 C115.677529,251.205362 115.937966,251.464738 115.520589,252.507121 C115.104484,253.548656 113.878225,255.77064 113.802724,256.360016 C113.730192,256.925427 113.698804,257.505047 115.31296,258.129841 L114.766001,259.223548 C114.766001,259.223548 114.792299,260.161162 115.31296,260.473135 C115.31296,260.473135 115.003108,262.552388 115.807536,262.634039 C117.087875,262.763833 116.978653,263.57123 116.978653,264.352752 C116.978653,265.133426 117.704397,266.57622 120.077171,266.669536 C122.060563,266.746946 127.580422,267.996958 131.999152,257.32308 C131.999152,257.32308 132.117281,256.38589 132.35142,256.854591 C132.383656,256.919488 132.418226,256.998807 132.456613,257.086397 C132.684813,257.611088 133.034748,258.423362 133.805667,258.168227 C133.827723,258.160168 133.85084,258.151897 133.875229,258.143202 C135.208377,257.608967 136.145568,256.515684 136.770574,255.422401 C137.071518,254.893893 138.337436,252.369692 137.455387,250.635921 C137.372675,250.474951 137.273632,250.320555 137.152533,250.175279 C136.958266,249.943686 136.716917,249.7526 136.445664,249.610929 C135.691924,249.217729 134.702774,249.215608 133.822209,249.834675 C133.082467,249.897664 132.354813,249.983345 131.621858,250.073056 C131.307128,250.111442 131.063234,250.158949 130.734931,250.173795 C130.428472,250.187792 130.088717,250.161282 129.779925,250.198396 C129.65713,250.213242 128.389515,250.393936 128.349856,250.302104 C128.251874,250.074328 128.172979,249.848461 128.127382,249.642741 C128.104689,249.539881 128.082632,249.441899 128.060788,249.346038 C128.075422,249.411148 130.797707,249.165344 131.017212,249.14244 C131.646247,249.076906 132.275919,248.970865 132.90559,248.915936 C133.281188,248.883063 133.658906,248.883275 134.034715,248.855281 C134.318905,248.833648 134.581675,248.726759 134.858866,248.714458 C135.563191,248.68413 136.247367,248.648076 136.948723,248.588693 C137.048613,248.580422 138.323863,248.490924 138.329377,248.445114 L138.467866,247.314717 C138.460231,247.378553 136.613209,247.478444 136.495079,247.489048 C135.227253,247.600815 133.962607,247.71237 132.69372,247.824562 C131.894595,247.895185 131.095682,247.965596 130.295921,248.03622 C129.455015,248.110448 128.614322,248.184677 127.772569,248.258694 C127.668224,247.944176 127.548822,247.67568 127.395699,247.43836 C127.43451,247.49838 128.139258,247.369858 128.213063,247.368161 C128.703821,247.358405 129.201789,247.305809 129.695092,247.305809 C130.183305,247.305809 130.664095,247.225006 131.145521,247.151625 C131.613374,247.080578 132.072108,247.09203 132.546535,247.028194 C133.223713,246.937423 133.925493,246.974537 134.610306,246.903489 C135.81981,246.777937 137.021255,246.616542 138.238606,246.513046 C138.37964,246.500958 138.521311,246.488869 138.66277,246.47678 L138.708367,246.472963 C138.717063,246.272545 138.72088,246.077218 138.720456,245.885496 C138.719492,245.486514 138.699124,245.106194 138.660619,244.743718 C137.292692,244.873454 135.915429,245.104892 134.54703,245.115901 C133.715523,245.122671 132.872004,245.238614 132.045976,245.30928 C131.152516,245.385869 130.259479,245.462459 129.366019,245.538837 C128.705196,245.595539 128.044374,245.652241 127.383129,245.708943 C127.234781,245.721637 126.786577,245.843927 126.648976,245.77178 C126.30571,245.592154 125.889324,245.419933 125.374742,245.238191 C125.184039,245.170699 125.002819,245.102572 124.830238,245.032752 C124.915369,245.067239 125.121666,245.007998 125.209958,245.00017 C125.572821,244.96928 125.936315,244.939871 126.298967,244.907078 C128.05786,244.747128 129.811695,244.606219 131.571642,244.455367 C132.556976,244.370949 133.542731,244.286743 134.528065,244.202113 C135.319746,244.134198 136.116695,244.124889 136.906268,244.026295 C137.043755,244.009295 138.085845,243.803238 138.512449,243.802829 C138.433891,243.433112 138.334113,243.084755 138.21488,242.756619 C137.947736,242.758669 137.18945,242.865486 137.124892,242.871123 C136.222582,242.948347 135.293511,243.108297 134.391201,243.108297 C133.537147,243.108297 132.646216,243.254706 131.791319,243.327911 C130.930521,243.40175 130.069302,243.475589 129.208505,243.549217 C127.839658,243.666429 126.479871,243.783006 125.112078,243.900007 C124.746055,243.931531 124.380031,243.962844 124.013587,243.994369 C123.842902,244.008967 123.164589,244.171668 123.036681,244.078152 C122.757475,243.873137 122.277873,243.539908 122.161344,243.200755 C122.334346,243.144265 122.560029,243.169654 122.743568,243.152093 C122.954921,243.132417 123.165432,243.10597 123.376786,243.087774 C126.577014,242.813363 129.777453,242.53874 132.98042,242.264329 C134.129907,242.165735 135.279182,242.067142 136.428879,241.968548 C136.536019,241.959368 137.630756,241.777924 137.802823,241.835877 Z M146.209685,232.185909 C145.933404,230.374214 143.516479,230.72481 143.516479,230.72481 C143.363568,230.494065 142.750863,230.265441 142.750863,230.265441 C141.564688,227.547609 136.818292,226.399185 135.708467,226.170136 C134.599066,225.939815 126.790204,224.600729 120.819459,227.164589 C114.849137,229.729721 114.696014,234.513868 114.696014,234.513868 C114.61924,236.733519 116.188647,236.618358 116.188647,236.618358 C116.629566,237.58015 117.380336,236.948146 117.54576,236.792054 C118.193459,238.232303 119.569235,237.72882 119.569235,237.72882 C119.977281,237.72882 121.35539,236.963416 121.35539,236.963416 C123.090221,236.963416 124.723253,236.299387 125.080187,236.50447 C125.437757,236.707857 126.254697,236.758969 127.632806,236.707857 C129.010279,236.656957 131.126434,236.230884 131.381357,236.230884 C131.637552,236.230884 132.5266,236.178288 135.950664,238.187766 C139.367094,240.192577 140.266746,246.982596 140.4169,248.371733 C140.373423,248.374278 140.349882,248.374915 140.349882,248.374915 C139.920628,248.41415 138.982589,248.218822 138.943354,249.11699 C138.904967,250.014733 139.529973,249.975922 139.529973,249.975922 C138.670405,251.304404 139.998674,251.772257 139.998674,251.772257 C139.899208,252.117739 139.999947,252.3593 140.238963,252.526421 C140.257839,252.539358 140.283925,252.548053 140.303436,252.559718 C139.747145,253.913437 138.984286,255.952394 138.779203,257.427213 C138.444961,259.826073 137.973291,260.153952 137.668953,260.487981 C137.363979,260.822434 134.606276,264.991331 133.729741,270.337708 C133.25192,273.24917 132.712384,274.349027 132.56838,274.860993 C132.425437,275.371899 131.657275,277.024442 131.684846,277.412128 C131.713901,277.800663 132.243894,278.206376 132.754588,277.966299 C132.754588,277.966299 134.427703,274.364934 134.681778,273.082685 C134.681778,273.082685 134.674567,275.708049 134.392286,276.602187 C134.392286,276.602187 134.40904,277.334294 134.992266,277.397707 L134.609458,280.010346 C134.609458,280.010346 134.750916,280.747331 135.503808,280.772993 L135.572522,282.410902 C135.572522,282.410902 136.510985,283.131769 137.159532,282.508884 L137.200252,281.347735 C137.200252,281.347735 138.517493,281.995646 139.001677,281.323134 C139.001677,281.323134 138.964774,277.534712 139.753508,275.280704 C139.753508,275.280704 140.3221,275.773795 141.002671,275.496179 C141.002671,275.496179 141.357908,278.521318 141.244444,279.377705 C141.244444,279.377705 141.676456,280.211187 142.742168,279.644716 L142.980972,273.928045 C142.980972,273.928045 143.489121,274.620492 144.152726,274.528449 C144.152726,274.528449 144.563741,274.255287 144.94358,273.235385 C144.94358,273.235385 144.957577,273.245989 144.977301,273.261471 C145.232647,272.80613 147.858647,268.116784 148.140929,267.061676 C148.140929,267.061676 146.778301,272.058541 145.743129,273.743745 C146.095185,273.923379 146.488385,274.053597 146.749246,273.929741 C146.749246,273.929741 147.124419,273.726142 147.511257,272.449833 C147.914425,271.121139 147.979746,271.001949 148.027465,270.831222 C148.074759,270.660708 148.896365,268.709766 148.943235,267.333353 C148.991378,265.957789 149.782444,264.866203 149.782444,264.866203 C149.782444,264.866203 150.132803,264.404924 150.107777,263.930285 C150.081691,263.456069 150.158889,264.878928 150.848368,266.710892 C151.538695,268.542221 150.984313,270.562939 150.936594,270.859429 C150.826524,271.545091 151.817795,271.923233 152.016516,271.155708 C152.711509,268.468841 151.623316,265.08698 151.623316,265.08698 C151.053875,263.087471 151.689485,256.490022 152.016516,253.52151 C152.020758,253.267011 152.023727,253.045173 152.025847,252.862783 C152.802704,252.508818 152.494549,251.264533 152.494549,251.264533 C153.353269,250.639951 153.002273,249.585479 153.002273,249.585479 C154.005633,248.444266 153.108526,247.762634 152.891354,247.621811 C153.222627,247.079518 152.80737,245.811055 152.80737,245.811055 C153.666514,243.701687 152.128283,242.245531 152.128283,242.245531 C152.511091,240.75311 150.562269,239.321556 150.562269,239.321556 C150.562269,239.321556 151.033304,238.514796 150.756961,237.564668 C150.581781,236.959386 149.910329,236.42091 149.911177,236.393339 C149.930689,235.202074 148.850767,235.072704 148.849919,235.059131 C148.720337,233.581555 146.999503,233.978361 146.999503,233.978361 C147.015719,233.915769 147.027165,233.855142 147.034359,233.796473 C146.812492,234.0957 146.127115,234.852476 144.85184,234.884185 C142.006467,234.953582 137.635259,235.650506 137.376072,234.610832 C137.376072,234.610832 143.105169,234.195512 143.882521,234.1441 C144.603756,234.095312 146.599923,233.732812 147.043217,233.682176 C147.069579,232.849262 146.233675,232.446917 146.233675,232.446917 C146.231039,232.37321 146.225257,232.302553 146.216553,232.234823 C146.183015,232.361223 145.987683,232.752904 144.851904,232.857667 C143.30015,233.001114 142.059,232.89702 140.70111,233.130809 C139.29054,233.373273 137.14392,234.104472 136.23866,233.001114 C136.23866,233.001114 138.930417,232.731569 140.739251,232.351582 C142.653656,231.948745 143.882584,231.923356 144.735374,231.845074 C145.539972,231.772124 146.11489,232.123599 146.209685,232.185909 Z M132,221 C149.673221,221 164,235.326779 164,253 C164,270.673221 149.673221,285 132,285 C114.327203,285 100,270.673221 100,253 C100,235.326779 114.327203,221 132,221 Z M149.275567,273.53336 L149.275567,273.307917 L148.010074,273.307917 L148.010074,273.53336 L148.5108,273.53336 L148.5108,275.084104 L148.774842,275.084104 L148.774842,273.53336 L149.275567,273.53336 Z M151.310283,275.084104 L151.310283,273.307917 L150.975405,273.307917 L150.478497,274.601193 L149.965046,273.307917 L149.628048,273.307917 L149.628048,275.084104 L149.875123,275.084104 L149.875123,273.746714 L150.412327,275.067137 L150.419326,275.084104 L150.521337,275.084104 L151.046028,273.751168 L151.046028,275.084104 L151.310283,275.084104 Z M147.77577,238.896135 C148.977937,240.415659 148.240411,242.36362 148.240411,242.36362 C148.123882,240.844731 146.494583,239.207995 146.572129,239.247348 C146.649253,239.285643 147.77577,238.896135 147.77577,238.896135 Z M140.118234,237.961867 C140.118234,237.961867 147.878687,238.039726 149.469845,236.130271 C149.469845,236.130271 147.516456,239.57131 140.118234,237.961867 Z M147.243698,247.45722 C147.175003,247.127588 147.10694,246.63039 147.050888,245.882476 C146.844592,243.129899 145.602599,240.844689 143.946538,239.493789 L145.705853,239.234188 C145.705853,239.234188 148.932632,243.098374 147.791364,247.443045 C147.610143,247.4477 147.426605,247.452566 147.243698,247.45722 Z M141.592884,230.326142 C140.932904,229.001478 139.342589,228.06611 139.342589,228.06611 C140.972309,227.832744 142.368972,230.208719 142.368972,230.208719 L141.592884,230.326142 Z M129.422471,227.988229 C129.422471,227.988229 128.634162,227.390533 126.628936,227.910582 C126.511353,227.941683 130.043468,226.274692 135.462172,228.69002 L134.8161,229.390964 C134.8161,229.390964 134.272649,228.69002 133.289001,228.97501 C133.289001,228.97501 132.487416,227.910582 131.362585,228.806386 C131.362585,228.806386 131.078532,227.59851 129.422471,227.988229 Z M136.393267,228.013978 C136.393267,228.013978 134.479283,226.040628 126.875185,226.248393 C126.875185,226.248393 132.72039,225.15773 137.945442,227.547246 C137.945442,227.547246 136.755076,227.702541 136.393267,228.013978 Z M135.928541,231.546035 C135.928541,231.546035 137.432882,228.41326 138.837974,229.118224 C140.390149,229.897028 140.790941,230.611725 140.790941,230.611725 C140.790941,230.611725 138.721445,231.18234 137.403171,231.4942 C136.446284,231.720372 136.134838,231.597659 135.928541,231.546035 Z M144.179575,246.065064 C144.179575,246.065064 144.697318,246.480172 145.059127,246.947962 C145.174602,247.096487 145.223911,247.305099 145.237819,247.521327 C144.969992,247.53106 144.705747,247.541427 144.447402,247.550948 C144.190533,246.852119 144.179575,246.065064 144.179575,246.065064 Z M125.995718,228.586095 C123.421754,228.183047 121.507349,228.689978 121.507349,228.689978 C123.563991,226.312733 125.995718,228.586095 125.995718,228.586095 Z M128.298967,241.628126 C127.49654,241.672345 126.738785,241.828275 125.940572,241.828275 C125.647458,241.828275 121.730987,242.075182 121.73478,242.119189 C121.706544,241.777074 121.76955,241.445326 121.896193,241.137063 C121.935598,241.042701 123.025239,241.04397 123.122593,241.041854 C123.896994,241.024294 124.668446,240.94855 125.440319,240.887194 C125.84659,240.854823 126.25244,240.825203 126.659554,240.810393 C126.992915,240.79791 127.252946,240.694238 127.5783,240.650231 C128.024819,240.590144 128.48082,240.573007 128.929236,240.5345 C129.815952,240.458545 130.70309,240.382802 131.589806,240.306635 C132.893751,240.194924 134.198117,240.083001 135.501851,239.971502 C135.683283,239.955845 135.864503,239.940401 136.045513,239.924956 C136.420387,240.198732 136.749534,240.496417 137.036747,240.808065 C136.986385,240.753479 136.48276,240.855458 136.412379,240.861593 C135.861553,240.908774 135.310516,240.955955 134.75969,241.003348 C133.21489,241.135582 131.68168,241.271624 130.147206,241.451885 C129.861678,241.485525 129.566036,241.478966 129.280508,241.502662 C128.949254,241.529956 128.627272,241.610142 128.298967,241.628126 Z M132.606874,250.416399 C132.682734,250.410052 132.902517,250.431844 132.966576,250.38551 C132.420386,250.77946 131.28565,251.497754 130.270183,251.497754 C130.043447,251.497754 129.695756,251.158389 129.369559,250.694408 C129.402643,250.7418 129.929868,250.644264 129.989291,250.641091 C130.585212,250.60872 131.15416,250.541228 131.745234,250.49045 C132.032447,250.465696 132.319661,250.440942 132.606874,250.416399 Z M123.24675,239.91461 C123.16499,239.917149 122.860076,239.895356 122.793066,239.951424 C123.115892,239.680186 123.472643,239.477075 123.800105,239.366845 C128.679783,237.992037 131.99633,238.12554 134.253158,238.969932 C131.488912,239.206683 128.730146,239.518543 125.967797,239.720173 C125.351858,239.765027 124.738026,239.843944 124.121455,239.887528 C123.829606,239.908262 123.538178,239.905089 123.24675,239.91461 Z M143.067134,239.545244 C143.067134,239.545244 145.49865,243.234035 145.602536,244.84369 C145.602536,244.84369 144.360964,244.116299 144.309127,243.961004 C144.2575,243.80465 143.429786,240.636542 142.239841,239.701809 C142.239841,239.701809 142.704482,239.649127 143.067134,239.545244 Z M149.123314,240.580115 C149.142068,240.37235 149.224038,239.060803 148.344276,238.558527 C148.344276,238.558527 149.948078,238.298925 150.206633,237.260097 C150.206633,237.260097 150.568442,238.766292 149.689312,239.753285 C149.220667,240.265505 149.137221,240.502468 149.123314,240.580115 Z M149.263127,247.413848 C149.156713,247.41554 149.049666,247.417445 148.939459,247.418714 C148.95442,243.902778 150.568337,240.403345 150.568337,240.403345 C150.568337,240.403345 150.258997,243.233993 149.844719,245.622874 C149.648326,246.758392 149.434233,247.230836 149.263127,247.413848 Z M118.649122,235.078051 C119.838645,232.169121 122.735855,231.962413 122.735855,231.962413 C121.908984,232.533239 121.753471,233.727786 121.753471,233.727786 C121.266705,233.597668 120.172428,234.160454 119.421838,234.598624 C119.07794,234.818873 118.827392,234.985804 118.633107,235.137715 C118.643221,235.103228 118.649122,235.078051 118.649122,235.078051 Z M151.415585,247.422988 C151.286834,247.418756 151.147758,247.415583 151.000042,247.412621 C151.354054,246.449959 152.072614,244.365956 152.198415,242.947988 C152.198415,242.947988 152.705622,245.921236 151.415585,247.422988 Z M151.654922,242.247191 L150.310308,246.350245 C150.310308,246.350245 152.482636,242.558628 151.654922,242.247191 Z M143.232761,247.599779 C142.489336,246.114953 141.954735,243.934684 141.954735,243.934684 C141.954735,243.934684 142.653698,244.714334 143.351398,245.492926 C143.766098,245.955003 143.816039,246.890583 143.789066,247.576506 C143.59752,247.584969 143.412507,247.592586 143.232761,247.599779 Z M143.233625,258.574838 C142.811761,259.676715 139.385007,266.041706 138.277244,268.407737 C137.169691,270.774615 135.700962,276.176944 135.700962,276.176944 C135.93697,273.049669 137.786052,267.789941 140.152455,263.620454 C142.146934,260.109384 144.685075,253.940523 145.43693,252.079519 C145.598764,252.076133 145.755962,252.074018 145.899464,252.076557 C145.916111,252.07698 145.931704,252.07698 145.947719,252.077403 C145.341262,253.758781 143.607656,257.602233 143.233625,258.574838 Z M137.394742,280 C137.103314,271.058674 140.180059,267.815669 140.180059,267.815669 C138.117938,271.379632 137.394742,280 137.394742,280 Z M146.262558,252.582641 C146.262558,252.582641 145.682231,258.273346 140.604895,266.642364 C140.604895,266.642364 145.883891,254.887739 146.262558,252.582641 Z M145.539425,262.018416 C146.900054,260.162066 147.105507,259.782502 147.100871,259.911351 C147.067788,260.884168 146.804808,263.556347 145.787655,264.746239 C145.549539,265.024247 144.24433,266.525364 144.24433,266.525364 C144.581695,264.991453 145.539425,262.018416 145.539425,262.018416 Z M147.727452,252.099407 C147.940491,252.101734 148.154584,252.104061 148.364674,252.107235 C148.106119,256.871034 145.53089,260.200784 145.53089,260.200784 C145.979095,258.821322 147.341621,253.591638 147.727452,252.099407 Z M140.116105,273.409789 C140.635534,268.232152 144.55369,261.240268 144.55369,261.240268 C144.55369,261.240268 143.824172,262.545679 142.507163,267.308843 C141.657323,270.377723 140.911158,272.023345 140.487186,272.806592 C140.252021,273.240742 140.116105,273.409789 140.116105,273.409789 Z M148.602241,248.92658 C149.016098,248.950065 152.663267,248.878341 153,248.710352 C153,248.710352 152.715737,249.693113 146.378286,249.596847 C140.040203,249.501427 139.963711,248.950065 139.859826,248.997669 C139.859826,248.997669 141.02343,248.61472 142.600681,248.687079 C144.178775,248.758591 148.187963,248.901826 148.602241,248.92658 Z M148.369246,250.687066 C149.442662,250.648559 150.404395,250.577894 151.144028,250.493053 C151.886611,250.408423 152.404775,250.310464 152.585995,250.219911 C152.585995,250.219911 152.503814,250.812952 151.092401,251.037221 C150.913498,251.06536 150.714999,251.087998 150.490791,251.102597 C148.497997,251.232503 143.790689,251.415092 143.790689,251.415092 C143.790689,251.415092 141.895459,251.578427 140.872617,251.087152 C140.743023,251.025161 140.627758,250.953649 140.532091,250.869019 C140.532091,250.869019 140.658734,250.866692 140.877885,250.862884 C142.139264,250.838764 146.539973,250.754346 148.369246,250.687066 Z M147.951554,262.330826 C148.001495,260.666162 149.349481,252.345594 149.349481,252.345594 C149.603822,253.063253 148.89959,258.827796 148.867139,258.941623 C148.834056,259.05545 148.572551,260.864195 148.590462,262.840507 C148.607741,264.815762 146.594718,266.699616 144.981434,269.127427 C143.568757,271.253533 143.305987,272.247085 143.305987,272.247085 C143.337385,271.116222 143.744499,269.220308 143.924455,268.968323 C144.298275,268.446371 145.741085,266.949696 146.51338,266.031466 C147.286096,265.113869 147.910885,263.718116 147.951554,262.330826 Z M150.936889,252.206844 C150.961964,252.20896 150.985987,252.210017 151.01022,252.212345 C151.110102,252.220808 151.204926,252.231598 151.301648,252.241753 C151.189333,254.317082 150.325164,262.126276 150.325164,262.126276 C149.648116,260.093685 150.41451,254.016859 150.667376,252.190764 C150.756511,252.196477 150.850071,252.199862 150.936889,252.206844 Z M122.865934,234.494255 C122.865934,234.494255 125.025619,229.105467 129.25459,228.793395 C129.25459,228.793395 126.048672,230.762514 125.451698,231.779973 C124.676453,233.104637 124.391768,234.039794 122.865934,234.494255 Z M134.006951,230.579418 C134.006951,230.579418 133.096212,231.592222 131.737479,232.565885 C129.995234,233.815229 128.737437,234.767524 127.029749,234.715265 C127.029749,234.715265 130.716744,232.260161 131.479135,231.571911 C133.270268,229.955486 133.955324,230.267558 134.006951,230.579418 Z M130.2371,229.547339 C130.988533,229.040408 130.961982,229.481751 130.961982,229.481751 C130.961982,229.481751 128.193944,232.273892 125.801201,233.84504 C125.801201,233.84504 126.771363,231.883961 130.2371,229.547339 Z M137.755645,262.836382 C137.350638,263.930431 136.497848,266.671583 136.000966,268.715598 C135.502821,270.759614 134.796482,271.378679 134.796482,271.378679 C134.754338,270.131874 135.607339,267.714642 136.246246,265.288524 C136.885575,262.863886 139.058325,259.789717 139.058325,259.789717 C139.058325,259.789717 138.180459,261.691767 137.755645,262.836382 Z M119.193057,229.675764 C119.193057,229.675764 117.277388,230.793086 116.708861,232.74676 C116.155717,234.647117 116.399732,235.676424 116.399732,235.676424 C116.449673,235.810774 114.381863,231.857726 119.193057,229.675764 Z M135.558725,233.370289 C135.558725,233.370289 135.35285,234.669142 136.386861,234.720766 C136.386861,234.720766 132.986026,234.890025 131.485478,234.474494 C131.485478,234.474494 133.288833,233.598578 134.782638,232.228213 C134.782638,232.228213 134.731011,233.214782 135.558725,233.370289 Z M124.146151,229.858458 C124.146151,229.858458 123.408626,230.559191 123.136584,230.832756 C123.136584,230.832756 118.339087,230.351425 117.006273,236.091849 C117.006273,236.091849 117.433617,229.19602 124.146151,229.858458 Z M141.660231,252.160298 C141.83513,252.179762 142.005393,252.190341 142.166384,252.195419 C141.729769,253.466978 140.7752,256.106363 139.967926,257.387866 C139.967926,257.387866 140.408755,254.898276 141.196433,253.165062 C141.395564,252.725835 141.545387,252.403608 141.660231,252.160298 Z M143.067134,242.714029 C143.067134,242.714029 140.325436,240.220842 140.015254,239.597757 C140.015254,239.597757 140.998059,239.805734 141.670472,239.701851 C141.670472,239.701851 142.860838,241.675836 143.067134,242.714029 Z M141.198919,259.320679 C140.734699,260.377491 137.904709,265.561475 137.904709,265.561475 C138.239124,263.296788 139.841662,260.604721 140.894005,258.622273 C141.729305,257.049644 142.969612,253.54873 143.446686,252.169691 C143.579651,252.163979 143.712406,252.158055 143.845792,252.151284 C143.724628,254.643625 141.62858,258.341303 141.198919,259.320679 Z M148.603105,235.389868 C148.603105,235.389868 149.605086,236.955092 138.120762,237.318576 C138.120762,237.318576 137.583633,236.637097 135.358835,235.806034 C135.358835,235.806034 143.170915,237.312441 148.603105,235.389868 Z M137.802823,241.835877 C137.958285,242.123513 138.096217,242.430053 138.21488,242.756619 C138.268623,242.756207 138.302488,242.760034 138.306829,242.769779 C138.171546,242.463208 138.011608,242.154945 137.823434,241.849009 C137.820173,241.843708 137.813164,241.83936 137.802823,241.835877 Z M138.512449,243.802829 C138.57607,244.102247 138.625772,244.415675 138.660619,244.743718 C138.738586,244.736323 138.816523,244.729259 138.894426,244.722585 C138.846171,244.449232 138.779583,244.154509 138.692766,243.845188 C138.684278,243.814925 138.616764,243.802729 138.512449,243.802829 Z M146.209685,232.185909 C146.212145,232.202042 146.214436,232.218346 146.216553,232.234823 C146.22318,232.209847 146.22349,232.195229 146.22349,232.195229 C146.22349,232.195229 146.218814,232.19191 146.209685,232.185909 Z M147.043217,233.682176 C147.042038,233.719414 147.039136,233.757512 147.034359,233.796473 C147.089315,233.722355 147.115833,233.67631 147.115833,233.67631 C147.101282,233.67631 147.076672,233.678355 147.043217,233.682176 Z" transform="translate(-100 -221)"/>
</svg>
