<svg xmlns="http://www.w3.org/2000/svg" width="58" height="59" viewBox="0 0 58 59">
  <path fill="#0B9444" fill-rule="evenodd" d="M56.7739894,26.5848468 C57.3146292,28.4328326 57.3124965,30.5004867 56.9712642,32.380463 C56.8209088,33.2090175 56.7004112,34.0429037 56.5756481,34.8618611 C56.4796766,35.494207 56.3783733,36.1734724 56.1203164,36.7429037 C55.9241078,37.1747758 55.666051,37.5000127 55.5071647,37.9916004 C55.4143922,38.2720506 55.3280178,38.5556999 55.2491078,38.8404156 C54.9835865,39.7596099 54.7436576,40.565771 54.1859562,41.3612687 C53.3264775,42.5918374 53.0044396,44.3363871 51.8261221,45.3184961 C51.0882074,45.9327141 50.5667619,46.7260791 49.8181837,47.3264345 C49.4044396,47.6570032 48.9565723,47.8830696 48.5854823,48.2616241 C48.0725676,48.7852023 47.590577,49.42288 47.076596,49.9699179 C46.5028993,50.5788042 46.258705,51.4468137 45.6380889,52.0023824 C45.1560984,52.4342544 44.4501742,52.7275009 43.908468,53.0975246 C43.4328756,53.4227615 42.9860747,53.6573587 42.455032,53.8887568 C41.3716197,54.3622165 40.1815723,54.7546336 39.2122595,55.412572 C38.4914064,55.9020269 37.4527808,56.1344914 36.5997003,56.2635198 C35.3115486,56.4575957 34.0233969,56.62288 32.7395107,56.8574772 C31.2818093,57.1251312 29.8699609,57.5420743 28.3706718,57.2605578 C27.4216197,57.0824772 26.4693685,56.929989 25.5043211,56.7902971 C23.451596,56.4949179 21.4415249,56.1750127 19.6180652,55.1417189 C17.8457903,54.1382829 15.9540842,53.3737094 14.2074017,52.305226 C13.3553875,51.7837805 12.4404586,51.2591359 11.6428282,50.6641123 C11.1544396,50.2994203 10.6937761,49.9901786 10.1776624,49.6734724 C9.67434482,49.3642307 9.45147752,48.9227615 9.01320737,48.544207 C8.65278083,48.3320032 8.33287562,48.0707473 8.05349173,47.7615056 C7.88927373,47.4447995 7.72292301,47.1291596 7.55337325,46.8156525 C7.3230415,46.458425 6.97967657,46.0297521 6.70988984,45.7087805 C6.3558614,45.287572 5.88560074,45.087098 5.62754387,44.6019085 C5.38441591,44.1476431 5.22766235,43.7061739 4.92695145,43.2743018 C3.66225951,41.4561739 2.29413155,39.6497758 1.81320737,37.4605578 C1.32055335,35.2148232 0.71060074,33.0106762 0.435482256,30.7393492 C0.367235811,30.1784487 0.176359033,29.6516715 0.149700266,29.0833066 C0.121975147,28.4936146 0.23074292,27.941245 0.0995817822,27.3558184 C-0.126484568,26.3449179 0.0953163794,25.2540412 0.150766616,24.2026194 C0.221145763,22.851553 0.807638654,21.4119796 1.20645382,20.1259606 C1.65218842,18.6853208 2.4551505,17.3790412 2.88382349,15.9352023 C3.28583771,14.5830696 4.03121685,13.6201549 4.84164339,12.4738279 C5.31510311,11.805226 5.65313628,11.0331881 6.23216472,10.4413634 C6.63951069,10.0254867 7.13856282,9.8666004 7.558705,9.51363832 C8.15266235,9.01565254 8.44270974,8.3545151 9.10917894,7.9087805 C9.7308614,7.49290372 10.3909325,7.14207434 11.0040842,6.71340135 C12.2165249,5.86565254 13.4748187,5.12453879 14.7181837,4.32477576 C15.7333496,3.67110277 16.6386813,3.13366202 17.7690131,2.69752457 C18.9462642,2.24325917 20.2290842,1.70795112 21.4585865,1.42963358 C22.262615,1.24728761 23.1466197,1.28780894 23.9325202,1.05427813 C24.3356007,0.933780499 24.6608377,0.714112253 25.1012406,0.636268651 C25.9393922,0.490178603 26.7530178,0.418733106 27.5965012,0.256647798 C28.5316908,0.0764345275 29.5596529,-0.0856507806 30.5204349,0.0508421104 C31.0248187,0.123353959 31.2754112,0.332358698 31.8299135,0.321695191 C31.7104823,0.321695191 31.591051,0.321695191 31.4716197,0.321695191 C31.3756481,0.299301826 31.2647477,0.292903722 31.1165249,0.321695191 C31.2348898,0.321695191 31.3532548,0.321695191 31.4716197,0.321695191 C31.6859562,0.371813674 31.81925,0.513638319 32.080506,0.592548272 C32.4750557,0.711979551 32.9815723,0.810083817 33.3995818,0.848472442 C34.0745818,0.912453485 34.5501742,1.18970467 35.2006481,1.32513121 C35.6250557,1.41257197 35.9140368,1.39124495 36.316051,1.56932552 C37.3482785,2.02572363 38.4188946,2.44799851 39.4244633,2.9609132 C40.5846529,3.55273785 41.4622595,4.46126865 42.597923,5.08401747 C43.151359,5.38686107 43.7527808,5.52868571 44.2966197,5.84965728 C44.8735154,6.18982315 45.3139183,6.68780894 45.8151031,7.11648192 C46.4111932,7.62619756 46.6564538,8.11032078 47.1213827,8.71920704 C47.4540842,9.15534448 47.9861932,9.2587805 48.4031363,9.55842505 C48.9448424,9.94551036 49.6038472,10.4722876 50.12316,10.9457473 C50.7864301,11.5493018 50.9751742,12.1592544 51.4081126,12.9227615 C51.9146292,13.8142307 52.7698424,14.5116241 53.2251742,15.4276194 C53.5546766,16.0919559 53.7252927,16.7019085 54.1273069,17.348117 C54.9643922,18.6927852 55.0678282,20.1451549 55.3738709,21.6806999 C55.7044396,23.341008 56.301596,24.9714582 56.7739894,26.5848468 Z M37.8004112,28.7303445 C37.89425,28.2536857 38.0616671,27.9902971 37.9539657,27.5221691 C37.8846529,27.2182592 37.74816,27.083899 37.7353638,26.7426668 C37.7119041,26.1060554 37.6767145,25.2753682 37.4271884,24.6835435 C37.2885628,24.3561739 37.0294396,24.1087805 36.8780178,23.7824772 C36.7031363,23.4081881 36.6540842,23.1224061 36.4237524,22.7726431 C36.2904586,22.5711028 36.1059799,22.3972876 35.9684206,22.2042781 C35.7124965,21.8438516 35.5856007,21.2882829 35.294487,20.9779748 C34.9169988,20.5748942 34.2654586,20.3936146 33.7845344,20.1462213 C33.3643922,19.9308184 32.9154586,19.7889938 32.4601268,19.6215767 L32.4654586,19.6183777 C32.4547951,19.6173113 32.4451979,19.6141123 32.4356007,19.6119796 C32.208468,19.5288042 31.9813353,19.4392307 31.7531363,19.3283303 C31.9546766,19.4648232 32.1924728,19.5757236 32.4356007,19.6119796 C32.4441315,19.6151786 32.451596,19.6183777 32.4601268,19.6215767 L31.937615,19.8817663 C31.5750557,19.701553 31.2530178,19.4626905 30.8957903,19.2824772 C30.3743448,19.0190886 29.8688946,19.0916004 29.2983969,19.0905341 C28.7705533,19.0905341 28.2427097,19.0905341 27.7148661,19.0905341 C27.4514775,19.0905341 27.1880889,19.0947995 26.9247003,19.0916004 C26.5333496,19.0862687 26.3595344,19.2355578 26.0737524,19.2952734 C25.537378,19.4083066 25.0799135,19.3816478 24.5488709,19.5533303 C24.0274254,19.7218137 23.433468,19.8124535 22.9514775,20.0737094 C21.9427097,20.6218137 21.0437761,21.5111502 20.1949609,22.2650601 C19.8292026,22.5892307 19.3685391,22.9102023 19.0656955,23.2855578 C18.8556244,23.5468137 18.8065723,24.0618611 18.6775439,24.3753682 C18.54425,24.7038042 18.340577,25.0023824 18.2669988,25.3585435 C17.9758851,26.7650601 17.8777808,27.9273824 18.1571647,29.3957473 C18.2915249,30.1006051 18.1134443,30.7670743 18.4066908,31.4474061 C18.6338235,31.973117 18.8769515,32.4806999 19.2715012,32.8848468 C19.7310984,33.3529748 20.1395107,33.8541596 20.6044396,34.3372165 C20.8251742,34.5664819 20.8710273,34.6325957 21.0459088,34.9237094 C21.2869041,35.3235909 21.5225676,35.4056999 21.858468,35.7138753 C22.6081126,36.4038042 23.4985154,36.9284487 24.3430652,37.5032118 C25.2750557,38.1376905 26.4139183,38.0897047 27.5111932,38.0897047 C28.7257666,38.0897047 30.2943685,38.3445625 31.4151031,37.8913634 C31.9450794,37.6759606 32.1156955,37.433899 32.576359,37.0990649 C32.9101268,36.8570032 33.3292026,36.7727615 33.6736339,36.4997758 C33.9391552,36.290771 34.2622595,36.1372165 34.5181837,35.9207473 C35.0545581,35.4664819 35.3861932,34.9183777 35.8372595,34.3670743 C36.2627334,33.8456288 36.6935391,33.4436146 37.0219751,32.8059369 C37.319487,32.2322402 37.6937761,31.6073587 37.7556244,30.951553 C37.8260036,30.2115056 37.6553875,29.4682592 37.8004112,28.7303445 Z M27.7072951,28.0034132 L28.1604941,27.7400246 L27.7872714,27.7400246 C28.3236458,27.7389582 28.8450913,27.6376549 29.0381007,28.255072 C29.2215131,28.8372995 28.8067026,29.4525838 28.2490012,29.5997402 C26.5481718,30.0486739 26.6505415,27.7208303 27.7072951,28.0034132 Z" transform="translate(.394 .772)"/>
</svg>
