<svg xmlns="http://www.w3.org/2000/svg" width="48" height="52" viewBox="0 0 48 52">
  <path fill="#FFCA00" fill-rule="evenodd" d="M44.7825664,11.1775257 C44.142756,10.2561987 44.1192962,9.24316555 43.2918081,8.45086697 C42.3235616,7.52314185 41.4342252,6.51757313 40.3689408,5.69435038 C39.8581588,5.30086697 39.2801967,5.06520347 38.7544858,4.69198072 C38.1615948,4.27183854 37.6508128,3.74719399 37.0536564,3.33131721 C36.5204811,2.95916081 36.1867133,2.61579588 35.7367133,2.16259683 C35.1512868,1.57077219 34.1371872,1.24233617 33.3480877,1.05145939 C32.6453626,0.881909627 31.9479692,0.916032849 31.2431114,0.728355124 C30.5595806,0.546009153 29.9197702,0.37645939 29.2095806,0.30181484 C28.049391,0.18238356 26.8828034,0.292217684 25.7183484,0.204776925 C24.6754574,0.126933323 23.6528271,-0.034085634 22.6024716,0.00643569302 C20.3908602,0.0896110485 18.1899124,0.232502044 16.0497465,0.774208205 C14.8565,1.07705181 13.6163342,1.18795228 12.4380166,1.54731247 C10.6668081,2.08688593 8.95638155,3.1607011 7.44003084,4.20465844 C5.35211615,5.64103285 4.0031825,7.56686223 2.87285075,9.79873427 C2.42071805,10.6923362 1.85555217,11.6765779 1.56870383,12.6394926 C1.3095806,13.5128338 1.49405928,14.3659144 1.35436733,15.2413883 C1.18695027,16.2906774 0.542874444,17.2226679 0.230433685,18.2271703 C-0.0681445137,19.190085 -0.0532156037,19.9951798 0.141926576,20.971957 C0.518348377,22.8604641 1.03766117,24.7489712 1.72012563,26.5489712 C2.10934364,27.5726679 2.78754269,28.2807248 3.36550478,29.1924547 C3.65128677,29.6499191 3.89654743,30.1265779 4.10128677,30.6245637 C4.44785075,31.2355826 4.97782705,31.5170992 5.44062326,32.0289475 C6.87486497,33.6188765 8.16301662,35.3826205 9.86171331,36.7102272 C10.3607654,37.0994452 10.8939408,37.4470755 11.4420451,37.7552509 C11.8664526,37.9941134 12.3367133,38.3748006 12.7685853,38.5710092 C13.3316185,38.8269333 14.0610024,38.8759855 14.628301,38.9101087 L14.628301,38.8493267 C14.6752204,38.8727864 14.7221398,38.8951798 14.7679929,38.9186395 C14.7253389,38.9165068 14.6741541,38.9122414 14.628301,38.9101087 C14.628301,39.7482603 14.6251019,40.586412 14.628301,41.4245637 C14.6325664,42.5602272 14.3766422,43.5466016 13.9884906,44.6278812 C13.5491541,45.8509855 12.7110024,46.7659144 11.6361209,47.4952983 C10.1698887,48.4912698 8.74311141,49.5266964 7.02095501,50.0140186 C7.26408297,49.9532366 7.30993606,50.1505115 7.46562326,50.1889001 C7.82924885,50.27954 8.17901188,50.2422177 8.56929624,50.240085 C9.84038629,50.2347532 11.1509313,50.3499191 12.4113579,50.1878338 C13.685647,50.0246821 14.9087512,49.9095163 16.1467844,49.5426916 C16.6362394,49.3976679 17.249391,49.3016964 17.7143199,49.0958907 C18.3647939,48.8090423 18.9918081,48.2854641 19.5932299,47.9037106 C20.4932299,47.3321466 21.3921635,46.6912698 22.031974,45.8232603 C22.5779455,45.0821466 22.9671635,44.0157959 23.2934669,43.1563172 C23.4502204,42.7425731 23.689083,42.3000376 23.713609,41.8500376 C23.7232062,41.6815542 23.5909787,41.3552509 23.7306707,41.2091608 C23.8490356,41.0843978 24.2478507,41.1697058 24.3939408,41.1739712 C24.8332773,41.1867674 25.1254574,41.0833314 25.5551967,40.9926916 C26.2205996,40.850867 26.8529455,40.8338054 27.514083,40.60454 C28.6038934,40.2270518 29.6659787,39.7375968 30.7387275,39.3089238 C31.7197702,38.9165068 32.6336327,38.5347532 33.570955,38.0410328 C34.6063816,37.4950613 35.6652678,37.0088054 36.5812631,36.2964831 C38.4900308,34.8110565 40.649391,33.6007485 41.8223768,31.4083314 C42.3534195,30.4155589 43.2768792,29.5902035 43.7130166,28.5494452 C44.1832773,27.4297769 44.6695332,26.2269333 45.0374242,25.0710092 C45.3392015,24.1251561 45.4330403,23.1131892 45.7753389,22.1779997 C46.1773531,21.0764594 46.4332773,19.8640186 46.4908602,18.6803693 C46.6220214,16.0091608 46.3383721,13.4147295 44.7825664,11.1775257 M25.5733247,10.2636632 C25.574391,10.5473125 25.6298413,10.8298954 25.5221398,11.0964831 C25.4027086,11.1466016 25.3397939,11.2372414 25.3344621,11.3684025 C25.3387275,11.4505115 25.3429929,11.5315542 25.3472583,11.6136632 C25.2384906,11.9229049 24.9335143,12.1244452 24.7010498,12.3622414 C24.5986801,12.4678101 24.4835143,12.6394926 24.3598176,12.7184025 C24.2393199,12.7493267 24.120955,12.7855826 24.0036564,12.8271703 C23.9674005,12.8676916 23.9300782,12.9092793 23.8938223,12.9498006 C23.6560261,13.0415068 23.0194147,13.1001561 22.7720214,13.014848 C22.5758128,12.9466016 22.5288934,12.8239712 22.3316185,12.7567911 C22.1119503,12.6832129 21.8944147,12.8527627 21.667282,12.7237343 C21.4380166,12.5925731 21.1213105,12.2065542 20.9240356,12.0210092 C20.4324479,11.5560802 19.7190593,10.7104641 19.9824479,9.96828403 C20.0517607,9.77314185 20.1605285,9.71662527 20.2330403,9.52148309 C20.3322109,9.25809446 20.1978507,9.22077219 20.3951256,8.98617503 C20.4836327,8.92112764 20.5657417,8.84754944 20.6403863,8.76650678 C20.6553152,8.70465844 20.6702441,8.64174375 20.685173,8.57882906 C20.6777086,8.4156774 20.7544858,8.33890015 20.9176375,8.3463646 C20.9805522,8.33143569 21.0434669,8.31650678 21.1053152,8.30157787 C21.2460735,8.21307076 21.3015237,8.03072479 21.4412157,7.94008498 C21.542519,7.87290489 21.8027086,7.76307076 21.9114763,7.71295228 C22.1620688,7.59885275 22.4990356,7.34292858 22.7837512,7.42290489 L23.3254574,7.60311816 C23.2102915,7.53807076 23.1239171,7.4357011 22.9831588,7.41544043 C23.1559076,7.40477693 23.3574479,7.36318925 23.4950071,7.41117503 C23.6528271,7.46555892 23.8053152,7.57219399 23.9450071,7.65643569 C24.2350545,7.83025086 24.4525901,8.0392556 24.7021161,8.29411342 C24.8599361,8.45619873 24.920718,8.48072479 25.1083958,8.58522716 C25.2619503,8.67053522 25.4272346,8.68759683 25.5264052,8.86461105 C25.7119503,9.19837882 25.571192,9.88724138 25.5733247,10.2636632 M27.2016422,30.6714831 C27.2016422,30.8282366 27.2794858,31.2515779 27.2187038,31.3870044 C27.0971398,31.6535921 27.045955,31.5426916 26.7921635,31.6578575 C26.5469029,31.7698243 26.595955,31.8188765 26.2771161,31.8391371 C26.0755759,31.8529997 25.7503389,31.7570281 25.5615948,31.8220755 C25.3653863,31.8903219 25.3174005,32.0108196 25.121192,32.079066 C24.9505759,32.1377153 24.5954811,32.0673362 24.4110024,32.0662698 C24.1017607,32.0652035 23.7914526,32.0652035 23.4811446,32.0662698 C23.2977323,32.0673362 22.9415711,32.1377153 22.7720214,32.079066 C22.5758128,32.0108196 22.5278271,31.8903219 22.3305522,31.8220755 C22.1610024,31.7634262 21.8048413,31.832739 21.6214289,31.8338054 C21.1565,31.8370044 20.6915711,31.8338054 20.2266422,31.8338054 C19.8182299,31.8338054 19.2605285,31.729303 18.8841067,31.8849902 C18.620718,31.993758 18.5258128,32.2774073 18.3487986,31.8498006 C18.2816185,31.6855826 18.3839882,31.3144926 18.3722583,31.1310802 C18.4063816,30.9860565 18.3871872,30.85063 18.3146754,30.7237343 C18.2720214,30.6885447 18.2293673,30.6544215 18.185647,30.6202983 C18.1003389,30.4112935 18.1152678,30.193758 18.1301967,29.968758 C18.0918081,29.8216016 18.106737,29.6819096 18.1749834,29.5496821 C18.2368318,29.5347532 18.2997465,29.5198243 18.3615948,29.5048954 C18.4660972,29.4291845 18.6889645,29.3065542 18.8190593,29.2639001 C19.0323294,29.193521 19.2477323,29.315085 19.4769977,29.2255115 C19.5313816,29.1071466 19.6241541,29.0452983 19.7553152,29.0378338 C19.8363579,29.0420992 19.9184669,29.0463646 19.9995095,29.0495637 C20.4143199,28.90454 20.6713105,28.539848 20.6969029,28.1197058 C20.7224953,27.6942319 20.578538,27.1695874 20.742756,26.7718385 C20.8440593,26.5265779 20.9869503,26.6353456 20.8781825,26.311175 C20.7619503,26.2546584 20.6958365,26.1629523 20.6798413,26.0339238 C20.681974,25.9539475 20.6841067,25.8750376 20.6862394,25.7950613 C20.6553152,25.3365305 20.6915711,24.8598717 20.6915711,24.4002746 L20.6915711,22.2899665 C20.6915711,21.8570281 20.7779455,21.3302509 20.703301,20.9069096 C20.6585143,20.6509855 20.5113579,20.4590423 20.4527086,20.2041845 C20.3855285,19.9152035 20.4815,19.9162698 20.2895569,19.6816727 C20.1008128,19.4524073 19.8256943,19.168758 19.5932299,18.9832129 C19.5249834,18.8755115 19.4258128,18.8200613 19.295718,18.8157959 C19.1656233,18.8051324 19.0696517,18.743284 19.0056707,18.6291845 C18.6825664,18.5300139 18.7955996,18.6547769 18.5471398,18.7635447 C17.903064,19.0429286 17.8934669,18.6174547 17.9019977,18.1162698 C17.9094621,17.7217201 17.7633721,17.1842793 18.0662157,16.8867674 C18.2720214,16.6830945 18.3274716,16.7833314 18.5887275,16.7289475 C18.8969029,16.6639001 19.149628,16.5402035 19.4652678,16.490085 C19.8662157,16.4261039 20.3055522,16.3493267 20.6915711,16.2640186 C21.0029455,16.1957722 21.2396754,16.0336869 21.5702441,16.018758 C22.0906233,15.9942319 22.481974,15.7830945 23.0162157,15.793758 C23.1964289,15.796957 23.5589882,15.8620044 23.7253389,15.8044215 C23.9226138,15.736175 23.9695332,15.6135447 24.1668081,15.547431 C24.3651493,15.4813172 24.6541304,15.5644926 24.8759313,15.507976 C25.1478507,15.4386632 25.2608839,15.261649 25.5733247,15.3277627 L25.8057891,15.3277627 C25.7876612,15.3949428 25.7684669,15.4610565 25.7492725,15.5282366 C25.6554337,15.5431656 25.592519,15.5069096 25.5605285,15.4184025 C25.6266422,15.9057248 25.3611209,16.2501561 25.3355285,16.7225494 C25.3142015,17.1234973 25.3408602,17.536175 25.3408602,17.9371229 C25.3408602,18.4660328 25.3653863,19.0013409 25.346192,19.5291845 C25.3323294,19.9098717 25.1297228,20.0548954 25.103064,20.436649 C25.0774716,20.8205352 25.1083958,21.2204167 25.1083958,21.6053693 C25.1083958,22.0244452 24.9836327,22.6322651 25.0966659,23.0236158 C25.1542489,23.221957 25.2843436,23.2560802 25.3536564,23.4522888 C25.3483247,23.6122414 25.3440593,23.7711276 25.3408602,23.9300139 C25.3355285,24.3170992 25.3408602,24.7052509 25.3408602,25.0923362 C25.3408602,26.0915068 25.267282,27.1226679 25.3355285,28.1197058 C25.3014052,28.2647295 25.3205996,28.4001561 25.3931114,28.5270518 C25.4357654,28.5622414 25.4794858,28.5963646 25.5232062,28.6304878 C25.6042489,28.8362935 25.5168081,29.0346347 25.6202441,29.2308433 C25.8409787,29.6509855 26.3666896,29.4899665 26.7409787,29.5048954 C27.1899124,29.5230234 27.185647,29.521957 27.2059076,29.9698243 C27.2165711,30.2012224 27.1995095,30.4390186 27.2016422,30.6714831" transform="translate(.725 .782)"/>
</svg>
