<svg xmlns="http://www.w3.org/2000/svg" width="66" height="65" viewBox="0 0 66 65">
  <path fill="#231F20" fill-rule="evenodd" d="M25.0097653,0.35047191 C25.0033672,0.271561958 24.9959028,0.193718356 24.9895047,0.114808403 C25.3051445,0.479500346 25.5514715,0.731159114 25.7839359,1.12784158 C26.012135,1.51705959 26.2829881,1.9819885 26.4642677,2.38613542 C26.7159265,2.94490319 26.869481,3.30746243 27.3376089,3.75319703 C27.7886753,4.18187001 28.3794336,4.3098321 28.8880829,4.61587475 C29.0960212,4.63720177 29.2581065,4.73423968 29.3722061,4.9069885 C29.6036042,5.01255722 29.9384383,5.22796006 30.1389122,5.30367096 C30.8491018,5.57452404 31.7096468,5.1341212 32.3963767,5.37085106 C32.6149786,5.40284158 32.7738648,5.5169411 32.8719691,5.71314964 C33.154552,5.71101693 33.2302629,5.47002167 33.522443,5.37085106 C33.8818032,5.24822073 34.3648601,5.53506907 34.7242203,5.41137238 C35.0526563,5.29940556 35.1315663,5.09679892 35.4600023,4.98376575 C35.7287227,4.9869648 35.997443,4.99762831 36.2661634,5.01468992 C36.7961397,4.9826994 36.7172298,4.9069885 37.1267084,4.71184632 C37.6406895,4.4655193 38.1077511,4.26931077 38.5918743,3.93660935 C39.0184146,3.64442926 39.3127274,3.31172783 39.7456658,3.06540082 C40.2276563,2.79134869 40.6094099,2.4362539 41.005026,2.00651456 C41.4027748,1.57570888 41.5051445,0.909239683 42.0543151,0.71089845 C42.2867795,0.626656744 42.9884383,0.7098321 43.2454288,0.729026413 C43.3776563,0.72582736 43.5109501,0.721561958 43.644244,0.718362905 C43.8553814,0.742888972 44.0068032,0.850590394 44.097443,1.04146717 C44.6914004,1.27606433 45.362135,1.20995058 45.9710212,1.51492689 C46.754789,1.90947665 47.4543151,2.59514016 48.2775378,2.98009276 C48.6518269,3.09419229 49.0101208,3.24561409 49.354552,3.43329182 C49.8600023,3.75532973 50.1980355,4.25971362 50.680026,4.61587475 C51.604552,5.29833921 52.5962582,5.71634869 53.3075141,6.6419411 C53.9910449,7.53021125 54.9422298,8.17002167 55.7313293,8.96978471 C56.7784857,10.028671 57.7755236,11.1920596 59.0380829,11.9950217 C59.4347653,12.2349506 59.826116,12.4834103 60.2132013,12.7393345 C60.7954288,13.2234577 61.1537227,13.8515383 61.7626089,14.3217989 C62.3512345,14.7771307 62.5815663,15.1759458 63.0113056,15.7763013 C63.3152156,16.2017752 63.9006421,16.5504719 64.119244,17.0239316 C64.2066847,17.2787894 64.2205473,17.5379127 64.1629644,17.8002349 C64.2354762,18.1201402 64.6225615,18.5616094 64.5063293,18.8868463 C64.326116,19.3901639 63.2842914,19.6908748 62.9068032,20.0331733 C62.380026,20.5130312 62.0036042,21.1347136 61.461898,21.5932444 C61.0929407,21.9056852 60.6973246,22.1712065 60.3848838,22.5518937 C60.0788411,22.9272492 59.9114241,23.3132681 59.5232724,23.6385051 C58.6040781,24.4062776 57.533462,24.9778416 56.7134383,25.8458511 C56.1791966,26.4110169 56.2762345,26.274524 55.7505236,25.8362539 C55.4412819,25.578197 55.2749312,25.5899269 54.8793151,25.4619648 L54.4826326,25.2550928 C54.2245757,25.1516567 53.9590544,25.1260643 53.6860686,25.1804482 C53.1667558,24.982107 52.7124904,24.674998 52.1451919,24.4905193 C51.6376089,24.3252349 50.8858317,23.7163487 50.3601208,24.0661117 C51.0137938,25.3969174 50.2054999,26.5347136 50.2172298,27.8633866 C50.211898,28.2270122 50.2140307,28.5906378 50.2257606,28.953197 C50.2385568,29.5823439 50.0530118,29.9630312 49.9143862,30.5772492 C49.7096468,31.4868463 49.8290781,32.4700217 49.8290781,33.3977468 C49.8290781,34.0844766 49.9709028,34.9631496 49.8482724,35.6402823 C49.8098838,35.924998 49.6989833,36.1809221 49.5177037,36.4059221 C49.3822772,37.0329364 49.5646231,37.2483392 49.7437701,37.871088 C49.9858317,38.7156378 49.8290781,39.7233392 49.8290781,40.5945477 L49.8290781,43.3094766 L49.8290781,48.813979 C49.8290781,49.8227468 49.840808,50.8325809 49.8301445,51.8413487 C49.82268,52.1601876 49.8162819,52.4790264 49.8088174,52.7978653 C49.8450734,53.3427705 50.1809738,53.7255904 50.2374904,54.2438368 C50.2204288,54.599998 50.2054999,54.9550928 50.1948364,55.3112539 C50.2342914,55.8902823 50.6416374,56.3935999 50.6437701,56.9576994 C50.5573956,57.3565146 50.4422298,57.7478653 50.3004051,58.1306852 C50.1777748,58.6723913 50.2630829,59.1629127 50.1319217,59.6907563 C49.9591729,59.9200217 49.8514715,60.1759458 49.8088174,60.4585288 C49.7469691,60.8061591 49.8269454,61.2668226 49.8290781,61.6219174 C49.8312108,62.1870833 49.9922298,62.9985762 49.7704288,63.5221544 C49.2831065,63.5701402 48.8352392,63.174524 48.3052629,63.1638605 C47.2453103,63.1435999 46.1139122,63.067889 45.0592914,63.153197 C44.1806184,63.2246425 43.7892677,63.7098321 42.8583435,63.4837657 C41.8591729,63.2406378 41.065808,63.174524 40.0389122,63.1734577 C39.4502866,63.1723913 38.8222061,63.2385051 38.2357132,63.192652 C37.7569217,63.1265383 37.2855947,63.0188368 36.8238648,62.8716804 C36.2309738,62.742652 35.7169928,62.782107 35.1134383,62.7863724 C34.1814478,62.7927705 33.2302629,62.7149269 32.3004051,62.7650454 C31.7064478,62.8258274 31.1210212,62.9324624 30.5441255,63.0870833 C29.6238648,63.2406378 28.7195994,63.1755904 27.7918743,63.171325 C26.894007,63.1681259 25.9961397,63.1798558 25.0972061,63.1638605 C24.2185331,63.1489316 23.5307369,63.5221544 22.6840544,63.5701402 C21.3041966,63.6490501 19.8848838,63.5594766 18.5039596,63.560543 C17.8588174,63.5616094 17.1646231,63.4528416 16.5568032,63.6543819 C16.480026,63.8868463 16.3222061,63.9721544 16.0833435,63.910306 C15.5906895,63.8345951 15.7058554,63.0796188 15.6951919,62.7842397 C15.6706658,62.1177705 15.5853577,61.2945477 15.7890307,60.6590027 C16.0044336,60.3870833 16.112135,60.0757089 16.1100023,59.7227468 C16.1867795,58.9763013 16.0897416,58.1658748 16.090808,57.4130312 C16.090808,56.7838842 16.090808,56.153671 16.090808,55.5234577 C16.090808,54.7652823 15.9415189,53.8386236 16.0705473,53.0921781 C16.1697179,52.5152823 16.4554999,52.1420596 16.4874904,51.5374387 C16.5301445,50.7014198 16.5983909,49.7118463 16.4981539,48.8907563 C16.4245757,48.2893345 16.115334,47.8915857 16.0812108,47.2731022 C16.0502866,46.6994056 15.9671113,45.8943108 16.0705473,45.3334103 C16.1985094,44.6338842 16.501353,44.2457326 16.4874904,43.4800928 C16.4693625,42.4990501 16.5365426,41.7088842 16.7796705,40.7470359 C17.1187701,39.4076994 16.8489833,37.8028416 16.8649786,36.4251165 C16.8745757,35.5560406 16.7594099,34.9311591 16.5642677,34.0887421 C16.3414004,33.1236947 16.6005236,32.1575809 16.3915189,31.1925335 C16.2262345,30.4236947 16.0812108,29.828671 16.0918743,29.0502349 C16.1004051,28.4029601 16.094007,27.7546188 16.090808,27.1084103 C16.0854762,26.3203771 16.1398601,25.885306 16.401116,25.1601876 C16.5951919,24.6206141 16.2358317,24.2548558 16.0140307,23.7632681 C15.6301445,23.8421781 15.519244,24.142889 15.2185331,24.3092397 C14.8367795,24.5182444 14.4752866,24.6419411 14.087135,24.8690738 C13.0335805,25.4832918 12.0898601,26.2180075 11.040571,26.8268937 C10.6982724,27.0252349 10.4540781,27.1265383 10.1672298,27.3984577 C9.81213498,27.7364909 9.64578427,27.7876757 9.19685062,27.9881496 C8.69459944,28.2120833 8.90253783,28.2248795 8.43974162,27.7834103 C8.04945726,27.4123203 7.56640039,27.1585288 7.14945726,26.8172966 C6.85087906,26.5709695 6.70692171,26.3022492 6.41580797,26.0399269 C6.11829612,25.9375572 5.85277479,25.7797373 5.62031034,25.5685999 C5.39104494,25.2902823 5.12552361,25.0535525 4.82481271,24.8573439 C4.45692171,24.5790264 4.11142408,24.3252349 3.77658996,24.0063961 C3.69234825,23.774998 3.53879375,23.6097136 3.3148601,23.510543 C3.03547621,23.4007089 2.76249043,23.2780785 2.4948364,23.142652 C2.13440986,22.8771307 2.05336721,22.5348321 1.66734825,22.2618463 C1.20028664,21.9334103 0.64258522,21.6700217 0.282158679,21.2061591 C-0.040945586,20.7913487 -0.135850799,20.5834103 0.261898016,20.2240501 C0.798272423,19.7399269 1.52872266,19.6386236 2.05443356,19.0787894 C2.51829612,18.5861354 2.68251413,17.9591212 3.18583167,17.4899269 C3.47587906,17.2638605 3.77339091,17.0484577 4.07943356,16.8437184 C4.33215868,16.514216 4.58595015,16.1868463 4.84294067,15.860543 C5.14365157,15.6067515 5.4091729,15.3209695 5.640571,15.0021307 C5.82824873,14.6502349 5.97967053,14.2844766 6.09377005,13.9027231 C6.43180323,13.2799743 7.12706389,12.896088 7.57813024,12.3629127 C7.79886484,12.1016567 8.02493119,11.7849506 8.22860418,11.5098321 C8.62635299,10.9723913 9.16379375,10.5106615 9.51782219,9.94976101 C9.82706389,9.46137238 9.95182693,8.94952404 10.3410449,8.5155193 C10.8123719,7.9898084 11.4681776,7.32440556 12.1154525,7.02902641 C12.6987464,6.76350509 12.8810923,6.62381314 13.3438885,6.17594584 C13.9421113,5.59798376 14.7706658,5.20663305 15.4296705,4.70331551 C16.6218506,3.79478471 17.8812108,2.93423968 19.180026,2.19525864 C20.3156895,1.55011646 21.4385568,1.04999798 22.7032487,0.73968992 C23.2620165,0.602130678 23.6629644,0.416585654 24.2345283,0.35047191 C24.5053814,0.41018755 24.7666374,0.379263379 25.0172298,0.256633048 C25.2177037,0.056159114 25.4512345,-0.0259498907 25.7188885,0.0071069813 C25.7412819,0.122272858 25.7519454,0.178789446 25.7743388,0.292888972" transform="translate(.863 .723)"/>
</svg>
