<svg xmlns="http://www.w3.org/2000/svg" width="913" height="930" viewBox="0 0 913 930">
  <path fill="#F07924" fill-rule="evenodd" d="M81,359.81977 L131.266983,224.844393 L156.627522,234.131462 L138.411677,283.042947 L223.960533,314.350923 L209.502423,353.186444 L123.947317,321.876403 L106.373037,369.108904 L81,359.81977 Z M277.016734,227.455624 L246.882761,256.063695 L165.602219,171.017596 L231.227131,108.710609 C247.474519,93.2828627 260.190046,84.5994524 270.104586,82.1595714 C280.729236,79.5562039 290.915777,83.2605186 300.392209,93.1731819 C308.901064,102.078023 312.956163,109.780515 312.783827,116.721448 C312.707002,119.817345 311.751884,123.271256 309.895633,127.13078 C321.786852,122.611102 330.19189,127.13078 335.63191,132.823835 L355.157844,153.25758 L325.032177,181.873928 L308.373673,164.445024 C305.965115,161.928574 299.574129,155.242182 283.239535,170.744429 L251.562839,200.823878 L277.016734,227.455624 Z M213.551219,161.049058 L233.747812,182.182276 L265.335225,152.191814 C275.293369,142.740637 277.496369,137.985042 277.924096,135.992162 C278.713106,132.31682 275.405491,127.908893 272.490305,124.856454 C266.753368,118.855051 263.580715,118.337688 262.189565,118.501175 C260.831636,118.701912 256.61043,120.167082 246.810089,129.469258 L213.551219,161.049058 Z M377.866398,132.532871 C365.653345,128.329819 356.635786,115.267453 350.298785,92.6007721 C342.846789,65.9400536 343.108408,48.0848429 351.094025,38.0149014 C358.757809,28.3485026 379.834771,18.8311041 415.537497,8.92257969 C447.38653,0.0736134231 468.488409,-2.16553099 480.039107,2.08097948 C492.086052,6.50132372 501.151368,20.128649 507.752064,43.7452072 C514.936212,69.4436317 514.491875,86.7669939 506.392059,96.7003517 C498.636916,106.201195 477.728137,115.57787 442.469749,125.364297 C420.65776,131.421576 403.870523,134.428486 391.713532,134.428486 C386.134397,134.428486 381.531144,133.795235 377.866398,132.532871 Z M386.221604,48.4925245 C385.501113,49.6969441 383.71961,55.731459 391.21521,82.4873722 C396.410221,101.091724 400.938726,104.574607 402.645481,105.207859 C404.57648,105.930097 411.953728,106.78064 438.92543,99.293372 C464.476913,92.1992989 469.775742,87.5595931 470.867898,85.8957556 C471.675596,84.6602942 473.828764,78.8492799 467.466848,56.0874043 C461.09455,33.2882787 456.584732,29.6419086 455.35346,29.068671 C454.907046,28.8596566 453.864722,28.5637253 451.593202,28.5637253 C447.203812,28.5637253 438.227779,29.6750198 420.080537,34.7182683 L420.07846,34.7182683 C391.599333,42.6194267 386.964935,47.2591326 386.221604,48.4925245 Z M591.444901,116.474356 C566.456108,112.236123 550.885608,107.190805 543.840575,101.050749 C536.315906,94.4802462 533.899042,82.9554817 536.660579,66.7930807 L539.291306,54.8316623 L578.127234,61.4125119 L577.963203,65.0795765 C577.776332,69.3550593 577.506408,72.502692 577.138895,74.698378 C576.833672,76.4801741 576.580359,78.6779295 576.389335,81.2440469 C576.036357,85.1139176 583.448903,88.6775097 596.212186,90.8400845 C608.205146,92.8743534 611.739083,91.4878222 612.534322,91.0097793 C613.250661,90.5834727 615.725662,88.4333147 617.36805,78.7751936 L630.311975,2.94228439 L671.348828,9.89770432 L657.966794,88.2532725 C655.367212,103.523741 649.223311,113.214973 639.709506,117.049663 C635.467536,118.763167 629.682843,119.61785 622.255762,119.61785 C614.037595,119.61785 603.811603,118.570708 591.444901,116.474356 Z M695.796506,146.955249 L659.057809,121.512927 L777.96084,60.6813276 L823.151639,91.9786995 L808.238364,224.844393 L772.021299,199.758428 L774.837282,176.166268 L716.774014,135.951652 L695.796506,146.955249 Z M740.311885,123.499831 L778.366092,149.857912 L784.26199,100.574807 L740.311885,123.499831 Z M828.60945,265.882494 L810.648663,228.34152 L917.279133,177.633188 L944.257776,234.058788 L912.873224,300.875083 C910.155172,306.625555 906.721186,313.513255 902.658677,321.351412 L897.730387,330.745994 L899.464029,329.803838 L912.263432,323.428721 L973.155288,294.468837 L991.10567,332.018113 L884.487688,382.716068 L857.504882,326.309145 L891.070535,253.480899 C892.747985,249.861691 895.796948,244.107069 900.392246,235.878768 L903.774202,229.750603 L902.304872,230.551643 L889.278618,237.030522 L828.60945,265.882494 Z M918.106827,554.102344 L994,569.054402 L985.893712,610.011211 L907.467714,594.559022 C892.172948,591.545783 882.595249,585.131236 879.00101,575.489701 C875.619054,566.439607 876.241334,550.611801 880.907393,527.107706 C885.841927,502.173775 891.340467,486.688382 897.713113,479.771629 C904.506161,472.390023 916.158821,470.260833 932.365154,473.454618 L944.329993,476.407675 L936.646189,515.166812 L932.962459,514.913634 C928.65853,514.6148 925.501344,514.259935 923.309836,513.832437 C921.528326,513.479647 919.326413,513.172513 916.756126,512.915184 C912.85595,512.421278 909.086891,519.809109 906.554066,532.559344 C904.189818,544.535517 905.492652,548.119446 905.948435,548.932937 C906.358433,549.661344 908.452123,552.199355 918.106827,554.102344 Z M849.870097,627.888164 L876.454029,591.72397 L933.790661,712.645719 L901.097648,757.130695 L768.453696,738.639839 L794.676929,702.976972 L818.211503,706.430096 L860.255741,649.228887 L849.870097,627.888164 Z M872.024064,673.188576 L844.469976,710.675774 L893.661859,717.898212 L872.024064,673.188576 Z M731.848726,757.409898 L770.787378,742.2226 L813.654798,852.073438 L756.852817,874.238459 L707.20614,837.037785 C703.832094,834.466061 699.373533,830.807898 693.545825,825.836868 L685.883582,819.039872 L684.878017,829.062948 C684.231879,836.16531 683.469394,842.037898 682.621728,846.477134 L671.859684,907.400819 L613.950335,930 L571.072526,820.147084 L610.007022,804.953555 L633.243063,864.479202 C634.826205,868.527902 636.442589,873.154097 638.054818,878.247689 C638.894175,870.920976 639.646271,865.355832 640.294487,861.639504 L654.339161,787.655699 L687.011727,774.903022 L747.594967,819.166589 C750.850589,821.540967 755.192803,825.093187 760.854303,830.012284 C758.446347,824.995553 756.549485,820.701729 755.082689,816.935545 L731.848726,757.409898 Z M510.898063,825.415605 L525.489482,806.848925 L569.552084,814.962686 L486.204253,918.806441 L432.00607,908.822179 L390.540633,782.003886 L433.993358,790.006161 L441.199868,812.582236 L510.898063,825.415605 Z M494.559988,846.36067 L448.885567,837.947547 L463.937506,885.141558 L494.559988,846.36067 Z M354.154885,749.668737 L390.540633,770.23375 L332.44396,872.791036 L296.062368,852.226023 L354.154885,749.668737 Z M284.85,686.588654 C309.069932,713.494047 320.870459,732.312078 320.92482,744.117887 C320.987544,756.122564 309.230925,772.369792 284.987994,793.7897 C274.193147,803.327153 263.747465,808.120738 253.809849,808.120738 C250.138389,808.120738 246.538016,807.466125 243.015002,806.156901 C230.698046,801.580829 213.151977,786.508175 189.371115,760.070953 C171.900315,740.658385 162.280502,726.271416 159.965977,716.085566 C157.486277,705.151884 162.125782,694.400498 173.754862,684.133858 L178.523998,679.441779 L206.760374,710.817594 L201.497807,715.455812 C195.43237,720.814932 196.427595,724.048634 196.751671,725.111343 C197.441638,727.346554 200.536035,733.254637 213.534595,747.691324 C231.488372,767.64664 237.875794,770.671115 239.788884,771.046067 C241.131183,771.300869 246.648829,771.135144 261.476846,758.038755 C282.223944,739.705468 284.187214,733.443149 284.295936,731.959914 C284.400477,730.491179 283.3488,724.150141 265.359479,704.151321 C252.05357,689.366613 245.67033,684.612388 242.659565,683.230658 C240.568756,682.261169 237.148192,681.548554 231.649364,686.408428 L225.15113,692.792969 L196.933571,661.425441 L202.890286,656.147111 C215.583588,644.93584 227.543016,641.430764 238.473765,645.745819 C248.528466,649.719067 263.701467,663.078544 284.85,686.588654 Z M221.491525,594.268081 L232.662479,637.739375 L103.436353,606.17774 L89.7019455,552.706906 L187.286675,461.139714 L198.302706,504.006171 L180.84809,520.149682 L198.517532,588.907696 L221.491525,594.268081 Z M161.082029,537.908168 L124.609112,571.637651 L172.657848,582.971573 L161.082029,537.908168 Z M542.5,143 C715.64234,143 856,282.909948 856,455.5 C856,628.090052 715.64234,768 542.5,768 C369.361815,768 229,628.090052 229,455.5 C229,282.909948 369.361815,143 542.5,143 Z M425.693538,588.991566 C445.124575,589.747523 499.201949,601.954667 542.491689,497.717583 C542.491689,497.717583 543.648991,488.565331 545.942817,493.142493 C546.258634,493.776253 546.597306,494.55085 546.973377,495.40622 C549.209027,500.530155 552.6373,508.462521 560.18989,505.970971 C560.405975,505.892269 560.632449,505.811496 560.871389,505.72658 C573.932071,500.509444 583.11361,489.832853 589.236713,479.156261 C592.185028,473.995046 604.587066,449.34465 595.94574,432.413295 C595.135421,430.84132 594.165116,429.333549 592.978726,427.914836 C591.075514,425.65318 588.711045,423.787106 586.053614,422.403602 C578.669321,418.563757 568.978735,418.543046 560.351953,424.588627 C553.104792,425.203748 545.976061,426.040478 538.795387,426.916559 C535.712019,427.291431 533.322617,427.75536 530.106273,427.900338 C527.103937,428.037032 523.775395,427.778142 520.750204,428.140587 C519.547192,428.285565 507.128532,430.050154 506.739994,429.153362 C505.780078,426.928986 505.007158,424.723249 504.560443,422.714269 C504.338125,421.709779 504.12204,420.752924 503.908033,419.816781 C504.051397,420.452613 530.721284,418.052192 532.871747,417.828512 C539.034327,417.188538 545.203141,416.152981 551.371955,415.616562 C555.051635,415.29554 558.752093,415.297611 562.43385,415.024224 C565.218024,414.81297 567.792345,413.769129 570.507953,413.649004 C577.408132,413.352835 584.110926,413.000746 590.982016,412.420834 C591.960632,412.34006 604.454091,411.46605 604.508112,411.01869 L605.864877,399.979653 C605.790079,400.603059 587.695029,401.578553 586.537727,401.682109 C574.11699,402.773586 561.727418,403.862992 549.296292,404.958611 C541.467363,405.648292 533.640511,406.335902 525.805348,407.025582 C517.567104,407.750472 509.330937,408.475362 501.084382,409.198181 C500.062133,406.126719 498.892365,403.504689 497.392236,401.187113 C497.772462,401.773238 504.676797,400.518143 505.399851,400.501574 C510.207744,400.406303 515.086281,399.892667 519.919107,399.892667 C524.702068,399.892667 529.412307,399.103572 534.12878,398.386967 C538.712278,397.693144 543.206432,397.804984 547.854339,397.181579 C554.488567,396.295142 561.363814,396.657587 568.07284,395.963764 C579.922199,394.737664 591.692604,393.161547 603.618839,392.150843 C605.000537,392.03279 606.388468,391.914736 607.774322,391.796683 L608.221036,391.759403 C608.306223,389.8022 608.343623,387.894705 608.339467,386.022418 C608.29999,369.743464 604.94236,356.64574 599.170395,346.147264 C598.393319,344.724409 597.553912,343.34919 596.685416,342.017464 C593.097157,336.529012 588.79831,331.823442 583.923929,327.828263 C581.93553,326.208652 579.880644,324.692597 577.728104,323.298737 C532.449965,293.855784 450.902774,312.286626 431.344995,317.313219 C430.597008,317.346356 429.865643,317.377423 429.063635,317.462339 C411.091172,319.367764 397.010319,306.429516 400.962183,297.527869 C400.962183,297.527869 365.501372,343.88975 363.714514,376.451801 C361.726116,412.543029 374.429426,426.786079 378.51011,432.380157 C382.590794,437.974235 385.142261,440.507207 381.053266,450.686732 C376.976737,460.857971 364.963237,482.55703 364.223561,488.312655 C363.512973,493.834245 363.205468,499.494599 379.019157,505.5961 L373.660662,516.276833 C373.660662,516.276833 373.918302,525.433227 379.019157,528.479836 C379.019157,528.479836 375.983577,548.785035 383.86445,549.582414 C396.407774,550.849935 395.337737,558.734665 395.337737,566.36672 C395.337737,573.990489 402.447768,588.080276 425.693538,588.991566 Z M711.746575,656.021092 L711.746575,653.819498 L699.348693,653.819498 L699.348693,656.021092 L704.25424,656.021092 L704.25424,671.165076 L706.841028,671.165076 L706.841028,656.021092 L711.746575,656.021092 Z M731.680425,671.165076 L731.680425,653.819498 L728.399672,653.819498 L723.531524,666.44915 L718.501312,653.819498 L715.199781,653.819498 L715.199781,671.165076 L717.62035,671.165076 L717.62035,658.104633 L722.883269,670.999387 L722.951834,671.165076 L723.951228,671.165076 L729.09156,658.148126 L729.09156,671.165076 L731.680425,671.165076 Z M743.282533,438.552076 C751.695308,432.452646 748.256646,422.155068 748.256646,422.155068 C758.08644,411.010405 749.297594,404.353846 747.169987,402.978626 C750.415419,397.682788 746.347202,385.295457 746.347202,385.295457 C754.764132,364.696159 739.694274,350.475892 739.694274,350.475892 C743.444597,335.901465 724.352232,321.921447 724.352232,321.921447 C724.352232,321.921447 728.966895,314.04293 726.259598,304.76434 C724.543384,298.853382 717.965255,293.594824 717.973566,293.325579 C718.164718,281.692133 707.584859,280.428754 707.576548,280.296202 C706.307048,265.866753 689.448255,269.741807 689.448255,269.741807 C692.072443,259.645127 681.945531,254.786294 681.945531,254.786294 C681.207933,234.226348 655.325509,237.96885 655.325509,237.96885 C653.827458,235.715479 647.824863,233.482818 647.824863,233.482818 C636.204056,206.941495 589.704205,195.726414 578.831385,193.489611 C567.96272,191.240382 491.460284,178.163369 432.965633,203.201064 C374.475137,228.251185 372.975007,274.971369 372.975007,274.971369 C372.222865,296.647646 387.598151,295.523031 387.598151,295.523031 C391.917775,304.915532 399.272979,298.743613 400.893618,297.219273 C407.23904,311.284207 420.717348,306.367382 420.717348,306.367382 C424.714922,306.367382 438.216085,298.892733 438.216085,298.892733 C455.212009,298.892733 471.210617,292.408076 474.707456,294.410843 C478.210528,296.397041 486.213987,296.896179 499.715151,296.397041 C513.210081,295.899973 533.941783,291.739106 536.439229,291.739106 C538.94914,291.739106 547.659032,291.22547 581.204165,310.849273 C614.6745,330.427511 623.488279,396.736289 624.95932,410.302084 C624.533383,410.326938 624.302754,410.333151 624.302754,410.333151 C620.097405,410.716307 610.907555,408.808811 610.523173,417.579978 C610.147102,426.347003 616.270206,425.967989 616.270206,425.967989 C607.84912,438.941445 620.862014,443.510322 620.862014,443.510322 C619.887553,446.884167 620.874481,449.243165 623.216095,450.875203 C623.401014,451.001541 623.656576,451.086457 623.847728,451.200368 C618.397813,464.420287 610.924177,484.331975 608.915001,498.7345 C605.640481,522.160868 601.019584,525.362809 598.038026,528.624814 C595.050234,531.89096 568.033363,572.602843 559.446058,624.81355 C554.764907,653.2458 549.479133,663.986596 548.068347,668.986264 C546.667949,673.975577 539.14237,690.113696 539.412476,693.899692 C539.697127,697.693972 544.889403,701.656013 549.892604,699.311512 C549.892604,699.311512 566.283905,664.141929 568.773039,651.619975 C568.773039,651.619975 568.702396,677.258293 565.936922,685.990108 C565.936922,685.990108 566.101064,693.139593 571.814852,693.758856 L568.064529,719.272907 C568.064529,719.272907 569.450383,726.470027 576.826364,726.720632 L577.499553,742.715843 C577.499553,742.715843 586.693558,749.755559 593.047291,743.672698 L593.446217,732.33335 C593.446217,732.33335 606.351069,738.660602 611.094552,732.093101 C611.094552,732.093101 610.733025,695.096796 618.460145,673.084999 C618.460145,673.084999 624.03057,677.900338 630.698042,675.18925 C630.698042,675.18925 634.178258,704.731617 633.066667,713.094774 C633.066667,713.094774 637.299026,721.234251 647.739676,715.702306 L650.079213,659.875435 C650.079213,659.875435 655.057481,666.637621 661.558733,665.738758 C661.558733,665.738758 665.585396,663.071163 669.306631,653.111177 C669.306631,653.111177 669.443762,653.214733 669.636992,653.365924 C672.138592,648.919243 697.865185,603.124847 700.630659,592.821056 C700.630659,592.821056 687.281171,641.618567 677.139716,658.075637 C680.588766,659.82987 684.440899,661.101534 686.996521,659.892004 C686.996521,659.892004 690.672045,657.903735 694.461845,645.439772 C698.411631,632.464244 699.051576,631.300278 699.519068,629.633032 C699.982404,627.967856 708.031574,608.915681 708.490755,595.474153 C708.962402,582.040909 716.712377,571.380886 716.712377,571.380886 C716.712377,571.380886 720.144806,566.876214 719.899632,562.241061 C719.64407,557.610051 720.400368,571.505153 727.155105,589.395434 C733.918153,607.279501 728.486937,627.013073 728.019445,629.90849 C726.941098,636.604401 736.65246,640.297197 738.599304,632.801836 C745.408062,606.562896 734.747172,573.536916 734.747172,573.536916 C729.168436,554.010455 735.395427,489.582248 738.599304,460.592869 C738.640859,458.107532 738.669947,455.941147 738.690725,454.159989 C746.301491,450.703301 743.282533,438.552076 743.282533,438.552076 Z M590.026979,282.914332 C590.026979,282.914332 646.439029,278.845964 654.09329,278.34234 C661.730952,277.828354 683.888679,273.759985 685.930369,273.759985 C685.930369,273.759985 679.305252,285.204473 663.637774,285.592035 C635.620564,286.271824 592.579091,293.098724 590.026979,282.914332 Z M692.428502,324.892098 C704.265737,339.776978 697.00363,358.858723 697.00363,358.858723 C695.856217,343.980061 679.813184,327.947001 680.576743,328.332491 C681.336152,328.707618 692.428502,324.892098 692.428502,324.892098 Z M617.027909,315.740239 C617.027909,315.740239 693.441878,316.502928 709.109356,297.798383 C709.109356,297.798383 689.875145,331.505942 617.027909,315.740239 Z M687.189411,408.754367 C686.512997,405.525372 685.842808,400.654936 685.290888,393.328557 C683.259573,366.364997 671.030184,343.979646 654.723641,330.746569 L672.046879,328.20358 C672.046879,328.20358 703.819637,366.056191 692.582044,408.615508 C690.797641,408.661103 688.990413,408.708771 687.189411,408.754367 Z M631.548181,240.942576 C625.049633,227.966492 609.390454,218.803856 609.390454,218.803856 C625.437637,216.51786 639.189993,239.792324 639.189993,239.792324 L631.548181,240.942576 Z M511.711168,218.040959 C511.711168,218.040959 503.949013,212.186074 484.20438,217.280342 C483.046593,217.585003 517.825862,201.255573 571.181603,224.915527 L564.819997,231.781805 C564.819997,231.781805 559.468861,224.915527 549.783285,227.707219 C549.783285,227.707219 541.890411,217.280342 530.81466,226.055416 C530.81466,226.055416 528.017711,214.223366 511.711168,218.040959 Z M580.349702,218.293185 C580.349702,218.293185 561.503496,198.962737 486.629094,200.997958 C486.629094,200.997958 544.184407,190.314087 595.633326,213.721193 C595.633326,213.721193 583.912284,215.242427 580.349702,218.293185 Z M575.773744,252.892345 C575.773744,252.892345 590.586369,222.204456 604.421721,229.110112 C619.705344,236.739079 623.651781,243.740071 623.651781,243.740071 C623.651781,243.740071 603.274308,249.329673 590.293809,252.384576 C580.871744,254.600106 577.80506,253.398041 575.773744,252.892345 Z M578.827357,267.145934 C578.827357,267.145934 605.331974,264.505536 623.142811,260.78328 C641.993167,256.837191 654.093912,256.588488 662.490983,255.821653 C671.176464,255.038238 677.143841,259.251683 677.143841,259.251683 C677.143841,259.251683 677.031797,264.511754 663.638396,265.740761 C648.358923,267.145934 636.137833,266.126251 622.767256,268.416392 C608.877957,270.791507 587.741075,277.954156 578.827357,267.145934 Z M657.018259,395.117147 C657.018259,395.117147 662.116259,399.183443 665.678841,403.765797 C666.81588,405.22071 667.301403,407.264221 667.438346,409.382342 C664.801164,409.477678 662.199254,409.579232 659.655442,409.672496 C657.126154,402.826943 657.018259,395.117147 657.018259,395.117147 Z M537.543729,387.713671 C528.746205,388.463925 519.95283,389.214179 511.155306,389.962361 C504.648457,390.517798 498.141609,391.073235 491.630611,391.628672 C490.16989,391.753023 485.756604,392.950943 484.401702,392.244212 C481.02171,390.484638 476.921731,388.797602 471.854855,387.017302 C469.977082,386.356166 468.192678,385.688813 466.493345,385.004879 C467.3316,385.342701 469.362915,384.762394 470.232293,384.68571 C473.80525,384.383122 477.384431,384.095041 480.955313,383.773799 C498.274402,382.20697 515.543693,380.826667 532.873156,379.348957 C542.575332,378.522019 552.281657,377.697154 561.983832,376.868143 C569.779186,376.202862 577.626412,376.111671 585.401016,375.145874 C587.085825,374.938622 602.566563,371.862993 602.991915,373.371792 C603.846769,376.401825 604.502434,379.288853 604.977583,381.966557 C590.752152,383.178984 576.412602,385.705393 562.170572,385.819382 C553.983065,385.885703 545.677289,387.021447 537.543729,387.713671 Z M477.969342,223.897502 C452.624588,219.949341 433.774232,224.915112 433.774232,224.915112 C454.025137,201.628213 477.969342,223.897502 477.969342,223.897502 Z M509.604327,370.472536 C496.125856,371.620715 482.736605,372.762677 469.268508,373.908784 C465.664428,374.21759 462.060347,374.524324 458.452118,374.83313 C456.771458,374.976134 450.092394,376.569907 448.832938,375.65385 C446.083711,373.645573 441.361267,370.381345 440.213854,367.059086 C441.917336,366.505722 444.139541,366.754425 445.946769,366.582405 C448.027881,366.38966 450.100694,366.130594 452.181807,365.952357 C483.693128,363.264291 515.206524,360.574153 546.744819,357.886087 C558.063332,356.92029 569.37977,355.954493 580.700358,354.988696 C581.818723,354.89336 593.865521,352.901662 594.431966,353.817719 C596.28484,356.814591 597.85968,359.834261 599.191758,362.837351 C598.936547,362.267406 588.317271,363.76377 587.553713,363.830091 C578.669043,364.586563 569.520862,366.153392 560.636193,366.153392 C552.226673,366.153392 543.454047,367.58758 535.036227,368.304674 C526.56031,369.027985 518.080244,369.751297 509.604327,370.472536 Z M500.648489,351.654002 C492.747316,352.08716 485.286019,353.614611 477.426344,353.614611 C474.540175,353.614611 435.97631,356.033249 436.013658,356.464334 C435.735623,353.11306 436.356015,349.863339 437.603022,346.843669 C437.991026,345.919323 448.720271,345.931758 449.678869,345.911033 C457.304082,345.739013 464.900246,344.997049 472.50056,344.396016 C476.500944,344.07892 480.497178,343.788766 484.505861,343.64369 C487.788334,343.521411 490.348746,342.505873 493.552372,342.074788 C497.94906,341.48619 502.439117,341.318316 506.854478,340.941116 C515.585606,340.197079 524.320884,339.455115 533.052012,338.709006 C545.891418,337.614712 558.734973,336.518346 571.572304,335.426125 C573.358782,335.272758 575.143186,335.121464 576.925515,334.970169 C580.61674,337.652018 583.857715,340.568061 586.685787,343.620892 C586.189889,343.08618 581.230907,344.085138 580.537894,344.145241 C575.114138,344.607414 569.688306,345.069587 564.264549,345.533833 C549.053547,346.829162 533.956663,348.161796 518.84733,349.927588 C516.035857,350.257119 513.124789,350.192871 510.313316,350.424994 C507.051592,350.69235 503.881164,351.477837 500.648489,351.654002 Z M543.066665,437.741749 C543.813625,437.679573 545.977733,437.893043 546.608499,437.43916 C541.23039,441.298203 530.057119,448.334428 520.058234,448.334428 C517.825655,448.334428 514.40209,445.010097 511.190164,440.465048 C511.515921,440.929293 516.70729,439.973859 517.292409,439.942771 C523.160192,439.625675 528.762389,438.964539 534.582449,438.467133 C537.410521,438.224647 540.238593,437.982162 543.066665,437.741749 Z M450.901393,334.868823 C450.096337,334.893693 447.093974,334.680223 446.43416,335.229442 C449.612888,332.572464 453.125673,330.582839 456.350049,329.503053 C504.398226,316.035781 537.054885,317.343545 559.276934,325.614995 C532.058555,327.934151 504.894124,330.989054 477.69442,332.964172 C471.629523,333.403547 465.585374,334.176599 459.514253,334.603539 C456.640533,334.806647 453.770963,334.775559 450.901393,334.868823 Z M646.064512,331.250607 C646.064512,331.250607 670.006642,367.385094 671.029562,383.15287 C671.029562,383.15287 658.804323,376.027527 658.2939,374.506293 C657.785553,372.974696 649.635394,341.940695 637.918502,332.784276 C637.918502,332.784276 642.49363,332.268217 646.064512,331.250607 Z M705.697203,341.387953 C705.881868,339.352732 706.688999,326.505145 698.026342,321.584969 C698.026342,321.584969 713.818313,319.04198 716.364201,308.865878 C716.364201,308.865878 719.926783,323.620189 711.270351,333.288522 C706.655801,338.306107 705.834145,340.627336 705.697203,341.387953 Z M707.073891,408.329499 C706.026072,408.346079 704.972029,408.364732 703.886863,408.377167 C704.03418,373.935934 719.925746,339.656357 719.925746,339.656357 C719.925746,339.656357 716.87981,367.38468 712.800581,390.785568 C710.866786,401.908814 708.758699,406.536764 707.073891,408.329499 Z M405.630453,287.491091 C417.343195,258.995934 445.870828,256.971076 445.870828,256.971076 C437.728968,262.56275 436.197701,274.264231 436.197701,274.264231 C431.40471,272.989628 420.629817,278.502546 413.239067,282.794747 C409.85285,284.952246 407.385808,286.587469 405.472762,288.075543 C405.572357,287.737721 405.630453,287.491091 405.630453,287.491091 Z M728.268247,408.419032 C727.000491,408.377582 725.631065,408.346494 724.176568,408.317478 C727.66238,398.887486 734.737747,378.473107 735.976455,364.583039 C735.976455,364.583039 740.97071,393.708244 728.268247,408.419032 Z M730.624905,357.718212 C738.775064,360.76897 717.385046,397.910705 717.385046,397.910705 L730.624905,357.718212 Z M647.695373,410.150835 C640.375169,395.605849 635.111179,374.248471 635.111179,374.248471 C635.111179,374.248471 641.993582,381.885728 648.863535,389.512623 C652.946914,394.039019 653.438663,403.203728 653.173077,409.922857 C651.287004,410.005758 649.465253,410.080369 647.695373,410.150835 Z M647.70388,517.659794 C643.549955,528.453508 609.808129,590.803374 598.900444,613.980429 C587.994834,637.165775 573.532866,690.085649 573.532866,690.085649 C575.85674,659.451645 594.063881,607.928654 617.364871,567.085389 C637.003684,532.691823 661.995708,472.263189 669.398907,454.033252 C670.992421,454.000092 672.540288,453.979366 673.953286,454.004237 C674.117202,454.008382 674.270744,454.008382 674.428436,454.012527 C668.456908,470.482889 651.386806,508.132393 647.70388,517.659794 Z M590.210814,727.535361 C587.341244,639.948348 617.636681,608.180673 617.636681,608.180673 C597.331829,643.09237 590.210814,727.535361 590.210814,727.535361 Z M677.528525,458.961718 C677.528525,458.961718 671.814284,514.706444 621.819862,596.687274 C621.819862,596.687274 673.799952,481.541887 677.528525,458.961718 Z M670.408133,551.392223 C683.805684,533.207882 685.828699,529.489771 685.783052,530.751939 C685.457294,540.281413 682.867834,566.457413 672.852351,578.113298 C670.507728,580.836597 657.655872,595.541168 657.655872,595.541168 C660.977768,580.515356 670.408133,551.392223 670.408133,551.392223 Z M691.952731,454.22807 C694.050442,454.250867 696.158528,454.273665 698.227191,454.304753 C695.681304,500.969744 670.3241,533.587154 670.3241,533.587154 C674.737386,520.074286 688.153611,468.845594 691.952731,454.22807 Z M617.006953,662.979291 C622.121551,612.26044 660.702015,543.769681 660.702015,543.769681 C660.702015,543.769681 653.518754,556.557165 640.550705,603.215938 C632.182682,633.277924 624.835504,649.39803 620.66083,657.07052 C618.345255,661.323343 617.006953,662.979291 617.006953,662.979291 Z M700.56642,423.147851 C704.6415,423.377902 740.553658,422.675315 743.869329,421.02973 C743.869329,421.02973 741.070305,430.656612 678.668054,429.713613 C616.259578,428.778904 615.506394,423.377902 614.483474,423.84422 C614.483474,423.84422 625.941005,420.092948 641.47154,420.801752 C657.010375,421.502266 696.48719,422.905366 700.56642,423.147851 Z M698.272216,440.393131 C708.841695,440.015931 718.311483,439.323708 725.594339,438.492625 C732.906244,437.663615 738.008393,436.704035 739.792797,435.816994 C739.792797,435.816994 738.98359,441.626284 725.085992,443.823161 C723.324412,444.098807 721.369868,444.320567 719.162187,444.463572 C699.539973,445.736102 653.189054,447.524692 653.189054,447.524692 C653.189054,447.524692 634.527513,449.124682 624.456007,444.312277 C623.179951,443.705027 622.044988,443.004513 621.102989,442.175503 C621.102989,442.175503 622.349996,442.152705 624.50788,442.1154 C636.928158,441.879132 680.260115,441.052194 698.272216,440.393131 Z M694.159374,554.452515 C694.651122,538.145882 707.92418,456.639661 707.92418,456.639661 C710.428569,463.669668 703.494294,520.137706 703.174761,521.252724 C702.849004,522.367743 700.274068,540.085766 700.450434,559.44523 C700.620574,578.79433 680.799171,597.2481 664.91383,621.030333 C651.003782,641.857145 648.416397,651.589726 648.416397,651.589726 C648.725555,640.512075 652.734238,621.940172 654.506193,619.471794 C658.187044,614.358873 672.393801,599.697825 679.998264,590.703063 C687.606878,581.714519 693.75892,568.042066 694.159374,554.452515 Z M723.554725,455.280498 C723.801636,455.301223 724.038173,455.311586 724.276785,455.334384 C725.260282,455.417285 726.193982,455.522984 727.146355,455.622465 C726.04044,475.95187 717.531325,552.448797 717.531325,552.448797 C710.864711,532.538042 718.411078,473.010956 720.900943,455.122986 C721.778621,455.178944 722.699871,455.212105 723.554725,455.280498 Z M447.151656,281.77237 C447.151656,281.77237 468.417181,228.985138 510.058105,225.928163 C510.058105,225.928163 478.490762,245.21716 472.612604,255.183937 C464.979092,268.160021 462.175919,277.320585 447.151656,281.77237 Z M556.852635,243.423597 C556.852635,243.423597 547.88497,253.344778 534.506093,262.882541 C517.350921,275.120806 504.965915,284.449244 488.151024,283.937331 C488.151024,283.937331 524.455336,259.887741 531.962281,253.145815 C549.598827,237.311718 556.344287,240.368694 556.852635,243.423597 Z M519.732477,233.313609 C527.131527,228.347837 526.870091,232.671126 526.870091,232.671126 C526.870091,232.671126 499.614365,260.022248 476.054013,275.412825 C476.054013,275.412825 485.606797,256.202583 519.732477,233.313609 Z M593.764474,559.404815 C589.77654,570.121846 581.379469,596.97349 576.486883,616.996162 C571.581849,637.018833 564.626825,643.083044 564.626825,643.083044 C564.211847,630.869649 572.610993,607.191042 578.902053,583.425389 C585.197262,559.674244 606.591431,529.560444 606.591431,529.560444 C606.591431,529.560444 597.947448,548.192451 593.764474,559.404815 Z M410.986361,234.571632 C410.986361,234.571632 392.123556,245.51664 386.525509,264.654343 C381.078928,283.26977 383.481648,293.352608 383.481648,293.352608 C383.973397,294.668662 363.612523,255.94559 410.986361,234.571632 Z M572.132316,270.762284 C572.132316,270.762284 570.105151,283.48552 580.286625,283.991216 C580.286625,283.991216 546.800011,285.649237 532.024735,281.578796 C532.024735,281.578796 549.781625,272.99854 564.490504,259.57479 C564.490504,259.57479 563.982157,269.238978 572.132316,270.762284 Z M459.757429,236.361258 C459.757429,236.361258 452.495322,243.225463 449.816642,245.905239 C449.816642,245.905239 402.577671,241.190243 389.454005,297.422012 C389.454005,297.422012 393.661878,229.87218 459.757429,236.361258 Z M632.211316,454.824542 C633.933472,455.015215 635.609982,455.118841 637.195196,455.168582 C632.896029,467.624462 623.496787,493.479221 615.547892,506.03251 C615.547892,506.03251 619.888557,481.645099 627.644487,464.666967 C629.605256,460.364404 631.080502,457.207947 632.211316,454.824542 Z M646.064512,362.29124 C646.064512,362.29124 619.068146,337.868597 616.013911,331.765008 C616.013911,331.765008 625.691188,333.802301 632.312155,332.784691 C632.312155,332.784691 644.033196,352.121356 646.064512,362.29124 Z M627.668971,524.965862 C623.097993,535.318128 595.23225,586.099155 595.23225,586.099155 C598.525097,563.914839 614.304619,537.544021 624.666608,518.124454 C632.891464,502.71937 645.104254,468.425286 649.8018,454.916563 C651.111054,454.860604 652.418233,454.802574 653.731637,454.736253 C652.538577,479.150607 631.899667,515.37214 627.668971,524.965862 Z M700.574927,290.545579 C700.574927,290.545579 710.441019,305.878125 597.359632,309.438724 C597.359632,309.438724 592.070743,302.763119 570.164078,294.622237 C570.164078,294.622237 647.086394,309.378621 700.574927,290.545579 Z" transform="translate(-81)"/>
</svg>
