<svg xmlns="http://www.w3.org/2000/svg" width="251" height="234" viewBox="0 0 251 234">
  <path fill="#231F20" fill-rule="evenodd" d="M292.339496,364.354429 C292.228292,364.793195 292.117087,365.233458 292.005883,365.673721 C289.968136,365.013326 287.735029,362.154612 286.25631,360.38757 C286.460686,364.15676 286.32694,367.9559 286.328443,371.729583 C286.332951,379.640839 287.629836,386.49187 288.959781,394.256372 C290.719517,404.533668 291.120755,413.633934 289.663075,424.066968 C288.157306,434.844426 284.233591,447.962466 287.837217,458.435933 C290.880313,467.283123 289.64955,477.23097 291.131274,486.437558 C291.738391,490.208245 293.436513,493.686922 293.914392,497.48157 C294.647741,503.290345 294.031608,508.907442 295.045973,514.719213 C295.959653,519.963434 294.249508,524.322637 293.770127,529.450053 C293.310281,534.355841 294.14732,539.059467 295.011409,543.834972 C296.614858,552.712112 290.848755,561.198405 292.2328,569.606829 C293.078856,574.753713 298.297953,574.812115 302.681513,575.542892 C314.978626,577.595955 327.540224,578.489959 340.053735,578.495949 C367.295828,578.509426 395.131513,580.101261 422.224834,577.366839 C432.539801,576.324583 441.231784,575.183494 451.597846,576.630072 C463.280328,578.26234 475.956136,579.759833 487.757337,578.573818 C496.329099,577.711262 504.896353,575.965185 513.493662,575.46652 C521.207346,575.018769 527.960764,575.150549 535.543708,573.804303 C536.337167,571.701822 535.938935,569.148596 535.525675,567.028146 C534.379066,561.142998 532.667419,556.985957 532.751574,550.83725 C532.88532,541.205374 533.187375,531.766675 534.654072,522.217161 C536.135797,512.558331 535.680459,503.049249 535.817211,493.254146 C535.896857,487.47532 535.591796,482.240084 534.290403,476.584053 C532.619331,469.330196 532.868789,464.132397 533.985342,456.903998 C534.874978,451.134157 534.028923,446.312229 532.775618,440.686147 C531.185694,433.541607 531.265341,427.049975 531.284877,419.772158 C531.310424,409.553265 531.278866,399.334372 531.278866,389.116976 L531.278866,363.866247 C531.278866,360.826335 531.932568,356.774119 531.308921,353.776138 C530.658224,350.653865 531.493761,351.441546 528.297383,350.853031 C526.678907,350.55503 525.171635,351.017755 523.604253,351.210932 C518.228869,351.868331 513.436557,352.395449 507.916907,352.369992 C501.516638,352.338544 495.056258,352.694948 488.662,352.446364 C480.698857,352.136383 472.849925,350.257029 464.898804,349.673007 C457.990601,349.163859 450.930619,350.068345 444.070504,349.129417 C436.344798,348.070689 429.671026,346.252732 421.786027,346.389004 C412.919723,346.543246 403.910657,344.44376 395.139027,345.14309 C388.055001,345.707645 381.405273,346.088008 374.280672,346.302149 C368.957885,346.460884 363.8545,347.739743 358.549746,347.959874 C351.591951,348.248891 344.539483,347.882005 337.572672,347.882005 C328.324667,347.882005 319.422297,347.844567 310.259949,349.051547 C306.728455,349.517267 303.300652,349.210281 299.785688,349.707449 C297.19793,350.074335 291.690302,350.072837 289.484246,351.1705 C287.105371,352.352022 286.143603,356.145172 285,358.026023 C285.441812,358.138335 285.664221,358.19524 286.107537,358.307552" transform="translate(-285 -345)"/>
</svg>
