<svg xmlns="http://www.w3.org/2000/svg" width="739" height="660" viewBox="0 0 739 660">
  <path fill="#EC0400" fill-rule="evenodd" d="M1178.67599,660 C1192.65105,653.028515 1207.42045,653.426054 1222.4172,650.845511 C1245.66783,646.846568 1268.4818,637.505083 1288.98899,626.186982 C1329.10646,604.048049 1361.49821,572.613342 1385.87867,534.027079 C1393.93155,521.280883 1402.27001,510.367247 1408.3724,496.325931 C1418.85127,472.214538 1436.87148,448.405109 1440.67543,422.066387 C1446.43125,382.212707 1441.56265,332.470407 1425.35014,295.565722 C1407.69035,255.362984 1391.7953,210.151525 1368.8136,172.796665 C1337.85387,122.476755 1275.55319,90.3993355 1225.40046,62.2405197 C1176.02682,34.520798 1122.30165,12.0189552 1066.24477,3.10271256 C1031.37713,-2.44344801 1007.74803,-0.839438536 973.831379,10.2307201 C940.265452,21.185911 902.049952,27.0174135 870.559282,43.1475433 C821.526663,68.2631736 789.502276,100.251943 761.653356,147.874957 C733.41212,196.16423 704.369616,259.373008 704.005025,316.699032 C703.688954,366.473191 718.265657,420.783733 752.965558,457.700884 C789.463461,496.528164 836.666195,517.27917 878.648209,547.788594 C933.597459,587.719842 993.455517,610.380978 1058.0186,630.993469 C1082.60145,638.841758 1108.4874,645.789695 1133.32671,651.770794 C1143.43267,654.204512 1154.22207,650.39395 1162.20702,656.797522" transform="translate(-704)"/>
</svg>
