<svg xmlns="http://www.w3.org/2000/svg" xmlns:xlink="http://www.w3.org/1999/xlink" width="48" height="17" viewBox="0 0 48 17">
  <defs>
    <rect id="squiggle-a" width="48" height="17"/>
  </defs>
  <g fill="none" fill-rule="evenodd">
    <mask id="squiggle-b" fill="#fff">
      <use xlink:href="#squiggle-a"/>
    </mask>
    <path fill="#FFE200" fill-rule="nonzero" d="M424.593755,8.33356275 L426,9.66643725 C422.647551,12.7778543 416.095413,12.7778543 412.744095,9.66643725 C410.170714,7.27807508 404.873193,7.27807508 402.30068,9.66643725 C398.948252,12.7778357 392.396205,12.7778357 389.043656,9.66632598 C386.471263,7.27807508 381.173742,7.27807508 378.600481,9.66632598 C375.249043,12.7778543 368.696905,12.7778543 365.344336,9.66632598 C362.771943,7.27807508 357.474422,7.27807508 354.901041,9.66643725 C351.548592,12.7778543 344.996454,12.7778543 341.645136,9.66643725 C339.071755,7.27807508 333.774234,7.27807508 331.201721,9.66643725 C327.849292,12.7778357 321.297245,12.7778357 317.944697,9.66632598 C315.372304,7.27807508 310.074782,7.27807508 307.501521,9.66632598 C304.150084,12.7778543 297.597945,12.7778543 294.245377,9.66632598 C291.672984,7.27807508 286.375463,7.27807508 283.802082,9.66643725 C280.449633,12.7778543 273.897494,12.7778543 270.546177,9.66643725 C267.972796,7.27807508 262.675275,7.27807508 260.102762,9.66643725 C256.750313,12.7778543 250.198175,12.7778543 246.846857,9.66643725 C244.273456,7.27805653 238.975843,7.27805653 236.402562,9.66632598 C233.051125,12.7778543 226.498986,12.7778543 223.146418,9.66632598 C220.574025,7.27807508 215.276503,7.27807508 212.703122,9.66643725 C209.350674,12.7778543 202.798535,12.7778543 199.447218,9.66643725 C196.873837,7.27807508 191.576315,7.27807508 189.003802,9.66643725 C185.651354,12.7778543 179.099215,12.7778543 175.747898,9.66643725 C173.174497,7.27805653 167.876884,7.27805653 165.303603,9.66632598 C161.952165,12.7778543 155.400027,12.7778543 152.047459,9.66632598 C149.475066,7.27807508 144.177544,7.27807508 141.604163,9.66643725 C138.251715,12.7778543 131.699576,12.7778543 128.348259,9.66643725 C125.774878,7.27807508 120.477356,7.27807508 117.904843,9.66643725 C114.552395,12.7778543 108.000256,12.7778543 104.648939,9.66643725 C102.075538,7.27805653 96.7779247,7.27805653 94.2046436,9.66632598 C90.8532062,12.7778543 84.3010677,12.7778543 80.9484993,9.66632598 C78.3761063,7.27807508 73.0785849,7.27807508 70.5052039,9.66643725 C67.1527553,12.7778543 60.6006168,12.7778543 57.2492993,9.66643725 C54.6759183,7.27807508 49.3783968,7.27807508 46.805884,9.66643725 C43.4534354,12.7778543 36.9012969,12.7778543 33.5499794,9.66643725 C30.9765784,7.27805653 25.6789655,7.27805653 23.1056844,9.66632598 C19.754247,12.7778543 13.2021085,12.7778543 9.84954006,9.66632598 C7.27714712,7.27807508 1.97962568,7.27807508 -0.593755322,9.66643725 L-2,8.33356275 C1.3524486,5.22214575 7.90458709,5.22214575 11.2559046,8.33356275 C13.8292856,10.7219249 19.1268071,10.7219249 21.6993199,8.33356275 C25.0517485,5.22216429 31.6037955,5.22216429 34.956344,8.33367402 C37.5287369,10.7219249 42.8262584,10.7219249 45.3995195,8.33367402 C48.7509569,5.22214575 55.3030954,5.22214575 58.6556638,8.33367402 C61.2280568,10.7219249 66.5255782,10.7219249 69.0989592,8.33356275 C72.4514078,5.22214575 79.0035463,5.22214575 82.3548638,8.33356275 C84.9282448,10.7219249 90.2257663,10.7219249 92.7982791,8.33356275 C96.1507077,5.22216429 102.702755,5.22216429 106.055303,8.33367402 C108.627696,10.7219249 113.925218,10.7219249 116.498479,8.33367402 C119.849916,5.22214575 126.402055,5.22214575 129.754623,8.33367402 C132.327016,10.7219249 137.624537,10.7219249 140.197918,8.33356275 C143.550367,5.22214575 150.102506,5.22214575 153.453823,8.33356275 C156.027204,10.7219249 161.324725,10.7219249 163.897238,8.33356275 C167.249667,5.22216429 173.801714,5.22216429 177.154262,8.33367402 C179.726655,10.7219249 185.024177,10.7219249 187.597438,8.33367402 C190.948875,5.22214575 197.501014,5.22214575 200.853582,8.33367402 C203.425975,10.7219249 208.723497,10.7219249 211.296878,8.33356275 C214.649326,5.22214575 221.201465,5.22214575 224.552782,8.33356275 C227.126163,10.7219249 232.423685,10.7219249 234.996198,8.33356275 C238.348626,5.22216429 244.900673,5.22216429 248.253222,8.33367402 C250.825615,10.7219249 256.123136,10.7219249 258.696397,8.33367402 C262.047835,5.22214575 268.599973,5.22214575 271.952541,8.33367402 C274.524934,10.7219249 279.822456,10.7219249 282.395837,8.33356275 C285.748285,5.22214575 292.300424,5.22214575 295.651741,8.33356275 C298.225122,10.7219249 303.522644,10.7219249 306.095157,8.33356275 C309.447605,5.22214575 315.999744,5.22214575 319.351061,8.33356275 C321.924462,10.7219435 327.222075,10.7219435 329.795356,8.33367402 C333.146794,5.22214575 339.698932,5.22214575 343.051501,8.33367402 C345.623894,10.7219249 350.921415,10.7219249 353.494796,8.33356275 C356.847245,5.22214575 363.399383,5.22214575 366.750701,8.33356275 C369.324082,10.7219249 374.621603,10.7219249 377.194116,8.33356275 C380.546565,5.22214575 387.098703,5.22214575 390.450021,8.33356275 C393.023422,10.7219435 398.321034,10.7219435 400.894316,8.33367402 C404.245753,5.22214575 410.797891,5.22214575 414.15046,8.33367402 C416.722853,10.7219249 422.020374,10.7219249 424.593755,8.33356275 Z" mask="url(#squiggle-b)"/>
  </g>
</svg>
