<svg xmlns="http://www.w3.org/2000/svg" width="604" height="611" viewBox="0 0 604 611">
  <path fill="#000000" fill-rule="evenodd" d="M345.009572,352.388928 L377.493165,265.162905 L393.881684,271.164548 L382.110218,302.772938 L437.393707,323.005297 L428.050568,348.10223 L372.763041,327.868537 L361.406168,358.391906 L345.009572,352.388928 Z M471.679751,266.850378 L452.206537,285.337959 L399.681324,230.378061 L442.089536,190.113008 C452.588944,180.143034 460.805988,174.531497 467.212974,172.954757 C474.078848,171.272365 480.661608,173.666229 486.785479,180.072155 C492.284082,185.826789 494.904574,190.80442 494.793206,195.289905 C494.74356,197.290587 494.126343,199.52263 492.926794,202.016796 C500.611152,199.096015 506.042667,202.016796 509.558123,205.695856 L522.176197,218.900889 L502.70835,237.39382 L491.943271,226.130625 C490.386809,224.504402 486.256819,220.183412 475.701057,230.20153 L455.230903,249.63997 L471.679751,266.850378 Z M430.666986,223.936027 L443.718454,237.593085 L464.130912,218.212152 C470.566076,212.104456 471.989701,209.031217 472.266107,207.743345 C472.775983,205.368205 470.638532,202.519641 468.754676,200.547044 C465.047346,196.668717 462.99711,196.334379 462.098119,196.44003 C461.220597,196.569753 458.492764,197.516599 452.159575,203.528006 L430.666986,223.936027 Z M536.850946,205.507824 C528.958612,202.791658 523.131274,194.35028 519.036169,179.702242 C514.220531,162.473111 514.389595,150.934421 519.55007,144.426857 C524.50257,138.180077 538.122951,132.029586 561.194811,125.626335 C581.776333,119.90781 595.412815,118.460793 602.877122,121.205043 C610.662114,124.061631 616.520314,132.868107 620.785824,148.12999 C625.428373,164.737252 625.141233,175.932242 619.90696,182.351541 C614.895422,188.491333 601.383724,194.550883 578.599004,200.87523 C564.503634,204.789665 553.655365,206.732841 545.799259,206.732841 C542.193903,206.732841 539.219183,206.32361 536.850946,205.507824 Z M542.250258,151.19788 C541.784661,151.97622 540.633416,155.875944 545.477232,173.166594 C548.834359,185.189406 551.760775,187.440172 552.863716,187.849403 C554.111569,188.316139 558.878904,188.865792 576.308591,184.027245 C592.820502,179.442796 596.244717,176.444448 596.950492,175.369216 C597.472444,174.570815 598.863867,170.815525 594.752661,156.105969 C590.634747,141.372341 587.720406,139.015923 586.924732,138.645476 C586.63625,138.510403 585.962678,138.319162 584.494774,138.319162 C581.658257,138.319162 575.857753,139.037321 564.13062,142.296452 L564.129278,142.296452 C545.725461,147.40247 542.730614,150.400817 542.250258,151.19788 Z M674.869914,195.130225 C658.721624,192.391324 648.659636,189.130855 644.106986,185.162926 C639.244385,180.916827 637.682557,173.469103 639.46712,163.024369 L641.167152,155.294463 L666.263754,159.547248 L666.157754,161.91704 C666.036994,164.680013 665.862563,166.714128 665.625068,168.133061 C665.427827,169.284523 665.26413,170.704792 665.140687,172.363111 C664.912585,174.863963 669.702729,177.166887 677.950634,178.564422 C685.70074,179.879041 687.984445,178.983013 688.498346,178.674085 C688.961259,178.39859 690.560657,177.009079 691.622003,170.767648 L699.986643,121.76165 L726.505529,126.256496 L717.857774,176.892729 C716.177869,186.761064 712.20755,193.023893 706.059527,195.502009 C703.318276,196.609339 699.580084,197.161666 694.780547,197.161666 C689.469792,197.161666 682.861539,196.484965 674.869914,195.130225 Z M742.304138,214.828093 L718.562812,198.386334 L795.400476,159.07473 L824.603731,179.300236 L814.966456,265.162905 L791.562219,248.951437 L793.381967,233.705321 L755.86025,207.717166 L742.304138,214.828093 Z M771.070922,199.670344 L795.662359,216.703899 L799.472413,184.855355 L771.070922,199.670344 Z M828.130685,291.683226 L816.524042,267.422876 L885.430917,234.653298 L902.86509,271.117584 L882.583726,314.296716 C880.827263,318.012882 878.608148,322.463965 875.982868,327.529269 L872.798102,333.600391 L873.918419,332.991536 L882.189665,328.871702 L921.539277,310.156766 L933.139195,334.422481 L864.240389,367.185353 L846.803527,330.733137 L868.494365,283.668862 C869.578369,281.329998 871.548674,277.61115 874.518253,272.293721 L876.703744,268.333477 L875.754232,268.851139 L867.33639,273.038027 L828.130685,291.683226 Z M885.965791,477.94143 L935.009572,487.603997 L929.771116,514.071784 L879.09057,504.086015 C869.206768,502.138749 863.017455,497.993435 860.694782,491.762722 C858.50929,485.914221 858.91142,475.685714 861.926726,460.496508 C865.115527,444.38329 868.668801,434.376063 872.78694,429.906204 C877.176752,425.135941 884.706948,423.759981 895.179825,425.823921 L902.911758,427.732295 L897.946321,452.779866 L895.565816,452.616253 C892.784526,452.423136 890.744285,452.193809 889.328086,451.917544 C888.176837,451.689558 886.753913,451.491077 885.09294,451.324781 C882.572563,451.005602 880.136917,455.779888 878.500151,464.019556 C876.972324,471.758997 877.814243,474.075063 878.10878,474.600771 C878.373729,475.071494 879.726717,476.711649 885.965791,477.94143 Z M841.869766,525.624525 L859.048868,502.2539 L896.101018,580.397956 L874.974099,609.145773 L789.256758,597.196306 L806.202768,574.149658 L821.41131,576.381193 L848.58119,539.41568 L841.869766,525.624525 Z M856.186131,554.899307 L838.380094,579.124905 L870.168933,583.792309 L856.186131,554.899307 Z M765.601849,609.326204 L790.764833,599.511617 L818.466671,670.501245 L781.760024,684.825092 L749.677286,660.784656 C747.496906,659.122714 744.615689,656.758675 740.8497,653.546214 L735.898196,649.153747 L735.248378,655.631025 C734.83083,660.220831 734.338096,664.015912 733.790316,666.884709 L726.835655,706.255821 L689.413403,720.860238 L661.704852,649.869268 L686.865151,640.050654 L701.880774,678.518303 C702.903834,681.134721 703.948376,684.124337 704.990232,687.416003 C705.532642,682.681213 706.018663,679.084813 706.437554,676.683186 L715.513521,628.872147 L736.627227,620.630901 L775.777404,649.235636 C777.881256,650.770046 780.687287,653.06562 784.345869,656.244521 C782.789797,653.002525 781.564004,650.2277 780.616129,647.793854 L765.601849,609.326204 Z M622.818835,653.273979 L632.24812,641.275511 L660.72231,646.51892 L606.861171,713.626551 L571.837153,707.174356 L545.041307,625.219739 L573.121381,630.391101 L577.778381,644.980586 L622.818835,653.273979 Z M612.260824,666.809445 L582.745043,661.372577 L592.471926,691.871073 L612.260824,666.809445 Z M521.528063,604.323583 L545.041307,617.613446 L507.498002,683.889714 L483.987444,670.599851 L521.528063,604.323583 Z M476.741774,563.558927 C492.393209,580.946176 500.018959,593.107076 500.054089,600.736421 C500.094622,608.494282 492.497245,618.993835 476.830948,632.836163 C469.855089,638.999613 463.104867,642.097403 456.682969,642.097403 C454.310393,642.097403 451.983755,641.674368 449.707109,640.8283 C441.747631,637.871075 430.408988,628.130575 415.041289,611.045876 C403.751287,598.500764 397.53476,589.203379 396.039064,582.62091 C394.43663,575.555165 397.434777,568.607227 404.949735,561.972548 L408.031652,558.940356 L426.278598,579.216554 L422.877816,582.21394 C418.958201,585.6772 419.601337,587.766936 419.810761,588.453698 C420.256633,589.898173 422.256298,593.716192 430.656244,603.045706 C442.258356,615.941562 446.386044,617.896088 447.622323,618.138395 C448.489746,618.303057 452.055365,618.19596 461.637545,609.732595 C475.044761,597.884955 476.313467,593.838015 476.383726,592.879494 C476.451282,591.930344 475.771666,587.832533 464.146585,574.908565 C455.548024,565.354146 451.423038,562.281792 449.477418,561.388868 C448.126293,560.762349 445.915852,560.30183 442.362393,563.442459 L438.163095,567.568383 L419.928309,547.297539 L423.777665,543.88649 C431.980346,536.641356 439.708783,534.376248 446.772465,537.164794 C453.270027,539.732452 463.075142,548.365835 476.741774,563.558927 Z M435.798181,503.897998 L443.017089,531.990737 L359.50842,511.594455 L350.632954,477.039647 L413.69428,417.86558 L420.813073,445.567452 L409.53353,455.999979 L420.951899,500.433921 L435.798181,503.897998 Z M396.760281,467.476162 L373.190707,489.273387 L404.240821,496.597781 L396.760281,467.476162 Z M643.509572,211.860238 C755.347926,211.860238 846.009572,302.298028 846.009572,413.860238 C846.009572,525.422448 755.347926,615.860238 643.509572,615.860238 C531.673903,615.860238 441.009572,525.422448 441.009572,413.860238 C441.009572,302.298028 531.673903,211.860238 643.509572,211.860238 Z M568.060422,500.149187 C580.61157,500.637837 615.541931,508.528535 643.504204,441.149684 C643.504204,441.149684 644.251743,435.233668 645.733402,438.192345 C645.937398,438.602008 646.156157,439.102707 646.399074,439.655619 C647.843154,442.96773 650.057589,448.095212 654.936056,446.484674 C655.075632,446.433801 655.221919,446.381589 655.376259,446.326699 C663.812584,442.954343 669.743244,436.052994 673.698358,429.151645 C675.602772,425.815436 683.613658,409.88142 678.03194,398.936992 C677.508528,397.920867 676.881776,396.946244 676.115448,396.029188 C674.886101,394.567253 673.358812,393.361023 671.642289,392.466726 C666.872531,389.984651 660.613062,389.971263 655.040738,393.879127 C650.359557,394.276741 645.754875,394.817603 641.11664,395.383902 C639.124991,395.626219 637.581597,395.926103 635.504055,396.019817 C633.564747,396.108175 631.414732,395.940829 629.460661,396.175114 C628.683595,396.268827 620.661973,397.409458 620.411004,396.829771 C619.790962,395.391934 619.291708,393.966147 619.00316,392.667542 C618.859557,392.018239 618.719981,391.399728 618.581746,390.794605 C618.67435,391.205607 635.901311,389.653975 637.290366,389.509388 C641.27098,389.095709 645.255621,388.426325 649.240261,388.079584 C651.617088,387.872075 654.007335,387.873414 656.385504,387.696696 C658.183894,387.560142 659.846733,386.885403 661.600834,386.807754 C666.057887,386.616311 670.387443,386.38872 674.825707,386.013865 C675.457827,385.961653 683.527765,385.396693 683.562659,385.107519 L684.439038,377.971886 C684.390723,378.374855 672.702534,379.005415 671.954994,379.072353 C663.93203,379.777884 655.929196,380.482076 647.899521,381.190284 C642.842558,381.636094 637.786936,382.080565 632.725946,382.526374 C627.404592,382.994943 622.08458,383.463512 616.757857,383.930742 C616.097553,381.945349 615.341961,380.250469 614.372978,378.752388 C614.618579,379.131259 619.078317,378.319966 619.545361,378.309255 C622.650938,378.247672 625.802146,377.915658 628.923828,377.915658 C632.0133,377.915658 635.055799,377.405587 638.102325,376.942373 C641.062957,376.493886 643.96588,376.56618 646.968117,376.16321 C651.253384,375.590218 655.694332,375.824502 660.027914,375.376015 C667.681806,374.583464 675.284699,373.564662 682.988248,372.911343 C683.880732,372.835033 684.777243,372.758724 685.672411,372.682414 L685.960959,372.658316 C686.015984,371.39318 686.040142,370.160175 686.037458,368.949929 C686.011958,358.427213 683.843154,349.960844 680.114851,343.17463 C679.612912,342.254896 679.070711,341.365954 678.509721,340.505127 C676.191946,336.957391 673.415179,333.915711 670.266655,331.333227 C668.982283,330.286311 667.654964,329.306333 666.264568,328.405342 C637.017923,309.373417 584.3439,321.287113 571.710884,324.536303 C571.227735,324.557723 570.755322,324.577804 570.237279,324.632694 C558.628272,325.86436 549.532984,317.501077 552.085623,311.747052 C552.085623,311.747052 529.180315,341.715373 528.026125,362.763482 C526.741752,386.092852 534.94724,395.299559 537.583088,398.915572 C540.218937,402.531584 541.867013,404.168897 539.225796,410.748941 C536.592632,417.323631 528.832716,431.349902 528.354935,435.070338 C527.895943,438.639494 527.697315,442.298347 537.911898,446.242357 L534.45067,453.146383 C534.45067,453.146383 534.617088,459.065076 537.911898,461.034404 C537.911898,461.034404 535.951117,474.159685 541.041633,474.67511 C549.14378,475.494436 548.452608,480.591126 548.452608,485.524486 C548.452608,490.45249 553.045212,499.560129 568.060422,500.149187 Z M752.831523,543.477072 L752.831523,542.053962 L744.823321,542.053962 L744.823321,543.477072 L747.991976,543.477072 L747.991976,553.266143 L749.662868,553.266143 L749.662868,543.477072 L752.831523,543.477072 Z M765.707455,553.266143 L765.707455,542.053962 L763.588308,542.053962 L760.44381,550.217769 L757.19463,542.053962 L755.062062,542.053962 L755.062062,553.266143 L756.625588,553.266143 L756.625588,544.823873 L760.025081,553.159042 L760.069369,553.266143 L760.714911,553.266143 L764.035221,544.851987 L764.035221,553.266143 L765.707455,553.266143 Z M773.201639,402.9051 C778.635728,398.962428 776.414583,392.306074 776.414583,392.306074 C782.763971,385.102164 777.086966,380.799364 775.712674,379.910422 C777.809006,376.487192 775.18121,368.480021 775.18121,368.480021 C780.617983,355.164635 770.883864,345.972655 770.883864,345.972655 C773.306321,336.551745 760.973932,327.515061 760.973932,327.515061 C760.973932,327.515061 763.954696,322.422388 762.205963,316.424708 C761.097404,312.603864 756.848373,309.204732 756.853742,309.030692 C756.977213,301.510833 750.143333,300.694184 750.137965,300.608503 C749.317953,291.281307 738.428302,293.786142 738.428302,293.786142 C740.123351,287.259648 733.582045,284.118899 733.582045,284.118899 C733.105606,270.828949 716.387294,273.248103 716.387294,273.248103 C715.419653,271.791523 711.542379,270.348332 711.542379,270.348332 C704.036116,253.192021 674.000327,245.942592 666.977213,244.496723 C659.956784,243.042821 610.541335,234.58984 572.757708,250.774206 C534.976766,266.966604 534.007783,297.166531 534.007783,297.166531 C533.521949,311.178076 543.453354,310.451125 543.453354,310.451125 C546.243542,316.522438 550.994511,312.532909 552.041335,311.547576 C556.140052,320.639149 564.846136,317.460914 564.846136,317.460914 C567.428302,317.460914 576.149149,312.629301 576.149149,312.629301 C587.127377,312.629301 597.461406,308.437618 599.72013,309.732207 C601.98288,311.016085 607.152578,311.338728 615.873425,311.016085 C624.590246,310.694781 637.981538,308.005196 639.59472,308.005196 C641.215955,308.005196 646.841961,307.673182 668.50987,320.358008 C690.129465,333.013381 695.822575,375.875375 696.772769,384.644305 C696.497643,384.660371 696.348672,384.664387 696.348672,384.664387 C693.632298,384.912059 687.696271,383.679054 687.447986,389.348736 C687.205069,395.015741 691.160184,394.770746 691.160184,394.770746 C685.720726,403.156788 694.126184,406.11011 694.126184,406.11011 C693.496748,408.290963 694.134237,409.81582 695.646763,410.870769 C695.766208,410.952434 695.931284,411.007324 696.054756,411.080956 C692.534475,419.626312 687.707007,432.497226 686.409214,441.807019 C684.294094,456.949823 681.309304,459.019558 679.383417,461.128118 C677.453503,463.239355 660.002414,489.555516 654.455591,523.304517 C651.431881,541.683123 648.017625,548.625974 647.106351,551.857759 C646.201788,555.082851 641.340768,565.514531 641.515239,567.961799 C641.699104,570.414422 645.052966,572.975485 648.284699,571.459999 C648.284699,571.459999 658.872382,548.726381 660.480196,540.63219 C660.480196,540.63219 660.434565,557.204798 658.648254,562.849044 C658.648254,562.849044 658.754278,567.470471 662.445003,567.870763 L660.022546,584.363045 C660.022546,584.363045 660.917714,589.015263 665.682104,589.177254 L666.116939,599.516559 C666.116939,599.516559 672.05565,604.067031 676.159736,600.13507 L676.417416,592.805315 C676.417416,592.805315 684.753085,596.895251 687.817058,592.650018 C687.817058,592.650018 687.583536,568.735607 692.574738,554.507181 C692.574738,554.507181 696.172859,557.619817 700.479599,555.867369 C700.479599,555.867369 702.727586,574.963555 702.009572,580.3695 C702.009572,580.3695 704.743393,585.630858 711.487353,582.055009 L712.998537,545.968519 C712.998537,545.968519 716.214165,550.339596 720.413539,549.758571 C720.413539,549.758571 723.014493,548.034238 725.418162,541.596103 C725.418162,541.596103 725.506739,541.663041 725.631553,541.760772 C727.247419,538.886437 743.865075,509.284939 745.651385,502.624568 C745.651385,502.624568 737.02851,534.16728 730.47781,544.80513 C732.705665,545.939066 735.193885,546.76107 736.844645,545.979229 C736.844645,545.979229 739.218788,544.694012 741.666745,536.637307 C744.218042,528.249926 744.631403,527.497538 744.933372,526.41983 C745.232656,525.34346 750.431881,513.028134 750.728481,504.33953 C751.033133,495.656281 756.039098,488.765643 756.039098,488.765643 C756.039098,488.765643 758.256217,485.853823 758.097851,482.85766 C757.932775,479.864175 758.421293,488.845969 762.784401,500.410246 C767.152877,511.970507 763.644675,524.726288 763.342707,526.597886 C762.646166,530.926123 768.919056,533.313146 770.176587,528.468145 C774.574589,511.507294 767.688367,490.1593 767.688367,490.1593 C764.084878,477.537396 768.107097,435.891003 770.176587,417.152268 C770.203428,415.545747 770.222218,414.145396 770.235638,412.994055 C775.151684,410.759651 773.201639,402.9051 773.201639,402.9051 Z M674.208817,302.300862 C674.208817,302.300862 710.647222,299.671069 715.591362,299.345527 C720.52478,299.013286 734.837188,296.383493 736.155983,296.383493 C736.155983,296.383493 731.876601,303.781209 721.75646,304.03173 C703.659219,304.471145 675.85731,308.884053 674.208817,302.300862 Z M740.353342,329.43529 C747.999403,339.056877 743.308568,351.391317 743.308568,351.391317 C742.567416,341.773749 732.204691,331.40998 732.697899,331.65916 C733.188426,331.901642 740.353342,329.43529 740.353342,329.43529 Z M691.649609,323.519528 C691.649609,323.519528 741.007914,324.012531 751.128055,311.921913 C751.128055,311.921913 738.704044,333.710479 691.649609,323.519528 Z M736.969239,383.643861 C736.532322,381.556638 736.099425,378.408389 735.742921,373.672618 C734.430828,356.243372 726.531462,341.773481 715.998527,333.21962 L727.188178,331.575832 C727.188178,331.575832 747.711251,356.04376 740.452519,383.554102 C739.299914,383.583575 738.132566,383.614388 736.969239,383.643861 Z M701.028732,275.170319 C696.831105,266.782579 686.716325,260.85985 686.716325,260.85985 C697.08173,259.382183 705.964831,274.426796 705.964831,274.426796 L701.028732,275.170319 Z M623.622049,260.366714 C623.622049,260.366714 618.608217,256.582116 605.854507,259.875051 C605.106654,260.071984 627.571732,249.51664 662.035966,264.810435 L657.926795,269.248797 C657.926795,269.248797 654.47032,264.810435 648.214086,266.614984 C648.214086,266.614984 643.115819,259.875051 635.961625,265.547259 C635.961625,265.547259 634.154984,257.899022 623.622049,260.366714 Z M667.957944,260.529753 C667.957944,260.529753 655.784558,248.034551 607.42071,249.350118 C607.42071,249.350118 644.597586,242.444064 677.830141,257.574417 C677.830141,257.574417 670.259134,258.557743 667.957944,260.529753 Z M665.002182,282.89465 C665.002182,282.89465 674.570145,263.057998 683.506856,267.521814 C693.379053,272.453179 695.928187,276.97862 695.928187,276.97862 C695.928187,276.97862 682.765704,280.591739 674.381172,282.566428 C668.295148,283.998547 666.314276,283.221532 665.002182,282.89465 Z M666.974611,292.10817 C666.974611,292.10817 684.094818,290.401417 695.599426,287.99535 C707.775493,285.444598 715.591764,285.283836 721.01571,284.788155 C726.625948,284.281755 730.480474,287.005326 730.480474,287.005326 C730.480474,287.005326 730.408102,290.405436 721.756862,291.199866 C711.887345,292.10817 703.99334,291.449047 695.356843,292.929394 C686.385286,294.464668 672.732276,299.094604 666.974611,292.10817 Z M717.480697,374.828762 C717.480697,374.828762 720.773663,377.457215 723.074852,380.419249 C723.809303,381.359705 724.122919,382.68063 724.211375,384.049784 C722.507931,384.111409 720.827272,384.177054 719.18414,384.237339 C717.550389,379.812374 717.480697,374.828762 717.480697,374.828762 Z M640.308153,370.043155 C634.625542,370.528119 628.945611,371.013084 623.262999,371.496708 C619.060011,371.855743 614.857023,372.214777 610.651355,372.573811 C609.707827,372.654192 606.857139,373.428528 605.981963,372.971697 C603.798715,371.834308 601.150404,370.743808 597.877541,369.593022 C596.664625,369.165664 595.51202,368.734287 594.414365,368.292192 C594.955821,368.51056 596.267914,368.135449 596.829474,368.085881 C599.137365,367.890288 601.449277,367.704072 603.755827,367.496422 C614.942798,366.483623 626.097604,365.591396 637.291276,364.636204 C643.558232,364.101671 649.827867,363.568478 656.094823,363.032606 C661.130099,362.602568 666.198881,362.543622 671.220755,361.919331 C672.309029,361.785363 682.308549,359.797277 682.583297,360.772565 C683.135476,362.731178 683.558991,364.597353 683.865906,366.32822 C674.67723,367.111933 665.414842,368.745004 656.215444,368.818687 C650.926863,368.861556 645.561888,369.595701 640.308153,370.043155 Z M601.82709,264.152383 C585.456076,261.600292 573.280009,264.810167 573.280009,264.810167 C586.360737,249.757515 601.82709,264.152383 601.82709,264.152383 Z M622.261171,358.898485 C613.554981,359.640668 604.906422,360.378832 596.206934,361.119676 C593.878939,361.319288 591.550945,361.517561 589.22027,361.717173 C588.134677,361.809611 583.820449,362.839826 583.006924,362.247687 C581.231108,360.949536 578.180725,358.839539 577.439573,356.692031 C578.539909,356.334336 579.975305,356.495098 581.142652,356.383905 C582.486912,356.259314 583.82581,356.091854 585.170069,355.976642 C605.524272,354.239076 625.879815,352.50017 646.251441,350.762605 C653.562442,350.138313 660.872103,349.514022 668.184445,348.889731 C668.906833,348.828106 676.688258,347.540673 677.054143,348.132811 C678.250976,350.06999 679.268217,352.021904 680.128651,353.963102 C679.963801,353.594689 673.10446,354.561939 672.611253,354.604809 C666.872351,355.093792 660.963239,356.106591 655.224338,356.106591 C649.792351,356.106591 644.125823,357.03365 638.688475,357.497179 C633.2136,357.964728 627.736045,358.432276 622.261171,358.898485 Z M616.476299,346.734185 C611.372671,347.014178 606.553173,348.001523 601.47635,348.001523 C599.612078,348.001523 574.702404,349.56493 574.726528,349.843584 C574.546936,347.67732 574.947668,345.576701 575.753151,343.624786 C576.003776,343.027288 582.934149,343.035326 583.553339,343.02193 C588.478716,342.910736 593.385329,342.43113 598.294623,342.042623 C600.878603,341.837652 603.459903,341.650097 606.049243,341.556319 C608.169501,341.477278 609.823355,340.820834 611.892683,340.542181 C614.732649,340.161711 617.632925,340.053197 620.484953,339.809375 C626.124677,339.32843 631.767081,338.848824 637.406805,338.366539 C645.700201,337.659188 653.996277,336.950497 662.288333,336.244485 C663.442279,336.145349 664.594884,336.047552 665.746149,335.949755 C668.130433,337.683302 670.223886,339.568233 672.050631,341.541583 C671.730314,341.195945 668.527144,341.841671 668.079504,341.880522 C664.57612,342.179271 661.071397,342.478019 657.568013,342.778108 C647.742724,343.615408 637.991149,344.476823 628.231532,345.618231 C626.415508,345.83124 624.535154,345.78971 622.71913,345.939754 C620.612275,346.112573 618.564391,346.620312 616.476299,346.734185 Z M643.8756,402.381304 C644.358086,402.341114 645.755955,402.479101 646.163387,402.185711 C642.689489,404.680196 635.472304,409.228412 629.013695,409.228412 C627.571598,409.228412 625.360205,407.079565 623.285515,404.141645 C623.495933,404.441733 626.84921,403.82414 627.227157,403.804045 C631.017351,403.599074 634.635995,403.171716 638.395365,402.850193 C640.22211,402.69345 642.048855,402.536707 643.8756,402.381304 Z M584.343008,335.884245 C583.822995,335.900321 581.88367,335.762334 581.457474,336.117349 C583.51072,334.399879 585.779744,333.113785 587.862474,332.415812 C618.898378,323.710567 639.992393,324.555905 654.346348,329.902571 C636.765098,331.401674 619.218695,333.376363 601.649508,334.653078 C597.731991,334.937091 593.827876,335.436792 589.906338,335.712766 C588.050108,335.844055 586.196558,335.823959 584.343008,335.884245 Z M710.405309,333.545431 C710.405309,333.545431 725.870322,356.902763 726.531059,367.095053 C726.531059,367.095053 718.634374,362.489231 718.304675,361.505906 C717.976317,360.515882 712.71186,340.455503 705.143533,334.536794 C705.143533,334.536794 708.098759,334.203214 710.405309,333.545431 Z M748.924033,340.098211 C749.043314,338.782644 749.564667,330.477964 743.969171,327.297562 C743.969171,327.297562 754.169727,325.653774 755.814199,319.075942 C755.814199,319.075942 758.115389,328.613128 752.523914,334.862739 C749.543223,338.106105 749.012489,339.606548 748.924033,340.098211 Z M749.813281,383.369226 C749.136461,383.379944 748.45562,383.392001 747.754675,383.400039 C747.849832,361.137226 758.114719,338.978907 758.114719,338.978907 C758.114719,338.978907 756.147249,356.902495 753.51234,372.028829 C752.263237,379.218896 750.901555,382.210402 749.813281,383.369226 Z M555.101013,305.259279 C562.66666,286.840009 581.0936,285.531141 581.0936,285.531141 C575.834504,289.1456 574.845408,296.709437 574.845408,296.709437 C571.749457,295.885533 564.789598,299.449084 560.015668,302.223563 C557.828399,303.61817 556.234855,304.675178 554.999155,305.637069 C555.063487,305.418701 555.101013,305.259279 555.101013,305.259279 Z M763.503416,383.4271 C762.68453,383.400307 761.799973,383.380212 760.860466,383.361456 C763.112066,377.265909 767.68228,364.070054 768.482402,355.091515 C768.482402,355.091515 771.708356,373.918047 763.503416,383.4271 Z M765.025659,350.65409 C770.290116,352.6261 756.473597,376.634518 756.473597,376.634518 L765.025659,350.65409 Z M711.458737,384.546538 C706.730375,375.144659 703.33019,361.339249 703.33019,361.339249 C703.33019,361.339249 707.775761,366.275973 712.213291,371.205998 C714.850881,374.13186 715.168517,380.055928 714.996967,384.399173 C713.77869,384.45276 712.60196,384.500988 711.458737,384.546538 Z M711.464232,454.040329 C708.781074,461.017386 686.986115,501.320339 679.940481,516.301988 C672.896187,531.288995 663.554725,565.496401 663.554725,565.496401 C665.055792,545.694581 676.816385,512.39012 691.867264,485.989033 C704.552622,463.757033 720.695795,424.695963 725.477766,412.912132 C726.507069,412.890697 727.506887,412.877301 728.41959,412.893377 C728.525468,412.896056 728.624646,412.896056 728.726504,412.898735 C724.869298,423.545178 713.843155,447.881817 711.464232,454.040329 Z M674.327562,589.703895 C672.474012,533.08765 692.042835,512.553025 692.042835,512.553025 C678.927261,535.119946 674.327562,589.703895 674.327562,589.703895 Z M730.728955,416.097893 C730.728955,416.097893 727.037938,452.131284 694.74489,505.123692 C694.74489,505.123692 728.320546,430.693714 730.728955,416.097893 Z M726.129658,475.844971 C734.783578,464.090613 736.090311,461.687226 736.060826,462.503091 C735.850408,468.662943 734.177791,485.58311 727.708459,493.117474 C726.19399,494.877814 717.892552,504.382849 717.892552,504.382849 C720.038274,494.670164 726.129658,475.844971 726.129658,475.844971 Z M740.046025,413.038062 C741.401006,413.052799 742.762689,413.067535 744.098906,413.08763 C742.454434,443.25188 726.075378,464.335775 726.075378,464.335775 C728.926066,455.601057 737.592048,422.48683 740.046025,413.038062 Z M691.636073,547.974852 C694.939761,515.190187 719.860156,470.91776 719.860156,470.91776 C719.860156,470.91776 715.22025,479.183589 706.843759,509.34382 C701.438577,528.775888 696.692793,539.195924 693.996233,544.155422 C692.500527,546.904447 691.636073,547.974852 691.636073,547.974852 Z M745.609891,392.947809 C748.24212,393.096514 771.438968,392.642362 773.58067,391.578655 C773.58067,391.578655 771.772688,397.801472 731.465014,397.191917 C691.153319,396.587721 690.666812,393.096514 690.006075,393.397942 C690.006075,393.397942 697.406872,390.97312 707.438557,391.431291 C717.475604,391.884103 742.974982,392.791066 745.609891,392.947809 Z M744.12799,404.095158 C750.955165,403.851336 757.072013,403.403883 761.776251,402.866671 C766.499251,402.330798 769.794898,401.710526 770.947503,401.137143 C770.947503,401.137143 770.42481,404.892268 761.447892,406.312329 C760.31003,406.490507 759.047525,406.633853 757.621511,406.726291 C744.946875,407.548855 715.007286,408.704999 715.007286,408.704999 C715.007286,408.704999 702.953181,409.739233 696.447663,406.628494 C695.623416,406.235968 694.890306,405.783156 694.281838,405.247283 C694.281838,405.247283 695.087321,405.232547 696.481169,405.208433 C704.503837,405.055709 732.493379,404.521176 744.12799,404.095158 Z M741.471369,477.823144 C741.789005,467.282536 750.362511,414.596915 750.362511,414.596915 C751.980179,419.141111 747.501102,455.642051 747.294705,456.362799 C747.084288,457.083547 745.421052,468.536477 745.534972,481.050434 C745.644871,493.557693 732.841573,505.48621 722.580706,520.859045 C713.595747,534.321496 711.92447,540.612637 711.92447,540.612637 C712.124165,533.452044 714.713506,521.447165 715.85807,519.851606 C718.235653,516.546613 727.412266,507.069712 732.324241,501.255498 C737.238895,495.445303 741.212703,486.60743 741.471369,477.823144 Z M760.458796,413.718352 C760.618285,413.731749 760.771072,413.738447 760.925199,413.753184 C761.560472,413.806771 762.16358,413.875095 762.778749,413.939399 C762.064402,427.080327 756.568084,476.52794 756.568084,476.52794 C752.261897,463.657628 757.136345,425.17932 758.744631,413.616536 C759.311552,413.652708 759.906618,413.674143 760.458796,413.718352 Z M581.920929,301.562698 C581.920929,301.562698 595.657034,267.441032 622.554281,265.465003 C622.554281,265.465003 602.163892,277.933411 598.366996,284.375935 C593.436258,292.763675 591.625596,298.685064 581.920929,301.562698 Z M652.780413,276.774051 C652.780413,276.774051 646.987902,283.187102 638.346044,289.352313 C627.264952,297.263127 619.265068,303.29303 608.403775,302.962129 C608.403775,302.962129 631.853928,287.416474 636.702911,283.058493 C648.094939,272.823333 652.452054,274.799362 652.780413,276.774051 Z M628.803277,270.238955 C633.582568,267.02908 633.413698,269.823654 633.413698,269.823654 C633.413698,269.823654 615.808324,287.503419 600.589916,297.451888 C600.589916,297.451888 606.760374,285.034388 628.803277,270.238955 Z M676.622989,481.024311 C674.04705,487.951799 668.623105,505.308702 665.462822,518.251357 C662.294498,531.194012 657.802019,535.113917 657.802019,535.113917 C657.533971,527.219179 662.959257,511.913328 667.02286,496.55121 C671.089144,481.198469 684.908343,461.732909 684.908343,461.732909 C684.908343,461.732909 679.324909,473.776638 676.622989,481.024311 Z M558.560571,271.052141 C558.560571,271.052141 546.376463,278.126994 542.760499,290.497606 C539.242373,302.530617 540.794369,309.048164 540.794369,309.048164 C541.112006,309.898861 527.960245,284.868267 558.560571,271.052141 Z M662.650064,294.445779 C662.650064,294.445779 661.340651,302.670078 667.917201,302.99696 C667.917201,302.99696 646.287091,304.068705 636.743253,301.437572 C636.743253,301.437572 648.213014,295.891294 657.713965,287.214182 C657.713965,287.214182 657.385607,293.461113 662.650064,294.445779 Z M590.063414,272.208955 C590.063414,272.208955 585.372579,276.645977 583.642331,278.378185 C583.642331,278.378185 553.12912,275.330411 544.652112,311.678627 C544.652112,311.678627 547.370115,268.014415 590.063414,272.208955 Z M701.457073,413.423622 C702.569471,413.546873 703.652383,413.613857 704.676326,413.646009 C701.899351,421.69749 695.828071,438.410006 690.693617,446.524452 C690.693617,446.524452 693.497396,430.76043 698.507208,419.785766 C699.773733,417.004589 700.726643,414.964255 701.457073,413.423622 Z M710.405309,353.610096 C710.405309,353.610096 692.967466,337.823299 690.994635,333.877939 C690.994635,333.877939 697.245507,335.194845 701.522208,334.537062 C701.522208,334.537062 709.093216,347.036283 710.405309,353.610096 Z M698.523022,458.762971 C695.570477,465.454676 677.571073,498.279532 677.571073,498.279532 C679.698032,483.93959 689.890546,466.893493 696.583697,454.340685 C701.896403,444.382839 709.785047,422.215143 712.819347,413.483104 C713.665038,413.446933 714.509388,413.409422 715.357759,413.366552 C714.587122,429.14799 701.255769,452.561589 698.523022,458.762971 Z M745.615386,307.2337 C745.615386,307.2337 751.988221,317.144658 678.94522,319.446229 C678.94522,319.446229 675.528952,315.131118 661.378713,309.868852 C661.378713,309.868852 711.065377,319.407379 745.615386,307.2337 Z" transform="rotate(40 627.363 -110.206)"/>
</svg>
