<svg xmlns="http://www.w3.org/2000/svg" width="735" height="748" viewBox="0 0 735 748">
  <path fill="#000000" fill-rule="evenodd" d="M209,427.530806 L249.435657,319 L269.836126,326.467533 L255.182976,365.796209 L324,390.970282 L312.369638,422.197091 L243.547587,397.021358 L229.410523,435 L209,427.530806 Z M366.679353,321.099635 L342.439048,344.102771 L277.055532,275.719027 L329.845381,225.619315 C342.915069,213.214195 353.143666,206.232051 361.119098,204.270195 C369.665756,202.176883 377.859991,205.155443 385.483001,213.126003 C392.327676,220.286195 395.58967,226.479603 395.451039,232.060659 C395.38924,234.550003 394.620926,237.327219 393.127725,240.430579 C402.693233,236.796403 409.454396,240.430579 413.830445,245.008243 L429.537454,261.438579 L405.30383,284.448371 L391.903433,270.434163 C389.965946,268.410739 384.824924,263.034355 371.685085,275.499379 L346.203786,299.685619 L366.679353,321.099635 Z M315.626562,267.703539 L331.873061,284.696307 L357.282539,260.581619 C365.293047,252.982131 367.06518,249.158259 367.409251,247.555827 C368.043945,244.600563 365.383241,241.056243 363.038213,238.601843 C358.423318,233.776243 355.87118,233.360243 354.752114,233.491699 C353.659772,233.653107 350.264158,234.831219 342.380589,242.310899 L315.626562,267.703539 Z M447.804619,244.774285 C437.980222,241.394701 430.726336,230.891533 425.62874,212.665741 C419.634221,191.228429 419.844673,176.871437 426.268445,168.774413 C432.433329,161.001869 449.388014,153.349133 478.107923,145.381901 C503.727852,138.266637 520.702579,136.466189 529.994167,139.880717 C539.684944,143.435021 546.977245,154.392461 552.286963,173.382029 C558.06602,194.045581 557.708587,207.974925 551.192951,215.962125 C544.954575,223.601549 528.135181,231.141133 499.772705,239.010189 C482.226753,243.880717 468.722801,246.298509 458.943501,246.298509 C454.455545,246.298509 450.752606,245.789325 447.804619,244.774285 Z M454.525696,177.199245 C453.94612,178.167693 452.513047,183.019917 458.542641,204.533773 C462.721601,219.493133 466.364411,222.293645 467.737355,222.802829 C469.290685,223.383565 475.225075,224.067469 496.921593,218.047117 C517.475661,212.342925 521.738133,208.612237 522.616683,207.274381 C523.266409,206.280973 524.998456,201.608461 519.880817,183.306125 C514.754827,164.973837 511.127049,162.041869 510.136592,161.580941 C509.777489,161.412877 508.939025,161.174925 507.111774,161.174925 C503.58087,161.174925 496.360389,162.068493 481.762425,166.123661 L481.760754,166.123661 C458.851637,172.476813 455.123644,176.207501 454.525696,177.199245 Z M619.610972,231.861978 C599.509541,228.454106 586.984354,224.397274 581.317204,219.460186 C575.264226,214.176986 573.320058,204.91017 575.541487,191.91433 L577.657691,182.29641 L608.898004,187.58793 L608.766054,190.536538 C608.615732,193.974362 608.3986,196.505306 608.102966,198.27081 C607.857439,199.703514 607.653669,201.470682 607.500006,203.534042 C607.216064,206.645722 613.178849,209.51113 623.445861,211.25001 C633.093212,212.885722 635.935973,211.770842 636.575678,211.386458 C637.151914,211.043674 639.142849,209.314778 640.464015,201.54889 L650.876339,140.573274 L683.887114,146.165978 L673.122368,209.17001 C671.031218,221.448666 666.088955,229.241178 658.43588,232.32457 C655.023564,233.702362 650.370254,234.389594 644.395778,234.389594 C637.784937,234.389594 629.558968,233.54761 619.610972,231.861978 Z M703.553262,256.37101 L674,235.913384 L769.647716,187 L806,212.165546 L794.003495,319 L764.869844,298.828914 L767.13507,279.858964 L720.427944,247.523254 L703.553262,256.37101 Z M739.362226,237.511012 L769.973708,258.704979 L774.716473,219.077491 L739.362226,237.511012 Z M810.390361,351.997858 L795.942383,321.811965 L881.717833,281.038483 L903.419934,326.409098 L878.173642,380.134647 C875.987192,384.758479 873.224833,390.296731 869.956878,396.599225 L865.992473,404.153207 L867.387046,403.395639 L877.683113,398.269544 L926.665608,374.983522 L941.105215,405.17609 L855.33981,445.941229 L833.634361,400.585631 L860.63517,342.026 C861.98454,339.115873 864.437181,334.488705 868.13372,327.872504 L870.854226,322.944979 L869.672271,323.589078 L859.19372,328.798606 L810.390361,351.997858 Z M882.383645,583.749257 L943.433465,595.771886 L936.912622,628.704378 L873.825353,616.279605 C861.521971,613.856724 853.817499,608.698924 850.926229,600.946372 C848.205724,593.669386 848.706297,580.942587 852.459757,562.043448 C856.429184,541.994609 860.852308,529.543136 865.978578,523.981523 C871.443027,518.046132 880.816634,516.334097 893.853297,518.90215 L903.478027,521.27664 L897.297038,552.442031 L894.33378,552.238456 C890.871622,551.99817 888.331926,551.712831 886.569038,551.369089 C885.13596,551.085418 883.364701,550.838458 881.297117,550.631545 C878.159746,550.234406 875.127847,556.174803 873.090398,566.426993 C871.188555,576.056777 872.236578,578.938537 872.603218,579.592648 C872.933027,580.178345 874.617229,582.219105 882.383645,583.749257 Z M827.492803,643.078853 L848.877392,614 L895,711.230585 L868.701159,747 L762,732.1319 L783.094436,703.456153 L802.026066,706.232736 L835.8472,660.238471 L827.492803,643.078853 Z M845.313849,679.503943 L823.14885,709.646595 L862.719677,715.454002 L845.313849,679.503943 Z M732.55431,747.224501 L763.877255,735.012721 L798.360572,823.341424 L752.668046,841.163842 L712.731375,811.251578 C710.017232,809.18371 706.430687,806.242259 701.742774,802.24516 L695.57913,796.779842 L694.770235,804.839182 C694.25047,810.55004 693.637114,815.272062 692.955236,818.841556 L684.298056,867.828985 L637.714744,886.000501 L603.22307,797.670127 L634.542673,785.453336 L653.234158,833.316633 C654.507666,836.572105 655.807914,840.29193 657.10482,844.387578 C657.780013,838.496325 658.385013,834.021512 658.906449,831.033292 L670.204235,771.544501 L696.486629,761.290347 L745.220867,796.881732 C747.839747,798.790919 751.332702,801.647182 755.886913,805.602523 C753.949911,801.568677 752.424041,798.116105 751.244124,795.087798 L732.55431,747.224501 Z M554.81766,801.906432 L566.555258,786.977363 L602,793.501464 L534.95352,877 L491.355536,868.971869 L458,767 L492.954146,773.434457 L498.751191,791.587395 L554.81766,801.906432 Z M541.675022,818.74791 L504.933704,811.983097 L517.041752,849.93079 L541.675022,818.74791 Z M428.730656,741 L458,757.535886 L411.266001,840 L382,823.464114 L428.730656,741 Z M372.980572,690.278658 C392.463517,711.912707 401.95607,727.043883 401.999799,736.53668 C402.050256,746.189384 392.593022,759.253432 373.091576,776.47672 C364.408009,784.145581 356.005316,788 348.011322,788 C345.057933,788 342.161729,787.47364 339.327754,786.420921 C329.419775,782.7414 315.305405,770.621802 296.175655,749.364199 C282.121832,733.754969 274.383484,722.186716 272.521638,713.996492 C270.526924,705.204953 274.259025,696.559994 283.613664,688.304809 L287.450041,684.532009 L310.163885,709.760629 L305.930583,713.490121 C301.051437,717.799274 301.852014,720.399425 302.112706,721.253926 C302.667728,723.051211 305.156916,727.801774 315.613189,739.410004 C330.055528,755.455647 335.193683,757.887562 336.732607,758.189052 C337.812377,758.393933 342.250869,758.260677 354.17879,747.730152 C370.868126,732.988749 372.447415,727.953353 372.534873,726.760715 C372.618967,725.579737 371.772979,720.481044 357.302049,704.400422 C346.598539,692.512355 341.463747,688.689585 339.041834,687.578566 C337.35995,686.79902 334.608388,686.226021 330.185033,690.133742 L324.957737,695.267415 L302.25903,670.045458 L307.050718,665.801266 C317.261436,656.786524 326.881812,653.968167 335.674702,657.437811 C343.762882,660.632614 355.968315,671.374683 372.980572,690.278658 Z M322.013885,616.045665 L331,651 L227.048202,625.621966 L216,582.627216 L294.498895,509 L303.360387,543.467999 L289.319583,556.44865 L303.533197,611.735494 L322.013885,616.045665 Z M273.419411,570.727868 L244.079946,597.849022 L282.731205,606.962385 L273.419411,570.727868 Z M580,253 C719.176618,253 832,365.599526 832,504.5 C832,643.400474 719.176618,756 580,756 C440.826722,756 328,643.400474 328,504.5 C328,365.599526 440.826722,253 580,253 Z M486.107724,611.934013 C501.726931,612.542406 545.195825,622.366716 579.993319,538.476711 C579.993319,538.476711 580.923591,531.110979 582.767432,534.794678 C583.021294,535.304729 583.293528,535.928124 583.595825,536.616526 C585.392902,540.740269 588.148643,547.124237 594.219624,545.119038 C594.393319,545.055698 594.575365,544.990692 594.767432,544.922351 C605.265971,540.723601 612.646347,532.13108 617.568267,523.538559 C619.938205,519.384813 629.907307,499.546174 622.961169,485.91982 C622.309812,484.654694 621.529854,483.44124 620.5762,482.29946 C619.046347,480.479279 617.14572,478.977463 615.009603,477.864019 C609.073904,474.773712 601.284342,474.757043 594.349896,479.622527 C588.524426,480.117576 582.794154,480.790977 577.022129,481.496047 C574.543633,481.797743 572.622965,482.171114 570.037578,482.287792 C567.624217,482.397803 564.948643,482.189449 562.51691,482.481145 C561.549896,482.597823 551.567432,484.017964 551.255115,483.296226 C550.483507,481.506048 549.862213,479.730871 549.503132,478.114044 C549.324426,477.30563 549.150731,476.535554 548.978706,475.782145 C549.093946,476.293863 570.531942,474.362004 572.260543,474.181986 C577.214196,473.666935 582.17286,472.833519 587.131524,472.401809 C590.089353,472.14345 593.063883,472.145117 596.023382,471.925095 C598.261378,471.755078 600.330689,470.914995 602.51357,470.818319 C608.060125,470.579962 613.448017,470.2966 618.97119,469.829887 C619.757829,469.764881 629.800418,469.061477 629.843841,468.701441 L630.934447,459.817225 C630.874322,460.318942 616.329019,461.10402 615.398747,461.187361 C605.414614,462.065782 595.455532,462.942536 585.463048,463.82429 C579.169937,464.379345 572.878497,464.932734 566.580376,465.487789 C559.958246,466.07118 553.337787,466.654571 546.708977,467.236296 C545.887265,464.764383 544.946973,462.654174 543.741127,460.788988 C544.046764,461.260702 549.59666,460.250601 550.177871,460.237267 C554.042589,460.160593 557.964092,459.747218 561.848852,459.747218 C565.693528,459.747218 569.479749,459.112155 573.270981,458.535431 C576.955324,457.977042 580.56785,458.067051 584.303967,457.565335 C589.636743,456.85193 595.163257,457.143626 600.556159,456.585237 C610.081002,455.598472 619.54238,454.330013 629.129019,453.516599 C630.239666,453.421589 631.355324,453.32658 632.469311,453.23157 L632.828392,453.201567 C632.896868,451.626411 632.926931,450.091258 632.923591,448.584442 C632.891858,435.483139 630.192902,424.942092 625.553236,416.492918 C624.928601,415.347805 624.253862,414.241028 623.555741,413.169255 C620.671399,408.752149 617.215866,404.965106 613.297704,401.749786 C611.699374,400.446323 610.047599,399.226202 608.317328,398.104424 C571.921503,374.408735 506.371608,389.241876 490.650522,393.287278 C490.049269,393.313948 489.461378,393.33895 488.816701,393.40729 C474.369937,394.940776 463.051357,384.528074 466.227975,377.364029 C466.227975,377.364029 437.723591,414.676071 436.287265,440.882009 C434.688935,469.92823 444.900209,481.391036 448.180376,485.89315 C451.460543,490.395265 453.511482,492.433801 450.224635,500.626282 C446.947808,508.812095 437.291023,526.275498 436.696451,530.907625 C436.125261,535.3514 435.878079,539.906853 448.589562,544.817341 L444.282255,553.413195 C444.282255,553.413195 444.489353,560.782261 448.589562,563.234172 C448.589562,563.234172 446.149478,579.575796 452.484342,580.217527 C462.567015,581.237628 461.706889,587.583259 461.706889,593.725536 C461.706889,599.861146 467.422129,611.200606 486.107724,611.934013 Z M716.045094,665.879375 L716.045094,664.107532 L706.079332,664.107532 L706.079332,665.879375 L710.022547,665.879375 L710.022547,678.067253 L712.101879,678.067253 L712.101879,665.879375 L716.045094,665.879375 Z M732.068476,678.067253 L732.068476,664.107532 L729.431315,664.107532 L725.518163,674.271876 L721.474739,664.107532 L718.820877,664.107532 L718.820877,678.067253 L720.766597,678.067253 L720.766597,667.556208 L724.997077,677.933907 L725.052192,678.067253 L725.855532,678.067253 L729.987474,667.591212 L729.987474,678.067253 L732.068476,678.067253 Z M741.394572,490.860311 C748.156994,485.95149 745.392902,477.663999 745.392902,477.663999 C753.294363,468.694774 746.229645,463.337575 744.519415,462.230798 C747.128184,457.968708 743.858038,447.999384 743.858038,447.999384 C750.6238,431.421069 738.51023,419.976598 738.51023,419.976598 C741.524843,408.247099 726.177871,396.99598 726.177871,396.99598 C726.177871,396.99598 729.887265,390.65535 727.711065,383.187941 C726.331524,378.430802 721.043841,374.198714 721.050522,373.982026 C721.204175,364.619429 712.699791,363.602661 712.693111,363.495984 C711.672651,351.883163 698.121086,355.001806 698.121086,355.001806 C700.23048,346.875998 692.090188,342.96561 692.090188,342.96561 C691.497286,326.418965 670.692276,329.430931 670.692276,329.430931 C669.4881,327.617417 664.663048,325.820572 664.663048,325.820572 C655.321921,304.460115 617.94405,295.434218 609.204175,293.634039 C600.467641,291.823859 538.97286,281.29948 491.953236,301.449816 C444.936952,321.610153 443.731106,359.210558 443.731106,359.210558 C443.126514,376.655625 455.485595,375.750535 455.485595,375.750535 C458.957829,383.30962 464.870146,378.342459 466.17286,377.115671 C471.273486,388.435129 482.107724,384.478069 482.107724,384.478069 C485.321086,384.478069 496.173695,378.462471 496.173695,378.462471 C509.835491,378.462471 522.695616,373.243619 525.506472,374.855446 C528.322338,376.453938 534.755741,376.855645 545.608351,376.453938 C556.45595,376.053899 573.120668,372.705232 575.128184,372.705232 C577.14572,372.705232 584.146973,372.291858 611.111482,388.085095 C638.015866,403.841661 645.100626,457.206966 646.28309,468.124718 C645.94071,468.144719 645.755324,468.14972 645.755324,468.14972 C642.374948,468.458084 634.987891,466.922931 634.678914,473.981966 C634.376618,481.037668 639.298539,480.732637 639.298539,480.732637 C632.529436,491.173675 642.989562,494.850707 642.989562,494.850707 C642.206263,497.565977 642.999582,499.464499 644.881837,500.777963 C645.03048,500.87964 645.235908,500.94798 645.389562,501.039656 C641.008768,511.679047 635.001253,527.703973 633.386221,539.295125 C630.754071,558.148666 627.039666,560.725589 624.643006,563.35085 C622.241336,565.979445 600.524426,598.744368 593.621712,640.763545 C589.858873,663.64582 585.610021,672.290012 584.475992,676.313746 C583.350313,680.329145 577.301044,693.317102 577.518163,696.364072 C577.746973,699.417709 581.920668,702.606359 585.94238,700.719505 C585.94238,700.719505 599.118163,672.415025 601.118998,662.337356 C601.118998,662.337356 601.062213,682.971074 598.839248,689.998439 C598.839248,689.998439 598.97119,695.752345 603.564092,696.250727 L600.549478,716.784435 C600.549478,716.784435 601.663466,722.576678 607.592484,722.778364 L608.133612,735.651311 C608.133612,735.651311 615.524008,741.316874 620.631315,736.421387 L620.951983,727.29548 C620.951983,727.29548 631.325261,732.387653 635.138205,727.102127 C635.138205,727.102127 634.847599,697.327501 641.058873,679.612407 C641.058873,679.612407 645.536534,683.487792 650.896033,681.305908 C650.896033,681.305908 653.693528,705.081605 652.8,711.812274 C652.8,711.812274 656.202088,718.362925 664.594572,713.910816 L666.475157,668.98135 C666.475157,668.98135 670.476827,674.423558 675.702714,673.700152 C675.702714,673.700152 678.939457,671.553272 681.930689,663.537476 C681.930689,663.537476 682.040919,663.620817 682.196242,663.742496 C684.207098,660.163807 704.886848,623.308477 707.109812,615.015986 C707.109812,615.015986 696.379123,654.288223 688.22714,667.532873 C690.999582,668.94468 694.096033,669.968115 696.150313,668.994685 C696.150313,668.994685 699.104802,667.394526 702.151148,657.363529 C705.326096,646.920824 705.840501,645.984064 706.216284,644.642264 C706.588727,643.302131 713.058873,627.96894 713.427975,617.151198 C713.807098,606.340123 720.036743,597.760937 720.036743,597.760937 C720.036743,597.760937 722.795825,594.135577 722.598747,590.405206 C722.393319,586.678169 723.001253,597.860947 728.430898,612.259045 C733.867223,626.652142 729.501461,642.533721 729.125678,644.863953 C728.258873,650.252822 736.065136,653.224784 737.630063,647.192517 C743.103132,626.075418 734.533612,599.49611 734.533612,599.49611 C730.049269,583.781214 735.054697,531.929393 737.630063,508.598741 C737.663466,506.598542 737.686848,504.855035 737.703549,503.421559 C743.821294,500.639616 741.394572,490.860311 741.394572,490.860311 Z M618.203504,365.603054 C618.203504,365.603054 663.549076,362.328832 669.701783,361.923515 C675.841148,361.509859 693.652144,358.235636 695.293311,358.235636 C695.293311,358.235636 689.967858,367.44616 677.373904,367.75807 C654.852893,368.305164 620.254963,373.799453 618.203504,365.603054 Z M700.516691,399.386761 C710.031789,411.366112 704.194305,426.7231 704.194305,426.7231 C703.271983,414.748753 690.376148,401.845346 690.989918,402.155589 C691.600352,402.457491 700.516691,399.386761 700.516691,399.386761 Z M639.907601,392.021344 C639.907601,392.021344 701.33127,392.635157 713.925224,377.581739 C713.925224,377.581739 698.464232,404.709582 639.907601,392.021344 Z M696.305364,466.879114 C695.761644,464.280419 695.222927,460.360693 694.779279,454.464423 C693.146451,432.76415 683.316129,414.748419 670.208477,404.098439 L684.133377,402.051841 C684.133377,402.051841 709.673201,432.515622 700.640112,466.767361 C699.205759,466.804056 697.753059,466.842419 696.305364,466.879114 Z M651.579399,331.824185 C646.355686,321.381033 633.768404,314.006943 633.768404,314.006943 C646.667574,312.167173 657.7221,330.898463 657.7221,330.898463 L651.579399,331.824185 Z M555.251082,313.392964 C555.251082,313.392964 549.011647,308.680952 533.140363,312.780819 C532.209701,313.026011 560.166243,299.884085 603.055068,318.925616 L597.941433,324.451596 C597.941433,324.451596 593.640041,318.925616 585.854506,321.17237 C585.854506,321.17237 579.509996,312.780819 570.607,319.842999 C570.607,319.842999 568.358735,310.320565 555.251082,313.392964 Z M610.424641,313.595955 C610.424641,313.595955 595.275537,298.038811 535.089415,299.676756 C535.089415,299.676756 581.353973,291.078377 622.710042,309.916416 C622.710042,309.916416 613.288343,311.140705 610.424641,313.595955 Z M606.746359,341.441359 C606.746359,341.441359 618.653158,316.743746 629.774397,322.301418 C642.059798,328.441211 645.232054,334.075609 645.232054,334.075609 C645.232054,334.075609 628.852075,338.574121 618.41799,341.032707 C610.844273,342.815766 608.379187,341.848344 606.746359,341.441359 Z M609.200938,352.912648 C609.200938,352.912648 630.506084,350.787655 644.822929,347.791984 C659.975368,344.616171 669.702284,344.416015 676.452082,343.798866 C683.433713,343.168374 688.230456,346.559355 688.230456,346.559355 C688.230456,346.559355 688.140392,350.792659 677.374405,351.781765 C665.09234,352.912648 655.268689,352.092007 644.521048,353.935112 C633.356444,355.846605 616.366031,361.611105 609.200938,352.912648 Z M672.052955,455.90388 C672.052955,455.90388 676.150868,459.176435 679.014571,462.864314 C679.928554,464.035228 680.318831,465.679845 680.42891,467.384509 C678.309069,467.461236 676.217582,467.542966 674.172795,467.618025 C672.139683,462.108724 672.052955,455.90388 672.052955,455.90388 Z M576.016012,449.945562 C568.944318,450.549367 561.875959,451.153171 554.804265,451.755308 C549.57388,452.202324 544.343494,452.649339 539.109774,453.096355 C537.935605,453.196433 534.388083,454.160519 533.298976,453.591742 C530.582044,452.175636 527.286368,450.81791 523.213472,449.385125 C521.704066,448.853043 520.269713,448.315957 518.903742,447.765527 C519.577554,448.037406 521.210382,447.570375 521.909212,447.50866 C524.781254,447.265136 527.658299,447.033289 530.528673,446.774754 C544.450237,445.513769 558.331773,444.402902 572.261676,443.21364 C580.060554,442.548121 587.862767,441.884269 595.661645,441.217082 C601.927767,440.681664 608.235585,440.608273 614.485028,439.831 C615.839324,439.664203 628.283171,437.188937 628.62508,438.403218 C629.312235,440.841789 629.839277,443.165269 630.221215,445.320285 C618.786419,446.296046 607.259891,448.3293 595.811752,448.421039 C589.230406,448.474414 582.553993,449.388461 576.016012,449.945562 Z M528.128467,318.10631 C507.755649,314.928829 492.60321,318.925282 492.60321,318.925282 C508.88145,300.183986 528.128467,318.10631 528.128467,318.10631 Z M553.557545,436.069897 C542.723176,436.993952 531.960524,437.913002 521.134494,438.835389 C518.237435,439.083916 515.340375,439.330776 512.43998,439.579303 C511.089019,439.694393 505.720202,440.977061 504.707816,440.239819 C502.497911,438.623557 498.701879,435.996506 497.779557,433.322752 C499.148864,432.877405 500.935134,433.077561 502.387833,432.93912 C504.060689,432.783998 505.726874,432.575502 507.39973,432.432057 C532.729404,430.268702 558.060747,428.103678 583.412103,425.940323 C592.510238,425.163049 601.606705,424.385776 610.706508,423.608502 C611.60548,423.531776 621.289031,421.928858 621.744355,422.6661 C623.233747,425.077983 624.499647,427.508213 625.570409,429.9251 C625.365263,429.466409 616.829194,430.670682 616.215424,430.724057 C609.07368,431.332866 601.720119,432.59385 594.578375,432.59385 C587.818569,432.59385 580.766889,433.748084 574.000412,434.325202 C567.187235,434.907323 560.370722,435.489444 553.557545,436.069897 Z M546.358594,420.924741 C540.007412,421.273346 534.009814,422.502639 527.69199,422.502639 C525.372007,422.502639 494.373302,424.449159 494.403323,424.796096 C494.179831,422.098991 494.678519,419.483616 495.680898,417.053385 C495.992787,416.309471 504.617251,416.319479 505.387799,416.302799 C511.517157,416.164358 517.623165,415.567225 523.732508,415.083514 C526.948127,414.828315 530.160411,414.594799 533.382702,414.478041 C536.021245,414.379631 538.079374,413.562327 540.654538,413.215389 C544.188718,412.741686 547.79795,412.60658 551.34714,412.30301 C558.365463,411.704209 565.387122,411.107077 572.405445,410.506608 C582.726116,409.62592 593.050122,408.743565 603.369125,407.864545 C604.805146,407.741116 606.239499,407.619354 607.672184,407.497592 C610.639293,409.655944 613.244479,412.002776 615.517762,414.459694 C615.119145,414.029358 611.132978,414.833319 610.575915,414.88169 C606.216149,415.253647 601.854715,415.625604 597.494949,415.999229 C585.267923,417.041709 573.132628,418.114213 560.987327,419.535323 C558.727387,419.80053 556.38739,419.748823 554.12745,419.935635 C551.505586,420.150803 548.957108,420.782963 546.358594,420.924741 Z M580.455501,490.208159 C581.055928,490.15812 582.795498,490.329921 583.302525,489.964636 C578.979452,493.070394 569.998067,498.733148 561.960686,498.733148 C560.166077,498.733148 557.41412,496.057726 554.832285,492.39987 C555.094138,492.773495 559.267104,492.004562 559.737439,491.979542 C564.454125,491.724343 568.957327,491.192261 573.635653,490.791948 C575.908936,490.596796 578.182218,490.401644 580.455501,490.208159 Z M506.370498,407.416029 C505.723371,407.436044 503.309989,407.264243 502.779612,407.706255 C505.334762,405.567919 508.158436,403.966669 510.750278,403.097657 C549.372737,392.259196 575.623066,393.311685 593.485765,399.968548 C571.606877,401.835005 549.771353,404.293591 527.907476,405.883165 C523.032344,406.236775 518.173889,406.858927 513.293753,407.202529 C510.983778,407.365989 508.677138,407.34097 506.370498,407.416029 Z M663.248028,404.504089 C663.248028,404.504089 682.493377,433.585124 683.315629,446.27503 C683.315629,446.27503 673.488642,440.540554 673.078351,439.316264 C672.669727,438.083636 666.118402,413.107471 656.70004,405.738386 C656.70004,405.738386 660.377654,405.323061 663.248028,404.504089 Z M711.18244,412.662624 C711.330879,411.024679 711.979674,400.684941 705.01639,396.725183 C705.01639,396.725183 717.710415,394.678585 719.75687,386.488859 C719.75687,386.488859 722.620572,398.363128 715.662292,406.144202 C711.952988,410.182355 711.292519,412.05048 711.18244,412.662624 Z M712.28906,466.537181 C711.446795,466.550525 710.599526,466.565536 709.727239,466.575544 C709.845657,438.857239 722.619738,411.269036 722.619738,411.269036 C722.619738,411.269036 720.171331,433.58479 716.892333,452.417825 C715.337895,461.369814 713.643357,465.094388 712.28906,466.537181 Z M469.98046,369.28643 C479.395487,346.353527 502.32679,344.723922 502.32679,344.723922 C495.782137,349.224102 494.551262,358.641453 494.551262,358.641453 C490.698523,357.615652 482.037365,362.052449 476.096475,365.506812 C473.37454,367.243168 471.391463,368.559195 469.853703,369.756797 C469.93376,369.484918 469.98046,369.28643 469.98046,369.28643 Z M729.325672,466.609237 C728.306615,466.575878 727.205832,466.550858 726.036667,466.527507 C728.838659,458.938249 734.526036,442.508757 735.521744,431.33003 C735.521744,431.33003 739.536265,454.769995 729.325672,466.609237 Z M731.220019,425.805217 C737.771343,428.260467 720.577453,458.152135 720.577453,458.152135 L731.220019,425.805217 Z M664.55896,468.002992 C658.674777,456.297187 654.443436,439.108769 654.443436,439.108769 C654.443436,439.108769 659.975702,445.255234 665.497961,451.393359 C668.780295,455.036203 669.175576,462.411961 668.962091,467.819515 C667.446013,467.886234 665.981639,467.946281 664.55896,468.002992 Z M664.565799,554.526202 C661.226758,563.212983 634.104142,613.392155 625.336242,632.04505 C616.57001,650.704616 604.945079,693.29453 604.945079,693.29453 C606.813073,668.640284 621.448478,627.174581 640.178461,594.303921 C655.964684,566.623979 676.053966,517.991014 682.004863,503.319561 C683.285774,503.292874 684.529992,503.276194 685.665799,503.29621 C685.79756,503.299546 685.920981,503.299546 686.047738,503.302882 C681.247658,516.558229 667.526237,546.85855 664.565799,554.526202 Z M618.351276,723.434058 C616.044636,652.944031 640.396949,627.377406 640.396949,627.377406 C624.075346,655.474339 618.351276,723.434058 618.351276,723.434058 Z M688.539676,507.285991 C688.539676,507.285991 683.94641,552.149346 643.759507,618.127518 C643.759507,618.127518 685.542545,525.458511 688.539676,507.285991 Z M682.816107,581.674061 C693.58543,567.039304 695.211586,564.046968 695.174893,565.062761 C694.91304,572.732081 692.831561,593.798526 684.780837,603.179182 C682.896164,605.370893 672.565486,617.205132 672.565486,617.205132 C675.235718,605.112358 682.816107,581.674061 682.816107,581.674061 Z M700.134252,503.47635 C701.820451,503.494698 703.514989,503.513046 705.177838,503.538065 C703.131383,541.09405 682.748559,567.344542 682.748559,567.344542 C686.296081,556.469386 697.080415,515.240534 700.134252,503.47635 Z M639.890756,671.479334 C644.002012,630.660802 675.01406,575.539439 675.01406,575.539439 C675.01406,575.539439 669.239955,585.830806 658.815877,623.381787 C652.089429,647.575673 646.183563,660.549134 642.827844,666.723955 C640.966521,670.146627 639.890756,671.479334 639.890756,671.479334 Z M707.058175,478.462991 C710.333837,478.648135 739.201026,478.082694 741.866255,476.758327 C741.866255,476.758327 739.616322,484.506041 689.455661,483.747116 C639.289996,482.994862 638.684565,478.648135 637.862314,479.023428 C637.862314,479.023428 647.072195,476.004405 659.55607,476.57485 C672.046617,477.138623 703.779177,478.267838 707.058175,478.462991 Z M705.21403,492.341992 C713.710071,492.038421 721.322149,491.48132 727.176311,490.812464 C733.053823,490.145277 737.155072,489.373007 738.589425,488.659117 C738.589425,488.659117 737.938963,493.334433 726.767687,495.10248 C725.35168,495.32432 723.780563,495.502793 722.005969,495.617882 C706.233088,496.642015 668.974933,498.081472 668.974933,498.081472 C668.974933,498.081472 653.974269,499.369144 645.878513,495.496121 C644.852784,495.007406 643.940469,494.443632 643.183264,493.776445 C643.183264,493.776445 644.185643,493.758097 645.920209,493.728074 C655.903974,493.537925 690.735404,492.872406 705.21403,492.341992 Z M701.908013,584.136984 C702.303294,571.013406 712.972546,505.417199 712.972546,505.417199 C714.985644,511.074949 709.411681,556.520425 709.154832,557.417793 C708.892979,558.31516 706.823174,572.574625 706.964942,588.155121 C707.101706,603.727277 691.168712,618.578871 678.399634,637.718812 C667.218351,654.48023 665.138539,662.313011 665.138539,662.313011 C665.387049,653.397718 668.60934,638.45105 670.033686,636.4645 C672.992456,632.349621 684.412242,620.55041 690.524921,613.311425 C696.640935,606.077445 701.586118,595.073855 701.908013,584.136984 Z M725.536812,504.323345 C725.735286,504.340025 725.925422,504.348364 726.117225,504.366712 C726.907787,504.433431 727.65832,504.518497 728.423865,504.59856 C727.534899,520.959665 720.695037,582.524392 720.695037,582.524392 C715.336227,566.500216 721.402206,518.592818 723.403629,504.196579 C724.10913,504.241614 724.849657,504.268302 725.536812,504.323345 Z M503.356355,364.684004 C503.356355,364.684004 520.450174,322.200839 553.922304,319.740586 C553.922304,319.740586 528.547598,335.264371 523.822572,343.285632 C517.686543,353.728785 515.433274,361.101207 503.356355,364.684004 Z M591.537046,333.820911 C591.537046,333.820911 584.328588,341.805477 573.574276,349.481469 C559.784472,359.330825 549.829061,366.838352 536.312785,366.426364 C536.312785,366.426364 565.495199,347.071254 571.529489,341.645352 C585.706234,328.902071 591.128422,331.362325 591.537046,333.820911 Z M561.698833,325.684392 C567.646395,321.687939 567.436245,325.167322 567.436245,325.167322 C567.436245,325.167322 545.527336,347.179505 526.588872,359.565841 C526.588872,359.565841 534.267664,344.105439 561.698833,325.684392 Z M621.207807,588.122595 C618.002195,596.747662 611.252396,618.357865 607.3196,634.472111 C603.376797,650.586357 597.786156,655.466834 597.786156,655.466834 C597.452585,645.637494 604.204052,626.580951 609.26098,607.454353 C614.321244,588.339431 631.518471,564.103845 631.518471,564.103845 C631.518471,564.103845 624.570198,579.098884 621.207807,588.122595 Z M474.285688,326.696849 C474.285688,326.696849 459.123241,335.505392 454.623375,350.907416 C450.245263,365.889111 452.176636,374.003779 452.176636,374.003779 C452.571917,375.062939 436.205281,343.898611 474.285688,326.696849 Z M603.819278,355.823086 C603.819278,355.823086 602.189786,366.062746 610.373938,366.469731 C610.373938,366.469731 583.456468,367.804106 571.579691,364.528215 C571.579691,364.528215 585.853172,357.622825 597.676578,346.819391 C597.676578,346.819391 597.267954,354.597129 603.819278,355.823086 Z M513.489226,328.13714 C513.489226,328.13714 507.651742,333.661453 505.498545,335.818136 C505.498545,335.818136 467.526549,332.023507 456.977382,377.278836 C456.977382,377.278836 460.359787,322.91473 513.489226,328.13714 Z M652.112445,503.956392 C653.496763,504.109845 654.844387,504.193243 656.118627,504.233275 C652.662836,514.257767 645.107465,535.065677 638.717922,545.168564 C638.717922,545.168564 642.20707,525.541575 648.441502,511.877575 C650.017622,508.414872 651.203465,505.874556 652.112445,503.956392 Z M663.248028,429.48559 C663.248028,429.48559 641.547601,409.830246 639.092522,404.918079 C639.092522,404.918079 646.871386,406.557692 652.193503,405.738719 C652.193503,405.738719 661.615201,421.300868 663.248028,429.48559 Z M648.461183,560.406125 C644.786904,568.737629 622.387646,609.6062 622.387646,609.6062 C625.034528,591.752262 637.718545,570.529028 646.0478,554.900161 C652.659167,542.502149 662.476146,514.90227 666.252164,504.03045 C667.304579,503.985414 668.355326,503.938711 669.411077,503.885336 C668.452062,523.534008 651.861934,552.685098 648.461183,560.406125 Z M707.065013,371.744682 C707.065013,371.744682 714.995651,384.084315 624.097695,386.949885 C624.097695,386.949885 619.846339,381.577358 602.237153,375.025577 C602.237153,375.025577 664.069446,386.901514 707.065013,371.744682 Z" transform="translate(-209 -138)"/>
</svg>
