<svg xmlns="http://www.w3.org/2000/svg" width="608" height="598" viewBox="0 0 608 598">
  <path fill="#EC0400" fill-rule="evenodd" d="M120,553.52869 L152.483593,466.302667 L168.872112,472.30431 L157.100646,503.9127 L212.384134,524.145059 L203.040996,549.241992 L147.753469,529.008299 L136.396595,559.531668 L120,553.52869 Z M246.670178,467.99014 L227.196965,486.477721 L174.671752,431.517823 L217.079964,391.25277 C227.579371,381.282796 235.796415,375.671259 242.203402,374.094519 C249.069276,372.412127 255.652036,374.805991 261.775907,381.211916 C267.27451,386.966551 269.895001,391.944182 269.783634,396.429667 C269.733988,398.430349 269.116771,400.662392 267.917222,403.156558 C275.60158,400.235776 281.033094,403.156558 284.548551,406.835618 L297.166624,420.040651 L277.698778,438.533582 L266.933699,427.270387 C265.377237,425.644164 261.247247,421.323174 250.691485,431.341292 L230.221331,450.779732 L246.670178,467.99014 Z M205.657414,425.075789 L218.708882,438.732847 L239.12134,419.351914 C245.556503,413.244218 246.980129,410.170979 247.256535,408.883107 C247.766411,406.507967 245.628959,403.659403 243.745104,401.686806 C240.037773,397.808479 237.987538,397.474141 237.088547,397.579792 C236.211025,397.709515 233.483191,398.656361 227.150003,404.667767 L205.657414,425.075789 Z M311.841374,406.647586 C303.94904,403.93142 298.121701,395.490042 294.026597,380.842004 C289.210959,363.612873 289.380023,352.074183 294.540498,345.566619 C299.492998,339.319839 313.113379,333.169348 336.185239,326.766097 C356.766761,321.047572 370.403243,319.600555 377.86755,322.344805 C385.652542,325.201393 391.510742,334.007869 395.776252,349.269752 C400.418801,365.877014 400.131661,377.072004 394.897387,383.491303 C389.885849,389.631095 376.374152,395.690645 353.589432,402.014992 C339.494062,405.929427 328.645793,407.872603 320.789687,407.872603 C317.184331,407.872603 314.209611,407.463372 311.841374,406.647586 Z M317.240686,352.337642 C316.775089,353.115982 315.623844,357.015706 320.46766,374.306356 C323.824787,386.329168 326.751203,388.579934 327.854144,388.989165 C329.101997,389.455901 333.869332,390.005554 351.299018,385.167007 C367.81093,380.582558 371.235145,377.58421 371.94092,376.508978 C372.462871,375.710577 373.854294,371.955287 369.743089,357.245731 C365.625174,342.512103 362.710834,340.155685 361.91516,339.785238 C361.626678,339.650165 360.953106,339.458924 359.485202,339.458924 C356.648684,339.458924 350.848181,340.177083 339.121048,343.436214 L339.119706,343.436214 C320.715889,348.542232 317.721042,351.540579 317.240686,352.337642 Z M449.860342,396.269987 C433.712052,393.531086 423.650064,390.270617 419.097414,386.302688 C414.234813,382.056589 412.672984,374.608865 414.457548,364.164131 L416.15758,356.434225 L441.254182,360.68701 L441.148182,363.056802 C441.027422,365.819775 440.852991,367.85389 440.615496,369.272823 C440.418255,370.424285 440.254558,371.844554 440.131115,373.502873 C439.903012,376.003725 444.693157,378.306649 452.941062,379.704184 C460.691168,381.018803 462.974873,380.122775 463.488773,379.813847 C463.951687,379.538352 465.551085,378.148841 466.612431,371.90741 L474.97707,322.901412 L501.495956,327.396258 L492.848202,378.032491 C491.168297,387.900826 487.197978,394.163655 481.049954,396.641771 C478.308703,397.749101 474.570512,398.301428 469.770975,398.301428 C464.46022,398.301428 457.851967,397.624727 449.860342,396.269987 Z M517.294566,415.967855 L493.553239,399.526096 L570.390904,360.214492 L599.594159,380.439998 L589.956883,466.302667 L566.552647,450.091199 L568.372394,434.845083 L530.850677,408.856928 L517.294566,415.967855 Z M546.06135,400.810106 L570.652787,417.843661 L574.462841,385.995117 L546.06135,400.810106 Z M603.121113,492.822988 L591.51447,468.562638 L660.421345,435.79306 L677.855518,472.257346 L657.574154,515.436478 C655.817691,519.152643 653.598576,523.603727 650.973296,528.669031 L647.78853,534.740153 L648.908847,534.131298 L657.180093,530.011464 L696.529704,511.296528 L708.129622,535.562243 L639.230817,568.325115 L621.793954,531.872899 L643.484792,484.808624 C644.568796,482.46976 646.539101,478.750912 649.50868,473.433483 L651.694172,469.473239 L650.74466,469.990901 L642.326818,474.177789 L603.121113,492.822988 Z M660.956219,679.081192 L710,688.743759 L704.761544,715.211546 L654.080998,705.225777 C644.197196,703.278511 638.007883,699.133197 635.685209,692.902484 C633.499718,687.053983 633.901848,676.825476 636.917154,661.63627 C640.105955,645.523052 643.659228,635.515825 647.777367,631.045966 C652.16718,626.275703 659.697376,624.899743 670.170253,626.963683 L677.902186,628.872057 L672.936749,653.919628 L670.556244,653.756015 C667.774954,653.562898 665.734713,653.333571 664.318514,653.057306 C663.167264,652.82932 661.744341,652.630839 660.083367,652.464543 C657.562991,652.145364 655.127344,656.91965 653.490579,665.159318 C651.962752,672.898759 652.804671,675.214825 653.099208,675.740533 C653.364157,676.211256 654.717144,677.851411 660.956219,679.081192 Z M616.860194,726.764287 L634.039296,703.393662 L671.091446,781.537718 L649.964526,810.285535 L564.247186,798.336068 L581.193196,775.289419 L596.401738,777.520955 L623.571618,740.555442 L616.860194,726.764287 Z M631.176558,756.039069 L613.370521,780.264667 L645.159361,784.932071 L631.176558,756.039069 Z M540.592277,810.465966 L565.755261,800.651379 L593.457099,871.641007 L556.750451,885.964854 L524.667714,861.924418 C522.487334,860.262476 519.606117,857.898437 515.840128,854.685976 L510.888624,850.293509 L510.238806,856.770787 C509.821258,861.360593 509.328524,865.155674 508.780744,868.024471 L501.826083,907.395583 L464.403831,922 L436.69528,851.00903 L461.855578,841.190416 L476.871202,879.658065 C477.894262,882.274483 478.938804,885.264099 479.98066,888.555765 C480.52307,883.820975 481.009091,880.224575 481.427982,877.822948 L490.503948,830.011908 L511.617655,821.770663 L550.767832,850.375398 C552.871684,851.909808 555.677715,854.205382 559.336296,857.384283 C557.780224,854.142287 556.554432,851.367462 555.606557,848.933616 L540.592277,810.465966 Z M397.809263,854.41374 L407.238548,842.415273 L435.712738,847.658682 L381.851598,914.766313 L346.827581,908.314118 L320.031735,826.359501 L348.111808,831.530863 L352.768808,846.120348 L397.809263,854.41374 Z M387.251252,867.949207 L357.735471,862.512339 L367.462353,893.010835 L387.251252,867.949207 Z M296.518491,805.463345 L320.031735,818.753208 L282.48843,885.029476 L258.977872,871.739613 L296.518491,805.463345 Z M251.732202,764.698689 C267.383636,782.085938 275.009387,794.246838 275.044517,801.876183 C275.08505,809.634044 267.487673,820.133597 251.821376,833.975925 C244.845517,840.139375 238.095295,843.237165 231.673397,843.237165 C229.300821,843.237165 226.974183,842.81413 224.697537,841.968062 C216.738058,839.010837 205.399416,829.270337 190.031717,812.185638 C178.741715,799.640526 172.525188,790.343141 171.029492,783.760672 C169.427057,776.694927 172.425204,769.746989 179.940163,763.11231 L183.022079,760.080118 L201.269026,780.356316 L197.868243,783.353702 C193.948629,786.816962 194.591765,788.906698 194.801189,789.59346 C195.247061,791.037935 197.246726,794.855954 205.646671,804.185468 C217.248784,817.081324 221.376471,819.03585 222.612751,819.278157 C223.480173,819.442819 227.045793,819.335722 236.627973,810.872357 C250.035189,799.024717 251.303895,794.977777 251.374154,794.019256 C251.44171,793.070106 250.762094,788.972295 239.137012,776.048327 C230.538452,766.493908 226.413466,763.421554 224.467846,762.52863 C223.116721,761.902111 220.90628,761.441592 217.35282,764.582221 L213.153523,768.708145 L194.918737,748.437301 L198.768093,745.026251 C206.970774,737.781118 214.69921,735.51601 221.762893,738.304556 C228.260454,740.872214 238.06557,749.505597 251.732202,764.698689 Z M210.788609,705.03776 L218.007517,733.130499 L134.498848,712.734217 L125.623382,678.179409 L188.684708,619.005342 L195.803501,646.707214 L184.523958,657.139741 L195.942326,701.573683 L210.788609,705.03776 Z M171.750709,668.615924 L148.181135,690.413149 L179.231249,697.737543 L171.750709,668.615924 Z M418.5,413 C530.338354,413 621,503.43779 621,615 C621,726.56221 530.338354,817 418.5,817 C306.66433,817 216,726.56221 216,615 C216,503.43779 306.66433,413 418.5,413 Z M343.05085,701.288949 C355.601998,701.777599 390.532359,709.668297 418.494632,642.289446 C418.494632,642.289446 419.242171,636.37343 420.723829,639.332107 C420.927826,639.74177 421.146585,640.242469 421.389502,640.795381 C422.833582,644.107492 425.048017,649.234974 429.926484,647.624436 C430.06606,647.573563 430.212347,647.521351 430.366687,647.466461 C438.803012,644.094105 444.733671,637.192756 448.688786,630.291407 C450.5932,626.955198 458.604086,611.021182 453.022368,600.076754 C452.498956,599.060629 451.872204,598.086006 451.105875,597.16895 C449.876528,595.707015 448.349239,594.500785 446.632717,593.606488 C441.862959,591.124413 435.603489,591.111025 430.031166,595.018889 C425.349985,595.416503 420.745303,595.957365 416.107068,596.523664 C414.115419,596.765981 412.572025,597.065865 410.494483,597.159578 C408.555174,597.247937 406.40516,597.080591 404.451089,597.314876 C403.674023,597.408589 395.652401,598.54922 395.401432,597.969533 C394.78139,596.531696 394.282135,595.105908 393.993588,593.807304 C393.849985,593.158001 393.710409,592.53949 393.572174,591.934367 C393.664778,592.345369 410.891739,590.793737 412.280793,590.64915 C416.261408,590.235471 420.246048,589.566087 424.230689,589.219346 C426.607516,589.011837 428.997763,589.013176 431.375932,588.836458 C433.174322,588.699904 434.837161,588.025165 436.591262,587.947516 C441.048315,587.756073 445.377871,587.528482 449.816135,587.153627 C450.448255,587.101415 458.518193,586.536455 458.553087,586.247281 L459.429466,579.111648 C459.381151,579.514617 447.692962,580.145177 446.945422,580.212115 C438.922458,580.917646 430.919624,581.621838 422.889949,582.330046 C417.832985,582.775856 412.777364,583.220327 407.716373,583.666136 C402.395019,584.134705 397.075007,584.603274 391.748285,585.070504 C391.087981,583.085111 390.332389,581.390231 389.363406,579.89215 C389.609007,580.271021 394.068744,579.459728 394.535789,579.449017 C397.641366,579.387434 400.792574,579.05542 403.914256,579.05542 C407.003728,579.05542 410.046227,578.545349 413.092753,578.082135 C416.053385,577.633648 418.956308,577.705942 421.958545,577.302972 C426.243812,576.72998 430.68476,576.964264 435.018342,576.515777 C442.672234,575.723226 450.275127,574.704424 457.978676,574.051105 C458.87116,573.974795 459.767671,573.898486 460.662839,573.822176 L460.951387,573.798078 C461.006412,572.532942 461.03057,571.299937 461.027885,570.089691 C461.002386,559.566975 458.833582,551.100606 455.105279,544.314392 C454.60334,543.394658 454.061139,542.505716 453.500149,541.644888 C451.182374,538.097153 448.405607,535.055473 445.257083,532.472989 C443.972711,531.426073 442.645392,530.446095 441.254996,529.545104 C412.008351,510.513179 359.334327,522.426875 346.701312,525.676065 C346.218163,525.697485 345.74575,525.717566 345.227707,525.772456 C333.6187,527.004122 324.523412,518.640839 327.076051,512.886814 C327.076051,512.886814 304.170743,542.855135 303.016552,563.903244 C301.73218,587.232614 309.937668,596.439321 312.573516,600.055334 C315.209365,603.671346 316.857441,605.308659 314.216224,611.888703 C311.58306,618.463393 303.823143,632.489664 303.345362,636.2101 C302.88637,639.779256 302.687742,643.438108 312.902326,647.382119 L309.441098,654.286145 C309.441098,654.286145 309.607516,660.204838 312.902326,662.174166 C312.902326,662.174166 310.941545,675.299447 316.032061,675.814872 C324.134208,676.634198 323.443036,681.730888 323.443036,686.664248 C323.443036,691.592252 328.03564,700.699891 343.05085,701.288949 Z M527.82195,744.616834 L527.82195,743.193724 L519.813749,743.193724 L519.813749,744.616834 L522.982404,744.616834 L522.982404,754.405905 L524.653296,754.405905 L524.653296,744.616834 L527.82195,744.616834 Z M540.697882,754.405905 L540.697882,743.193724 L538.578735,743.193724 L535.434238,751.357531 L532.185058,743.193724 L530.05249,743.193724 L530.05249,754.405905 L531.616016,754.405905 L531.616016,745.963635 L535.015508,754.298804 L535.059797,754.405905 L535.705339,754.405905 L539.025649,745.991749 L539.025649,754.405905 L540.697882,754.405905 Z M548.192067,604.044862 C553.626156,600.10219 551.40501,593.445836 551.40501,593.445836 C557.754399,586.241926 552.077393,581.939126 550.703102,581.050184 C552.799433,577.626954 550.171637,569.619783 550.171637,569.619783 C555.60841,556.304397 545.874292,547.112417 545.874292,547.112417 C548.296749,537.691507 535.96436,528.654823 535.96436,528.654823 C535.96436,528.654823 538.945124,523.56215 537.196391,517.56447 C536.087832,513.743626 531.838801,510.344494 531.844169,510.170454 C531.967641,502.650595 525.133761,501.833946 525.128392,501.748265 C524.308381,492.421069 513.418729,494.925904 513.418729,494.925904 C515.113779,488.39941 508.572472,485.258661 508.572472,485.258661 C508.096033,471.968711 491.377721,474.387865 491.377721,474.387865 C490.410081,472.931285 486.532806,471.488094 486.532806,471.488094 C479.026543,454.331782 448.990755,447.082354 441.967641,445.636485 C434.947211,444.182583 385.531763,435.729602 347.748136,451.913968 C309.967194,468.106366 308.998211,498.306293 308.998211,498.306293 C308.512377,512.317838 318.443782,511.590887 318.443782,511.590887 C321.23397,517.6622 325.984939,513.672671 327.031763,512.687338 C331.13048,521.778911 339.836564,518.600676 339.836564,518.600676 C342.418729,518.600676 351.139576,513.769063 351.139576,513.769063 C362.117805,513.769063 372.451834,509.57738 374.710558,510.871969 C376.973307,512.155847 382.143006,512.47849 390.863853,512.155847 C399.580674,511.834543 412.971965,509.144958 414.585148,509.144958 C416.206382,509.144958 421.832389,508.812944 443.500298,521.49777 C465.119893,534.153143 470.813003,577.015137 471.763197,585.784067 C471.48807,585.800133 471.339099,585.804149 471.339099,585.804149 C468.622726,586.051821 462.686698,584.818816 462.438413,590.488498 C462.195497,596.155503 466.150611,595.910508 466.150611,595.910508 C460.711154,604.29655 469.116612,607.249872 469.116612,607.249872 C468.487176,609.430725 469.124664,610.955582 470.637191,612.010531 C470.756636,612.092196 470.921712,612.147086 471.045183,612.220718 C467.524903,620.766073 462.697435,633.636988 461.399642,642.946781 C459.284521,658.089585 456.299732,660.15932 454.373844,662.26788 C452.443931,664.379117 434.992842,690.695278 429.446018,724.444279 C426.422308,742.822885 423.008052,749.765735 422.096779,752.997521 C421.192216,756.222613 416.331196,766.654293 416.505667,769.101561 C416.689532,771.554184 420.043394,774.115247 423.275127,772.599761 C423.275127,772.599761 433.862809,749.866143 435.470623,741.771952 C435.470623,741.771952 435.424993,758.34456 433.638682,763.988806 C433.638682,763.988806 433.744706,768.610233 437.435431,769.010525 L435.012973,785.502807 C435.012973,785.502807 435.908142,790.155025 440.672532,790.317016 L441.107367,800.656321 C441.107367,800.656321 447.046078,805.206793 451.150164,801.274832 L451.407844,793.945077 C451.407844,793.945077 459.743513,798.035013 462.807486,793.78978 C462.807486,793.78978 462.573964,769.875369 467.565166,755.646943 C467.565166,755.646943 471.163287,758.759578 475.470027,757.007131 C475.470027,757.007131 477.718014,776.103317 477,781.509262 C477,781.509262 479.73382,786.77062 486.477781,783.194771 L487.988965,747.108281 C487.988965,747.108281 491.204593,751.479358 495.403967,750.898333 C495.403967,750.898333 498.004921,749.174 500.408589,742.735865 C500.408589,742.735865 500.497167,742.802803 500.62198,742.900534 C502.237847,740.026199 518.855503,710.424701 520.641813,703.76433 C520.641813,703.76433 512.018938,735.307042 505.468237,745.944892 C507.696093,747.078828 510.184313,747.900832 511.835073,747.118991 C511.835073,747.118991 514.209216,745.833774 516.657173,737.777069 C519.20847,729.389688 519.621831,728.6373 519.9238,727.559592 C520.223084,726.483222 525.422308,714.167896 525.718908,705.479292 C526.023561,696.796043 531.029526,689.905405 531.029526,689.905405 C531.029526,689.905405 533.246645,686.993585 533.088279,683.997422 C532.923203,681.003937 533.411721,689.985731 537.774829,701.550008 C542.143305,713.110269 538.635103,725.86605 538.333135,727.737648 C537.636594,732.065885 543.909484,734.452908 545.167015,729.607907 C549.565016,712.647056 542.678795,691.299062 542.678795,691.299062 C539.075306,678.677158 543.097525,637.030765 545.167015,618.29203 C545.193856,616.685509 545.212645,615.285158 545.226066,614.133817 C550.142112,611.899413 548.192067,604.044862 548.192067,604.044862 Z M449.199245,503.440624 C449.199245,503.440624 485.63765,500.810831 490.58179,500.485289 C495.515208,500.153048 509.827616,497.523255 511.14641,497.523255 C511.14641,497.523255 506.867029,504.920971 496.746887,505.171492 C478.649646,505.610907 450.847738,510.023815 449.199245,503.440624 Z M515.343769,530.575052 C522.98983,540.196639 518.298995,552.531079 518.298995,552.531079 C517.557844,542.913511 507.195119,532.549742 507.688327,532.798922 C508.178854,533.041404 515.343769,530.575052 515.343769,530.575052 Z M466.640037,524.65929 C466.640037,524.65929 515.998342,525.152293 526.118483,513.061675 C526.118483,513.061675 513.694472,534.850241 466.640037,524.65929 Z M511.959667,584.783623 C511.522749,582.6964 511.089852,579.548151 510.733349,574.81238 C509.421255,557.383134 501.521889,542.913243 490.988955,534.359382 L502.178606,532.715594 C502.178606,532.715594 522.701679,557.183522 515.442947,584.693864 C514.290342,584.723337 513.122994,584.75415 511.959667,584.783623 Z M476.01916,476.310081 C471.821533,467.92234 461.706753,461.999612 461.706753,461.999612 C472.072158,460.521944 480.955259,475.566558 480.955259,475.566558 L476.01916,476.310081 Z M398.612477,461.506476 C398.612477,461.506476 393.598645,457.721878 380.844935,461.014813 C380.097081,461.211746 402.56216,450.656402 437.026394,465.950197 L432.917223,470.388559 C432.917223,470.388559 429.460748,465.950197 423.204514,467.754746 C423.204514,467.754746 418.106247,461.014813 410.952053,466.687021 C410.952053,466.687021 409.145412,459.038784 398.612477,461.506476 Z M442.948372,461.669515 C442.948372,461.669515 430.774985,449.174313 382.411137,450.48988 C382.411137,450.48988 419.588014,443.583826 452.820569,458.714179 C452.820569,458.714179 445.249562,459.697505 442.948372,461.669515 Z M439.99261,484.034412 C439.99261,484.034412 449.560573,464.19776 458.497284,468.661576 C468.369481,473.592941 470.918614,478.118382 470.918614,478.118382 C470.918614,478.118382 457.756132,481.731501 449.371599,483.70619 C443.285576,485.138309 441.304704,484.361294 439.99261,484.034412 Z M441.965039,493.247932 C441.965039,493.247932 459.085246,491.541179 470.589854,489.135112 C482.765921,486.58436 490.582192,486.423598 496.006138,485.927917 C501.616376,485.421517 505.470902,488.145088 505.470902,488.145088 C505.470902,488.145088 505.398529,491.545198 496.74729,492.339628 C486.877773,493.247932 478.983768,492.588809 470.347271,494.069156 C461.375714,495.60443 447.722704,500.234366 441.965039,493.247932 Z M492.471124,575.968524 C492.471124,575.968524 495.764091,578.596977 498.06528,581.559011 C498.799731,582.499467 499.113347,583.820392 499.201802,585.189546 C497.498359,585.251171 495.8177,585.316816 494.174568,585.377101 C492.540817,580.952136 492.471124,575.968524 492.471124,575.968524 Z M415.298581,571.182917 C409.615969,571.667881 403.936038,572.152845 398.253427,572.63647 C394.050439,572.995505 389.847451,573.354539 385.641782,573.713573 C384.698254,573.793954 381.847567,574.56829 380.972391,574.111459 C378.789143,572.97407 376.140831,571.88357 372.867969,570.732784 C371.655053,570.305426 370.502448,569.874049 369.404792,569.431954 C369.946249,569.650322 371.258342,569.275211 371.819902,569.225643 C374.127793,569.03005 376.439705,568.843834 378.746255,568.636184 C389.933226,567.623385 401.088032,566.731158 412.281704,565.775966 C418.548659,565.241433 424.818295,564.70824 431.085251,564.172368 C436.120527,563.74233 441.189309,563.683384 446.211183,563.059093 C447.299457,562.925125 457.298976,560.937039 457.573725,561.912326 C458.125904,563.87094 458.549419,565.737115 458.856334,567.467982 C449.667658,568.251695 440.405269,569.884766 431.205872,569.958449 C425.917291,570.001318 420.552316,570.735463 415.298581,571.182917 Z M376.817518,465.292145 C360.446504,462.740054 348.270437,465.949929 348.270437,465.949929 C361.351165,450.897277 376.817518,465.292145 376.817518,465.292145 Z M397.251599,560.038247 C388.545409,560.78043 379.89685,561.518594 371.197361,562.259438 C368.869367,562.45905 366.541373,562.657323 364.210698,562.856935 C363.125105,562.949373 358.810877,563.979588 357.997352,563.387449 C356.221536,562.089298 353.171153,559.979301 352.430001,557.831793 C353.530337,557.474098 354.965732,557.63486 356.13308,557.523667 C357.477339,557.399076 358.816238,557.231616 360.160497,557.116404 C380.5147,555.378838 400.870243,553.639932 421.241869,551.902367 C428.55287,551.278075 435.862531,550.653784 443.174872,550.029493 C443.897261,549.967868 451.678686,548.680435 452.044571,549.272573 C453.241404,551.209752 454.258645,553.161666 455.119078,555.102864 C454.954229,554.734451 448.094888,555.701701 447.60168,555.744571 C441.862779,556.233554 435.953667,557.246353 430.214766,557.246353 C424.782779,557.246353 419.11625,558.173412 413.678903,558.636941 C408.204028,559.10449 402.726473,559.572038 397.251599,560.038247 Z M391.466727,547.873947 C386.363099,548.15394 381.543601,549.141285 376.466777,549.141285 C374.602506,549.141285 349.692832,550.704692 349.716956,550.983346 C349.537364,548.817082 349.938096,546.716463 350.743579,544.764548 C350.994204,544.16705 357.924577,544.175088 358.543767,544.161692 C363.469144,544.050498 368.375757,543.570892 373.285051,543.182385 C375.869031,542.977414 378.45033,542.789859 381.039671,542.696081 C383.159929,542.61704 384.813783,541.960596 386.883111,541.681943 C389.723077,541.301473 392.623353,541.192959 395.475381,540.949137 C401.115104,540.468192 406.757509,539.988586 412.397232,539.506301 C420.690629,538.79895 428.986705,538.090259 437.278761,537.384247 C438.432706,537.285111 439.585312,537.187314 440.736576,537.089517 C443.120861,538.823064 445.214313,540.707995 447.041059,542.681344 C446.720742,542.335707 443.517571,542.981433 443.069932,543.020284 C439.566548,543.319032 436.061824,543.617781 432.558441,543.91787 C422.733152,544.75517 412.981576,545.616585 403.221959,546.757993 C401.405936,546.971002 399.525581,546.929472 397.709558,547.079516 C395.602703,547.252335 393.554819,547.760074 391.466727,547.873947 Z M418.866028,603.521066 C419.348514,603.480876 420.746382,603.618863 421.153815,603.325473 C417.679917,605.819958 410.462732,610.368174 404.004123,610.368174 C402.562026,610.368174 400.350632,608.219326 398.275943,605.281407 C398.486361,605.581495 401.839637,604.963902 402.217585,604.943807 C406.007779,604.738836 409.626423,604.311478 413.385792,603.989955 C415.212538,603.833212 417.039283,603.676469 418.866028,603.521066 Z M359.333436,537.024007 C358.813423,537.040083 356.874098,536.902096 356.447902,537.257111 C358.501148,535.539641 360.770172,534.253547 362.852902,533.555574 C393.888806,524.850329 414.982821,525.695667 429.336775,531.042333 C411.755526,532.541435 394.209123,534.516125 376.639936,535.79284 C372.722419,536.076853 368.818304,536.576554 364.896766,536.852528 C363.040536,536.983817 361.186986,536.963721 359.333436,537.024007 Z M485.395737,534.685192 C485.395737,534.685192 500.86075,558.042525 501.521487,568.234815 C501.521487,568.234815 493.624802,563.628993 493.295103,562.645668 C492.966745,561.655644 487.702288,541.595265 480.133961,535.676556 C480.133961,535.676556 483.089187,535.342976 485.395737,534.685192 Z M523.914461,541.237973 C524.033742,539.922406 524.555095,531.617726 518.959599,528.437324 C518.959599,528.437324 529.160155,526.793536 530.804627,520.215704 C530.804627,520.215704 533.105817,529.75289 527.514342,536.0025 C524.533651,539.245867 524.002917,540.74631 523.914461,541.237973 Z M524.803709,584.508988 C524.126889,584.519706 523.446048,584.531763 522.745103,584.539801 C522.84026,562.276988 533.105147,540.118669 533.105147,540.118669 C533.105147,540.118669 531.137677,558.042257 528.502768,573.168591 C527.253665,580.358658 525.891983,583.350164 524.803709,584.508988 Z M330.091441,506.399041 C337.657088,487.979771 356.084027,486.670903 356.084027,486.670903 C350.824931,490.285362 349.835835,497.849199 349.835835,497.849199 C346.739884,497.025295 339.780026,500.588846 335.006096,503.363325 C332.818827,504.757932 331.225283,505.81494 329.989583,506.776831 C330.053914,506.558463 330.091441,506.399041 330.091441,506.399041 Z M538.493844,584.566862 C537.674958,584.540069 536.790401,584.519974 535.850893,584.501218 C538.102494,578.405671 542.672708,565.209816 543.47283,556.231277 C543.47283,556.231277 546.698784,575.057809 538.493844,584.566862 Z M540.016087,551.793852 C545.280544,553.765862 531.464025,577.77428 531.464025,577.77428 L540.016087,551.793852 Z M486.449165,585.6863 C481.720803,576.284421 478.320618,562.479011 478.320618,562.479011 C478.320618,562.479011 482.766189,567.415735 487.203719,572.34576 C489.841308,575.271622 490.158945,581.19569 489.987394,585.538935 C488.769118,585.592522 487.592388,585.64075 486.449165,585.6863 Z M486.45466,655.180091 C483.771502,662.157148 461.976543,702.460101 454.930909,717.44175 C447.886615,732.428757 438.545152,766.636163 438.545152,766.636163 C440.04622,746.834343 451.806813,713.529882 466.857692,687.128795 C479.543049,664.896795 495.686223,625.835725 500.468194,614.051894 C501.497497,614.030459 502.497315,614.017062 503.410017,614.033139 C503.515896,614.035818 503.615074,614.035818 503.716932,614.038497 C499.859726,624.68494 488.833583,649.021579 486.45466,655.180091 Z M449.31799,790.843657 C447.46444,734.227412 467.033263,713.692787 467.033263,713.692787 C453.917689,736.259708 449.31799,790.843657 449.31799,790.843657 Z M505.719382,617.237655 C505.719382,617.237655 502.028366,653.271046 469.735318,706.263454 C469.735318,706.263454 503.310974,631.833476 505.719382,617.237655 Z M501.120086,676.984733 C509.774006,665.230375 511.080739,662.826988 511.051253,663.642853 C510.840836,669.802705 509.168218,686.722872 502.698887,694.257236 C501.184417,696.017576 492.88298,705.522611 492.88298,705.522611 C495.028702,695.809926 501.120086,676.984733 501.120086,676.984733 Z M515.036453,614.177824 C516.391434,614.192561 517.753116,614.207297 519.089334,614.227392 C517.444861,644.391642 501.065806,665.475537 501.065806,665.475537 C503.916494,656.740819 512.582476,623.626592 515.036453,614.177824 Z M466.6265,749.114614 C469.930189,716.329949 494.850584,672.057522 494.850584,672.057522 C494.850584,672.057522 490.210678,680.323351 481.834187,710.483582 C476.429005,729.91565 471.683221,740.335686 468.986661,745.295184 C467.490954,748.044209 466.6265,749.114614 466.6265,749.114614 Z M520.600319,594.087571 C523.232548,594.236276 546.429396,593.782124 548.571097,592.718417 C548.571097,592.718417 546.763116,598.941234 506.455441,598.331679 C466.143747,597.727483 465.65724,594.236276 464.996502,594.537704 C464.996502,594.537704 472.3973,592.112882 482.428985,592.571052 C492.466032,593.023865 517.96541,593.930828 520.600319,594.087571 Z M519.118417,605.23492 C525.945592,604.991098 532.062441,604.543645 536.766678,604.006433 C541.489679,603.47056 544.785326,602.850288 545.937931,602.276905 C545.937931,602.276905 545.415238,606.03203 536.43832,607.452091 C535.300457,607.630269 534.037953,607.773615 532.611939,607.866053 C519.937303,608.688617 489.997714,609.844761 489.997714,609.844761 C489.997714,609.844761 477.943609,610.878994 471.438091,607.768256 C470.613844,607.37573 469.880734,606.922917 469.272265,606.387045 C469.272265,606.387045 470.077749,606.372309 471.471597,606.348194 C479.494265,606.195471 507.483807,605.660938 519.118417,605.23492 Z M516.461796,678.962906 C516.779433,668.422298 525.352939,615.736677 525.352939,615.736677 C526.970607,620.280873 522.49153,656.781813 522.285133,657.502561 C522.074715,658.223309 520.411479,669.676239 520.5254,682.190196 C520.635299,694.697455 507.832,706.625972 497.571134,721.998807 C488.586175,735.461258 486.914898,741.752399 486.914898,741.752399 C487.114593,734.591806 489.703934,722.586927 490.848498,720.991367 C493.226081,717.686375 502.402694,708.209474 507.314668,702.39526 C512.229323,696.585065 516.20313,687.747192 516.461796,678.962906 Z M535.449224,614.858114 C535.608712,614.871511 535.7615,614.878209 535.915627,614.892946 C536.5509,614.946533 537.154007,615.014857 537.769177,615.079161 C537.05483,628.220089 531.558511,677.667702 531.558511,677.667702 C527.252325,664.79739 532.126773,626.319082 533.735059,614.756298 C534.30198,614.79247 534.897046,614.813905 535.449224,614.858114 Z M356.911357,502.70246 C356.911357,502.70246 370.647462,468.580794 397.544709,466.604765 C397.544709,466.604765 377.15432,479.073172 373.357424,485.515697 C368.426686,493.903437 366.616024,499.824826 356.911357,502.70246 Z M427.770841,477.913813 C427.770841,477.913813 421.97833,484.326864 413.336472,490.492075 C402.255379,498.402889 394.255495,504.432792 383.394202,504.101891 C383.394202,504.101891 406.844356,488.556236 411.693339,484.198255 C423.085367,473.963095 427.442482,475.939124 427.770841,477.913813 Z M403.793705,471.378717 C408.572996,468.168842 408.404126,470.963416 408.404126,470.963416 C408.404126,470.963416 390.798752,488.643181 375.580344,498.59165 C375.580344,498.59165 381.750802,486.17415 403.793705,471.378717 Z M451.613416,682.164073 C449.037478,689.091561 443.613533,706.448464 440.45325,719.391119 C437.284926,732.333774 432.792447,736.253679 432.792447,736.253679 C432.524399,728.358941 437.949684,713.05309 442.013288,697.690971 C446.079571,682.338231 459.898771,662.872671 459.898771,662.872671 C459.898771,662.872671 454.315337,674.9164 451.613416,682.164073 Z M333.550999,472.191903 C333.550999,472.191903 321.36689,479.266756 317.750927,491.637368 C314.232801,503.670379 315.784797,510.187926 315.784797,510.187926 C316.102433,511.038623 302.950672,486.008029 333.550999,472.191903 Z M437.640491,495.585541 C437.640491,495.585541 436.331078,503.80984 442.907629,504.136722 C442.907629,504.136722 421.277519,505.208467 411.73368,502.577334 C411.73368,502.577334 423.203442,497.031056 432.704393,488.353944 C432.704393,488.353944 432.376034,494.600875 437.640491,495.585541 Z M365.053842,473.348717 C365.053842,473.348717 360.363007,477.785739 358.632759,479.517946 C358.632759,479.517946 328.119548,476.470173 319.642539,512.818389 C319.642539,512.818389 322.360543,469.154177 365.053842,473.348717 Z M476.4475,614.563384 C477.559898,614.686635 478.642811,614.753619 479.666753,614.785771 C476.889779,622.837252 470.818499,639.549768 465.684045,647.664214 C465.684045,647.664214 468.487824,631.900192 473.497635,620.925528 C474.764161,618.144351 475.71707,616.104017 476.4475,614.563384 Z M485.395737,554.749858 C485.395737,554.749858 467.957893,538.963061 465.985062,535.017701 C465.985062,535.017701 472.235935,536.334607 476.512636,535.676824 C476.512636,535.676824 484.083644,548.176045 485.395737,554.749858 Z M473.51345,659.902733 C470.560905,666.594438 452.561501,699.419294 452.561501,699.419294 C454.68846,685.079352 464.880974,668.033255 471.574125,655.480447 C476.886831,645.522601 484.775475,623.354905 487.809775,614.622866 C488.655465,614.586695 489.499816,614.549184 490.348187,614.506314 C489.577549,630.287752 476.246197,653.701351 473.51345,659.902733 Z M520.605814,508.373462 C520.605814,508.373462 526.978648,518.28442 453.935648,520.585991 C453.935648,520.585991 450.51938,516.27088 436.369141,511.008614 C436.369141,511.008614 486.055805,520.547141 520.605814,508.373462 Z" transform="rotate(145 410.051 440.186)"/>
</svg>
