<?xml version="1.0" encoding="utf-8"?>
<!-- Generator: Adobe Illustrator 23.0.1, SVG Export Plug-In . SVG Version: 6.00 Build 0)  -->
<svg version="1.1" id="Layer_1" xmlns="http://www.w3.org/2000/svg" xmlns:xlink="http://www.w3.org/1999/xlink" x="0px" y="0px"
	 viewBox="0 0 251.27 251.27" style="enable-background:new 0 0 251.27 251.27;" xml:space="preserve">
<style type="text/css">
	.st0{fill:#231F20;}
	.st1{fill:#ED7924;}
	.st2{fill:#ED7924;stroke:#ED7924;stroke-width:1.9516;}
	.st3{fill:#ED7924;stroke:#ED7924;stroke-width:1.9555;}
	.st4{fill:none;}
</style>
<circle class="st0" cx="125.31" cy="126.11" r="121.49"/>
<g>
	<g>
		<path class="st1" d="M137.51,84.64c0.6,2.39,10.67,0.79,17.23,0.63c3.67-0.09,5.22-2.77,5.22-2.77c-0.48,0-5.67,0.95-7.45,1.07
			C150.72,83.68,137.51,84.64,137.51,84.64z"/>
		<path class="st1" d="M161.48,94.47c0,0-2.6,0.89-2.77,0.81c-0.18-0.09,3.58,3.67,3.85,7.15
			C162.55,102.44,164.25,97.96,161.48,94.47z"/>
		<path class="st1" d="M143.83,92.33c17.05,3.7,21.56-4.21,21.56-4.21C161.72,92.51,143.83,92.33,143.83,92.33z"/>
		<path class="st1" d="M160.26,114.13c0.42-0.01,0.84-0.02,1.26-0.03c2.63-9.98-4.81-18.85-4.81-18.85l-4.06,0.6
			c3.82,3.1,6.68,8.35,7.16,14.67C159.94,112.23,160.1,113.37,160.26,114.13z"/>
		<path class="st1" d="M147.23,74.8l1.79-0.27c0,0-3.22-5.46-6.98-4.92C142.04,69.61,145.71,71.76,147.23,74.8z"/>
		<path class="st1" d="M119.17,69.43c3.82-0.89,4.47,1.88,4.47,1.88c2.59-2.06,4.44,0.39,4.44,0.39c2.27-0.65,3.52,0.96,3.52,0.96
			l1.49-1.61c-12.49-5.55-20.63-1.72-20.36-1.79C117.36,68.06,119.17,69.43,119.17,69.43z"/>
		<path class="st1" d="M135.24,69.49c0.83-0.71,3.58-1.07,3.58-1.07c-12.04-5.49-25.52-2.98-25.52-2.98
			C130.83,64.96,135.24,69.49,135.24,69.49z"/>
		<path class="st1" d="M134.17,77.6c0.48,0.12,1.19,0.4,3.4-0.12c3.04-0.72,7.81-2.03,7.81-2.03s-0.92-1.64-4.5-3.43
			C137.64,70.41,134.17,77.6,134.17,77.6z"/>
		<path class="st1" d="M134.89,80.94c2.09,2.53,7.04,0.85,10.29,0.3c3.13-0.54,5.99-0.3,9.57-0.63c3.14-0.29,3.16-1.52,3.16-1.52
			s-1.4-0.99-3.43-0.8c-1.97,0.18-4.8,0.24-9.21,1.16C141.09,80.32,134.89,80.94,134.89,80.94z"/>
		<path class="st1" d="M153.19,110.93c0,0,0.03,1.81,0.62,3.41c0.6-0.02,1.21-0.05,1.82-0.07c-0.03-0.5-0.15-0.98-0.41-1.32
			C154.39,111.89,153.19,110.93,153.19,110.93z"/>
		<path class="st1" d="M125.22,109.2c1.9-0.16,3.85-0.43,5.77-0.44c3.33-0.03,6.69-0.62,10.02-0.9c-0.11-0.63-0.26-1.3-0.46-2.01
			c-0.1-0.35-3.72,0.37-4.12,0.42c-1.82,0.23-3.66,0.25-5.48,0.4c-2.27,0.19-4.54,0.39-6.82,0.58c-4.06,0.35-8.1,0.67-12.15,1.04
			c-0.84,0.08-1.67,0.14-2.51,0.21c-0.2,0.02-0.68,0.15-0.88,0.07c0.4,0.16,0.82,0.32,1.25,0.47c1.19,0.42,2.15,0.81,2.94,1.23
			c0.32,0.17,1.35-0.12,1.69-0.14c1.52-0.13,3.05-0.26,4.57-0.39C121.1,109.55,123.16,109.37,125.22,109.2z"/>
		<path class="st1" d="M111.28,70.8c0,0-5.61-5.22-10.35,0.24C100.93,71.04,105.34,69.88,111.28,70.8z"/>
		<path class="st1" d="M118.68,105.16c1.98-0.17,3.97-0.34,5.95-0.51c1.97-0.17,4.02-0.5,5.99-0.5c2.08,0,4.22-0.37,6.3-0.54
			c0.18-0.02,2.67-0.37,2.72-0.23c-0.31-0.7-0.68-1.41-1.11-2.11c-0.13-0.21-2.95,0.25-3.21,0.27c-2.65,0.23-5.3,0.45-7.95,0.68
			c-7.38,0.63-14.76,1.26-22.14,1.89c-0.49,0.04-0.97,0.1-1.46,0.15c-0.42,0.04-0.94-0.02-1.34,0.11c0.27,0.78,1.37,1.54,2.02,2.01
			c0.29,0.21,1.86-0.16,2.25-0.19c0.84-0.07,1.69-0.14,2.53-0.22C112.39,105.69,115.53,105.43,118.68,105.16z"/>
		<path class="st1" d="M116.58,100.75c0.76-0.04,1.5-0.23,2.26-0.29c0.66-0.05,1.34-0.04,2-0.12c3.54-0.41,7.07-0.73,10.63-1.03
			c1.27-0.11,2.54-0.22,3.81-0.33c0.16-0.01,1.32-0.25,1.44-0.12c-0.66-0.72-1.42-1.4-2.29-2.03c-0.42,0.04-0.83,0.07-1.25,0.11
			c-3.01,0.26-6.01,0.51-9.02,0.77c-2.04,0.17-4.09,0.35-6.13,0.52c-1.03,0.09-2.08,0.13-3.11,0.27c-0.75,0.1-1.35,0.34-2.12,0.37
			c-0.94,0.03-1.87,0.1-2.81,0.18c-1.78,0.14-3.56,0.31-5.34,0.35c-0.22,0-2.74,0-2.83,0.22c-0.29,0.71-0.44,1.47-0.37,2.25
			c-0.01-0.1,9.02-0.67,9.7-0.67C112.99,101.21,114.73,100.85,116.58,100.75z"/>
		<path class="st1" d="M126.52,120.92c-0.66,0.06-1.32,0.11-1.99,0.17c-1.36,0.12-2.67,0.27-4.05,0.35
			c-0.14,0.01-1.35,0.23-1.43,0.12c0.75,1.07,1.55,1.84,2.08,1.84c2.34,0,4.96-1.65,6.22-2.55
			C127.2,120.96,126.69,120.91,126.52,120.92z"/>
		<path class="st1" d="M104.94,96.81c0.67-0.02,1.34-0.01,2.02-0.06c1.42-0.1,2.84-0.28,4.26-0.38c6.37-0.46,12.73-1.18,19.1-1.72
			c-5.2-1.94-12.85-2.25-24.1,0.91c-0.75,0.25-1.58,0.72-2.32,1.34C104.05,96.77,104.75,96.82,104.94,96.81z"/>
		<path class="st1" d="M150.63,95.96c-0.84,0.24-1.91,0.36-1.91,0.36c2.74,2.15,4.65,9.42,4.77,9.78c0.12,0.36,2.98,2.03,2.98,2.03
			C156.23,104.43,150.63,95.96,150.63,95.96z"/>
		<path class="st1" d="M164.59,98.34c0.03-0.18,0.22-0.72,1.3-1.9c2.03-2.27,1.19-5.72,1.19-5.72c-0.6,2.39-4.29,2.98-4.29,2.98
			C164.82,94.85,164.63,97.86,164.59,98.34z"/>
		<path class="st1" d="M164.91,114.03c0.39-0.42,0.89-1.5,1.34-4.11c0.96-5.48,1.67-11.98,1.67-11.98s-3.72,8.03-3.75,16.11
			C164.42,114.04,164.67,114.03,164.91,114.03z"/>
		<path class="st1" d="M101.5,82.61c0,0,0.36-2.74,2.26-4.05c0,0-6.68,0.47-9.42,7.15c0,0-0.01,0.06-0.04,0.14
			c0.45-0.35,1.03-0.73,1.82-1.24C97.85,83.6,100.37,82.31,101.5,82.61z"/>
		<path class="st1" d="M169.87,114.05c2.97-3.45,1.8-10.27,1.8-10.27c-0.29,3.26-1.95,8.04-2.76,10.25
			C169.26,114.03,169.58,114.04,169.87,114.05z"/>
		<path class="st1" d="M170.43,102.17l-3.1,9.42C167.33,111.59,172.33,102.88,170.43,102.17z"/>
		<path class="st1" d="M151.01,114.46c0.41-0.02,0.84-0.03,1.28-0.05c0.06-1.57-0.05-3.72-1.01-4.78c-1.61-1.79-3.22-3.58-3.22-3.58
			S149.3,111.05,151.01,114.46z"/>
		<path class="st1" d="M151.01,139.66c0.86-2.23,4.86-11.06,6.26-14.92c-0.04,0-0.07,0-0.11,0c-0.33-0.01-0.69,0-1.07,0.01
			c-1.73,4.27-7.58,18.44-12.18,26.5c-5.46,9.57-9.72,21.65-10.26,28.83c0,0,3.39-12.4,5.94-17.84
			C142.14,156.8,150.04,142.19,151.01,139.66z"/>
		<path class="st1" d="M137.55,188.85c0,0,1.67-19.79,6.42-27.97C143.97,160.87,136.88,168.32,137.55,188.85z"/>
		<path class="st1" d="M157.99,125.9c-0.87,5.29-13.04,32.28-13.04,32.28C156.66,138.96,157.99,125.9,157.99,125.9z"/>
		<path class="st1" d="M156.33,147.56c0,0-2.21,6.83-2.99,10.35c0,0,3.01-3.45,3.56-4.08c2.34-2.73,2.95-8.87,3.03-11.1
			C159.94,142.43,159.46,143.3,156.33,147.56z"/>
		<path class="st1" d="M161.37,124.79c-0.89,3.43-4.03,15.43-5.06,18.6c0,0,5.94-7.65,6.53-18.58
			C162.36,124.8,161.86,124.79,161.37,124.79z"/>
		<path class="st1" d="M143.83,173.72c0,0,0.31-0.39,0.86-1.38c0.98-1.8,2.7-5.58,4.66-12.62c3.04-10.94,4.72-13.93,4.72-13.93
			S145.02,161.83,143.83,173.72z"/>
		<path class="st1" d="M163.39,117.5c-0.96-0.06-10.2-0.39-13.83-0.55c-3.64-0.17-6.32,0.71-6.32,0.71
			c0.24-0.11,0.42,1.16,15.03,1.38c14.61,0.22,15.26-2.04,15.26-2.04C172.75,117.39,164.34,117.56,163.39,117.5z"/>
		<path class="st1" d="M126.05,52.02c-40.48,0-73.29,32.81-73.29,73.29c0,40.48,32.82,73.29,73.29,73.29
			c40.48,0,73.29-32.82,73.29-73.29C199.34,84.83,166.53,52.02,126.05,52.02z M98.74,156.62c-5.43-0.21-7.1-3.52-7.1-5.31
			c0-1.79,0.25-3.64-2.68-3.94c-1.84-0.19-1.13-4.95-1.13-4.95c-1.19-0.71-1.25-2.86-1.25-2.86l1.25-2.5
			c-3.7-1.43-3.62-2.76-3.46-4.05c0.17-1.35,2.98-6.44,3.93-8.83c0.96-2.39,0.36-2.98-0.59-4.29c-0.95-1.31-3.92-4.65-3.46-13.12
			c0.42-7.64,8.71-18.51,8.71-18.51c-0.92,2.09,2.37,5.12,6.57,4.68c0.19-0.02,0.36-0.03,0.53-0.03c4.57-1.18,23.64-5.5,34.22,1.4
			c0.5,0.33,0.98,0.68,1.45,1.06c1.14,0.94,2.14,2.04,2.98,3.33c0.2,0.31,0.4,0.63,0.58,0.97c1.35,2.46,2.13,5.53,2.14,9.35
			c0,0.44-0.01,0.89-0.03,1.35l-0.1,0.01c-0.32,0.03-0.65,0.06-0.97,0.08c-2.79,0.24-5.54,0.61-8.31,0.89
			c-1.57,0.16-3.18,0.08-4.73,0.29c-1.09,0.15-2.14,0.12-3.21,0.28c-1.1,0.17-2.2,0.35-3.32,0.35c-1.13,0-2.27,0.12-3.39,0.14
			c-0.17,0-1.78,0.3-1.87,0.16c0.35,0.54,0.62,1.16,0.86,1.88c1.93-0.17,3.85-0.34,5.78-0.51c1.83-0.16,3.66-0.32,5.49-0.48
			c2.91-0.26,5.8-0.51,8.71-0.77c0.27-0.02,4.5-0.25,4.52-0.4l-0.32,2.59c-0.01,0.11-2.93,0.31-3.16,0.33
			c-1.61,0.14-3.17,0.22-4.79,0.29c-0.63,0.03-1.24,0.27-1.89,0.32c-0.86,0.06-1.73,0.06-2.59,0.14c-1.44,0.13-2.88,0.37-4.33,0.52
			c-0.5,0.05-6.74,0.62-6.77,0.47c0.05,0.22,0.1,0.44,0.15,0.68c0.1,0.47,0.29,0.99,0.51,1.51c0.09,0.21,2.99-0.2,3.28-0.24
			c0.71-0.08,1.49-0.02,2.19-0.06c0.75-0.03,1.31-0.14,2.03-0.23c1.68-0.21,3.35-0.4,5.04-0.55c2.02-1.42,4.28-1.41,6.01-0.51
			c0.62,0.32,1.17,0.76,1.62,1.29c0.28,0.33,0.5,0.69,0.69,1.06c2.02,3.97-0.88,9.75-1.57,10.96c-1.43,2.5-3.58,5.01-6.63,6.23
			c-0.06,0.02-0.11,0.04-0.16,0.06c-1.77,0.58-2.57-1.28-3.09-2.48c-0.09-0.2-0.17-0.38-0.24-0.53c-0.54-1.07-0.81,1.07-0.81,1.07
			C115.92,159.66,103.28,156.8,98.74,156.62z M172.99,121.34c0,0,0.71,2.85-1.07,3.66c0,0.42-0.01,0.93-0.02,1.51
			c-0.75,6.8-2.21,21.91-0.9,26.49c0,0,2.49,7.75,0.9,13.9c-0.46,1.76-2.73,0.89-2.47-0.68c0.11-0.68,1.38-5.31-0.2-9.5
			c-1.58-4.2-1.76-7.46-1.7-6.37c0.06,1.09-0.75,2.14-0.75,2.14s-1.81,2.5-1.92,5.65c-0.11,3.15-1.99,7.62-2.1,8.01
			c-0.11,0.39-0.26,0.66-1.18,3.71c-0.89,2.92-1.75,3.39-1.75,3.39c-0.6,0.28-1.5-0.01-2.3-0.43c2.37-3.86,5.49-15.31,5.49-15.31
			c-0.65,2.42-6.66,13.16-7.25,14.2c-0.04-0.04-0.08-0.06-0.08-0.06c-0.87,2.34-1.81,2.96-1.81,2.96c-1.52,0.21-2.68-1.38-2.68-1.38
			l-0.55,13.09c-2.44,1.3-3.43-0.61-3.43-0.61c0.26-1.96-0.55-8.89-0.55-8.89c-1.56,0.64-2.86-0.49-2.86-0.49
			c-1.81,5.16-1.72,13.84-1.72,13.84c-1.11,1.54-4.13,0.06-4.13,0.06l-0.09,2.66c-1.49,1.43-3.63-0.22-3.63-0.22l-0.16-3.75
			c-1.72-0.06-2.05-1.75-2.05-1.75l0.88-5.98c-1.34-0.15-1.37-1.82-1.37-1.82c0.65-2.05,0.66-8.06,0.66-8.06
			c-0.58,2.94-4.41,11.19-4.41,11.19c-1.17,0.55-2.38-0.38-2.45-1.27c-0.06-0.89,1.7-4.67,2.02-5.84c0.33-1.17,1.57-3.69,2.66-10.36
			c2.01-12.25,8.32-21.79,9.02-22.56c0.7-0.77,1.78-1.52,2.54-7.01c0.47-3.38,2.22-8.05,3.49-11.15c-0.04-0.03-0.1-0.05-0.15-0.08
			c-0.55-0.38-0.78-0.94-0.55-1.73c0,0-3.04-1.07-1.07-4.11c0,0-1.43,0.09-1.34-1.97c0.09-2.06,2.24-1.61,3.22-1.7
			c0,0,0.05,0,0.15-0.01c-0.34-3.18-2.4-18.73-10.23-23.33c-7.84-4.6-9.88-4.48-10.47-4.48c-0.58,0-5.43,0.98-8.59,1.09
			c-3.16,0.12-5.03,0-5.85-0.47c-0.82-0.47-4.56,1.05-8.53,1.05c0,0-3.16,1.75-4.09,1.75c0,0-3.15,1.15-4.63-2.15
			c-0.38,0.36-2.1,1.8-3.11-0.4c0,0-3.59,0.26-3.42-4.82c0,0,0.35-10.96,14.03-16.83c13.68-5.87,31.56-2.81,34.1-2.28
			c2.54,0.52,13.41,3.16,16.13,9.38c0,0,1.4,0.52,1.75,1.05c0,0,6.05-0.88,6.22,3.94c0,0,2.37,1.14,1.75,3.51
			c0,0,3.94-0.91,4.24,2.48c0,0.03,2.48,0.33,2.43,3.06c0,0.06,1.54,1.3,1.94,2.68c0.63,2.18-0.45,4.02-0.45,4.02
			s4.46,3.28,3.59,6.7c0,0,3.52,3.33,1.56,8.17c0,0,0.95,2.91,0.19,4.15c0.5,0.32,2.55,1.88,0.25,4.5
			C174.15,117.49,174.96,119.91,172.99,121.34z"/>
		<path class="st1" d="M162.85,121.55c-4.22,0.15-14.36,0.35-17.27,0.4c-0.5,0.01-0.8,0.01-0.8,0.01c0.22,0.19,0.49,0.36,0.79,0.5
			c2.36,1.13,6.73,0.75,6.73,0.75s10.85-0.42,15.45-0.72c0.52-0.03,0.97-0.09,1.39-0.15c3.25-0.51,3.44-1.88,3.44-1.88
			c-0.42,0.21-1.61,0.43-3.32,0.63C167.54,121.29,165.33,121.46,162.85,121.55z"/>
		<path class="st1" d="M161.89,148.28c-0.09,3.19-1.53,6.39-3.32,8.5c-1.78,2.11-5.11,5.54-5.97,6.74
			c-0.41,0.58-1.35,4.93-1.43,7.53c0,0,0.61-2.28,3.86-7.16c3.72-5.57,8.36-9.9,8.32-14.43c-0.04-4.54,0.56-8.69,0.64-8.95
			c0.08-0.26,1.7-13.5,1.11-15.14C165.11,125.35,162,144.46,161.89,148.28z"/>
		<path class="st1" d="M168.77,125.03c-0.2-0.02-0.42-0.02-0.62-0.04c-0.58,4.19-2.35,18.14-0.79,22.81c0,0,1.99-17.93,2.25-22.69
			c-0.22-0.02-0.44-0.05-0.67-0.07C168.88,125.04,168.83,125.04,168.77,125.03z"/>
		<path class="st1" d="M104.06,84.37c3.52-1.04,4.17-3.19,5.96-6.23c1.38-2.34,8.77-6.86,8.77-6.86
			C109.04,72,104.06,84.37,104.06,84.37z"/>
		<path class="st1" d="M129.74,75.38c-0.12-0.72-1.7-1.43-5.83,2.28c-1.76,1.58-10.26,7.22-10.26,7.22
			c3.94,0.12,6.84-2.07,10.85-4.93C127.64,77.7,129.74,75.38,129.74,75.38z"/>
		<path class="st1" d="M121.05,73.01c-7.99,5.36-10.23,9.87-10.23,9.87c5.52-3.61,11.9-10.02,11.9-10.02S122.78,71.85,121.05,73.01z
			"/>
		<path class="st1" d="M138.38,149.44c0.98-2.63,3-7,3-7s-5.01,7.06-6.48,12.62c-1.47,5.57-3.44,11.12-3.34,13.98
			c0,0,1.63-1.42,2.78-6.11C135.48,158.24,137.45,151.95,138.38,149.44z"/>
		<path class="st1" d="M95.59,73.3c-11.09,5.01-6.32,14.09-6.44,13.78c0,0-0.56-2.36,0.71-6.73C91.18,75.87,95.59,73.3,95.59,73.3z"
			/>
		<path class="st1" d="M133.32,81.79c-1.91-0.36-1.79-2.62-1.79-2.62c-3.44,3.15-7.6,5.16-7.6,5.16c3.46,0.95,11.3,0.57,11.3,0.57
			C132.85,84.77,133.32,81.79,133.32,81.79z"/>
		<path class="st1" d="M107.01,73.72C91.54,72.2,90.55,88.04,90.55,88.04c3.07-13.18,14.13-12.07,14.13-12.07
			C105.31,75.33,107.01,73.72,107.01,73.72z"/>
		<path class="st1" d="M147.39,124.93c-0.26,0.56-0.61,1.3-1.07,2.31c-1.82,3.98-2.83,9.7-2.83,9.7c1.86-2.94,4.06-9,5.07-11.92
			C148.18,125,147.79,124.97,147.39,124.93z"/>
		<path class="st1" d="M150.63,103.24c-0.48-2.38-3.22-6.92-3.22-6.92c-1.55,0.24-3.82-0.24-3.82-0.24
			C144.31,97.52,150.63,103.24,150.63,103.24z"/>
		<path class="st1" d="M146.32,141.37c0.99-2.25,5.82-10.74,6.1-16.46c-0.31,0.02-0.61,0.03-0.92,0.04
			c-1.1,3.17-3.96,11.2-5.88,14.82c-2.43,4.55-6.12,10.73-6.89,15.93C138.73,155.7,145.25,143.79,146.32,141.37z"/>
		<path class="st1" d="M163.39,86.42c-12.52,4.41-30.53,0.96-30.53,0.96c5.13,1.91,6.37,3.47,6.37,3.47
			C165.7,90.02,163.39,86.42,163.39,86.42z"/>
	</g>
	<g>
		<path class="st2" d="M30.61,85.11l19.95,7.36l-2.7,7.3l-19.95-7.36l-4.1,11.11l-4.09-1.51L30.77,72.1l4.08,1.51L30.61,85.11z"/>
		<path class="st2" d="M57.32,77.1L39.65,58.55L54.3,44.6c3.64-3.47,6.53-5.47,8.66-5.99c2.13-0.52,4.18,0.25,6.15,2.31
			c1.79,1.88,2.66,3.49,2.63,4.83c-0.03,1.35-0.99,3.16-2.87,5.46l0.12,0.12c3.42-3.01,6.21-3.38,8.37-1.11l3.9,4.09l-5.64,5.37
			l-3.22-3.38c-1.82-1.91-4.24-1.43-7.26,1.44L57,65.48l5.96,6.25L57.32,77.1z M54.18,62.52l8.1-7.71c1.93-1.84,3.01-3.27,3.23-4.31
			c0.22-1.03-0.29-2.19-1.52-3.49c-1.26-1.32-2.35-1.92-3.26-1.78c-0.91,0.13-2.29,1.08-4.13,2.83l-8.49,8.09L54.18,62.52z"/>
		<path class="st2" d="M97.01,21.41c7.18-2,12.01-2.54,14.49-1.63c2.48,0.91,4.44,3.96,5.88,9.13c1.58,5.65,1.53,9.5-0.14,11.55
			c-1.67,2.05-6.49,4.18-14.46,6.4c-7.18,2-12.03,2.57-14.53,1.7c-2.51-0.87-4.45-3.77-5.83-8.71c-1.64-5.88-1.63-9.86,0.01-11.95
			C84.08,25.82,88.94,23.66,97.01,21.41z M97.55,25.58c-5.04,1.4-7.87,2.63-8.5,3.67c-0.62,1.04-0.27,3.96,1.07,8.74
			c0.99,3.54,2.08,5.54,3.27,5.99c1.19,0.45,4.22-0.01,9.09-1.36c4.65-1.3,7.33-2.48,8.03-3.55c0.7-1.07,0.48-3.67-0.67-7.79
			c-1.15-4.13-2.27-6.46-3.36-6.96C105.39,23.81,102.41,24.23,97.55,25.58z"/>
		<path class="st2" d="M155.47,21.5l-2.97,17.43c-0.55,3.24-1.78,5.25-3.68,6.02c-1.9,0.77-5.49,0.7-10.76-0.19
			c-5.61-0.95-9.16-2.09-10.66-3.39c-1.49-1.31-1.95-3.69-1.36-7.14l0.41-1.85l7.32,1.24c-0.04,0.96-0.1,1.67-0.18,2.14
			c-0.08,0.44-0.14,0.99-0.19,1.62c-0.14,1.55,1.67,2.65,5.45,3.29c2.25,0.38,3.75,0.35,4.48-0.08c0.74-0.44,1.27-1.62,1.59-3.55
			l2.86-16.84L155.47,21.5z"/>
		<path class="st2" d="M181.97,59.11l-14.54-10.1l-4.9,2.58l-6.77-4.7l25.83-13.25l9.6,6.67l-3.24,28.95l-6.64-4.61L181.97,59.11z
			 M182.54,55.14l1.79-15.01l-13.34,6.98L182.54,55.14z"/>
		<path class="st2" d="M230.07,95.84l-23.12,11.03l-5.68-11.91l7.64-16.63c0.38-0.83,1.1-2.18,2.14-4.05l1.09-1.99l1.1-1.96
			l-0.13-0.27l-1.47,0.83l-1.47,0.8l-3.01,1.5l-13.26,6.33l-3.35-7.03l23.13-11.03l5.68,11.91l-7.13,15.22
			c-0.63,1.35-1.42,2.93-2.37,4.76l-1.21,2.31l-1.22,2.32l0.12,0.24l1.45-0.79l1.45-0.79l2.96-1.48l13.32-6.35L230.07,95.84z"/>
	</g>
	<g>
		<path class="st3" d="M229.38,160.22l-17.35-3.43c-3.23-0.64-5.2-1.92-5.92-3.85c-0.72-1.93-0.56-5.52,0.49-10.79
			c1.11-5.61,2.34-9.14,3.68-10.61c1.35-1.47,3.74-1.86,7.18-1.18l1.84,0.46l-1.45,7.31c-0.96-0.07-1.67-0.15-2.13-0.24
			c-0.44-0.09-0.98-0.16-1.62-0.23c-1.55-0.18-2.69,1.61-3.44,5.38c-0.44,2.25-0.46,3.75-0.04,4.5c0.42,0.75,1.59,1.31,3.5,1.69
			l16.75,3.31L229.38,160.22z"/>
		<path class="st3" d="M191.32,184.87l10.55-14.31l-2.43-4.98l4.91-6.65l12.48,26.23l-6.97,9.45l-28.88-4.01l4.82-6.53
			L191.32,184.87z M195.28,185.54l14.97,2.19l-6.58-13.56L195.28,185.54z"/>
		<path class="st3" d="M143.62,234.86L134.31,211l7.28-2.84l5.08,13.01c0.41,1.04,0.82,2.23,1.24,3.59l0.56,1.84l0.55,1.82
			l0.23-0.09l0.22-2l0.2-1.99c0.2-1.8,0.38-3.14,0.54-4.02l3.18-16.75l6.63-2.59L173.74,211c0.76,0.55,1.8,1.41,3.15,2.58l1.52,1.32
			l1.51,1.3l0.22-0.09l-0.82-1.68l-0.82-1.69c-0.64-1.31-1.15-2.45-1.53-3.41l-5.08-13.01l7.28-2.84l9.31,23.87l-11.86,4.63
			l-11.17-8.37c-0.77-0.59-1.82-1.45-3.15-2.58l-1.49-1.33l-1.51-1.3l-0.25,0.1l-0.17,1.96l-0.2,1.97
			c-0.15,1.66-0.32,2.99-0.52,3.99l-2.42,13.72L143.62,234.86z"/>
		<path class="st3" d="M101.96,209.68l17.48,3.23l3.42-4.37l8.13,1.5l-18.13,22.7l-11.54-2.14l-9.02-27.72l7.98,1.48L101.96,209.68z
			 M103.09,213.54l4.58,14.42l9.31-11.85L103.09,213.54z"/>
		<path class="st3" d="M70.27,217.63l12.62-22.3l6.8,3.85l-12.62,22.3L70.27,217.63z"/>
		<path class="st3" d="M52.12,179.21l-5.22-5.86l0.66-0.59c2.66-2.37,5.08-3.13,7.25-2.26c2.17,0.87,5.64,3.97,10.41,9.32
			c5.41,6.07,8.12,10.35,8.13,12.84c0.01,2.5-2.66,6.13-8.02,10.91c-3.16,2.82-6.08,3.72-8.76,2.71
			c-2.68-1.01-6.71-4.52-12.08-10.54c-3.91-4.39-6.11-7.68-6.61-9.88c-0.49-2.2,0.47-4.38,2.9-6.55l0.41-0.41l5.22,5.86l-0.49,0.44
			c-1.25,1.12-1.71,2.21-1.39,3.28c0.33,1.07,1.69,2.96,4.1,5.66c3.23,3.62,5.44,5.55,6.64,5.78c1.2,0.24,3.16-0.86,5.88-3.28
			c3.66-3.26,5.54-5.52,5.63-6.78c0.09-1.25-1.46-3.67-4.64-7.24c-2.58-2.9-4.45-4.61-5.59-5.14c-1.14-0.53-2.35-0.23-3.62,0.9
			L52.12,179.21z"/>
		<path class="st3" d="M40.9,140.16l4.45,17.21l5.4,1.25l2.07,8.01l-28.23-6.85l-2.94-11.37l21.32-19.88l2.03,7.86L40.9,140.16z
			 M37.88,142.81l-11.14,10.24l14.67,3.44L37.88,142.81z"/>
	</g>
	<path class="st4" d="M74.92,73.84c-0.07-0.06-0.13-0.15-0.17-0.23"/>
</g>
</svg>
