<svg xmlns="http://www.w3.org/2000/svg" xmlns:xlink="http://www.w3.org/1999/xlink" width="831" height="498" viewBox="0 0 831 498">
  <defs>
    <linearGradient id="video-bg-b" x1="1.052%" y1="57.596%" y2="50%">
      <stop offset="0%" stop-color="#BB1D17"/>
      <stop offset="41.518%" stop-color="#FAD001"/>
      <stop offset="43.688%" stop-color="#FAD002"/>
      <stop offset="100%" stop-color="#125B30"/>
    </linearGradient>
    <path id="video-bg-a" d="M328.753,10.68 C261.462,15.664 194.26,17.305 126.829,17.868 C122.065,17.908 117.444,17.349 112.844,16.789 C106.446,16.01 100.09,15.232 93.452,16.066 C82.463,17.448 71.506,19.061 60.529,20.014 C43.794,21.469 26.623,24.256 9.931,26.604 C13.396,27.546 16.909,28.325 20.474,28.802 L10.524,28.802 C13.136,32.812 11.564,40.019 11.547,44.527 C11.511,54.284 11.547,64.042 11.547,73.799 C11.547,94.103 11.699,114.125 9.812,134.266 C8.036,153.212 10.808,172.428 8.818,191.351 C6.769,210.84 9.315,229.95 9.315,249.724 C9.315,268.891 12.145,290.266 9.43,309.168 C8.241,317.45 6.682,323.866 7.588,332.461 C8.784,343.795 8.054,355.654 9.812,366.845 C12.766,385.643 11.883,402.995 8.818,421.901 C7.494,430.072 4.716,437.936 3.116,446.002 C2.205,450.596 0.028,458.598 0,464.777 L0,465.023 C0.009,466.889 0.221,468.578 0.733,469.945 C8.635,471.557 15.373,475.694 23.687,476.555 C36.275,477.854 49.746,479.013 62.38,479.189 C87.786,479.544 112.86,484.883 138.334,487.479 C168.665,490.569 199.097,485.738 229.376,485.72 C258.937,485.702 288.589,484.318 317.857,488.476 C333.841,490.748 349.563,495.455 365.551,497.737 C365.551,497.737 401.142,492.58 416.525,495 C452.059,500.593 489.166,489.328 524.641,486 C537.277,484.816 549.41,485.421 561.537,486.026 C573.826,486.638 586.105,487.251 598.891,486 C610.771,484.838 622.174,487.495 633.619,490.152 C644.156,492.598 654.728,495.043 665.741,494.509 C698.635,492.906 731.599,488.6 764.419,487.854 C777.01,487.569 789.356,486.158 801.996,485.72 C805.751,485.591 812.088,485.651 815.073,483.578 C824.531,477.012 819.411,454.397 819.472,443.921 C819.611,420.884 817.155,397.764 817.205,374.495 C817.237,359.859 821.324,346.268 821.641,331.559 C821.834,322.665 823.776,313.989 824.061,305.097 C824.445,293.055 822.619,280.902 824.773,268.96 C828.181,250.061 828.345,230.916 828.394,211.668 C828.449,191.689 830.686,171.893 830.633,151.841 C830.546,119.541 830.518,87.234 830.641,54.935 L830.641,54.683 C830.62,48.684 829.06,44.768 828.292,39.924 C827.372,34.11 829.137,28.065 827.613,22.218 C825.881,15.575 827.938,15.916 819.694,15.637 C800.906,14.998 781.501,19.493 762.831,21.652 C748.368,23.324 734.701,25.383 720.084,23.904 C708.943,22.776 697.786,20.735 686.641,20.065 C671.283,19.141 658.129,16.106 643.589,11.672 C627.123,6.653 608.368,8.802 591.204,6.232 C580.108,4.569 569.155,4.66 558.093,4.751 C553.602,4.786 549.091,4.824 544.546,4.743 C523.433,4.369 502.612,0.612 481.522,0.087 C479.172,0.028 476.818,0 474.463,0 C453.29,0 431.919,2.245 410.968,4.638 C383.606,7.762 356.192,8.648 328.753,10.68 Z"/>
    <filter id="video-bg-c" width="100%" height="100%" x="0%" y="0%" filterUnits="objectBoundingBox">
      <feGaussianBlur in="SourceGraphic"/>
    </filter>
  </defs>
  <g fill="none" fill-rule="evenodd">
    <use fill="url(#video-bg-b)" filter="url(#video-bg-c)" xlink:href="#video-bg-a"/>
  </g>
</svg>
