<svg version="1.1" id="Layer_1" xmlns="http://www.w3.org/2000/svg" xmlns:xlink="http://www.w3.org/1999/xlink" x="0px" y="0px"
	 viewBox="0 0 40.2 120.9" style="enable-background:new 0 0 40.2 120.9;" xml:space="preserve">
<style type="text/css">
	.st0{fill:#ed1d25;}
</style>
<path class="st0" d="M4.6,59c0-15.6-1.8-30.9-1.6-46.5c0.2-13,11-9.7,18.3-10.9c7.5-1.2,13,1.5,13.3,10c1.2,31.1,2.6,62.2,3.2,93.4
	c0.3,15-12.9,12.8-21.9,14.2c-9.4,1.5-11.5-5.5-11.5-13.3c0-15.6,0-21.6,0-37.2C3.9,68.8,5.1,59,4.6,59z M22,16.2
	c-2.1-0.1-4.3-0.2-6.4-0.2c-4.4,29.7,3.4,58.9,2.4,88.5c1.3,0,2.7-0.1,4-0.1C22,74.9,22,45.6,22,16.2z"/>
</svg>