<svg xmlns="http://www.w3.org/2000/svg" xmlns:xlink="http://www.w3.org/1999/xlink" width="481" height="491" viewBox="0 0 481 491">
  <defs>
    <polygon id="trojan-logo-a" points="0 .616 75.502 .616 75.502 77.21 0 77.21"/>
    <polygon id="trojan-logo-c" points=".674 .553 88.826 .553 88.826 71.549 .674 71.549"/>
  </defs>
  <g fill="none" fill-rule="evenodd">
    <path fill="#ED7924" d="M268 148.982319C269.358365 154.524162 292.248397 150.809479 307.144976 150.43801 315.476884 150.229059 319 144 319 144 317.916489 144 306.131881 146.21488 302.072688 146.493481 298.002138 146.767439 268 148.982319 268 148.982319M322.365393 172C322.365393 172 316.419439 174.021354 316.014189 173.822384 315.60436 173.618892 324.203899 182.115815 324.819788 190 324.819788 190 328.709728 179.888707 322.365393 172M282 166.724168C320.76496 175.268948 331 157 331 157 322.662863 167.13811 282 166.724168 282 166.724168M318.931164 216C319.871165 215.975528 320.813394 215.951057 321.744486 215.926585 327.607243 193.735261 311.034706 174 311.034706 174L302 175.323693C310.504563 182.224694 316.881871 193.897664 317.942157 207.955506 318.229504 211.777531 318.57922 214.315907 318.931164 216M289.896789 127L294 126.38003C294 126.38003 286.614679 113.854348 278 115.085102 278 115.085102 286.408257 120.015009 289.896789 127M226.557334 115.028471C235.177981 113.091334 236.659549 119.093212 236.659549 119.093212 242.51355 114.643208 246.689493 119.932999 246.689493 119.932999 251.807227 118.515318 254.63937 122 254.63937 122L258 118.515318C229.791488 106.513727 211.400623 114.796881 212.014931 114.643208 222.453662 112.058916 226.557334 115.028471 226.557334 115.028471M263.008072 115C264.87092 113.45381 271 112.681796 271 112.681796 244.095929 100.818303 214 106.233212 214 106.233212 253.153298 105.201698 263.008072 115 263.008072 115M261 133.602308C262.061647 133.860366 263.660808 134.469731 268.580962 133.344249 275.358997 131.791561 286 128.950748 286 128.950748 286 128.950748 283.939156 125.392143 275.958962 121.514759 268.734856 118.003862 261 133.602308 261 133.602308M262 140.968838C266.712691 146.616933 277.891211 142.873091 285.238128 141.63332 292.311683 140.435915 298.772994 140.968838 306.854151 140.233002 313.939002 139.593048 314 136.843699 314 136.843699 314 136.843699 310.841639 134.640653 306.248686 135.050937 301.809358 135.450072 295.406786 135.58163 285.439197 137.644199 276.016075 139.588589 262 140.968838 262 140.968838M304 208C304 208 304.051251 212.236811 305.264863 216 306.486675 215.948417 307.735137 215.892145 309 215.838218 308.934399 214.675264 308.702747 213.552169 308.155392 212.752638 306.445674 210.234467 304 208 304 208M240.453564 204.563468C244.740662 204.209179 249.120076 203.627445 253.434194 203.592453 260.941118 203.533405 268.504334 202.238718 276 201.617619 275.747818 200.244201 275.403319 198.765809 274.952993 197.213059 274.727831 196.438872 266.570186 198.015678 265.680793 198.120652 261.58058 198.617095 257.444342 198.663021 253.335122 199.004188 248.221677 199.428461 243.105981 199.852733 237.990284 200.277005 228.857685 201.033697 219.754357 201.740089 210.624009 202.544894 208.741649 202.708917 206.854785 202.855444 204.970174 203.012906 204.513093 203.050084 203.443571 203.347512 203 203.174742 203.896148 203.524657 204.837328 203.868011 205.825792 204.206992 208.498473 205.118959 210.660035 205.982812 212.441072 206.886031 213.154838 207.249068 215.480769 206.63453 216.250825 206.56892 219.682305 206.286801 223.113784 206.000308 226.543012 205.716002 231.181364 205.333282 235.815212 204.948375 240.453564 204.563468M209 118.423941C209 118.423941 196.540833 105.844652 186 119 186 119 195.80951 116.194426 209 118.423941M225.664517 196.067704C230.14235 195.680668 234.624698 195.293633 239.102531 194.904308 243.548767 194.519563 248.184588 193.750073 252.628567 193.750073 257.323069 193.750073 262.155247 192.909589 266.852007 192.501942 267.253748 192.46759 272.866839 191.663748 273 191.968337 272.298082 190.358363 271.463002 188.736938 270.485733 187.129253 270.185555 186.636871 263.82315 187.706371 263.229566 187.756754 257.248589 188.274328 251.267612 188.794191 245.288892 189.311765 228.625665 190.754559 211.973722 192.199642 195.324037 193.640146 194.222634 193.736332 193.128003 193.876031 192.028857 193.979088 191.074158 194.070694 189.898275 193.937865 189 194.235585 189.604869 196.01961 192.10108 197.771574 193.552313 198.847944 194.21812 199.340326 197.748025 198.486101 198.635015 198.408236 200.542157 198.243345 202.447042 198.078454 204.351926 197.913563 211.468161 197.297513 218.543769 196.683754 225.664517 196.067704M220.909375 185.539301C222.604023 185.447598 224.265092 185.045852 225.975411 184.91048 227.448434 184.792576 228.975184 184.823144 230.448207 184.655022 238.366266 183.753275 246.279847 183.069869 254.249395 182.406114 257.092464 182.170306 259.935533 181.934498 262.778601 181.696507 263.143499 181.665939 265.740318 181.155022 266 181.427948 264.518022 179.864629 262.818897 178.373362 260.884715 177 259.953442 177.078603 259.015453 177.157205 258.079703 177.233624 251.352599 177.79476 244.618779 178.353712 237.891675 178.914847 233.315901 179.296943 228.737888 179.676856 224.162115 180.056769 221.847364 180.251092 219.494557 180.336245 217.190999 180.637555 215.512022 180.858079 214.168839 181.377729 212.449566 181.441048 210.347486 181.515284 208.254361 181.663755 206.156758 181.825328 202.174223 182.133188 198.193926 182.5131 194.195721 182.600437 193.694266 182.611354 188.07081 182.604803 187.867094 183.078603 187.213412 184.622271 186.88881 186.286026 187.034321 188 187.014174 187.779476 207.226826 186.541485 208.737906 186.541485 212.856998 186.541485 216.767897 185.762009 220.909375 185.539301M243.100229 231.166797C241.583162 231.300705 240.066096 231.432263 238.549029 231.566171 235.427813 231.841034 232.42118 232.205168 229.272464 232.379013 228.960801 232.395458 226.174165 232.921691 226 232.665623 227.723314 235.16993 229.558919 237 230.757448 237 236.122181 237 242.114823 233.123727 245 231 244.663129 231.25137 243.501266 231.131558 243.100229 231.166797M194.375653 176.819088C195.901885 176.771706 197.428117 176.786782 198.95662 176.685558 202.183965 176.470186 205.397683 176.080364 208.620486 175.858531 223.085623 174.861361 237.528049 173.319302 252 172.147681 240.185328 167.973782 222.819896 167.312592 197.271406 174.109715 195.558937 174.656759 193.689757 175.658236 192 177 192.349762 176.724325 193.948671 176.83201 194.375653 176.819088M298.182018 175C296.348684 175.530456 294 175.796794 294 175.796794 300.015351 180.562022 304.199561 196.704316 304.462719 197.50111 304.721491 198.293465 311 202 311 202 310.473684 193.796794 298.182018 175 298.182018 175M329.024158 180C329.095858 179.603043 329.528298 178.389873 331.948171 175.767283 336.487672 170.713892 334.618993 163 334.618993 163 333.283582 168.321002 325 169.650138 325 169.650138 329.543983 172.221435 329.120505 178.936246 329.024158 180M329.589348 214.975414C330.430892 214.036692 331.481225 211.61166 332.446338 205.784876 334.480959 193.52561 336 179 336 179 336 179 328.074567 196.958652 328 215 328.541145 214.993295 329.069507 214.984355 329.589348 214.975414M171.082153 151.699314C171.082153 151.699314 171.051068 151.826612 171 152 171.994713 151.234019 173.275851 150.393416 175.036583 149.282853 178.879996 147.074897 184.4797 144.239232 186.970924 144.895473 186.970924 144.895473 187.768027 138.875171 192 136 192 136 177.170332 137.040329 171.082153 151.699314M341.243216 216C348.207021 208.281098 345.469735 193 345.469735 193 344.790682 200.286841 340.910714 210.998832 339 215.946272 339.798473 215.961943 340.547772 215.977613 341.243216 216M342.018473 189L335 210C335 210 346.338231 190.593949 342.018473 189M298.944639 217C299.920566 216.961616 300.927138 216.923232 301.966712 216.880333 302.115223 213.324183 301.841775 208.474272 299.588185 206.078669 295.797629 202.041592 292 198 292 198 292 198 294.904208 209.302911 298.944639 217M298.962999 272.708051C300.894882 267.666145 309.863215 247.728926 313 239.009499 312.916981 239.00724 312.838449 239.00724 312.750942 239.004981 312.006012 238.993687 311.193768 239.002723 310.359087 239.020794 306.470641 248.673154 293.340121 280.666223 283.023284 298.877627 270.78354 320.499999 261.220609 347.778703 260 364 260 364 267.597392 335.98037 273.323483 323.705405 279.054062 311.434957 296.777571 278.423116 298.962999 272.708051"/>
    <path fill="#ED7924" d="M268.104168 384C268.104168 384 271.971377 339.428204 283 321 283 321 266.545221 337.768472 268.104168 384M314 242C312.05881 253.969919 285 315 285 315 311.024843 271.546004 314 242 314 242M310.799386 290.91149C310.799386 290.91149 305.769891 306.141696 304 314 304 314 310.851777 306.309036 312.104595 304.885527 317.443879 298.789875 318.824257 285.101432 318.999652 280.11692 319.02243 279.456484 317.945006 281.402095 310.799386 290.91149M321.626091 240C319.581994 247.735713 312.372531 274.849094 310 282 310 282 323.631144 264.735767 325 240.040643 323.886082 240.024837 322.75379 240.01129 321.626091 240M282 350C282 350 282.703783 349.12287 283.922475 346.877058 286.121517 342.820616 289.988953 334.301861 294.396031 318.414316 301.220256 293.757731 305 287 305 287 305 287 284.691465 323.19456 282 350M326.241293 223.343152C324.099667 223.20904 303.350137 222.434958 295.183223 222.049093 287.020798 221.658523 281 223.726663 281 223.726663 281.536529 223.470205 281.933875 226.448892 314.731735 226.964163 347.529596 227.484139 349 222.173793 349 222.173793 347.25572 223.081987 328.382919 223.470205 326.241293 223.343152M324.960089 232.296163C315.399107 232.625714 292.400151 233.040864 285.804729 233.160701 284.662036 233.17996 284 233.19066 284 233.19066 284.498794 233.60581 285.101882 233.956761 285.779789 234.260633 291.123691 236.674493 301.029294 235.872013 301.029294 235.872013 301.029294 235.872013 325.633462 234.975376 336.051463 234.337671 337.221363 234.264913 338.259762 234.155776 339.1916 234.01668 346.569223 232.914607 347 230 347 230 346.054558 230.445109 343.34293 230.926597 339.461403 231.343886 335.595746 231.759036 330.571526 232.107847 324.960089 232.296163"/>
    <path fill="#ED7924" d="M323.373934 292.679207C323.159968 299.858753 319.884464 307.083383 315.828212 311.830674 311.774236 316.582474 304.205752 324.327818 302.243636 327.030574 301.298998 328.333487 299.161613 338.148163 299 344 299 344 300.374846 338.855974 307.790823 327.853347 316.253868 315.288578 326.817879 305.539273 326.72683 295.316591 326.633504 285.087147 328.003798 275.72556 328.176792 275.139474 328.349786 274.548881 332.044117 244.71488 330.710242 241 330.710242 241 323.635701 284.063752 323.373934 292.679207M338.247611 240.08272C337.830872 240.046949 337.382877 240.029064 336.953635 240 335.73884 249.374145 332.056948 280.566149 335.309598 291 335.309598 291 339.460323 250.914519 340 240.261573 339.535336 240.210153 339.079006 240.154261 338.599756 240.111783 338.485152 240.098369 338.368465 240.093898 338.247611 240.08272M193 149C200.882537 146.689128 202.35239 141.932233 206.356396 135.192375 209.439503 130.016732 226 120 226 120 204.156097 121.58637 193 149 193 149M251 128.315117C250.733632 126.680884 247.199217 125.044369 237.956911 133.516818 234.024063 137.123086 215 149.989249 215 149.989249 223.810297 150.263143 230.299384 145.271428 239.29099 138.725365 246.299384 133.62181 251 128.315117 251 128.315117M231.207184 123.233806C213.076713 135.068774 208 145 208 145 220.518172 137.043107 234.999401 122.902912 234.999401 122.902912 234.999401 122.902912 235.137836 120.66607 231.207184 123.233806M270.275897 294.773452C272.467274 288.847414 277 279 277 279 277 279 265.785701 294.915514 262.488562 307.468882 259.191424 320.029014 254.788525 332.544047 255.007886 339 255.007886 339 258.651974 335.793446 261.221638 325.213169 263.786825 314.630637 268.185247 300.437913 270.275897 294.773452M174 124C148.384529 135.266886 159.394262 155.675466 159.128661 154.982811 159.128661 154.982811 157.828372 149.668709 160.773077 139.856849 163.800927 129.768376 174 124 174 124M258.773962 142.875816C254.55235 142.075791 254.815647 137 254.815647 137 247.199929 144.050083 238 148.556669 238 148.556669 245.65112 150.694552 263 149.825056 263 149.825056 257.722984 149.558381 258.773962 142.875816 258.773962 142.875816"/>
    <path fill="#ED7924" d="M199 125.228577C164.21429 121.852086 162 157 162 157 168.905887 127.741521 193.76888 130.194527 193.76888 130.194527 195.178383 128.80042 199 125.228577 199 125.228577M290.467048 240C289.894041 241.257436 289.145225 242.91977 288.146803 245.189453 284.205209 254.139965 282 267 282 267 286.039266 260.382154 290.816496 246.748313 293 240.182204 292.194751 240.155211 291.341752 240.101225 290.467048 240M298 191C296.917413 185.668903 290.676617 175.534451 290.676617 175.534451 287.151386 176.068903 282 175 282 175 283.628429 178.2 298 191 298 191M288.188522 276.890091C290.429322 271.849946 301.366238 252.825587 302 240 301.302862 240.035857 300.610251 240.064991 299.91764 240.094125 297.430126 247.189321 290.956703 265.202962 286.597328 273.29543 281.106235 283.496736 272.745108 297.348728 271 309 271 309 285.766647 282.326902 288.188522 276.890091M326.884813 153C298.63236 162.968383 258 155.158988 258 155.158988 269.572179 159.467931 272.365386 163 272.365386 163 332.098949 161.116531 326.884813 153 326.884813 153"/>
    <g transform="translate(0 118)">
      <mask id="trojan-logo-b" fill="#fff">
        <use xlink:href="#trojan-logo-a"/>
      </mask>
      <polygon fill="#ED7924" points="22.682 52.133 67.866 68.755 75.502 48.138 30.321 31.514 39.942 5.548 26.548 .616 -.001 72.278 13.399 77.21" mask="url(#trojan-logo-b)"/>
    </g>
    <path fill="#ED7924" d="M70.2959614,84.966907 L87.8416804,68.3370672 C93.0122669,63.4376243 95.2378966,62.6681605 95.9549688,62.5627237 C96.6878256,62.4752337 98.360994,62.7489205 101.389384,65.9075357 C102.927256,67.5160067 104.672582,69.8356147 104.255418,71.7716125 C104.029923,72.8214931 102.866372,75.3250546 97.6146075,80.3030142 L80.9505716,96.0938469 L70.2959614,84.966907 Z M103.777369,119.933764 L90.3491781,105.910679 L107.058313,90.0704934 C115.676709,81.9092419 119.04785,85.429034 120.319638,86.7548447 L129.107155,95.9323268 L145,80.8638479 L134.699416,70.1048149 C131.828872,67.1054764 127.395652,64.7252983 121.122398,67.1054764 C122.101044,65.0730152 122.603897,63.2536708 122.644486,61.6250098 C122.734683,57.9683743 120.596996,53.9124253 116.107403,49.2238558 C111.108192,44.0036161 105.734661,42.0541582 100.12887,43.4248357 C94.899655,44.7102665 88.1911967,49.2821825 79.6201547,57.4052973 L45,90.2163101 L87.8800144,135 L103.777369,119.933764 Z"/>
    <g transform="translate(139)">
      <mask id="trojan-logo-d" fill="#fff">
        <use xlink:href="#trojan-logo-c"/>
      </mask>
      <path fill="#ED7924" d="M22.3648585,26.1639 C22.7552976,25.5114 25.1876878,23.06115 40.1388098,18.88965 L40.1388098,18.88965 C49.6664195,16.22565 54.3786146,15.6384 56.6831024,15.6384 C57.8746146,15.6384 58.4221268,15.7959 58.6554927,15.9039 C59.3017366,16.20765 61.6712976,18.13365 65.0147122,30.17565 C68.3558829,42.19515 67.2249561,45.26415 66.8008585,45.91665 C66.2286634,46.7964 63.4462244,49.24665 50.0321756,52.9929 C35.8731512,56.9484 32.0001756,56.4984 30.9859317,56.11815 C30.0906146,55.7829 27.714322,53.94465 24.9857366,44.11665 C21.0521756,29.98665 21.9878829,26.7984 22.3648585,26.1639 M17.9780293,70.54965 C19.9032976,71.21565 22.3177366,71.54865 25.2482732,71.54865 C31.6299317,71.54865 40.4439805,69.9624 51.8923707,66.7629 C70.402322,61.59465 81.3794927,56.6424 85.4499317,51.62265 C89.7021268,46.3779 89.9354927,37.22715 86.1634927,23.65515 C82.6989073,11.1834 77.9395902,3.98565 71.6162732,1.65015 C65.5532488,-0.59085 54.4751024,0.5904 37.7535415,5.26365 C19.0124683,10.4994 7.94778537,15.52365 3.92446829,20.63115 C-0.267141463,25.9479 -0.404019512,35.37765 3.50710244,49.4604 C6.83480976,61.4304 11.5672,68.3289 17.9780293,70.54965" mask="url(#trojan-logo-d)"/>
    </g>
    <path fill="#ED7924" d="M268.634395 62.3292803C275.191058 63.4430934 280.612259 64 284.970525 64 288.907242 64 291.975933 63.5449666 294.22419 62.6348998 299.269172 60.5974367 302.525972 55.447183 303.906203 47.3335524L311 5.69459963 289.242668 2 282.377776 42.296491C281.509749 47.428634 280.19751 48.5718772 279.816757 48.7982619 279.395209 49.0518129 277.520905 49.7875634 271.161418 48.707708 264.393981 47.5576733 260.464063 45.6650966 260.652174 43.6072589 260.751895 42.2444225 260.885612 41.0762771 261.048792 40.1299887 261.243701 38.9641071 261.386484 37.2911235 261.486205 35.0182203L261.572327 33.0713112 240.982186 29.5736663 239.58609 35.9282871C238.122003 44.5173257 239.404779 50.6410341 243.391357 54.1318874 247.128632 57.3963559 255.38282 60.0767517 268.634395 62.3292803M347.58407 65.2909663L370.618303 53.141391 367.530778 79.2601523 347.58407 65.2909663zM324.256107 77.7230897L335.249668 71.8890332 365.678712 93.2022136 364.203337 105.704409 383.185895 119 391 48.5867131 367.317768 32 305 64.2398867 324.256107 77.7230897zM394.455115 140.473409L426.393195 125.280742 433.249958 121.867847 434.025855 121.444891 432.243999 124.673305C429.826088 129.006354 428.220162 132.036788 427.336 133.942339L409.666303 172.296344 423.871531 202 480 175.299781 470.549396 155.526591 438.494029 170.777752 431.754553 174.134403 430.843325 174.631601 433.437166 169.684366C435.575394 165.556046 437.384316 161.929424 438.814312 158.901239L455.335953 123.714905 441.13298 94 385 120.702468 394.455115 140.473409zM440.830187 292.424398C435.721087 291.418733 434.612188 290.074079 434.39449 289.689893 434.154116 289.260507 433.464739 287.364433 434.716502 281.027611 436.056705 274.284003 438.050002 270.374338 440.115865 270.634229 441.476478 270.772084 442.642069 270.934798 443.585427 271.120112 444.746483 271.348364 446.415501 271.535938 448.694527 271.691872L450.64247 271.827468 454.710701 251.323194 448.37705 249.761587C439.800657 248.071166 433.632547 249.198867 430.035995 253.104012 426.663944 256.762826 423.754501 264.955044 421.139858 278.14395 418.672614 290.578042 418.341532 298.951054 420.133005 303.737569 422.035595 308.838213 427.103876 312.232616 435.199519 313.825861L476.709536 322 481 300.334126 440.830187 292.424398zM416.498503 354.847922L427.883234 378.363262 402.001497 374.56567 416.498503 354.847922zM404.842066 331.021748L410.305389 342.245592 388.18488 372.333515 375.798653 370.515806 362 389.274019 431.79491 399 449 375.601786 418.829341 312 404.842066 331.021748zM342.834585 400.008381L355.093409 431.392576C355.867485 433.378889 356.869495 435.642519 358.137805 438.287178 355.152086 435.69212 352.859198 433.820793 351.144046 432.567228L319.176769 409.231997 301.937233 415.955249 294.525971 454.960032C294.18294 456.919289 293.788004 459.854794 293.343418 463.716944 292.492613 461.029447 291.63955 458.592211 290.804542 456.457094L278.545717 425.075154 258 433.085789 280.626468 491 311.181001 479.086632 316.859057 446.967433C317.305899 444.627146 317.707606 441.52931 318.050636 437.786655L318.58098 432.501845 322.622871 436.084423C325.698861 438.706536 328.050425 440.634229 329.831024 441.989251L356.027716 461.602118 386 449.91872 363.380303 392 342.834585 400.008381zM217.620864 446.872748L201.542713 467.281844 193.638183 442.446005 217.620864 446.872748zM226.200363 435.849509L189.601827 429.096433 185.816623 417.212004 163 413 184.773897 479.745619 213.232448 485 257 430.346837 233.862711 426.076675 226.200363 435.849509z"/>
    <polygon fill="#ED7924" points="144.743 396 114 450.144 133.254 461 164 406.856"/>
    <path fill="#ED7924" d="M107.026537 362.592528C95.9019796 350.132762 87.9241733 343.051963 82.6335567 340.947838 76.8856424 338.660648 70.5944041 340.518425 63.9183115 346.460149L60.7851435 349.258115 75.6269419 365.880929 79.0453549 362.497605C81.936291 359.921125 83.7360515 360.298557 84.8362824 360.813853 86.4187133 361.546115 89.7760024 364.063833 96.7758255 371.901756 106.236453 382.501484 106.791096 385.859947 106.7345 386.639672 106.677904 387.423916 105.645589 390.743959 94.7338331 400.459999 86.934871 407.400674 84.0326158 407.486556 83.3262947 407.353212 82.3188816 407.154326 78.9615925 405.551937 69.5168117 394.974809 62.6799857 387.324473 61.0522778 384.194276 60.6900618 383.007739 60.5202731 382.444982 59.9973238 380.731849 63.187088 377.893201L65.9535123 375.434245 51.1026585 358.804651 48.5943131 361.292988C42.4773913 366.732976 40.0369613 372.432872 41.3409387 378.225431 42.5588899 383.624738 47.6185939 391.247954 56.8075597 401.535792 69.3153291 415.548226 78.5450442 423.535313 85.0219181 425.960368 86.8760109 426.654209 88.7708531 427 90.7019169 427 95.9268819 427 101.421245 424.459681 107.09898 419.406165 119.851245 408.053834 126.033819 399.445228 125.999861 393.080871 125.972695 386.824997 119.765219 376.853569 107.026537 362.592528M42.9468753 284.428513L49.1003004 308.1579 23.5574824 302.19119 42.9468753 284.428513zM75.0613344 314.108836L62.8494304 311.285465 53.4542669 275.077363 62.7341384 266.57345 56.879116 244 5 292.220386 12.3018234 320.37974 81 337 75.0613344 314.108836zM347.672083 232.050386C347.672083 232.050386 349.261425 238.466283 345.256554 240.292 345.245298 241.230747 345.231791 242.374353 345.207028 243.686798 343.520885 258.994904 340.243149 293.012668 343.180955 303.320877 343.180955 303.320877 348.790926 320.758611 345.207028 334.614698 344.182735 338.570043 339.072529 336.62051 339.63983 333.086139 339.88521 331.557579 342.744224 321.136811 339.182838 311.695311 335.628205 302.249309 335.234247 294.912674 335.364816 297.357469 335.495385 299.806766 333.687678 302.181774 333.687678 302.181774 333.687678 302.181774 329.610769 307.809754 329.360887 314.905511 329.120009 322.001269 324.883265 332.061846 324.640137 332.939811 324.392506 333.820027 324.057078 334.434603 321.979228 341.28498 319.98242 347.867466 318.048646 348.916522 318.048646 348.916522 316.702433 349.55586 314.67636 348.882754 312.8619 347.957514 318.197225 339.267912 325.223195 313.50527 325.223195 313.50527 323.771177 318.94415 310.228005 343.124204 308.911057 345.472198 308.809754 345.393406 308.737716 345.337126 308.737716 345.337126 306.779179 350.595911 304.660807 352.002906 304.660807 352.002906 301.238995 352.477908 298.618607 348.907517 298.618607 348.907517L297.387205 378.384626C291.892045 381.306674 289.663365 377.009148 289.663365 377.009148 290.248675 372.592309 288.418456 356.993799 288.418456 356.993799 284.908847 358.425557 281.975544 355.883961 281.975544 355.883961 277.909891 367.504615 278.101242 387.04046 278.101242 387.04046 275.602419 390.507296 268.812824 387.164276 268.812824 387.164276L268.601212 393.152447C265.258191 396.364898 260.418128 392.64818 260.418128 392.64818L260.064691 384.201707C256.181385 384.068886 255.451998 380.271125 255.451998 380.271125L257.426294 366.797741C254.418701 366.471318 254.333156 362.696069 254.333156 362.696069 255.789677 358.085627 255.825696 344.55146 255.825696 344.55146 254.517754 351.16096 245.888934 369.731044 245.888934 369.731044 243.25504 370.966948 240.524344 368.875591 240.373514 366.874281 240.231689 364.875223 244.191536 356.352209 244.927675 353.718314 245.67282 351.079917 248.453042 345.406913 250.918098 330.395964 255.43624 302.827866 269.657021 281.333483 271.228353 279.60907 272.799685 277.884657 275.228721 276.194012 276.955385 263.825962 278.011195 256.221435 281.946278 245.708368 284.812046 238.727422 284.710742 238.666639 284.577922 238.621616 284.481121 238.556331 283.249719 237.694124 282.727442 236.449215 283.240714 234.668522 283.240714 234.668522 276.392587 232.255244 280.825185 225.404867 280.825185 225.404867 277.601478 225.605223 277.799583 220.976772 278.00219 216.34607 282.83775 217.352352 285.052923 217.149745 285.052923 217.149745 285.172237 217.147494 285.397356 217.133987 284.622946 209.970694 279.98549 174.960154 262.367661 164.62268 244.713812 154.262694 240.130385 154.532837 238.808935 154.532837 237.494239 154.532837 226.582711 156.73 219.4802 156.99339 212.375437 157.256779 208.163457 156.99339 206.317479 155.944334 204.478256 154.886274 196.058797 158.310337 187.11256 158.310337 187.11256 158.310337 180.007797 162.256677 177.902933 162.256677 177.902933 162.256677 170.809426 164.852301 167.470908 157.42787 166.617707 158.231545 162.745656 161.48902 160.471952 156.531895 160.471952 156.531895 152.381168 157.123959 152.775126 145.678898 152.775126 145.678898 153.565295 121.012586 184.350347 107.784581 215.135399 94.5655813 255.400221 101.469988 261.122751 102.656366 266.843031 103.838242 291.31574 109.761128 297.432229 123.772548 297.432229 123.772548 300.592903 124.952172 301.38082 126.143053 301.38082 126.143053 315.000532 124.166506 315.389988 135.021755 315.389988 135.021755 320.71856 137.588114 319.338579 142.918937 319.338579 142.918937 328.210527 140.872603 328.879131 148.490637 328.883634 148.562675 334.455334 149.226777 334.351779 155.37028 334.347277 155.512105 337.809611 158.290076 338.71459 161.410229 340.137343 166.308823 337.708307 170.469026 337.708307 170.469026 337.708307 170.469026 347.757628 177.850685 345.785584 185.545259 345.785584 185.545259 353.716534 193.052985 349.286188 203.930745 349.286188 203.930745 351.427072 210.470458 349.718417 213.266439 350.837259 213.993574 355.46571 217.507685 350.29022 223.392301 350.29022 223.392301 352.100178 228.82893 347.672083 232.050386L347.672083 232.050386zM341.56685 354.870925L340.204879 354.870925 340.204879 347.995784 337.496695 354.870925 336.972167 354.870925 336.936148 354.783128 334.167182 347.973272 334.167182 354.870925 332.893007 354.870925 332.893007 345.710824 334.630927 345.710824 337.278329 352.378855 339.840186 345.710824 341.56685 345.710824 341.56685 354.870925zM331.076295 346.87469L328.491926 346.87469 328.491926 354.870925 327.132206 354.870925 327.132206 346.87469 324.550089 346.87469 324.550089 345.710824 331.076295 345.710824 331.076295 346.87469zM180.521069 311.481448C168.288091 310.999693 164.54661 303.561754 164.54661 299.536623 164.54661 295.504738 165.109408 291.344535 158.506661 290.673679 154.357714 290.252707 155.956061 279.53253 155.956061 279.53253 153.27264 277.922927 153.135317 273.087367 153.135317 273.087367L155.956061 267.450382C147.633404 264.228926 147.795489 261.239343 148.169187 258.324049 148.558644 255.28494 154.882242 243.826372 157.027628 238.457279 159.179768 233.081432 157.835806 231.744224 155.688169 228.79066 153.540532 225.837096 146.854491 218.315863 147.901295 199.261773 148.842294 182.067167 167.504676 157.589956 167.504676 157.589956 165.424575 162.290445 172.835499 169.120562 182.29726 168.114279 182.718233 168.069255 183.103186 168.053497 183.497145 168.035487 193.789595 165.381331 236.708573 155.649428 260.539693 171.196161 261.672042 171.932301 262.752614 172.733725 263.799419 173.586927 266.365778 175.698545 268.628226 178.18161 270.516976 181.078894 270.973968 181.783517 271.415202 182.508401 271.824919 183.260299 274.861777 188.804985 276.628963 195.718396 276.649223 204.313448 276.651475 205.303972 276.631214 206.310255 276.588441 207.343552L276.354317 207.363813C275.62268 207.426846 274.893293 207.487629 274.166158 207.550662 267.889835 208.084195 261.694554 208.917136 255.456501 209.563228 251.926632 209.930172 248.306715 209.738821 244.817367 210.207069 242.372572 210.535743 240.004318 210.477212 237.593291 210.844156 235.112478 211.222356 232.631664 211.638827 230.114831 211.638827 227.570984 211.638827 225.002374 211.90897 222.472034 211.958496 222.091583 211.967501 218.458159 212.631603 218.257802 212.320938 219.047971 213.545587 219.662546 214.93007 220.200581 216.550928 224.54088 216.168225 228.876676 215.785523 233.212472 215.40282 237.336656 215.040378 241.454086 214.675685 245.573767 214.313243 252.117983 213.734687 258.637435 213.158382 265.174897 212.582076 265.78497 212.528048 275.307513 212.012525 275.348034 211.683851L274.634406 217.512187C274.605141 217.748562 268.029409 218.210057 267.516137 218.252829 263.898471 218.558991 260.370853 218.743589 256.737429 218.901173 255.310173 218.964206 253.954956 219.515748 252.48943 219.626057 250.551153 219.772384 248.603872 219.770133 246.667847 219.938972 243.421628 220.222622 240.175409 220.769662 236.931441 221.107341 235.799091 221.226654 221.762909 222.494075 221.688619 222.156396 221.798928 222.651659 221.913738 223.155926 222.0308 223.687207 222.264924 224.747519 222.67239 225.911385 223.178908 227.086507 223.383767 227.561509 229.918978 226.629515 230.551563 226.552975 232.143155 226.361623 233.894583 226.498946 235.477171 226.424657 237.170067 226.348116 238.426233 226.104987 240.049342 225.906883 243.826842 225.443137 247.57958 225.001903 251.393099 224.677732 255.933754 221.485541 261.034955 221.496797 264.920512 223.52287 266.318503 224.254508 267.565663 225.24053 268.565192 226.433661 269.191024 227.183308 269.699793 227.977979 270.12752 228.808669 274.674928 237.748153 268.148722 250.764546 266.595399 253.488488 263.373943 259.125473 258.540634 264.762458 251.667745 267.517917 251.541678 267.562941 251.422365 267.605714 251.309805 267.648487 247.3342 268.960932 245.528744 264.773714 244.35137 262.070033 244.155516 261.617543 243.975421 261.207826 243.808833 260.87465 242.602194 258.456869 241.996623 263.290179 241.996623 263.290179 219.210057 318.325072 190.748235 311.88216 180.521069 311.481448L180.521069 311.481448zM241.998874 76C150.87512 76 77 149.870618 77 240.998874 77 332.12488 150.87512 406 241.998874 406 333.12488 406 407 332.12488 407 240.998874 407 149.870618 333.12488 76 241.998874 76L241.998874 76z"/>
  </g>
</svg>
